<svg width="200" height="200" viewBox="0 0 200 200" fill="none" xmlns="http://www.w3.org/2000/svg">
<path d="M35.4167 0H164.583C184.167 0 200 16.2393 200 36.3248V163.675C200 183.761 184.167 200 164.583 200H35.4167C15.8333 200 0 183.761 0 163.675V36.3248C0 16.2393 15.8333 0 35.4167 0Z" fill="#330000"/>
<path d="M96.9167 120H65.9167L59.5833 140.085C59.4167 140.855 58.75 141.368 58 141.282H42.3333C41.4167 141.282 41.1667 140.769 41.4167 139.744L68.25 60.5128C68.5 59.6581 68.75 58.7179 69.0833 57.6923C69.4167 55.8974 69.5833 54.0171 69.5833 52.1367C69.5 51.7094 69.8333 51.282 70.25 51.1966C70.3333 51.1966 70.4167 51.1966 70.5 51.1966H91.8333C92.5 51.1966 92.8333 51.453 92.9167 51.8803L123.333 139.915C123.583 140.855 123.333 141.282 122.5 141.282H105.083C104.5 141.368 103.917 140.94 103.75 140.342L96.9167 120ZM70.75 102.65H91.9167C91.4167 100.855 90.75 98.7179 90 96.4957C89.25 94.188 88.5 91.7094 87.75 89.1453C86.9167 86.4957 86.1667 83.9316 85.3333 81.282C84.5 78.6325 83.75 76.1538 83.0833 73.6752C82.4167 71.282 81.8333 69.0598 81.25 67.0085H81.0833C80.3333 70.6838 79.4167 74.359 78.25 78.0342C77 82.1368 75.75 86.4103 74.4167 90.6838C73.25 95.0427 72 99.0598 70.75 102.65Z" fill="#FF9A00"/>
<path d="M141.5 65.812C138.75 65.8974 136.083 64.7863 134.083 62.8205C132.167 60.6838 131.167 57.8633 131.25 54.9573C131.167 52.0513 132.25 49.3162 134.25 47.3504C136.25 45.3846 138.917 44.359 141.667 44.359C144.917 44.359 147.417 45.3846 149.25 47.3504C151.083 49.4017 152.083 52.1368 152 54.9573C152.083 57.8633 151.083 60.6838 149.083 62.8205C147.167 64.8718 144.333 65.9829 141.5 65.812ZM132.167 140V74.188C132.167 73.3333 132.5 72.9915 133.25 72.9915H149.75C150.5 72.9915 150.833 73.4188 150.833 74.188V140C150.833 140.94 150.5 141.368 149.75 141.368H133.417C132.583 141.368 132.167 140.855 132.167 140Z" fill="#FF9A00"/>
</svg>
