<svg width="336" height="342" viewBox="0 0 336 342" fill="none" xmlns="http://www.w3.org/2000/svg">
<rect width="336" height="342" fill="white"/>
<ellipse cx="175.5" cy="175.5" rx="152.5" ry="143.5" fill="#F8F495"/>
<g clip-path="url(#clip0_91_6)">
<path d="M113.767 61.5V63.6593C113.767 65.6556 113.767 67.6519 113.767 69.6482C113.767 71.6444 113.767 75.7111 113.767 78.7407V179.781C113.767 179.978 113.767 180.17 113.767 180.367C113.8 183.637 115.722 186.748 118.733 188.1C120.693 188.978 122.663 188.885 124.733 188.885H133.111C137.189 188.885 141.267 188.885 145.344 188.885C150.03 188.885 154.718 188.885 159.404 188.885H191.73C193.159 188.885 193.163 186.663 191.73 186.663H179.1C174.878 186.663 170.656 186.663 166.433 186.663C161.737 186.663 157.044 186.663 152.348 186.663C147.904 186.663 143.459 186.663 139.011 186.663H122.722C121.656 186.663 120.607 186.548 119.626 186.074C117.415 185.007 116.007 182.8 115.985 180.348C115.978 179.507 115.985 178.663 115.985 177.822V123.711C115.985 119 115.985 114.289 115.985 109.578C115.985 104.867 115.985 100.581 115.985 96.0815C115.985 91.9926 115.985 87.9074 115.985 83.8185C115.985 80.4037 115.985 76.9889 115.985 73.5741V61.5C115.985 60.0704 113.763 60.0667 113.763 61.5H113.767Z" fill="#0000FF"/>
<path d="M152.193 123.456V138.785C152.193 144.311 152.193 149.837 152.193 155.363V197.667C152.193 205.145 152.193 212.626 152.193 220.104C152.193 227.582 152.193 233.956 152.193 240.882V271.17C152.193 273.167 152.156 275.163 152.193 277.159C152.193 277.248 152.193 277.333 152.193 277.422C152.193 278.852 154.415 278.856 154.415 277.422V203.207C154.415 195.73 154.415 188.248 154.415 180.77C154.415 173.293 154.415 166.919 154.415 159.993V129.704C154.415 127.707 154.452 125.711 154.415 123.715C154.415 123.626 154.415 123.541 154.415 123.452C154.415 122.022 152.193 122.019 152.193 123.452V123.456Z" fill="#0000FF"/>
<path d="M190.619 123.456V271.174C190.619 273.17 190.581 275.167 190.619 277.163C190.619 277.252 190.619 277.337 190.619 277.426C190.619 278.856 192.841 278.859 192.841 277.426V129.707C192.841 127.711 192.878 125.715 192.841 123.719C192.841 123.63 192.841 123.544 192.841 123.456C192.841 122.026 190.619 122.022 190.619 123.456Z" fill="#0000FF"/>
<path d="M226.207 80.3815C222.689 72.6223 216.544 65.9001 208.656 62.4815C202.204 59.6852 194.456 59.1149 188.293 62.9704C182.13 66.826 178.633 74.3001 177.533 81.4334C176.411 88.7038 177.13 96.9926 181.248 103.285C185.752 110.163 193.763 112.319 201.178 114.6C205.752 116.007 210.281 117.552 214.544 119.752C218.867 121.982 222.859 124.8 226.393 128.145C237.193 138.367 243.059 152.596 246 166.937C248.293 178.119 248.952 189.667 248.348 201.052C247.993 207.719 247.067 214.048 245.607 220.585C242.485 234.567 236.774 248.159 227.7 259.344C216.789 272.793 201.504 281.748 184.863 286.159C167.411 290.785 147.981 290.282 132.178 280.8C117.515 272.007 108.307 256.782 104.552 240.374C104.067 238.259 103.674 236.126 103.363 233.978C103.159 232.567 101.018 233.167 101.218 234.57C103.226 248.515 108.904 262.196 118.563 272.585C125.07 279.585 133.285 284.852 142.337 287.907C150.911 290.804 160.104 291.689 169.107 291.052C186.211 289.841 203.422 283.548 216.978 272.985C229.774 263.015 238.774 249.078 244.13 233.874C247.222 225.089 249.133 215.893 250.141 206.641C251.052 198.263 250.974 189.715 250.27 181.326C249.089 167.23 245.874 152.941 238.818 140.556C235.044 133.933 230.122 127.941 224.1 123.245C219.978 120.026 215.437 117.489 210.6 115.511C206.344 113.774 201.918 112.541 197.544 111.148C193.944 110.004 190.3 108.715 187.23 106.452C184.133 104.167 182.037 100.87 180.83 97.2519C178.478 90.2038 178.822 82.1038 181.478 75.1889C184.004 68.6112 189.278 63.1519 196.574 62.5038C204.167 61.8297 211.611 65.5297 216.915 70.7593C220.044 73.8445 222.493 77.5075 224.304 81.5001C224.893 82.8001 226.811 81.6704 226.222 80.3778L226.207 80.3815Z" fill="#0000FF"/>
</g>
<defs>
<clipPath id="clip0_91_6">
<rect width="150" height="231.481" fill="white" transform="translate(101 60)"/>
</clipPath>
</defs>
</svg>
