<svg width="35" height="35" viewBox="0 0 35 35" fill="none" xmlns="http://www.w3.org/2000/svg">
<path d="M24.7917 2.91666H10.2084C6.18128 2.91666 2.91669 6.18125 2.91669 10.2083V24.7917C2.91669 28.8187 6.18128 32.0833 10.2084 32.0833H24.7917C28.8188 32.0833 32.0834 28.8187 32.0834 24.7917V10.2083C32.0834 6.18125 28.8188 2.91666 24.7917 2.91666Z" stroke="#1F47BF" stroke-width="2" stroke-linecap="round" stroke-linejoin="round"/>
<path d="M23.3333 16.5813C23.5133 17.795 23.306 19.0345 22.7409 20.1236C22.1758 21.2127 21.2817 22.0958 20.1857 22.6475C19.0897 23.1991 17.8477 23.3911 16.6363 23.1962C15.425 23.0012 14.3059 22.4293 13.4383 21.5617C12.5707 20.6941 11.9988 19.575 11.8038 18.3637C11.6089 17.1523 11.8009 15.9103 12.3525 14.8143C12.9042 13.7183 13.7873 12.8242 14.8764 12.2591C15.9655 11.694 17.205 11.4867 18.4187 11.6667C19.6567 11.8503 20.8029 12.4271 21.6879 13.3121C22.5728 14.1971 23.1497 15.3433 23.3333 16.5813Z" stroke="#1F47BF" stroke-width="2" stroke-linecap="round" stroke-linejoin="round"/>
<path d="M25.5208 9.47916H25.5354" stroke="#1F47BF" stroke-width="2" stroke-linecap="round" stroke-linejoin="round"/>
</svg>
