<svg width="35" height="35" viewBox="0 0 35 35" fill="none" xmlns="http://www.w3.org/2000/svg">
<path d="M23.3333 11.6667C25.654 11.6667 27.8796 12.5886 29.5205 14.2295C31.1614 15.8704 32.0833 18.096 32.0833 20.4167V30.625H26.25V20.4167C26.25 19.6431 25.9427 18.9013 25.3957 18.3543C24.8487 17.8073 24.1069 17.5 23.3333 17.5C22.5598 17.5 21.8179 17.8073 21.2709 18.3543C20.7239 18.9013 20.4166 19.6431 20.4166 20.4167V30.625H14.5833V20.4167C14.5833 18.096 15.5052 15.8704 17.1461 14.2295C18.7871 12.5886 21.0127 11.6667 23.3333 11.6667Z" stroke="#1F47BF" stroke-width="2" stroke-linecap="round" stroke-linejoin="round"/>
<path d="M8.75002 13.125H2.91669V30.625H8.75002V13.125Z" stroke="#1F47BF" stroke-width="2" stroke-linecap="round" stroke-linejoin="round"/>
<path d="M5.83335 8.75002C7.44418 8.75002 8.75002 7.44418 8.75002 5.83335C8.75002 4.22252 7.44418 2.91669 5.83335 2.91669C4.22252 2.91669 2.91669 4.22252 2.91669 5.83335C2.91669 7.44418 4.22252 8.75002 5.83335 8.75002Z" stroke="#1F47BF" stroke-width="2" stroke-linecap="round" stroke-linejoin="round"/>
</svg>
