<svg width="91" height="140" viewBox="0 0 91 140" fill="none" xmlns="http://www.w3.org/2000/svg">
<g clip-path="url(#clip0_6_63)">
<path d="M7.7213 0.907194V2.21311C7.7213 3.42047 7.7213 4.62783 7.7213 5.83519C7.7213 7.04255 7.7213 9.50207 7.7213 11.3344V72.4438C7.7213 72.5626 7.7213 72.679 7.7213 72.7978C7.74146 74.7757 8.90402 76.6573 10.7251 77.4749C11.9101 78.0058 13.1018 77.9498 14.3539 77.9498H19.4208C21.8871 77.9498 24.3533 77.9498 26.8195 77.9498C29.6531 77.9498 32.489 77.9498 35.3226 77.9498H54.8733C55.7379 77.9498 55.7402 76.6058 54.8733 76.6058H47.2349C44.6813 76.6058 42.1277 76.6058 39.5741 76.6058C36.7338 76.6058 33.8957 76.6058 31.0554 76.6058C28.3674 76.6058 25.6794 76.6058 22.9891 76.6058H13.1376C12.4925 76.6058 11.8586 76.5363 11.265 76.2496C9.9277 75.6045 9.0765 74.2694 9.06306 72.7866C9.05858 72.2781 9.06306 71.7673 9.06306 71.2589V38.5325C9.06306 35.6832 9.06306 32.8339 9.06306 29.9846C9.06306 27.1354 9.06306 24.5437 9.06306 21.8221C9.06306 19.3491 9.06306 16.8784 9.06306 14.4054C9.06306 12.3402 9.06306 10.2749 9.06306 8.20959V0.907194C9.06306 0.0425538 7.71906 0.0403138 7.71906 0.907194H7.7213Z" fill="#0000FF"/>
<path d="M30.9612 38.3779V47.6493C30.9612 50.9913 30.9612 54.3334 30.9612 57.6755V83.2608C30.9612 87.7834 30.9612 92.3081 30.9612 96.8307C30.9612 101.353 30.9612 105.208 30.9612 109.397V127.716C30.9612 128.923 30.9388 130.131 30.9612 131.338C30.9612 131.392 30.9612 131.443 30.9612 131.497C30.9612 132.362 32.3052 132.364 32.3052 131.497V86.6118C32.3052 82.0893 32.3052 77.5645 32.3052 73.0419C32.3052 68.5193 32.3052 64.6643 32.3052 60.4755V42.1568C32.3052 40.9494 32.3276 39.7421 32.3052 38.5347C32.3052 38.4809 32.3052 38.4294 32.3052 38.3757C32.3052 37.511 30.9612 37.5088 30.9612 38.3757V38.3779Z" fill="#0000FF"/>
<path d="M54.2013 38.3779V127.718C54.2013 128.925 54.1789 130.133 54.2013 131.34C54.2013 131.394 54.2013 131.445 54.2013 131.499C54.2013 132.364 55.5453 132.366 55.5453 131.499V42.159C55.5453 40.9517 55.5677 39.7443 55.5453 38.537C55.5453 38.4832 55.5453 38.4317 55.5453 38.3779C55.5453 37.5133 54.2013 37.511 54.2013 38.3779Z" fill="#0000FF"/>
<path d="M75.7255 12.3267C73.5975 7.63393 69.8813 3.56833 65.1101 1.50081C61.208 -0.19039 56.5219 -0.53535 52.7946 1.79649C49.0672 4.12833 46.9527 8.64865 46.2874 12.9629C45.6087 17.36 46.0432 22.3731 48.5341 26.1789C51.2579 30.3386 56.1031 31.6423 60.5875 33.0221C63.3539 33.8733 66.0935 34.8074 68.6717 36.1379C71.2858 37.4864 73.7005 39.1911 75.8375 41.2138C82.3693 47.3962 85.9175 56.0023 87.696 64.6755C89.0826 71.4381 89.4813 78.4224 89.1162 85.3082C88.9011 89.3402 88.3411 93.1683 87.4586 97.1219C85.5703 105.578 82.1162 113.799 76.6282 120.564C70.0291 128.697 60.7847 134.113 50.7203 136.781C40.1655 139.579 28.4144 139.274 18.8563 133.54C9.98817 128.222 4.41953 119.013 2.14817 109.09C1.85473 107.811 1.61729 106.521 1.42913 105.222C1.30593 104.368 0.0112125 104.731 0.132172 105.58C1.34625 114.014 4.78017 122.288 10.6221 128.572C14.5578 132.805 19.5261 135.99 25.0007 137.838C30.1863 139.59 35.7459 140.125 41.1914 139.74C51.5357 139.008 61.945 135.202 70.1434 128.813C77.8826 122.783 83.3258 114.354 86.5648 105.159C88.4352 99.8458 89.591 94.2839 90.2003 88.6883C90.7514 83.6215 90.7043 78.4515 90.2787 73.3779C89.5642 64.8525 87.6199 56.2106 83.3527 48.72C81.0701 44.7149 78.0931 41.0906 74.4509 38.2503C71.9578 36.3037 69.2115 34.7693 66.2861 33.5731C63.7123 32.5226 61.0355 31.7767 58.3901 30.9344C56.2128 30.2423 54.0087 29.4627 52.1517 28.0941C50.2791 26.712 49.0112 24.7184 48.281 22.5299C46.8586 18.2672 47.0669 13.3683 48.673 9.18625C50.2007 5.20801 53.3904 1.90625 57.8032 1.51425C62.3952 1.10657 66.8976 3.34433 70.1053 6.50721C71.9981 8.37313 73.4787 10.5885 74.5741 13.0032C74.9303 13.7895 76.0906 13.1063 75.7344 12.3245L75.7255 12.3267Z" fill="#0000FF"/>
</g>
<defs>
<clipPath id="clip0_6_63">
<rect width="90.72" height="140" fill="white"/>
</clipPath>
</defs>
</svg>
