<svg width="300" height="300" viewBox="0 0 300 300" fill="none" xmlns="http://www.w3.org/2000/svg">
<rect width="300" height="300" fill="#B74636"/>
<path d="M48.9918 126.116C49.3585 126.116 49.6738 126.182 49.9378 126.314C50.2018 126.446 50.4071 126.637 50.5538 126.886C50.7151 127.091 50.8325 127.363 50.9058 127.7C50.9938 128.037 51.0378 128.375 51.0378 128.712C51.0378 129.445 50.8471 130.127 50.4658 130.758C50.0991 131.374 49.5198 131.865 48.7278 132.232L48.5298 131.836C48.9405 131.66 49.3071 131.389 49.6298 131.022C49.9525 130.655 50.1431 130.281 50.2018 129.9C50.2751 129.577 50.2751 129.269 50.2018 128.976C49.8791 129.328 49.4538 129.504 48.9258 129.504C48.4125 129.504 47.9945 129.357 47.6718 129.064C47.3491 128.756 47.1878 128.338 47.1878 127.81C47.1878 127.297 47.3565 126.886 47.6938 126.578C48.0458 126.27 48.4785 126.116 48.9918 126.116ZM44.4598 126.116C44.8265 126.116 45.1418 126.182 45.4058 126.314C45.6698 126.446 45.8751 126.637 46.0218 126.886C46.1831 127.091 46.3005 127.363 46.3738 127.7C46.4618 128.037 46.5058 128.375 46.5058 128.712C46.5058 129.445 46.3151 130.127 45.9338 130.758C45.5671 131.374 44.9878 131.865 44.1958 132.232L43.9978 131.836C44.4085 131.66 44.7751 131.389 45.0978 131.022C45.4205 130.655 45.6111 130.281 45.6698 129.9C45.7431 129.577 45.7431 129.269 45.6698 128.976C45.3471 129.328 44.9218 129.504 44.3938 129.504C43.8805 129.504 43.4625 129.357 43.1398 129.064C42.8171 128.756 42.6558 128.338 42.6558 127.81C42.6558 127.297 42.8245 126.886 43.1618 126.578C43.5138 126.27 43.9465 126.116 44.4598 126.116ZM52.6875 126.424C53.0688 126.439 53.5675 126.453 54.1835 126.468C54.7995 126.483 55.4155 126.49 56.0315 126.49C56.7355 126.49 57.4175 126.483 58.0775 126.468C58.7375 126.453 59.2068 126.446 59.4855 126.446C61.3041 126.446 62.6608 126.769 63.5555 127.414C64.4648 128.059 64.9195 128.888 64.9195 129.9C64.9195 130.413 64.7655 130.934 64.4575 131.462C64.1495 131.99 63.6728 132.459 63.0275 132.87C62.3821 133.281 61.5461 133.581 60.5195 133.772V133.816C61.8981 133.919 62.9908 134.168 63.7975 134.564C64.6041 134.96 65.1835 135.437 65.5355 135.994C65.8875 136.551 66.0635 137.131 66.0635 137.732C66.0635 138.656 65.8215 139.433 65.3375 140.064C64.8535 140.695 64.1568 141.179 63.2475 141.516C62.3381 141.839 61.2528 142 59.9915 142C59.6395 142 59.1335 141.993 58.4735 141.978C57.8135 141.949 57.0141 141.934 56.0755 141.934C55.4301 141.934 54.7995 141.941 54.1835 141.956C53.5675 141.956 53.0688 141.971 52.6875 142V141.56C53.1568 141.531 53.5088 141.472 53.7435 141.384C53.9781 141.296 54.1321 141.12 54.2055 140.856C54.2935 140.592 54.3375 140.196 54.3375 139.668V128.756C54.3375 128.213 54.2935 127.817 54.2055 127.568C54.1321 127.304 53.9708 127.128 53.7215 127.04C53.4868 126.937 53.1421 126.879 52.6875 126.864V126.424ZM59.1995 126.864C58.6275 126.864 58.2535 126.989 58.0775 127.238C57.9161 127.487 57.8355 127.993 57.8355 128.756V139.668C57.8355 140.181 57.8721 140.57 57.9455 140.834C58.0335 141.098 58.1801 141.274 58.3855 141.362C58.6055 141.45 58.9281 141.494 59.3535 141.494C60.4095 141.494 61.1795 141.164 61.6635 140.504C62.1621 139.829 62.4115 138.876 62.4115 137.644C62.4115 136.515 62.1255 135.642 61.5535 135.026C60.9961 134.41 60.0648 134.102 58.7595 134.102H56.8895C56.8895 134.102 56.8895 134.043 56.8895 133.926C56.8895 133.794 56.8895 133.728 56.8895 133.728H58.7815C59.4708 133.728 59.9988 133.567 60.3655 133.244C60.7321 132.907 60.9888 132.467 61.1355 131.924C61.2821 131.367 61.3555 130.773 61.3555 130.142C61.3555 129.057 61.1868 128.243 60.8495 127.7C60.5121 127.143 59.9621 126.864 59.1995 126.864ZM70.0657 124.95C70.6817 124.95 71.1657 125.104 71.5177 125.412C71.8844 125.705 72.0677 126.116 72.0677 126.644C72.0677 127.172 71.8844 127.59 71.5177 127.898C71.1657 128.191 70.6817 128.338 70.0657 128.338C69.4497 128.338 68.9584 128.191 68.5917 127.898C68.2397 127.59 68.0637 127.172 68.0637 126.644C68.0637 126.116 68.2397 125.705 68.5917 125.412C68.9584 125.104 69.4497 124.95 70.0657 124.95ZM71.7817 130.384V139.954C71.7817 140.57 71.8844 140.988 72.0897 141.208C72.3097 141.428 72.6764 141.538 73.1897 141.538V142C72.9257 141.985 72.5151 141.971 71.9577 141.956C71.4004 141.927 70.8357 141.912 70.2637 141.912C69.6917 141.912 69.1124 141.927 68.5257 141.956C67.9391 141.971 67.4991 141.985 67.2057 142V141.538C67.7191 141.538 68.0784 141.428 68.2837 141.208C68.5037 140.988 68.6137 140.57 68.6137 139.954V133.024C68.6137 132.364 68.5111 131.88 68.3057 131.572C68.1151 131.249 67.7484 131.088 67.2057 131.088V130.626C67.6751 130.67 68.1297 130.692 68.5697 130.692C69.1857 130.692 69.7577 130.67 70.2857 130.626C70.8284 130.567 71.3271 130.487 71.7817 130.384ZM78.6332 124.774V139.954C78.6332 140.57 78.7359 140.988 78.9412 141.208C79.1612 141.428 79.5279 141.538 80.0412 141.538V142C79.7625 141.985 79.3445 141.971 78.7872 141.956C78.2299 141.927 77.6652 141.912 77.0932 141.912C76.5212 141.912 75.9419 141.927 75.3552 141.956C74.7832 141.971 74.3505 141.985 74.0572 142V141.538C74.5705 141.538 74.9299 141.428 75.1352 141.208C75.3552 140.988 75.4652 140.57 75.4652 139.954V127.414C75.4652 126.754 75.3625 126.27 75.1572 125.962C74.9665 125.639 74.5999 125.478 74.0572 125.478V125.016C74.5265 125.06 74.9812 125.082 75.4212 125.082C76.0225 125.082 76.5945 125.06 77.1372 125.016C77.6799 124.957 78.1785 124.877 78.6332 124.774ZM85.5941 124.774V139.954C85.5941 140.57 85.6968 140.988 85.9021 141.208C86.1221 141.428 86.4888 141.538 87.0021 141.538V142C86.7235 141.985 86.3055 141.971 85.7481 141.956C85.1908 141.927 84.6261 141.912 84.0541 141.912C83.4821 141.912 82.9028 141.927 82.3161 141.956C81.7441 141.971 81.3115 141.985 81.0181 142V141.538C81.5315 141.538 81.8908 141.428 82.0961 141.208C82.3161 140.988 82.4261 140.57 82.4261 139.954V127.414C82.4261 126.754 82.3235 126.27 82.1181 125.962C81.9275 125.639 81.5608 125.478 81.0181 125.478V125.016C81.4875 125.06 81.9421 125.082 82.3821 125.082C82.9835 125.082 83.5555 125.06 84.0981 125.016C84.6408 124.957 85.1395 124.877 85.5941 124.774ZM93.3993 130.318C94.69 130.318 95.702 130.699 96.4353 131.462C97.1686 132.225 97.5353 133.471 97.5353 135.202H90.2973L90.2533 134.784H94.7633C94.778 134.065 94.734 133.405 94.6313 132.804C94.5286 132.188 94.3673 131.697 94.1473 131.33C93.9273 130.963 93.634 130.78 93.2673 130.78C92.754 130.78 92.314 131.103 91.9473 131.748C91.5953 132.393 91.3826 133.464 91.3093 134.96L91.3753 135.092C91.3606 135.268 91.346 135.451 91.3313 135.642C91.3313 135.833 91.3313 136.031 91.3313 136.236C91.3313 137.248 91.4706 138.069 91.7493 138.7C92.0426 139.331 92.4093 139.793 92.8493 140.086C93.2893 140.365 93.7366 140.504 94.1913 140.504C94.4993 140.504 94.8146 140.46 95.1373 140.372C95.4746 140.269 95.812 140.093 96.1493 139.844C96.4866 139.58 96.802 139.213 97.0953 138.744L97.4913 138.876C97.3153 139.433 97.0366 139.976 96.6553 140.504C96.274 141.032 95.79 141.465 95.2033 141.802C94.6166 142.139 93.9126 142.308 93.0913 142.308C92.094 142.308 91.214 142.095 90.4513 141.67C89.6886 141.245 89.0873 140.599 88.6473 139.734C88.222 138.869 88.0093 137.769 88.0093 136.434C88.0093 135.07 88.2366 133.933 88.6913 133.024C89.1606 132.115 89.7986 131.44 90.6053 131C91.4266 130.545 92.358 130.318 93.3993 130.318ZM109.633 124.774V139.58C109.633 140.24 109.736 140.731 109.941 141.054C110.147 141.362 110.513 141.516 111.041 141.516V141.978C110.587 141.934 110.132 141.912 109.677 141.912C109.061 141.912 108.482 141.934 107.939 141.978C107.411 142.022 106.92 142.103 106.465 142.22V127.414C106.465 126.754 106.363 126.27 106.157 125.962C105.967 125.639 105.6 125.478 105.057 125.478V125.016C105.527 125.06 105.981 125.082 106.421 125.082C107.023 125.082 107.595 125.06 108.137 125.016C108.68 124.957 109.179 124.877 109.633 124.774ZM104.023 130.318C104.669 130.318 105.233 130.428 105.717 130.648C106.216 130.853 106.605 131.205 106.883 131.704L106.619 131.946C106.429 131.594 106.172 131.345 105.849 131.198C105.541 131.037 105.211 130.956 104.859 130.956C104.111 130.956 103.517 131.396 103.077 132.276C102.637 133.141 102.425 134.483 102.439 136.302C102.439 137.549 102.52 138.546 102.681 139.294C102.857 140.027 103.099 140.555 103.407 140.878C103.73 141.201 104.097 141.362 104.507 141.362C105.006 141.362 105.453 141.164 105.849 140.768C106.245 140.372 106.458 139.837 106.487 139.162L106.597 139.932C106.377 140.709 106.018 141.303 105.519 141.714C105.035 142.11 104.397 142.308 103.605 142.308C102.74 142.308 101.963 142.095 101.273 141.67C100.599 141.245 100.071 140.592 99.6893 139.712C99.3079 138.817 99.1173 137.666 99.1173 136.258C99.1173 134.923 99.3299 133.823 99.7553 132.958C100.181 132.078 100.76 131.418 101.493 130.978C102.241 130.538 103.085 130.318 104.023 130.318ZM117.634 130.318C118.924 130.318 119.936 130.699 120.67 131.462C121.403 132.225 121.77 133.471 121.77 135.202H114.532L114.488 134.784H118.998C119.012 134.065 118.968 133.405 118.866 132.804C118.763 132.188 118.602 131.697 118.382 131.33C118.162 130.963 117.868 130.78 117.502 130.78C116.988 130.78 116.548 131.103 116.182 131.748C115.83 132.393 115.617 133.464 115.544 134.96L115.61 135.092C115.595 135.268 115.58 135.451 115.566 135.642C115.566 135.833 115.566 136.031 115.566 136.236C115.566 137.248 115.705 138.069 115.984 138.7C116.277 139.331 116.644 139.793 117.084 140.086C117.524 140.365 117.971 140.504 118.426 140.504C118.734 140.504 119.049 140.46 119.372 140.372C119.709 140.269 120.046 140.093 120.384 139.844C120.721 139.58 121.036 139.213 121.33 138.744L121.726 138.876C121.55 139.433 121.271 139.976 120.89 140.504C120.508 141.032 120.024 141.465 119.438 141.802C118.851 142.139 118.147 142.308 117.326 142.308C116.328 142.308 115.448 142.095 114.686 141.67C113.923 141.245 113.322 140.599 112.882 139.734C112.456 138.869 112.244 137.769 112.244 136.434C112.244 135.07 112.471 133.933 112.926 133.024C113.395 132.115 114.033 131.44 114.84 131C115.661 130.545 116.592 130.318 117.634 130.318ZM130.483 130.318C130.952 130.318 131.333 130.421 131.627 130.626C131.92 130.817 132.133 131.066 132.265 131.374C132.411 131.682 132.485 132.005 132.485 132.342C132.485 132.885 132.323 133.332 132.001 133.684C131.693 134.021 131.282 134.19 130.769 134.19C130.255 134.19 129.852 134.065 129.559 133.816C129.28 133.552 129.141 133.207 129.141 132.782C129.141 132.371 129.229 132.034 129.405 131.77C129.595 131.491 129.83 131.257 130.109 131.066C129.903 131.007 129.698 131.015 129.493 131.088C129.214 131.132 128.95 131.249 128.701 131.44C128.451 131.616 128.239 131.843 128.063 132.122C127.887 132.386 127.747 132.679 127.645 133.002C127.542 133.31 127.491 133.611 127.491 133.904V139.734C127.491 140.438 127.659 140.915 127.997 141.164C128.349 141.413 128.869 141.538 129.559 141.538V142C129.221 141.985 128.73 141.971 128.085 141.956C127.439 141.927 126.765 141.912 126.061 141.912C125.474 141.912 124.88 141.927 124.279 141.956C123.677 141.971 123.223 141.985 122.915 142V141.538C123.428 141.538 123.787 141.428 123.993 141.208C124.213 140.988 124.323 140.57 124.323 139.954V133.024C124.323 132.364 124.22 131.88 124.015 131.572C123.824 131.249 123.457 131.088 122.915 131.088V130.626C123.384 130.67 123.839 130.692 124.279 130.692C124.895 130.692 125.467 130.67 125.995 130.626C126.537 130.567 127.036 130.487 127.491 130.384V132.43C127.667 132.034 127.901 131.675 128.195 131.352C128.488 131.029 128.825 130.78 129.207 130.604C129.588 130.413 130.013 130.318 130.483 130.318ZM141.368 130.318C141.984 130.318 142.483 130.399 142.864 130.56C143.26 130.707 143.568 130.912 143.788 131.176C144.023 131.455 144.192 131.814 144.294 132.254C144.412 132.694 144.47 133.288 144.47 134.036V139.954C144.47 140.57 144.573 140.988 144.778 141.208C144.998 141.428 145.365 141.538 145.878 141.538V142C145.6 141.985 145.182 141.971 144.624 141.956C144.067 141.927 143.517 141.912 142.974 141.912C142.417 141.912 141.867 141.927 141.324 141.956C140.796 141.971 140.393 141.985 140.114 142V141.538C140.554 141.538 140.862 141.428 141.038 141.208C141.214 140.988 141.302 140.57 141.302 139.954V133.112C141.302 132.745 141.266 132.43 141.192 132.166C141.119 131.887 140.987 131.675 140.796 131.528C140.606 131.367 140.32 131.286 139.938 131.286C139.542 131.286 139.176 131.396 138.838 131.616C138.516 131.836 138.252 132.144 138.046 132.54C137.856 132.921 137.76 133.354 137.76 133.838V139.954C137.76 140.57 137.848 140.988 138.024 141.208C138.215 141.428 138.523 141.538 138.948 141.538V142C138.684 141.985 138.296 141.971 137.782 141.956C137.284 141.927 136.763 141.912 136.22 141.912C135.663 141.912 135.091 141.927 134.504 141.956C133.918 141.971 133.478 141.985 133.184 142V141.538C133.698 141.538 134.057 141.428 134.262 141.208C134.482 140.988 134.592 140.57 134.592 139.954V133.024C134.592 132.364 134.49 131.88 134.284 131.572C134.094 131.249 133.727 131.088 133.184 131.088V130.626C133.654 130.67 134.108 130.692 134.548 130.692C135.164 130.692 135.736 130.67 136.264 130.626C136.807 130.567 137.306 130.487 137.76 130.384V132.364C138.127 131.616 138.626 131.088 139.256 130.78C139.887 130.472 140.591 130.318 141.368 130.318ZM152.374 130.318C153.665 130.318 154.677 130.699 155.41 131.462C156.143 132.225 156.51 133.471 156.51 135.202H149.272L149.228 134.784H153.738C153.753 134.065 153.709 133.405 153.606 132.804C153.503 132.188 153.342 131.697 153.122 131.33C152.902 130.963 152.609 130.78 152.242 130.78C151.729 130.78 151.289 131.103 150.922 131.748C150.57 132.393 150.357 133.464 150.284 134.96L150.35 135.092C150.335 135.268 150.321 135.451 150.306 135.642C150.306 135.833 150.306 136.031 150.306 136.236C150.306 137.248 150.445 138.069 150.724 138.7C151.017 139.331 151.384 139.793 151.824 140.086C152.264 140.365 152.711 140.504 153.166 140.504C153.474 140.504 153.789 140.46 154.112 140.372C154.449 140.269 154.787 140.093 155.124 139.844C155.461 139.58 155.777 139.213 156.07 138.744L156.466 138.876C156.29 139.433 156.011 139.976 155.63 140.504C155.249 141.032 154.765 141.465 154.178 141.802C153.591 142.139 152.887 142.308 152.066 142.308C151.069 142.308 150.189 142.095 149.426 141.67C148.663 141.245 148.062 140.599 147.622 139.734C147.197 138.869 146.984 137.769 146.984 136.434C146.984 135.07 147.211 133.933 147.666 133.024C148.135 132.115 148.773 131.44 149.58 131C150.401 130.545 151.333 130.318 152.374 130.318ZM167.187 146.136C166.277 146.136 165.463 146.055 164.745 145.894C164.041 145.747 163.483 145.513 163.073 145.19C162.677 144.882 162.479 144.501 162.479 144.046C162.479 143.591 162.684 143.181 163.095 142.814C163.505 142.462 164.114 142.183 164.921 141.978L165.119 142.33C164.84 142.55 164.635 142.785 164.503 143.034C164.385 143.298 164.327 143.569 164.327 143.848C164.327 144.464 164.605 144.933 165.163 145.256C165.735 145.593 166.505 145.762 167.473 145.762C168.133 145.762 168.719 145.674 169.233 145.498C169.761 145.322 170.171 145.058 170.465 144.706C170.773 144.354 170.927 143.921 170.927 143.408C170.927 142.968 170.765 142.594 170.443 142.286C170.12 141.993 169.475 141.846 168.507 141.846H167.143C166.541 141.846 166.013 141.78 165.559 141.648C165.119 141.516 164.774 141.311 164.525 141.032C164.275 140.739 164.151 140.372 164.151 139.932C164.151 139.316 164.393 138.773 164.877 138.304C165.361 137.835 166.079 137.395 167.033 136.984L167.253 137.16C166.974 137.336 166.71 137.527 166.461 137.732C166.226 137.923 166.109 138.172 166.109 138.48C166.109 138.949 166.402 139.184 166.989 139.184H169.387C170.193 139.184 170.912 139.279 171.543 139.47C172.188 139.661 172.694 139.976 173.061 140.416C173.442 140.841 173.633 141.399 173.633 142.088C173.633 142.807 173.398 143.474 172.929 144.09C172.474 144.706 171.77 145.197 170.817 145.564C169.863 145.945 168.653 146.136 167.187 146.136ZM167.407 137.314C166.571 137.314 165.823 137.189 165.163 136.94C164.503 136.691 163.982 136.309 163.601 135.796C163.219 135.283 163.029 134.623 163.029 133.816C163.029 133.009 163.219 132.349 163.601 131.836C163.982 131.308 164.503 130.927 165.163 130.692C165.823 130.443 166.571 130.318 167.407 130.318C168.243 130.318 168.991 130.443 169.651 130.692C170.311 130.927 170.831 131.308 171.213 131.836C171.594 132.349 171.785 133.009 171.785 133.816C171.785 134.623 171.594 135.283 171.213 135.796C170.831 136.309 170.311 136.691 169.651 136.94C168.991 137.189 168.243 137.314 167.407 137.314ZM167.407 136.918C167.803 136.918 168.111 136.698 168.331 136.258C168.551 135.803 168.661 134.989 168.661 133.816C168.661 132.643 168.551 131.836 168.331 131.396C168.111 130.941 167.803 130.714 167.407 130.714C167.025 130.714 166.717 130.941 166.483 131.396C166.263 131.836 166.153 132.643 166.153 133.816C166.153 134.989 166.263 135.803 166.483 136.258C166.717 136.698 167.025 136.918 167.407 136.918ZM170.839 132.21L170.399 132.056C170.619 131.484 170.971 131.007 171.455 130.626C171.953 130.245 172.489 130.054 173.061 130.054C173.53 130.054 173.882 130.186 174.117 130.45C174.366 130.699 174.491 131.029 174.491 131.44C174.491 131.88 174.373 132.21 174.139 132.43C173.904 132.635 173.64 132.738 173.347 132.738C173.097 132.738 172.863 132.65 172.643 132.474C172.437 132.298 172.32 132.034 172.291 131.682C172.261 131.315 172.386 130.846 172.665 130.274L172.819 130.406C172.261 130.611 171.843 130.853 171.565 131.132C171.286 131.396 171.044 131.755 170.839 132.21ZM177.939 124.95C178.555 124.95 179.039 125.104 179.391 125.412C179.757 125.705 179.941 126.116 179.941 126.644C179.941 127.172 179.757 127.59 179.391 127.898C179.039 128.191 178.555 128.338 177.939 128.338C177.323 128.338 176.831 128.191 176.465 127.898C176.113 127.59 175.937 127.172 175.937 126.644C175.937 126.116 176.113 125.705 176.465 125.412C176.831 125.104 177.323 124.95 177.939 124.95ZM179.655 130.384V139.954C179.655 140.57 179.757 140.988 179.963 141.208C180.183 141.428 180.549 141.538 181.063 141.538V142C180.799 141.985 180.388 141.971 179.831 141.956C179.273 141.927 178.709 141.912 178.137 141.912C177.565 141.912 176.985 141.927 176.399 141.956C175.812 141.971 175.372 141.985 175.079 142V141.538C175.592 141.538 175.951 141.428 176.157 141.208C176.377 140.988 176.487 140.57 176.487 139.954V133.024C176.487 132.364 176.384 131.88 176.179 131.572C175.988 131.249 175.621 131.088 175.079 131.088V130.626C175.548 130.67 176.003 130.692 176.443 130.692C177.059 130.692 177.631 130.67 178.159 130.626C178.701 130.567 179.2 130.487 179.655 130.384ZM192.558 130.626V131.066C192.28 131.139 192.016 131.315 191.766 131.594C191.517 131.858 191.275 132.313 191.04 132.958L187.828 142.044C187.594 142.029 187.352 142.022 187.102 142.022C186.868 142.022 186.633 142.029 186.398 142.044L182.482 132.32C182.248 131.748 182.013 131.403 181.778 131.286C181.558 131.154 181.368 131.088 181.206 131.088V130.626C181.676 130.655 182.16 130.685 182.658 130.714C183.172 130.729 183.729 130.736 184.33 130.736C184.785 130.736 185.262 130.729 185.76 130.714C186.274 130.685 186.75 130.655 187.19 130.626V131.088C186.882 131.088 186.604 131.103 186.354 131.132C186.12 131.161 185.958 131.257 185.87 131.418C185.782 131.579 185.797 131.865 185.914 132.276L188.488 139.096L188.268 139.404L190.006 134.586C190.285 133.794 190.402 133.149 190.358 132.65C190.314 132.137 190.153 131.755 189.874 131.506C189.596 131.242 189.222 131.095 188.752 131.066V130.626C188.972 130.641 189.207 130.655 189.456 130.67C189.72 130.67 189.97 130.677 190.204 130.692C190.454 130.692 190.674 130.692 190.864 130.692C191.158 130.692 191.466 130.685 191.788 130.67C192.111 130.655 192.368 130.641 192.558 130.626ZM198.458 130.318C199.749 130.318 200.761 130.699 201.494 131.462C202.227 132.225 202.594 133.471 202.594 135.202H195.356L195.312 134.784H199.822C199.837 134.065 199.793 133.405 199.69 132.804C199.587 132.188 199.426 131.697 199.206 131.33C198.986 130.963 198.693 130.78 198.326 130.78C197.813 130.78 197.373 131.103 197.006 131.748C196.654 132.393 196.441 133.464 196.368 134.96L196.434 135.092C196.419 135.268 196.405 135.451 196.39 135.642C196.39 135.833 196.39 136.031 196.39 136.236C196.39 137.248 196.529 138.069 196.808 138.7C197.101 139.331 197.468 139.793 197.908 140.086C198.348 140.365 198.795 140.504 199.25 140.504C199.558 140.504 199.873 140.46 200.196 140.372C200.533 140.269 200.871 140.093 201.208 139.844C201.545 139.58 201.861 139.213 202.154 138.744L202.55 138.876C202.374 139.433 202.095 139.976 201.714 140.504C201.333 141.032 200.849 141.465 200.262 141.802C199.675 142.139 198.971 142.308 198.15 142.308C197.153 142.308 196.273 142.095 195.51 141.67C194.747 141.245 194.146 140.599 193.706 139.734C193.281 138.869 193.068 137.769 193.068 136.434C193.068 135.07 193.295 133.933 193.75 133.024C194.219 132.115 194.857 131.44 195.664 131C196.485 130.545 197.417 130.318 198.458 130.318ZM211.307 130.318C211.776 130.318 212.158 130.421 212.451 130.626C212.744 130.817 212.957 131.066 213.089 131.374C213.236 131.682 213.309 132.005 213.309 132.342C213.309 132.885 213.148 133.332 212.825 133.684C212.517 134.021 212.106 134.19 211.593 134.19C211.08 134.19 210.676 134.065 210.383 133.816C210.104 133.552 209.965 133.207 209.965 132.782C209.965 132.371 210.053 132.034 210.229 131.77C210.42 131.491 210.654 131.257 210.933 131.066C210.728 131.007 210.522 131.015 210.317 131.088C210.038 131.132 209.774 131.249 209.525 131.44C209.276 131.616 209.063 131.843 208.887 132.122C208.711 132.386 208.572 132.679 208.469 133.002C208.366 133.31 208.315 133.611 208.315 133.904V139.734C208.315 140.438 208.484 140.915 208.821 141.164C209.173 141.413 209.694 141.538 210.383 141.538V142C210.046 141.985 209.554 141.971 208.909 141.956C208.264 141.927 207.589 141.912 206.885 141.912C206.298 141.912 205.704 141.927 205.103 141.956C204.502 141.971 204.047 141.985 203.739 142V141.538C204.252 141.538 204.612 141.428 204.817 141.208C205.037 140.988 205.147 140.57 205.147 139.954V133.024C205.147 132.364 205.044 131.88 204.839 131.572C204.648 131.249 204.282 131.088 203.739 131.088V130.626C204.208 130.67 204.663 130.692 205.103 130.692C205.719 130.692 206.291 130.67 206.819 130.626C207.362 130.567 207.86 130.487 208.315 130.384V132.43C208.491 132.034 208.726 131.675 209.019 131.352C209.312 131.029 209.65 130.78 210.031 130.604C210.412 130.413 210.838 130.318 211.307 130.318ZM226.657 130.318C227.273 130.318 227.771 130.399 228.153 130.56C228.534 130.707 228.842 130.912 229.077 131.176C229.311 131.455 229.48 131.821 229.583 132.276C229.685 132.716 229.737 133.303 229.737 134.036V139.954C229.737 140.57 229.832 140.988 230.023 141.208C230.213 141.428 230.543 141.538 231.013 141.538V142C230.749 141.985 230.345 141.971 229.803 141.956C229.275 141.927 228.754 141.912 228.241 141.912C227.713 141.912 227.192 141.927 226.679 141.956C226.165 141.971 225.777 141.985 225.513 142V141.538C225.909 141.538 226.18 141.428 226.327 141.208C226.488 140.988 226.569 140.57 226.569 139.954V133.112C226.569 132.745 226.539 132.43 226.481 132.166C226.422 131.887 226.305 131.675 226.129 131.528C225.967 131.367 225.718 131.286 225.381 131.286C224.999 131.286 224.647 131.396 224.325 131.616C224.002 131.836 223.738 132.144 223.533 132.54C223.342 132.921 223.247 133.354 223.247 133.838V139.954C223.247 140.57 223.327 140.988 223.489 141.208C223.65 141.428 223.921 141.538 224.303 141.538V142C224.068 141.985 223.701 141.971 223.203 141.956C222.719 141.927 222.22 141.912 221.707 141.912C221.149 141.912 220.577 141.927 219.991 141.956C219.404 141.971 218.964 141.985 218.671 142V141.538C219.184 141.538 219.543 141.428 219.749 141.208C219.969 140.988 220.079 140.57 220.079 139.954V133.024C220.079 132.364 219.976 131.88 219.771 131.572C219.58 131.249 219.213 131.088 218.671 131.088V130.626C219.14 130.67 219.595 130.692 220.035 130.692C220.651 130.692 221.223 130.67 221.751 130.626C222.293 130.567 222.792 130.487 223.247 130.384V132.364C223.599 131.631 224.075 131.11 224.677 130.802C225.278 130.479 225.938 130.318 226.657 130.318ZM233.279 130.318C233.895 130.318 234.393 130.399 234.775 130.56C235.156 130.707 235.464 130.912 235.699 131.176C235.933 131.455 236.102 131.821 236.205 132.276C236.307 132.716 236.359 133.303 236.359 134.036V139.954C236.359 140.57 236.461 140.988 236.667 141.208C236.887 141.428 237.253 141.538 237.767 141.538V142C237.488 141.985 237.07 141.971 236.513 141.956C235.955 141.927 235.405 141.912 234.863 141.912C234.335 141.912 233.814 141.927 233.301 141.956C232.787 141.971 232.399 141.985 232.135 142V141.538C232.531 141.538 232.802 141.428 232.949 141.208C233.11 140.988 233.191 140.57 233.191 139.954V133.112C233.191 132.745 233.154 132.43 233.081 132.166C233.022 131.887 232.897 131.675 232.707 131.528C232.531 131.367 232.252 131.286 231.871 131.286C231.489 131.286 231.137 131.403 230.815 131.638C230.492 131.873 230.228 132.188 230.023 132.584C229.832 132.98 229.729 133.42 229.715 133.904L229.605 132.562C230.001 131.682 230.521 131.088 231.167 130.78C231.827 130.472 232.531 130.318 233.279 130.318ZM241.447 124.95C242.063 124.95 242.547 125.104 242.899 125.412C243.265 125.705 243.449 126.116 243.449 126.644C243.449 127.172 243.265 127.59 242.899 127.898C242.547 128.191 242.063 128.338 241.447 128.338C240.831 128.338 240.339 128.191 239.973 127.898C239.621 127.59 239.445 127.172 239.445 126.644C239.445 126.116 239.621 125.705 239.973 125.412C240.339 125.104 240.831 124.95 241.447 124.95ZM243.163 130.384V139.954C243.163 140.57 243.265 140.988 243.471 141.208C243.691 141.428 244.057 141.538 244.571 141.538V142C244.307 141.985 243.896 141.971 243.339 141.956C242.781 141.927 242.217 141.912 241.645 141.912C241.073 141.912 240.493 141.927 239.907 141.956C239.32 141.971 238.88 141.985 238.587 142V141.538C239.1 141.538 239.459 141.428 239.665 141.208C239.885 140.988 239.995 140.57 239.995 139.954V133.024C239.995 132.364 239.892 131.88 239.687 131.572C239.496 131.249 239.129 131.088 238.587 131.088V130.626C239.056 130.67 239.511 130.692 239.951 130.692C240.567 130.692 241.139 130.67 241.667 130.626C242.209 130.567 242.708 130.487 243.163 130.384ZM249.794 146.136C248.885 146.136 248.071 146.055 247.352 145.894C246.648 145.747 246.091 145.513 245.68 145.19C245.284 144.882 245.086 144.501 245.086 144.046C245.086 143.591 245.291 143.181 245.702 142.814C246.113 142.462 246.721 142.183 247.528 141.978L247.726 142.33C247.447 142.55 247.242 142.785 247.11 143.034C246.993 143.298 246.934 143.569 246.934 143.848C246.934 144.464 247.213 144.933 247.77 145.256C248.342 145.593 249.112 145.762 250.08 145.762C250.74 145.762 251.327 145.674 251.84 145.498C252.368 145.322 252.779 145.058 253.072 144.706C253.38 144.354 253.534 143.921 253.534 143.408C253.534 142.968 253.373 142.594 253.05 142.286C252.727 141.993 252.082 141.846 251.114 141.846H249.75C249.149 141.846 248.621 141.78 248.166 141.648C247.726 141.516 247.381 141.311 247.132 141.032C246.883 140.739 246.758 140.372 246.758 139.932C246.758 139.316 247 138.773 247.484 138.304C247.968 137.835 248.687 137.395 249.64 136.984L249.86 137.16C249.581 137.336 249.317 137.527 249.068 137.732C248.833 137.923 248.716 138.172 248.716 138.48C248.716 138.949 249.009 139.184 249.596 139.184H251.994C252.801 139.184 253.519 139.279 254.15 139.47C254.795 139.661 255.301 139.976 255.668 140.416C256.049 140.841 256.24 141.399 256.24 142.088C256.24 142.807 256.005 143.474 255.536 144.09C255.081 144.706 254.377 145.197 253.424 145.564C252.471 145.945 251.261 146.136 249.794 146.136ZM250.014 137.314C249.178 137.314 248.43 137.189 247.77 136.94C247.11 136.691 246.589 136.309 246.208 135.796C245.827 135.283 245.636 134.623 245.636 133.816C245.636 133.009 245.827 132.349 246.208 131.836C246.589 131.308 247.11 130.927 247.77 130.692C248.43 130.443 249.178 130.318 250.014 130.318C250.85 130.318 251.598 130.443 252.258 130.692C252.918 130.927 253.439 131.308 253.82 131.836C254.201 132.349 254.392 133.009 254.392 133.816C254.392 134.623 254.201 135.283 253.82 135.796C253.439 136.309 252.918 136.691 252.258 136.94C251.598 137.189 250.85 137.314 250.014 137.314ZM250.014 136.918C250.41 136.918 250.718 136.698 250.938 136.258C251.158 135.803 251.268 134.989 251.268 133.816C251.268 132.643 251.158 131.836 250.938 131.396C250.718 130.941 250.41 130.714 250.014 130.714C249.633 130.714 249.325 130.941 249.09 131.396C248.87 131.836 248.76 132.643 248.76 133.816C248.76 134.989 248.87 135.803 249.09 136.258C249.325 136.698 249.633 136.918 250.014 136.918ZM253.446 132.21L253.006 132.056C253.226 131.484 253.578 131.007 254.062 130.626C254.561 130.245 255.096 130.054 255.668 130.054C256.137 130.054 256.489 130.186 256.724 130.45C256.973 130.699 257.098 131.029 257.098 131.44C257.098 131.88 256.981 132.21 256.746 132.43C256.511 132.635 256.247 132.738 255.954 132.738C255.705 132.738 255.47 132.65 255.25 132.474C255.045 132.298 254.927 132.034 254.898 131.682C254.869 131.315 254.993 130.846 255.272 130.274L255.426 130.406C254.869 130.611 254.451 130.853 254.172 131.132C253.893 131.396 253.651 131.755 253.446 132.21ZM39.059 150.774V165.954C39.059 166.57 39.1616 166.988 39.367 167.208C39.587 167.428 39.9536 167.538 40.467 167.538V168C40.1883 167.985 39.7703 167.971 39.213 167.956C38.6556 167.927 38.091 167.912 37.519 167.912C36.947 167.912 36.3676 167.927 35.781 167.956C35.209 167.971 34.7763 167.985 34.483 168V167.538C34.9963 167.538 35.3556 167.428 35.561 167.208C35.781 166.988 35.891 166.57 35.891 165.954V153.414C35.891 152.754 35.7883 152.27 35.583 151.962C35.3923 151.639 35.0256 151.478 34.483 151.478V151.016C34.9523 151.06 35.407 151.082 35.847 151.082C36.4483 151.082 37.0203 151.06 37.563 151.016C38.1056 150.957 38.6043 150.877 39.059 150.774ZM52.161 156.626V157.066C51.8823 157.139 51.6183 157.315 51.369 157.594C51.1197 157.858 50.8777 158.313 50.643 158.958L47.541 167.67L46.727 169.21L41.931 158.32C41.6817 157.748 41.4323 157.403 41.183 157.286C40.9483 157.154 40.743 157.088 40.567 157.088V156.626C41.051 156.67 41.5497 156.707 42.063 156.736C42.591 156.751 43.097 156.758 43.581 156.758C44.1823 156.758 44.7323 156.743 45.231 156.714C45.7297 156.685 46.199 156.655 46.639 156.626V157.088C46.3457 157.088 46.067 157.11 45.803 157.154C45.5537 157.183 45.3777 157.286 45.275 157.462C45.187 157.623 45.231 157.909 45.407 158.32L48.179 165.008L47.981 165.14L49.609 160.586C49.8877 159.794 50.005 159.149 49.961 158.65C49.917 158.137 49.7557 157.755 49.477 157.506C49.1983 157.242 48.817 157.095 48.333 157.066V156.626C48.5677 156.641 48.8097 156.655 49.059 156.67C49.3083 156.67 49.5577 156.677 49.807 156.692C50.0563 156.692 50.2763 156.692 50.467 156.692C50.7603 156.692 51.0683 156.685 51.391 156.67C51.7137 156.655 51.9703 156.641 52.161 156.626ZM47.541 167.67L46.705 170.024C46.5583 170.391 46.4043 170.699 46.243 170.948C46.0963 171.212 45.9277 171.425 45.737 171.586C45.5317 171.762 45.2677 171.894 44.945 171.982C44.6223 172.085 44.2483 172.136 43.823 172.136C43.471 172.136 43.1043 172.077 42.723 171.96C42.3563 171.843 42.0483 171.652 41.799 171.388C41.5497 171.124 41.425 170.787 41.425 170.376C41.425 169.921 41.5863 169.555 41.909 169.276C42.2317 169.012 42.657 168.88 43.185 168.88C43.669 168.88 44.065 168.997 44.373 169.232C44.681 169.467 44.835 169.811 44.835 170.266C44.835 170.559 44.7397 170.838 44.549 171.102C44.373 171.366 44.1017 171.564 43.735 171.696C43.8083 171.711 43.8963 171.718 43.999 171.718C44.1017 171.718 44.1823 171.718 44.241 171.718C44.681 171.718 45.0697 171.579 45.407 171.3C45.7443 171.021 46.023 170.581 46.243 169.98L47.013 167.714L47.541 167.67ZM56.9094 156.318C57.5254 156.318 58.0607 156.399 58.5154 156.56C58.9847 156.707 59.3221 156.853 59.5274 157C60.0261 157.337 60.3341 157.117 60.4514 156.34H60.9134C60.8841 156.751 60.8621 157.257 60.8474 157.858C60.8327 158.445 60.8254 159.229 60.8254 160.212H60.3634C60.2901 159.669 60.1507 159.134 59.9454 158.606C59.7401 158.078 59.4394 157.645 59.0434 157.308C58.6621 156.971 58.1634 156.802 57.5474 156.802C57.1221 156.802 56.7627 156.927 56.4694 157.176C56.1761 157.411 56.0294 157.755 56.0294 158.21C56.0294 158.65 56.1614 159.039 56.4254 159.376C56.6894 159.699 57.0267 160.014 57.4374 160.322C57.8627 160.615 58.3027 160.931 58.7574 161.268C59.2414 161.635 59.6814 162.001 60.0774 162.368C60.4734 162.72 60.7887 163.109 61.0234 163.534C61.2581 163.959 61.3754 164.465 61.3754 165.052C61.3754 165.712 61.1847 166.291 60.8034 166.79C60.4221 167.274 59.9161 167.648 59.2854 167.912C58.6694 168.176 57.9801 168.308 57.2174 168.308C56.7774 168.308 56.3814 168.264 56.0294 168.176C55.6921 168.088 55.3987 167.978 55.1494 167.846C54.9587 167.758 54.7754 167.677 54.5994 167.604C54.4381 167.516 54.2841 167.443 54.1374 167.384C53.9907 167.34 53.8587 167.391 53.7414 167.538C53.6387 167.685 53.5581 167.89 53.4994 168.154H53.0374C53.0667 167.685 53.0887 167.113 53.1034 166.438C53.1181 165.763 53.1254 164.869 53.1254 163.754H53.5874C53.6754 164.546 53.8367 165.25 54.0714 165.866C54.3061 166.467 54.6214 166.944 55.0174 167.296C55.4281 167.633 55.9414 167.802 56.5574 167.802C56.8067 167.802 57.0487 167.751 57.2834 167.648C57.5181 167.545 57.7087 167.377 57.8554 167.142C58.0167 166.907 58.0974 166.607 58.0974 166.24C58.0974 165.595 57.8847 165.059 57.4594 164.634C57.0487 164.209 56.5207 163.747 55.8754 163.248C55.4061 162.867 54.9587 162.493 54.5334 162.126C54.1227 161.745 53.7854 161.334 53.5214 160.894C53.2574 160.439 53.1254 159.926 53.1254 159.354C53.1254 158.694 53.3014 158.137 53.6534 157.682C54.0054 157.227 54.4674 156.89 55.0394 156.67C55.6261 156.435 56.2494 156.318 56.9094 156.318ZM67.1815 153.018V156.626H69.7775V157.066H67.1815V165.954C67.1815 166.394 67.2622 166.709 67.4235 166.9C67.5848 167.076 67.8268 167.164 68.1495 167.164C68.4135 167.164 68.6775 167.069 68.9415 166.878C69.2055 166.673 69.4402 166.328 69.6455 165.844L70.0195 166.042C69.7848 166.702 69.4255 167.245 68.9415 167.67C68.4722 168.095 67.8268 168.308 67.0055 168.308C66.5215 168.308 66.0962 168.242 65.7295 168.11C65.3628 167.993 65.0548 167.809 64.8055 167.56C64.4828 167.237 64.2702 166.841 64.1675 166.372C64.0648 165.888 64.0135 165.265 64.0135 164.502V157.066H62.1655V156.626H64.0135V153.722C64.6295 153.722 65.1942 153.671 65.7075 153.568C66.2355 153.451 66.7268 153.267 67.1815 153.018ZM79.6424 153.018V156.626H82.2384V157.066H79.6424V165.954C79.6424 166.394 79.7231 166.709 79.8844 166.9C80.0458 167.076 80.2878 167.164 80.6104 167.164C80.8744 167.164 81.1384 167.069 81.4024 166.878C81.6664 166.673 81.9011 166.328 82.1064 165.844L82.4804 166.042C82.2458 166.702 81.8864 167.245 81.4024 167.67C80.9331 168.095 80.2878 168.308 79.4664 168.308C78.9824 168.308 78.5571 168.242 78.1904 168.11C77.8238 167.993 77.5158 167.809 77.2664 167.56C76.9438 167.237 76.7311 166.841 76.6284 166.372C76.5258 165.888 76.4744 165.265 76.4744 164.502V157.066H74.6264V156.626H76.4744V153.722C77.0904 153.722 77.6551 153.671 78.1684 153.568C78.6964 153.451 79.1878 153.267 79.6424 153.018ZM85.7708 150.95C86.3868 150.95 86.8708 151.104 87.2228 151.412C87.5895 151.705 87.7728 152.116 87.7728 152.644C87.7728 153.172 87.5895 153.59 87.2228 153.898C86.8708 154.191 86.3868 154.338 85.7708 154.338C85.1548 154.338 84.6635 154.191 84.2968 153.898C83.9448 153.59 83.7688 153.172 83.7688 152.644C83.7688 152.116 83.9448 151.705 84.2968 151.412C84.6635 151.104 85.1548 150.95 85.7708 150.95ZM87.4868 156.384V165.954C87.4868 166.57 87.5895 166.988 87.7948 167.208C88.0148 167.428 88.3815 167.538 88.8948 167.538V168C88.6308 167.985 88.2201 167.971 87.6628 167.956C87.1055 167.927 86.5408 167.912 85.9688 167.912C85.3968 167.912 84.8175 167.927 84.2308 167.956C83.6441 167.971 83.2041 167.985 82.9108 168V167.538C83.4241 167.538 83.7835 167.428 83.9888 167.208C84.2088 166.988 84.3188 166.57 84.3188 165.954V159.024C84.3188 158.364 84.2161 157.88 84.0108 157.572C83.8201 157.249 83.4535 157.088 82.9108 157.088V156.626C83.3801 156.67 83.8348 156.692 84.2748 156.692C84.8908 156.692 85.4628 156.67 85.9908 156.626C86.5335 156.567 87.0321 156.487 87.4868 156.384ZM94.3383 150.774V165.954C94.3383 166.57 94.4409 166.988 94.6463 167.208C94.8663 167.428 95.2329 167.538 95.7463 167.538V168C95.4676 167.985 95.0496 167.971 94.4923 167.956C93.9349 167.927 93.3703 167.912 92.7983 167.912C92.2263 167.912 91.6469 167.927 91.0603 167.956C90.4883 167.971 90.0556 167.985 89.7623 168V167.538C90.2756 167.538 90.6349 167.428 90.8403 167.208C91.0603 166.988 91.1703 166.57 91.1703 165.954V153.414C91.1703 152.754 91.0676 152.27 90.8623 151.962C90.6716 151.639 90.3049 151.478 89.7623 151.478V151.016C90.2316 151.06 90.6863 151.082 91.1263 151.082C91.7276 151.082 92.2996 151.06 92.8423 151.016C93.3849 150.957 93.8836 150.877 94.3383 150.774ZM104.853 168.154C104.193 168.154 103.643 168.029 103.203 167.78C102.763 167.531 102.44 167.201 102.235 166.79C102.03 166.365 101.927 165.903 101.927 165.404C101.927 164.773 102.066 164.26 102.345 163.864C102.638 163.468 103.012 163.145 103.467 162.896C103.922 162.647 104.398 162.441 104.897 162.28C105.41 162.119 105.894 161.965 106.349 161.818C106.818 161.657 107.192 161.473 107.471 161.268C107.764 161.048 107.911 160.769 107.911 160.432V158.716C107.911 158.335 107.845 157.997 107.713 157.704C107.596 157.396 107.405 157.161 107.141 157C106.892 156.839 106.562 156.758 106.151 156.758C105.858 156.758 105.564 156.802 105.271 156.89C104.978 156.963 104.736 157.095 104.545 157.286C104.956 157.433 105.271 157.66 105.491 157.968C105.726 158.261 105.843 158.599 105.843 158.98C105.843 159.479 105.667 159.875 105.315 160.168C104.978 160.461 104.574 160.608 104.105 160.608C103.577 160.608 103.174 160.447 102.895 160.124C102.631 159.787 102.499 159.383 102.499 158.914C102.499 158.489 102.602 158.137 102.807 157.858C103.027 157.579 103.328 157.315 103.709 157.066C104.12 156.831 104.611 156.648 105.183 156.516C105.77 156.384 106.4 156.318 107.075 156.318C107.75 156.318 108.358 156.391 108.901 156.538C109.444 156.67 109.898 156.919 110.265 157.286C110.602 157.623 110.822 158.041 110.925 158.54C111.028 159.024 111.079 159.64 111.079 160.388V166.372C111.079 166.739 111.116 166.995 111.189 167.142C111.262 167.274 111.387 167.34 111.563 167.34C111.695 167.34 111.82 167.303 111.937 167.23C112.069 167.157 112.208 167.069 112.355 166.966L112.575 167.34C112.267 167.604 111.908 167.809 111.497 167.956C111.101 168.088 110.654 168.154 110.155 168.154C109.612 168.154 109.18 168.081 108.857 167.934C108.534 167.773 108.3 167.56 108.153 167.296C108.021 167.032 107.955 166.724 107.955 166.372C107.603 166.929 107.178 167.369 106.679 167.692C106.18 168 105.572 168.154 104.853 168.154ZM106.415 166.746C106.708 166.746 106.972 166.68 107.207 166.548C107.456 166.401 107.691 166.167 107.911 165.844V161.334C107.779 161.554 107.596 161.752 107.361 161.928C107.126 162.104 106.877 162.287 106.613 162.478C106.349 162.654 106.092 162.852 105.843 163.072C105.608 163.292 105.418 163.563 105.271 163.886C105.124 164.209 105.051 164.597 105.051 165.052C105.051 165.624 105.176 166.049 105.425 166.328C105.674 166.607 106.004 166.746 106.415 166.746ZM117.67 153.018V156.626H120.266V157.066H117.67V165.954C117.67 166.394 117.75 166.709 117.912 166.9C118.073 167.076 118.315 167.164 118.638 167.164C118.902 167.164 119.166 167.069 119.43 166.878C119.694 166.673 119.928 166.328 120.134 165.844L120.508 166.042C120.273 166.702 119.914 167.245 119.43 167.67C118.96 168.095 118.315 168.308 117.494 168.308C117.01 168.308 116.584 168.242 116.218 168.11C115.851 167.993 115.543 167.809 115.294 167.56C114.971 167.237 114.758 166.841 114.656 166.372C114.553 165.888 114.502 165.265 114.502 164.502V157.066H112.654V156.626H114.502V153.722C115.118 153.722 115.682 153.671 116.196 153.568C116.724 153.451 117.215 153.267 117.67 153.018ZM130.539 150.774V165.954C130.539 166.57 130.634 166.988 130.825 167.208C131.03 167.428 131.375 167.538 131.859 167.538V168C131.58 167.985 131.17 167.971 130.627 167.956C130.099 167.927 129.556 167.912 128.999 167.912C128.427 167.912 127.848 167.927 127.261 167.956C126.689 167.971 126.256 167.985 125.963 168V167.538C126.476 167.538 126.836 167.428 127.041 167.208C127.261 166.988 127.371 166.57 127.371 165.954V153.414C127.371 152.754 127.268 152.27 127.063 151.962C126.872 151.639 126.506 151.478 125.963 151.478V151.016C126.432 151.06 126.887 151.082 127.327 151.082C127.928 151.082 128.5 151.06 129.043 151.016C129.586 150.957 130.084 150.877 130.539 150.774ZM137.711 156.626V157.066C137.256 157.154 136.802 157.345 136.347 157.638C135.892 157.931 135.43 158.305 134.961 158.76L133.267 160.52L133.487 160.102L137.249 166.394C137.41 166.658 137.579 166.893 137.755 167.098C137.931 167.303 138.144 167.45 138.393 167.538V168C138.173 167.985 137.843 167.971 137.403 167.956C136.963 167.927 136.523 167.912 136.083 167.912C135.54 167.912 134.998 167.927 134.455 167.956C133.912 167.971 133.509 167.985 133.245 168V167.538C133.538 167.538 133.736 167.472 133.839 167.34C133.942 167.193 133.927 167.01 133.795 166.79L131.617 162.852C131.441 162.573 131.265 162.397 131.089 162.324C130.928 162.236 130.708 162.185 130.429 162.17V161.752C130.737 161.723 131.001 161.671 131.221 161.598C131.456 161.525 131.668 161.385 131.859 161.18L133.531 159.552C134.03 159.083 134.279 158.665 134.279 158.298C134.279 157.931 134.118 157.638 133.795 157.418C133.487 157.198 133.076 157.081 132.563 157.066V156.626C132.974 156.641 133.421 156.655 133.905 156.67C134.389 156.685 134.8 156.692 135.137 156.692C135.43 156.692 135.738 156.692 136.061 156.692C136.398 156.677 136.714 156.67 137.007 156.67C137.3 156.655 137.535 156.641 137.711 156.626ZM142.893 150.774V165.954C142.893 166.57 142.996 166.988 143.201 167.208C143.421 167.428 143.788 167.538 144.301 167.538V168C144.022 167.985 143.604 167.971 143.047 167.956C142.49 167.927 141.925 167.912 141.353 167.912C140.781 167.912 140.202 167.927 139.615 167.956C139.043 167.971 138.61 167.985 138.317 168V167.538C138.83 167.538 139.19 167.428 139.395 167.208C139.615 166.988 139.725 166.57 139.725 165.954V153.414C139.725 152.754 139.622 152.27 139.417 151.962C139.226 151.639 138.86 151.478 138.317 151.478V151.016C138.786 151.06 139.241 151.082 139.681 151.082C140.282 151.082 140.854 151.06 141.397 151.016C141.94 150.957 142.438 150.877 142.893 150.774ZM148.097 150.95C148.713 150.95 149.197 151.104 149.549 151.412C149.916 151.705 150.099 152.116 150.099 152.644C150.099 153.172 149.916 153.59 149.549 153.898C149.197 154.191 148.713 154.338 148.097 154.338C147.481 154.338 146.99 154.191 146.623 153.898C146.271 153.59 146.095 153.172 146.095 152.644C146.095 152.116 146.271 151.705 146.623 151.412C146.99 151.104 147.481 150.95 148.097 150.95ZM149.813 156.384V165.954C149.813 166.57 149.916 166.988 150.121 167.208C150.341 167.428 150.708 167.538 151.221 167.538V168C150.957 167.985 150.546 167.971 149.989 167.956C149.432 167.927 148.867 167.912 148.295 167.912C147.723 167.912 147.144 167.927 146.557 167.956C145.97 167.971 145.53 167.985 145.237 168V167.538C145.75 167.538 146.11 167.428 146.315 167.208C146.535 166.988 146.645 166.57 146.645 165.954V159.024C146.645 158.364 146.542 157.88 146.337 157.572C146.146 157.249 145.78 157.088 145.237 157.088V156.626C145.706 156.67 146.161 156.692 146.601 156.692C147.217 156.692 147.789 156.67 148.317 156.626C148.86 156.567 149.358 156.487 149.813 156.384ZM156.642 150.774V165.954C156.642 166.57 156.738 166.988 156.928 167.208C157.134 167.428 157.478 167.538 157.962 167.538V168C157.684 167.985 157.273 167.971 156.73 167.956C156.202 167.927 155.66 167.912 155.102 167.912C154.53 167.912 153.951 167.927 153.364 167.956C152.792 167.971 152.36 167.985 152.066 168V167.538C152.58 167.538 152.939 167.428 153.144 167.208C153.364 166.988 153.474 166.57 153.474 165.954V153.414C153.474 152.754 153.372 152.27 153.166 151.962C152.976 151.639 152.609 151.478 152.066 151.478V151.016C152.536 151.06 152.99 151.082 153.43 151.082C154.032 151.082 154.604 151.06 155.146 151.016C155.689 150.957 156.188 150.877 156.642 150.774ZM163.814 156.626V157.066C163.36 157.154 162.905 157.345 162.45 157.638C161.996 157.931 161.534 158.305 161.064 158.76L159.37 160.52L159.59 160.102L163.352 166.394C163.514 166.658 163.682 166.893 163.858 167.098C164.034 167.303 164.247 167.45 164.496 167.538V168C164.276 167.985 163.946 167.971 163.506 167.956C163.066 167.927 162.626 167.912 162.186 167.912C161.644 167.912 161.101 167.927 160.558 167.956C160.016 167.971 159.612 167.985 159.348 168V167.538C159.642 167.538 159.84 167.472 159.942 167.34C160.045 167.193 160.03 167.01 159.898 166.79L157.72 162.852C157.544 162.573 157.368 162.397 157.192 162.324C157.031 162.236 156.811 162.185 156.532 162.17V161.752C156.84 161.723 157.104 161.671 157.324 161.598C157.559 161.525 157.772 161.385 157.962 161.18L159.634 159.552C160.133 159.083 160.382 158.665 160.382 158.298C160.382 157.931 160.221 157.638 159.898 157.418C159.59 157.198 159.18 157.081 158.666 157.066V156.626C159.077 156.641 159.524 156.655 160.008 156.67C160.492 156.685 160.903 156.692 161.24 156.692C161.534 156.692 161.842 156.692 162.164 156.692C162.502 156.677 162.817 156.67 163.11 156.67C163.404 156.655 163.638 156.641 163.814 156.626ZM168.974 150.774V165.954C168.974 166.57 169.07 166.988 169.26 167.208C169.466 167.428 169.81 167.538 170.294 167.538V168C170.016 167.985 169.605 167.971 169.062 167.956C168.534 167.927 167.992 167.912 167.434 167.912C166.862 167.912 166.283 167.927 165.696 167.956C165.124 167.971 164.692 167.985 164.398 168V167.538C164.912 167.538 165.271 167.428 165.476 167.208C165.696 166.988 165.806 166.57 165.806 165.954V153.414C165.806 152.754 165.704 152.27 165.498 151.962C165.308 151.639 164.941 151.478 164.398 151.478V151.016C164.868 151.06 165.322 151.082 165.762 151.082C166.364 151.082 166.936 151.06 167.478 151.016C168.021 150.957 168.52 150.877 168.974 150.774ZM176.146 156.626V157.066C175.692 157.154 175.237 157.345 174.782 157.638C174.328 157.931 173.866 158.305 173.396 158.76L171.702 160.52L171.922 160.102L175.684 166.394C175.846 166.658 176.014 166.893 176.19 167.098C176.366 167.303 176.579 167.45 176.828 167.538V168C176.608 167.985 176.278 167.971 175.838 167.956C175.398 167.927 174.958 167.912 174.518 167.912C173.976 167.912 173.433 167.927 172.89 167.956C172.348 167.971 171.944 167.985 171.68 168V167.538C171.974 167.538 172.172 167.472 172.274 167.34C172.377 167.193 172.362 167.01 172.23 166.79L170.052 162.852C169.876 162.573 169.7 162.397 169.524 162.324C169.363 162.236 169.143 162.185 168.864 162.17V161.752C169.172 161.723 169.436 161.671 169.656 161.598C169.891 161.525 170.104 161.385 170.294 161.18L171.966 159.552C172.465 159.083 172.714 158.665 172.714 158.298C172.714 157.931 172.553 157.638 172.23 157.418C171.922 157.198 171.512 157.081 170.998 157.066V156.626C171.409 156.641 171.856 156.655 172.34 156.67C172.824 156.685 173.235 156.692 173.572 156.692C173.866 156.692 174.174 156.692 174.496 156.692C174.834 156.677 175.149 156.67 175.442 156.67C175.736 156.655 175.97 156.641 176.146 156.626ZM182.538 156.318C183.829 156.318 184.841 156.699 185.574 157.462C186.307 158.225 186.674 159.471 186.674 161.202H179.436L179.392 160.784H183.902C183.917 160.065 183.873 159.405 183.77 158.804C183.667 158.188 183.506 157.697 183.286 157.33C183.066 156.963 182.773 156.78 182.406 156.78C181.893 156.78 181.453 157.103 181.086 157.748C180.734 158.393 180.521 159.464 180.448 160.96L180.514 161.092C180.499 161.268 180.485 161.451 180.47 161.642C180.47 161.833 180.47 162.031 180.47 162.236C180.47 163.248 180.609 164.069 180.888 164.7C181.181 165.331 181.548 165.793 181.988 166.086C182.428 166.365 182.875 166.504 183.33 166.504C183.638 166.504 183.953 166.46 184.276 166.372C184.613 166.269 184.951 166.093 185.288 165.844C185.625 165.58 185.941 165.213 186.234 164.744L186.63 164.876C186.454 165.433 186.175 165.976 185.794 166.504C185.413 167.032 184.929 167.465 184.342 167.802C183.755 168.139 183.051 168.308 182.23 168.308C181.233 168.308 180.353 168.095 179.59 167.67C178.827 167.245 178.226 166.599 177.786 165.734C177.361 164.869 177.148 163.769 177.148 162.434C177.148 161.07 177.375 159.933 177.83 159.024C178.299 158.115 178.937 157.44 179.744 157C180.565 156.545 181.497 156.318 182.538 156.318ZM203.086 156.626V157.066C202.807 157.139 202.543 157.315 202.294 157.594C202.044 157.858 201.802 158.313 201.568 158.958L198.356 168.044C198.121 168.029 197.879 168.022 197.63 168.022C197.395 168.022 197.16 168.029 196.926 168.044L193.01 158.32C192.775 157.748 192.54 157.403 192.306 157.286C192.086 157.154 191.895 157.088 191.734 157.088V156.626C192.203 156.655 192.687 156.685 193.186 156.714C193.699 156.729 194.256 156.736 194.858 156.736C195.312 156.736 195.789 156.729 196.288 156.714C196.801 156.685 197.278 156.655 197.718 156.626V157.088C197.41 157.088 197.131 157.103 196.882 157.132C196.647 157.161 196.486 157.257 196.398 157.418C196.31 157.579 196.324 157.865 196.442 158.276L199.016 165.096L198.796 165.404L200.534 160.586C200.812 159.794 200.93 159.149 200.886 158.65C200.842 158.137 200.68 157.755 200.402 157.506C200.123 157.242 199.749 157.095 199.28 157.066V156.626C199.5 156.641 199.734 156.655 199.984 156.67C200.248 156.67 200.497 156.677 200.732 156.692C200.981 156.692 201.201 156.692 201.392 156.692C201.685 156.692 201.993 156.685 202.316 156.67C202.638 156.655 202.895 156.641 203.086 156.626ZM206.492 150.95C207.108 150.95 207.592 151.104 207.944 151.412C208.31 151.705 208.494 152.116 208.494 152.644C208.494 153.172 208.31 153.59 207.944 153.898C207.592 154.191 207.108 154.338 206.492 154.338C205.876 154.338 205.384 154.191 205.018 153.898C204.666 153.59 204.49 153.172 204.49 152.644C204.49 152.116 204.666 151.705 205.018 151.412C205.384 151.104 205.876 150.95 206.492 150.95ZM208.208 156.384V165.954C208.208 166.57 208.31 166.988 208.516 167.208C208.736 167.428 209.102 167.538 209.616 167.538V168C209.352 167.985 208.941 167.971 208.384 167.956C207.826 167.927 207.262 167.912 206.69 167.912C206.118 167.912 205.538 167.927 204.952 167.956C204.365 167.971 203.925 167.985 203.632 168V167.538C204.145 167.538 204.504 167.428 204.71 167.208C204.93 166.988 205.04 166.57 205.04 165.954V159.024C205.04 158.364 204.937 157.88 204.732 157.572C204.541 157.249 204.174 157.088 203.632 157.088V156.626C204.101 156.67 204.556 156.692 204.996 156.692C205.612 156.692 206.184 156.67 206.712 156.626C207.254 156.567 207.753 156.487 208.208 156.384ZM221.395 150.774V165.58C221.395 166.24 221.498 166.731 221.703 167.054C221.908 167.362 222.275 167.516 222.803 167.516V167.978C222.348 167.934 221.894 167.912 221.439 167.912C220.823 167.912 220.244 167.934 219.701 167.978C219.173 168.022 218.682 168.103 218.227 168.22V153.414C218.227 152.754 218.124 152.27 217.919 151.962C217.728 151.639 217.362 151.478 216.819 151.478V151.016C217.288 151.06 217.743 151.082 218.183 151.082C218.784 151.082 219.356 151.06 219.899 151.016C220.442 150.957 220.94 150.877 221.395 150.774ZM215.785 156.318C216.43 156.318 216.995 156.428 217.479 156.648C217.978 156.853 218.366 157.205 218.645 157.704L218.381 157.946C218.19 157.594 217.934 157.345 217.611 157.198C217.303 157.037 216.973 156.956 216.621 156.956C215.873 156.956 215.279 157.396 214.839 158.276C214.399 159.141 214.186 160.483 214.201 162.302C214.201 163.549 214.282 164.546 214.443 165.294C214.619 166.027 214.861 166.555 215.169 166.878C215.492 167.201 215.858 167.362 216.269 167.362C216.768 167.362 217.215 167.164 217.611 166.768C218.007 166.372 218.22 165.837 218.249 165.162L218.359 165.932C218.139 166.709 217.78 167.303 217.281 167.714C216.797 168.11 216.159 168.308 215.367 168.308C214.502 168.308 213.724 168.095 213.035 167.67C212.36 167.245 211.832 166.592 211.451 165.712C211.07 164.817 210.879 163.666 210.879 162.258C210.879 160.923 211.092 159.823 211.517 158.958C211.942 158.078 212.522 157.418 213.255 156.978C214.003 156.538 214.846 156.318 215.785 156.318ZM229.395 156.318C230.686 156.318 231.698 156.699 232.431 157.462C233.165 158.225 233.531 159.471 233.531 161.202H226.293L226.249 160.784H230.759C230.774 160.065 230.73 159.405 230.627 158.804C230.525 158.188 230.363 157.697 230.143 157.33C229.923 156.963 229.63 156.78 229.263 156.78C228.75 156.78 228.31 157.103 227.943 157.748C227.591 158.393 227.379 159.464 227.305 160.96L227.371 161.092C227.357 161.268 227.342 161.451 227.327 161.642C227.327 161.833 227.327 162.031 227.327 162.236C227.327 163.248 227.467 164.069 227.745 164.7C228.039 165.331 228.405 165.793 228.845 166.086C229.285 166.365 229.733 166.504 230.187 166.504C230.495 166.504 230.811 166.46 231.133 166.372C231.471 166.269 231.808 166.093 232.145 165.844C232.483 165.58 232.798 165.213 233.091 164.744L233.487 164.876C233.311 165.433 233.033 165.976 232.651 166.504C232.27 167.032 231.786 167.465 231.199 167.802C230.613 168.139 229.909 168.308 229.087 168.308C228.09 168.308 227.21 168.095 226.447 167.67C225.685 167.245 225.083 166.599 224.643 165.734C224.218 164.869 224.005 163.769 224.005 162.434C224.005 161.07 224.233 159.933 224.687 159.024C225.157 158.115 225.795 157.44 226.601 157C227.423 156.545 228.354 156.318 229.395 156.318ZM242.244 156.318C242.714 156.318 243.095 156.421 243.388 156.626C243.682 156.817 243.894 157.066 244.026 157.374C244.173 157.682 244.246 158.005 244.246 158.342C244.246 158.885 244.085 159.332 243.762 159.684C243.454 160.021 243.044 160.19 242.53 160.19C242.017 160.19 241.614 160.065 241.32 159.816C241.042 159.552 240.902 159.207 240.902 158.782C240.902 158.371 240.99 158.034 241.166 157.77C241.357 157.491 241.592 157.257 241.87 157.066C241.665 157.007 241.46 157.015 241.254 157.088C240.976 157.132 240.712 157.249 240.462 157.44C240.213 157.616 240 157.843 239.824 158.122C239.648 158.386 239.509 158.679 239.406 159.002C239.304 159.31 239.252 159.611 239.252 159.904V165.734C239.252 166.438 239.421 166.915 239.758 167.164C240.11 167.413 240.631 167.538 241.32 167.538V168C240.983 167.985 240.492 167.971 239.846 167.956C239.201 167.927 238.526 167.912 237.822 167.912C237.236 167.912 236.642 167.927 236.04 167.956C235.439 167.971 234.984 167.985 234.676 168V167.538C235.19 167.538 235.549 167.428 235.754 167.208C235.974 166.988 236.084 166.57 236.084 165.954V159.024C236.084 158.364 235.982 157.88 235.776 157.572C235.586 157.249 235.219 157.088 234.676 157.088V156.626C235.146 156.67 235.6 156.692 236.04 156.692C236.656 156.692 237.228 156.67 237.756 156.626C238.299 156.567 238.798 156.487 239.252 156.384V158.43C239.428 158.034 239.663 157.675 239.956 157.352C240.25 157.029 240.587 156.78 240.968 156.604C241.35 156.413 241.775 156.318 242.244 156.318ZM250.321 156.318C251.612 156.318 252.624 156.699 253.357 157.462C254.091 158.225 254.457 159.471 254.457 161.202H247.219L247.175 160.784H251.685C251.7 160.065 251.656 159.405 251.553 158.804C251.451 158.188 251.289 157.697 251.069 157.33C250.849 156.963 250.556 156.78 250.189 156.78C249.676 156.78 249.236 157.103 248.869 157.748C248.517 158.393 248.305 159.464 248.231 160.96L248.297 161.092C248.283 161.268 248.268 161.451 248.253 161.642C248.253 161.833 248.253 162.031 248.253 162.236C248.253 163.248 248.393 164.069 248.671 164.7C248.965 165.331 249.331 165.793 249.771 166.086C250.211 166.365 250.659 166.504 251.113 166.504C251.421 166.504 251.737 166.46 252.059 166.372C252.397 166.269 252.734 166.093 253.071 165.844C253.409 165.58 253.724 165.213 254.017 164.744L254.413 164.876C254.237 165.433 253.959 165.976 253.577 166.504C253.196 167.032 252.712 167.465 252.125 167.802C251.539 168.139 250.835 168.308 250.013 168.308C249.016 168.308 248.136 168.095 247.373 167.67C246.611 167.245 246.009 166.599 245.569 165.734C245.144 164.869 244.931 163.769 244.931 162.434C244.931 161.07 245.159 159.933 245.613 159.024C246.083 158.115 246.721 157.44 247.527 157C248.349 156.545 249.28 156.318 250.321 156.318ZM262.009 152.116C262.376 152.116 262.691 152.182 262.955 152.314C263.219 152.446 263.425 152.637 263.571 152.886C263.733 153.091 263.85 153.363 263.923 153.7C264.011 154.037 264.055 154.375 264.055 154.712C264.055 155.445 263.865 156.127 263.483 156.758C263.117 157.374 262.537 157.865 261.745 158.232L261.547 157.836C261.958 157.66 262.325 157.389 262.647 157.022C262.97 156.655 263.161 156.281 263.219 155.9C263.293 155.577 263.293 155.269 263.219 154.976C262.897 155.328 262.471 155.504 261.943 155.504C261.43 155.504 261.012 155.357 260.689 155.064C260.367 154.756 260.205 154.338 260.205 153.81C260.205 153.297 260.374 152.886 260.711 152.578C261.063 152.27 261.496 152.116 262.009 152.116ZM257.477 152.116C257.844 152.116 258.159 152.182 258.423 152.314C258.687 152.446 258.893 152.637 259.039 152.886C259.201 153.091 259.318 153.363 259.391 153.7C259.479 154.037 259.523 154.375 259.523 154.712C259.523 155.445 259.333 156.127 258.951 156.758C258.585 157.374 258.005 157.865 257.213 158.232L257.015 157.836C257.426 157.66 257.793 157.389 258.115 157.022C258.438 156.655 258.629 156.281 258.687 155.9C258.761 155.577 258.761 155.269 258.687 154.976C258.365 155.328 257.939 155.504 257.411 155.504C256.898 155.504 256.48 155.357 256.157 155.064C255.835 154.756 255.673 154.338 255.673 153.81C255.673 153.297 255.842 152.886 256.179 152.578C256.531 152.27 256.964 152.116 257.477 152.116Z" fill="#0000FF"/>
</svg>
