<svg width="300" height="300" viewBox="0 0 300 300" fill="none" xmlns="http://www.w3.org/2000/svg">
<rect width="300" height="300" fill="#B74636"/>
<path d="M76.6419 127.144C76.2899 127.144 75.9819 127.078 75.7179 126.946C75.4539 126.799 75.2413 126.609 75.0799 126.374C74.9333 126.139 74.8159 125.861 74.7279 125.538C74.6399 125.215 74.5959 124.878 74.5959 124.526C74.5959 123.807 74.7793 123.133 75.1459 122.502C75.5273 121.871 76.1139 121.373 76.9059 121.006L77.1039 121.402C76.6933 121.593 76.3266 121.871 76.0039 122.238C75.6959 122.59 75.5126 122.964 75.4539 123.36C75.3659 123.668 75.3586 123.969 75.4319 124.262C75.7546 123.91 76.1873 123.734 76.7299 123.734C77.2286 123.734 77.6393 123.888 77.9619 124.196C78.2846 124.489 78.4459 124.9 78.4459 125.428C78.4459 125.941 78.2773 126.359 77.9399 126.682C77.6026 126.99 77.1699 127.144 76.6419 127.144ZM81.1739 127.144C80.8219 127.144 80.5139 127.078 80.2499 126.946C79.9859 126.799 79.7733 126.609 79.6119 126.374C79.4653 126.139 79.3479 125.861 79.2599 125.538C79.1719 125.215 79.1279 124.878 79.1279 124.526C79.1279 123.807 79.3113 123.133 79.6779 122.502C80.0593 121.871 80.6459 121.373 81.4379 121.006L81.6359 121.402C81.2253 121.593 80.8586 121.871 80.5359 122.238C80.2279 122.59 80.0446 122.964 79.9859 123.36C79.8979 123.668 79.8906 123.969 79.9639 124.262C80.2866 123.91 80.7193 123.734 81.2619 123.734C81.7606 123.734 82.1713 123.888 82.4939 124.196C82.8166 124.489 82.9779 124.9 82.9779 125.428C82.9779 125.941 82.8093 126.359 82.4719 126.682C82.1346 126.99 81.7019 127.144 81.1739 127.144ZM96.351 121.424C96.2923 122.084 96.2483 122.722 96.219 123.338C96.2043 123.954 96.197 124.431 96.197 124.768C96.197 125.091 96.2043 125.399 96.219 125.692C96.2337 125.985 96.2483 126.235 96.263 126.44H95.757C95.5663 125.296 95.3023 124.401 94.965 123.756C94.6277 123.096 94.2097 122.627 93.711 122.348C93.227 122.069 92.6477 121.93 91.973 121.93H91.247C90.8217 121.93 90.499 121.967 90.279 122.04C90.059 122.113 89.9123 122.26 89.839 122.48C89.7657 122.7 89.729 123.037 89.729 123.492V134.536C89.729 135.108 89.7877 135.533 89.905 135.812C90.0223 136.091 90.2497 136.274 90.587 136.362C90.9243 136.45 91.423 136.501 92.083 136.516V137C91.6283 136.985 91.0417 136.971 90.323 136.956C89.6043 136.941 88.849 136.934 88.057 136.934C87.4263 136.934 86.8103 136.941 86.209 136.956C85.6077 136.971 85.065 136.985 84.581 137V136.56C85.0503 136.531 85.4023 136.472 85.637 136.384C85.8717 136.296 86.0257 136.12 86.099 135.856C86.187 135.592 86.231 135.196 86.231 134.668V123.756C86.231 123.213 86.187 122.817 86.099 122.568C86.0257 122.304 85.8643 122.128 85.615 122.04C85.3803 121.937 85.0357 121.879 84.581 121.864V121.424C85.1823 121.439 85.8203 121.453 86.495 121.468C87.1697 121.468 87.837 121.475 88.497 121.49C89.157 121.49 89.773 121.49 90.345 121.49C90.917 121.49 91.3863 121.49 91.753 121.49C92.4277 121.49 93.1903 121.49 94.041 121.49C94.9063 121.475 95.6763 121.453 96.351 121.424ZM93.073 129.036C93.073 129.036 93.073 129.109 93.073 129.256C93.073 129.403 93.073 129.476 93.073 129.476H89.069C89.069 129.476 89.069 129.403 89.069 129.256C89.069 129.109 89.069 129.036 89.069 129.036H93.073ZM93.623 126.132C93.5643 126.968 93.535 127.606 93.535 128.046C93.5497 128.486 93.557 128.889 93.557 129.256C93.557 129.623 93.5643 130.026 93.579 130.466C93.5937 130.906 93.6303 131.544 93.689 132.38H93.183C93.095 131.867 92.9557 131.39 92.765 130.95C92.5743 130.51 92.2957 130.158 91.929 129.894C91.5623 129.615 91.0857 129.476 90.499 129.476V129.036C90.939 129.036 91.3057 128.948 91.599 128.772C91.907 128.581 92.1637 128.339 92.369 128.046C92.5743 127.738 92.7357 127.415 92.853 127.078C92.9703 126.741 93.0583 126.425 93.117 126.132H93.623ZM100.051 137.154C99.3913 137.154 98.8413 137.029 98.4013 136.78C97.9613 136.531 97.6386 136.201 97.4333 135.79C97.228 135.365 97.1253 134.903 97.1253 134.404C97.1253 133.773 97.2646 133.26 97.5433 132.864C97.8366 132.468 98.2106 132.145 98.6653 131.896C99.12 131.647 99.5966 131.441 100.095 131.28C100.609 131.119 101.093 130.965 101.547 130.818C102.017 130.657 102.391 130.473 102.669 130.268C102.963 130.048 103.109 129.769 103.109 129.432V127.716C103.109 127.335 103.043 126.997 102.911 126.704C102.794 126.396 102.603 126.161 102.339 126C102.09 125.839 101.76 125.758 101.349 125.758C101.056 125.758 100.763 125.802 100.469 125.89C100.176 125.963 99.934 126.095 99.7433 126.286C100.154 126.433 100.469 126.66 100.689 126.968C100.924 127.261 101.041 127.599 101.041 127.98C101.041 128.479 100.865 128.875 100.513 129.168C100.176 129.461 99.7726 129.608 99.3033 129.608C98.7753 129.608 98.372 129.447 98.0933 129.124C97.8293 128.787 97.6973 128.383 97.6973 127.914C97.6973 127.489 97.8 127.137 98.0053 126.858C98.2253 126.579 98.526 126.315 98.9073 126.066C99.318 125.831 99.8093 125.648 100.381 125.516C100.968 125.384 101.599 125.318 102.273 125.318C102.948 125.318 103.557 125.391 104.099 125.538C104.642 125.67 105.097 125.919 105.463 126.286C105.801 126.623 106.021 127.041 106.123 127.54C106.226 128.024 106.277 128.64 106.277 129.388V135.372C106.277 135.739 106.314 135.995 106.387 136.142C106.461 136.274 106.585 136.34 106.761 136.34C106.893 136.34 107.018 136.303 107.135 136.23C107.267 136.157 107.407 136.069 107.553 135.966L107.773 136.34C107.465 136.604 107.106 136.809 106.695 136.956C106.299 137.088 105.852 137.154 105.353 137.154C104.811 137.154 104.378 137.081 104.055 136.934C103.733 136.773 103.498 136.56 103.351 136.296C103.219 136.032 103.153 135.724 103.153 135.372C102.801 135.929 102.376 136.369 101.877 136.692C101.379 137 100.77 137.154 100.051 137.154ZM101.613 135.746C101.907 135.746 102.171 135.68 102.405 135.548C102.655 135.401 102.889 135.167 103.109 134.844V130.334C102.977 130.554 102.794 130.752 102.559 130.928C102.325 131.104 102.075 131.287 101.811 131.478C101.547 131.654 101.291 131.852 101.041 132.072C100.807 132.292 100.616 132.563 100.469 132.886C100.323 133.209 100.249 133.597 100.249 134.052C100.249 134.624 100.374 135.049 100.623 135.328C100.873 135.607 101.203 135.746 101.613 135.746ZM115.97 125.318C116.439 125.318 116.821 125.421 117.114 125.626C117.407 125.817 117.62 126.066 117.752 126.374C117.899 126.682 117.972 127.005 117.972 127.342C117.972 127.885 117.811 128.332 117.488 128.684C117.18 129.021 116.769 129.19 116.256 129.19C115.743 129.19 115.339 129.065 115.046 128.816C114.767 128.552 114.628 128.207 114.628 127.782C114.628 127.371 114.716 127.034 114.892 126.77C115.083 126.491 115.317 126.257 115.596 126.066C115.391 126.007 115.185 126.015 114.98 126.088C114.701 126.132 114.437 126.249 114.188 126.44C113.939 126.616 113.726 126.843 113.55 127.122C113.374 127.386 113.235 127.679 113.132 128.002C113.029 128.31 112.978 128.611 112.978 128.904V134.734C112.978 135.438 113.147 135.915 113.484 136.164C113.836 136.413 114.357 136.538 115.046 136.538V137C114.709 136.985 114.217 136.971 113.572 136.956C112.927 136.927 112.252 136.912 111.548 136.912C110.961 136.912 110.367 136.927 109.766 136.956C109.165 136.971 108.71 136.985 108.402 137V136.538C108.915 136.538 109.275 136.428 109.48 136.208C109.7 135.988 109.81 135.57 109.81 134.954V128.024C109.81 127.364 109.707 126.88 109.502 126.572C109.311 126.249 108.945 126.088 108.402 126.088V125.626C108.871 125.67 109.326 125.692 109.766 125.692C110.382 125.692 110.954 125.67 111.482 125.626C112.025 125.567 112.523 125.487 112.978 125.384V127.43C113.154 127.034 113.389 126.675 113.682 126.352C113.975 126.029 114.313 125.78 114.694 125.604C115.075 125.413 115.501 125.318 115.97 125.318ZM129.298 125.626V126.066C129.019 126.139 128.755 126.315 128.506 126.594C128.256 126.858 128.014 127.313 127.78 127.958L124.568 137.044C124.333 137.029 124.091 137.022 123.842 137.022C123.607 137.022 123.372 137.029 123.138 137.044L119.222 127.32C118.987 126.748 118.752 126.403 118.518 126.286C118.298 126.154 118.107 126.088 117.946 126.088V125.626C118.415 125.655 118.899 125.685 119.398 125.714C119.911 125.729 120.468 125.736 121.07 125.736C121.524 125.736 122.001 125.729 122.5 125.714C123.013 125.685 123.49 125.655 123.93 125.626V126.088C123.622 126.088 123.343 126.103 123.094 126.132C122.859 126.161 122.698 126.257 122.61 126.418C122.522 126.579 122.536 126.865 122.654 127.276L125.228 134.096L125.008 134.404L126.746 129.586C127.024 128.794 127.142 128.149 127.098 127.65C127.054 127.137 126.892 126.755 126.614 126.506C126.335 126.242 125.961 126.095 125.492 126.066V125.626C125.712 125.641 125.946 125.655 126.196 125.67C126.46 125.67 126.709 125.677 126.944 125.692C127.193 125.692 127.413 125.692 127.604 125.692C127.897 125.692 128.205 125.685 128.528 125.67C128.85 125.655 129.107 125.641 129.298 125.626ZM135.197 125.318C136.488 125.318 137.5 125.699 138.233 126.462C138.966 127.225 139.333 128.471 139.333 130.202H132.095L132.051 129.784H136.561C136.576 129.065 136.532 128.405 136.429 127.804C136.326 127.188 136.165 126.697 135.945 126.33C135.725 125.963 135.432 125.78 135.065 125.78C134.552 125.78 134.112 126.103 133.745 126.748C133.393 127.393 133.18 128.464 133.107 129.96L133.173 130.092C133.158 130.268 133.144 130.451 133.129 130.642C133.129 130.833 133.129 131.031 133.129 131.236C133.129 132.248 133.268 133.069 133.547 133.7C133.84 134.331 134.207 134.793 134.647 135.086C135.087 135.365 135.534 135.504 135.989 135.504C136.297 135.504 136.612 135.46 136.935 135.372C137.272 135.269 137.61 135.093 137.947 134.844C138.284 134.58 138.6 134.213 138.893 133.744L139.289 133.876C139.113 134.433 138.834 134.976 138.453 135.504C138.072 136.032 137.588 136.465 137.001 136.802C136.414 137.139 135.71 137.308 134.889 137.308C133.892 137.308 133.012 137.095 132.249 136.67C131.486 136.245 130.885 135.599 130.445 134.734C130.02 133.869 129.807 132.769 129.807 131.434C129.807 130.07 130.034 128.933 130.489 128.024C130.958 127.115 131.596 126.44 132.403 126C133.224 125.545 134.156 125.318 135.197 125.318ZM151.018 125.626V126.066C150.74 126.139 150.476 126.315 150.226 126.594C149.977 126.858 149.735 127.313 149.5 127.958L146.288 137.044C146.054 137.029 145.812 137.022 145.562 137.022C145.328 137.022 145.093 137.029 144.858 137.044L140.942 127.32C140.708 126.748 140.473 126.403 140.238 126.286C140.018 126.154 139.828 126.088 139.666 126.088V125.626C140.136 125.655 140.62 125.685 141.118 125.714C141.632 125.729 142.189 125.736 142.79 125.736C143.245 125.736 143.722 125.729 144.22 125.714C144.734 125.685 145.21 125.655 145.65 125.626V126.088C145.342 126.088 145.064 126.103 144.814 126.132C144.58 126.161 144.418 126.257 144.33 126.418C144.242 126.579 144.257 126.865 144.374 127.276L146.948 134.096L146.728 134.404L148.466 129.586C148.745 128.794 148.862 128.149 148.818 127.65C148.774 127.137 148.613 126.755 148.334 126.506C148.056 126.242 147.682 126.095 147.212 126.066V125.626C147.432 125.641 147.667 125.655 147.916 125.67C148.18 125.67 148.43 125.677 148.664 125.692C148.914 125.692 149.134 125.692 149.324 125.692C149.618 125.692 149.926 125.685 150.248 125.67C150.571 125.655 150.828 125.641 151.018 125.626ZM154.342 137.154C153.682 137.154 153.132 137.029 152.692 136.78C152.252 136.531 151.93 136.201 151.724 135.79C151.519 135.365 151.416 134.903 151.416 134.404C151.416 133.773 151.556 133.26 151.834 132.864C152.128 132.468 152.502 132.145 152.956 131.896C153.411 131.647 153.888 131.441 154.386 131.28C154.9 131.119 155.384 130.965 155.838 130.818C156.308 130.657 156.682 130.473 156.96 130.268C157.254 130.048 157.4 129.769 157.4 129.432V127.716C157.4 127.335 157.334 126.997 157.202 126.704C157.085 126.396 156.894 126.161 156.63 126C156.381 125.839 156.051 125.758 155.64 125.758C155.347 125.758 155.054 125.802 154.76 125.89C154.467 125.963 154.225 126.095 154.034 126.286C154.445 126.433 154.76 126.66 154.98 126.968C155.215 127.261 155.332 127.599 155.332 127.98C155.332 128.479 155.156 128.875 154.804 129.168C154.467 129.461 154.064 129.608 153.594 129.608C153.066 129.608 152.663 129.447 152.384 129.124C152.12 128.787 151.988 128.383 151.988 127.914C151.988 127.489 152.091 127.137 152.296 126.858C152.516 126.579 152.817 126.315 153.198 126.066C153.609 125.831 154.1 125.648 154.672 125.516C155.259 125.384 155.89 125.318 156.564 125.318C157.239 125.318 157.848 125.391 158.39 125.538C158.933 125.67 159.388 125.919 159.754 126.286C160.092 126.623 160.312 127.041 160.414 127.54C160.517 128.024 160.568 128.64 160.568 129.388V135.372C160.568 135.739 160.605 135.995 160.678 136.142C160.752 136.274 160.876 136.34 161.052 136.34C161.184 136.34 161.309 136.303 161.426 136.23C161.558 136.157 161.698 136.069 161.844 135.966L162.064 136.34C161.756 136.604 161.397 136.809 160.986 136.956C160.59 137.088 160.143 137.154 159.644 137.154C159.102 137.154 158.669 137.081 158.346 136.934C158.024 136.773 157.789 136.56 157.642 136.296C157.51 136.032 157.444 135.724 157.444 135.372C157.092 135.929 156.667 136.369 156.168 136.692C155.67 137 155.061 137.154 154.342 137.154ZM155.904 135.746C156.198 135.746 156.462 135.68 156.696 135.548C156.946 135.401 157.18 135.167 157.4 134.844V130.334C157.268 130.554 157.085 130.752 156.85 130.928C156.616 131.104 156.366 131.287 156.102 131.478C155.838 131.654 155.582 131.852 155.332 132.072C155.098 132.292 154.907 132.563 154.76 132.886C154.614 133.209 154.54 133.597 154.54 134.052C154.54 134.624 154.665 135.049 154.914 135.328C155.164 135.607 155.494 135.746 155.904 135.746ZM167.181 119.774V134.954C167.181 135.57 167.284 135.988 167.489 136.208C167.709 136.428 168.076 136.538 168.589 136.538V137C168.31 136.985 167.892 136.971 167.335 136.956C166.778 136.927 166.213 136.912 165.641 136.912C165.069 136.912 164.49 136.927 163.903 136.956C163.331 136.971 162.898 136.985 162.605 137V136.538C163.118 136.538 163.478 136.428 163.683 136.208C163.903 135.988 164.013 135.57 164.013 134.954V122.414C164.013 121.754 163.91 121.27 163.705 120.962C163.514 120.639 163.148 120.478 162.605 120.478V120.016C163.074 120.06 163.529 120.082 163.969 120.082C164.57 120.082 165.142 120.06 165.685 120.016C166.228 119.957 166.726 119.877 167.181 119.774ZM173.793 141.136C172.884 141.136 172.07 141.055 171.351 140.894C170.647 140.747 170.09 140.513 169.679 140.19C169.283 139.882 169.085 139.501 169.085 139.046C169.085 138.591 169.29 138.181 169.701 137.814C170.112 137.462 170.72 137.183 171.527 136.978L171.725 137.33C171.446 137.55 171.241 137.785 171.109 138.034C170.992 138.298 170.933 138.569 170.933 138.848C170.933 139.464 171.212 139.933 171.769 140.256C172.341 140.593 173.111 140.762 174.079 140.762C174.739 140.762 175.326 140.674 175.839 140.498C176.367 140.322 176.778 140.058 177.071 139.706C177.379 139.354 177.533 138.921 177.533 138.408C177.533 137.968 177.372 137.594 177.049 137.286C176.726 136.993 176.081 136.846 175.113 136.846H173.749C173.148 136.846 172.62 136.78 172.165 136.648C171.725 136.516 171.38 136.311 171.131 136.032C170.882 135.739 170.757 135.372 170.757 134.932C170.757 134.316 170.999 133.773 171.483 133.304C171.967 132.835 172.686 132.395 173.639 131.984L173.859 132.16C173.58 132.336 173.316 132.527 173.067 132.732C172.832 132.923 172.715 133.172 172.715 133.48C172.715 133.949 173.008 134.184 173.595 134.184H175.993C176.8 134.184 177.518 134.279 178.149 134.47C178.794 134.661 179.3 134.976 179.667 135.416C180.048 135.841 180.239 136.399 180.239 137.088C180.239 137.807 180.004 138.474 179.535 139.09C179.08 139.706 178.376 140.197 177.423 140.564C176.47 140.945 175.26 141.136 173.793 141.136ZM174.013 132.314C173.177 132.314 172.429 132.189 171.769 131.94C171.109 131.691 170.588 131.309 170.207 130.796C169.826 130.283 169.635 129.623 169.635 128.816C169.635 128.009 169.826 127.349 170.207 126.836C170.588 126.308 171.109 125.927 171.769 125.692C172.429 125.443 173.177 125.318 174.013 125.318C174.849 125.318 175.597 125.443 176.257 125.692C176.917 125.927 177.438 126.308 177.819 126.836C178.2 127.349 178.391 128.009 178.391 128.816C178.391 129.623 178.2 130.283 177.819 130.796C177.438 131.309 176.917 131.691 176.257 131.94C175.597 132.189 174.849 132.314 174.013 132.314ZM174.013 131.918C174.409 131.918 174.717 131.698 174.937 131.258C175.157 130.803 175.267 129.989 175.267 128.816C175.267 127.643 175.157 126.836 174.937 126.396C174.717 125.941 174.409 125.714 174.013 125.714C173.632 125.714 173.324 125.941 173.089 126.396C172.869 126.836 172.759 127.643 172.759 128.816C172.759 129.989 172.869 130.803 173.089 131.258C173.324 131.698 173.632 131.918 174.013 131.918ZM177.445 127.21L177.005 127.056C177.225 126.484 177.577 126.007 178.061 125.626C178.56 125.245 179.095 125.054 179.667 125.054C180.136 125.054 180.488 125.186 180.723 125.45C180.972 125.699 181.097 126.029 181.097 126.44C181.097 126.88 180.98 127.21 180.745 127.43C180.51 127.635 180.246 127.738 179.953 127.738C179.704 127.738 179.469 127.65 179.249 127.474C179.044 127.298 178.926 127.034 178.897 126.682C178.868 126.315 178.992 125.846 179.271 125.274L179.425 125.406C178.868 125.611 178.45 125.853 178.171 126.132C177.892 126.396 177.65 126.755 177.445 127.21ZM187.017 125.318C188.308 125.318 189.32 125.699 190.053 126.462C190.787 127.225 191.153 128.471 191.153 130.202H183.915L183.871 129.784H188.381C188.396 129.065 188.352 128.405 188.249 127.804C188.147 127.188 187.985 126.697 187.765 126.33C187.545 125.963 187.252 125.78 186.885 125.78C186.372 125.78 185.932 126.103 185.565 126.748C185.213 127.393 185.001 128.464 184.927 129.96L184.993 130.092C184.979 130.268 184.964 130.451 184.949 130.642C184.949 130.833 184.949 131.031 184.949 131.236C184.949 132.248 185.089 133.069 185.367 133.7C185.661 134.331 186.027 134.793 186.467 135.086C186.907 135.365 187.355 135.504 187.809 135.504C188.117 135.504 188.433 135.46 188.755 135.372C189.093 135.269 189.43 135.093 189.767 134.844C190.105 134.58 190.42 134.213 190.713 133.744L191.109 133.876C190.933 134.433 190.655 134.976 190.273 135.504C189.892 136.032 189.408 136.465 188.821 136.802C188.235 137.139 187.531 137.308 186.709 137.308C185.712 137.308 184.832 137.095 184.069 136.67C183.307 136.245 182.705 135.599 182.265 134.734C181.84 133.869 181.627 132.769 181.627 131.434C181.627 130.07 181.855 128.933 182.309 128.024C182.779 127.115 183.417 126.44 184.223 126C185.045 125.545 185.976 125.318 187.017 125.318ZM196.893 122.018V125.626H199.489V126.066H196.893V134.954C196.893 135.394 196.974 135.709 197.135 135.9C197.297 136.076 197.539 136.164 197.861 136.164C198.125 136.164 198.389 136.069 198.653 135.878C198.917 135.673 199.152 135.328 199.357 134.844L199.731 135.042C199.497 135.702 199.137 136.245 198.653 136.67C198.184 137.095 197.539 137.308 196.717 137.308C196.233 137.308 195.808 137.242 195.441 137.11C195.075 136.993 194.767 136.809 194.517 136.56C194.195 136.237 193.982 135.841 193.879 135.372C193.777 134.888 193.725 134.265 193.725 133.502V126.066H191.877V125.626H193.725V122.722C194.341 122.722 194.906 122.671 195.419 122.568C195.947 122.451 196.439 122.267 196.893 122.018ZM210.822 125.318C212.113 125.318 213.125 125.699 213.858 126.462C214.591 127.225 214.958 128.471 214.958 130.202H207.72L207.676 129.784H212.186C212.201 129.065 212.157 128.405 212.054 127.804C211.951 127.188 211.79 126.697 211.57 126.33C211.35 125.963 211.057 125.78 210.69 125.78C210.177 125.78 209.737 126.103 209.37 126.748C209.018 127.393 208.805 128.464 208.732 129.96L208.798 130.092C208.783 130.268 208.769 130.451 208.754 130.642C208.754 130.833 208.754 131.031 208.754 131.236C208.754 132.248 208.893 133.069 209.172 133.7C209.465 134.331 209.832 134.793 210.272 135.086C210.712 135.365 211.159 135.504 211.614 135.504C211.922 135.504 212.237 135.46 212.56 135.372C212.897 135.269 213.235 135.093 213.572 134.844C213.909 134.58 214.225 134.213 214.518 133.744L214.914 133.876C214.738 134.433 214.459 134.976 214.078 135.504C213.697 136.032 213.213 136.465 212.626 136.802C212.039 137.139 211.335 137.308 210.514 137.308C209.517 137.308 208.637 137.095 207.874 136.67C207.111 136.245 206.51 135.599 206.07 134.734C205.645 133.869 205.432 132.769 205.432 131.434C205.432 130.07 205.659 128.933 206.114 128.024C206.583 127.115 207.221 126.44 208.028 126C208.849 125.545 209.781 125.318 210.822 125.318ZM223.671 125.318C224.141 125.318 224.522 125.421 224.815 125.626C225.109 125.817 225.321 126.066 225.453 126.374C225.6 126.682 225.673 127.005 225.673 127.342C225.673 127.885 225.512 128.332 225.189 128.684C224.881 129.021 224.471 129.19 223.957 129.19C223.444 129.19 223.041 129.065 222.747 128.816C222.469 128.552 222.329 128.207 222.329 127.782C222.329 127.371 222.417 127.034 222.593 126.77C222.784 126.491 223.019 126.257 223.297 126.066C223.092 126.007 222.887 126.015 222.681 126.088C222.403 126.132 222.139 126.249 221.889 126.44C221.64 126.616 221.427 126.843 221.251 127.122C221.075 127.386 220.936 127.679 220.833 128.002C220.731 128.31 220.679 128.611 220.679 128.904V134.734C220.679 135.438 220.848 135.915 221.185 136.164C221.537 136.413 222.058 136.538 222.747 136.538V137C222.41 136.985 221.919 136.971 221.273 136.956C220.628 136.927 219.953 136.912 219.249 136.912C218.663 136.912 218.069 136.927 217.467 136.956C216.866 136.971 216.411 136.985 216.103 137V136.538C216.617 136.538 216.976 136.428 217.181 136.208C217.401 135.988 217.511 135.57 217.511 134.954V128.024C217.511 127.364 217.409 126.88 217.203 126.572C217.013 126.249 216.646 126.088 216.103 126.088V125.626C216.573 125.67 217.027 125.692 217.467 125.692C218.083 125.692 218.655 125.67 219.183 125.626C219.726 125.567 220.225 125.487 220.679 125.384V127.43C220.855 127.034 221.09 126.675 221.383 126.352C221.677 126.029 222.014 125.78 222.395 125.604C222.777 125.413 223.202 125.318 223.671 125.318ZM97.2996 151.318C98.4436 151.318 99.3896 151.787 100.138 152.726C100.9 153.65 101.282 155.08 101.282 157.016C101.282 158.541 101.047 159.766 100.578 160.69C100.123 161.614 99.5143 162.281 98.7516 162.692C97.9889 163.103 97.1529 163.308 96.2436 163.308C95.6423 163.308 95.0849 163.205 94.5716 163C94.0583 162.795 93.6183 162.457 93.2516 161.988L93.5596 161.878C93.8236 162.201 94.1316 162.443 94.4836 162.604C94.8503 162.765 95.2096 162.846 95.5616 162.846C96.3683 162.846 96.9696 162.391 97.3656 161.482C97.7616 160.573 97.9596 159.187 97.9596 157.324C97.9596 156.063 97.8789 155.065 97.7176 154.332C97.5709 153.584 97.3509 153.056 97.0576 152.748C96.7643 152.425 96.4123 152.264 96.0016 152.264C95.4883 152.264 95.0189 152.477 94.5936 152.902C94.1683 153.313 93.9263 153.892 93.8676 154.64L93.7576 153.87C94.0216 153.034 94.4689 152.403 95.0996 151.978C95.7303 151.538 96.4636 151.318 97.2996 151.318ZM93.9336 145.796V162.56C93.5669 162.501 93.1929 162.501 92.8116 162.56C92.4303 162.619 92.0783 162.721 91.7556 162.868C91.4329 163 91.1616 163.161 90.9416 163.352L90.6116 163.154C90.6703 162.949 90.7069 162.743 90.7216 162.538C90.7509 162.333 90.7656 162.127 90.7656 161.922V148.436C90.7656 147.776 90.6629 147.292 90.4576 146.984C90.2669 146.661 89.9003 146.5 89.3576 146.5V146.038C89.8269 146.082 90.2816 146.104 90.7216 146.104C91.3229 146.104 91.8949 146.082 92.4376 146.038C92.9803 145.979 93.4789 145.899 93.9336 145.796ZM108.32 151.318C109.611 151.318 110.623 151.699 111.356 152.462C112.09 153.225 112.456 154.471 112.456 156.202H105.218L105.174 155.784H109.684C109.699 155.065 109.655 154.405 109.552 153.804C109.45 153.188 109.288 152.697 109.068 152.33C108.848 151.963 108.555 151.78 108.188 151.78C107.675 151.78 107.235 152.103 106.868 152.748C106.516 153.393 106.304 154.464 106.23 155.96L106.296 156.092C106.282 156.268 106.267 156.451 106.252 156.642C106.252 156.833 106.252 157.031 106.252 157.236C106.252 158.248 106.392 159.069 106.67 159.7C106.964 160.331 107.33 160.793 107.77 161.086C108.21 161.365 108.658 161.504 109.112 161.504C109.42 161.504 109.736 161.46 110.058 161.372C110.396 161.269 110.733 161.093 111.07 160.844C111.408 160.58 111.723 160.213 112.016 159.744L112.412 159.876C112.236 160.433 111.958 160.976 111.576 161.504C111.195 162.032 110.711 162.465 110.124 162.802C109.538 163.139 108.834 163.308 108.012 163.308C107.015 163.308 106.135 163.095 105.372 162.67C104.61 162.245 104.008 161.599 103.568 160.734C103.143 159.869 102.93 158.769 102.93 157.434C102.93 156.07 103.158 154.933 103.612 154.024C104.082 153.115 104.72 152.44 105.526 152C106.348 151.545 107.279 151.318 108.32 151.318ZM118.196 145.796V153.364C118.563 152.601 119.054 152.073 119.67 151.78C120.301 151.472 121.005 151.318 121.782 151.318C122.413 151.318 122.919 151.399 123.3 151.56C123.681 151.707 123.982 151.912 124.202 152.176C124.451 152.455 124.627 152.814 124.73 153.254C124.847 153.694 124.906 154.288 124.906 155.036V160.954C124.906 161.57 125.009 161.988 125.214 162.208C125.434 162.428 125.801 162.538 126.314 162.538V163C126.035 162.985 125.61 162.971 125.038 162.956C124.481 162.927 123.938 162.912 123.41 162.912C122.838 162.912 122.281 162.927 121.738 162.956C121.21 162.971 120.814 162.985 120.55 163V162.538C120.99 162.538 121.298 162.428 121.474 162.208C121.65 161.988 121.738 161.57 121.738 160.954V154.112C121.738 153.745 121.701 153.43 121.628 153.166C121.555 152.887 121.415 152.675 121.21 152.528C121.019 152.367 120.741 152.286 120.374 152.286C119.978 152.286 119.611 152.396 119.274 152.616C118.951 152.821 118.687 153.115 118.482 153.496C118.291 153.877 118.196 154.317 118.196 154.816V160.954C118.196 161.57 118.284 161.988 118.46 162.208C118.636 162.428 118.944 162.538 119.384 162.538V163C119.12 162.985 118.731 162.971 118.218 162.956C117.705 162.927 117.184 162.912 116.656 162.912C116.084 162.912 115.505 162.927 114.918 162.956C114.346 162.971 113.913 162.985 113.62 163V162.538C114.133 162.538 114.493 162.428 114.698 162.208C114.918 161.988 115.028 161.57 115.028 160.954V148.436C115.028 147.776 114.925 147.292 114.72 146.984C114.529 146.661 114.163 146.5 113.62 146.5V146.038C114.089 146.082 114.544 146.104 114.984 146.104C115.585 146.104 116.157 146.082 116.7 146.038C117.243 145.979 117.741 145.899 118.196 145.796ZM130.151 163.154C129.491 163.154 128.941 163.029 128.501 162.78C128.061 162.531 127.738 162.201 127.533 161.79C127.328 161.365 127.225 160.903 127.225 160.404C127.225 159.773 127.364 159.26 127.643 158.864C127.936 158.468 128.31 158.145 128.765 157.896C129.22 157.647 129.696 157.441 130.195 157.28C130.708 157.119 131.192 156.965 131.647 156.818C132.116 156.657 132.49 156.473 132.769 156.268C133.062 156.048 133.209 155.769 133.209 155.432V153.716C133.209 153.335 133.143 152.997 133.011 152.704C132.894 152.396 132.703 152.161 132.439 152C132.19 151.839 131.86 151.758 131.449 151.758C131.156 151.758 130.862 151.802 130.569 151.89C130.276 151.963 130.034 152.095 129.843 152.286C130.254 152.433 130.569 152.66 130.789 152.968C131.024 153.261 131.141 153.599 131.141 153.98C131.141 154.479 130.965 154.875 130.613 155.168C130.276 155.461 129.872 155.608 129.403 155.608C128.875 155.608 128.472 155.447 128.193 155.124C127.929 154.787 127.797 154.383 127.797 153.914C127.797 153.489 127.9 153.137 128.105 152.858C128.325 152.579 128.626 152.315 129.007 152.066C129.418 151.831 129.909 151.648 130.481 151.516C131.068 151.384 131.698 151.318 132.373 151.318C133.048 151.318 133.656 151.391 134.199 151.538C134.742 151.67 135.196 151.919 135.563 152.286C135.9 152.623 136.12 153.041 136.223 153.54C136.326 154.024 136.377 154.64 136.377 155.388V161.372C136.377 161.739 136.414 161.995 136.487 162.142C136.56 162.274 136.685 162.34 136.861 162.34C136.993 162.34 137.118 162.303 137.235 162.23C137.367 162.157 137.506 162.069 137.653 161.966L137.873 162.34C137.565 162.604 137.206 162.809 136.795 162.956C136.399 163.088 135.952 163.154 135.453 163.154C134.91 163.154 134.478 163.081 134.155 162.934C133.832 162.773 133.598 162.56 133.451 162.296C133.319 162.032 133.253 161.724 133.253 161.372C132.901 161.929 132.476 162.369 131.977 162.692C131.478 163 130.87 163.154 130.151 163.154ZM131.713 161.746C132.006 161.746 132.27 161.68 132.505 161.548C132.754 161.401 132.989 161.167 133.209 160.844V156.334C133.077 156.554 132.894 156.752 132.659 156.928C132.424 157.104 132.175 157.287 131.911 157.478C131.647 157.654 131.39 157.852 131.141 158.072C130.906 158.292 130.716 158.563 130.569 158.886C130.422 159.209 130.349 159.597 130.349 160.052C130.349 160.624 130.474 161.049 130.723 161.328C130.972 161.607 131.302 161.746 131.713 161.746ZM142.77 167.136C141.86 167.136 141.046 167.055 140.328 166.894C139.624 166.747 139.066 166.513 138.656 166.19C138.26 165.882 138.062 165.501 138.062 165.046C138.062 164.591 138.267 164.181 138.678 163.814C139.088 163.462 139.697 163.183 140.504 162.978L140.702 163.33C140.423 163.55 140.218 163.785 140.086 164.034C139.968 164.298 139.91 164.569 139.91 164.848C139.91 165.464 140.188 165.933 140.746 166.256C141.318 166.593 142.088 166.762 143.056 166.762C143.716 166.762 144.302 166.674 144.816 166.498C145.344 166.322 145.754 166.058 146.048 165.706C146.356 165.354 146.51 164.921 146.51 164.408C146.51 163.968 146.348 163.594 146.026 163.286C145.703 162.993 145.058 162.846 144.09 162.846H142.726C142.124 162.846 141.596 162.78 141.142 162.648C140.702 162.516 140.357 162.311 140.108 162.032C139.858 161.739 139.734 161.372 139.734 160.932C139.734 160.316 139.976 159.773 140.46 159.304C140.944 158.835 141.662 158.395 142.616 157.984L142.836 158.16C142.557 158.336 142.293 158.527 142.044 158.732C141.809 158.923 141.692 159.172 141.692 159.48C141.692 159.949 141.985 160.184 142.572 160.184H144.97C145.776 160.184 146.495 160.279 147.126 160.47C147.771 160.661 148.277 160.976 148.644 161.416C149.025 161.841 149.216 162.399 149.216 163.088C149.216 163.807 148.981 164.474 148.512 165.09C148.057 165.706 147.353 166.197 146.4 166.564C145.446 166.945 144.236 167.136 142.77 167.136ZM142.99 158.314C142.154 158.314 141.406 158.189 140.746 157.94C140.086 157.691 139.565 157.309 139.184 156.796C138.802 156.283 138.612 155.623 138.612 154.816C138.612 154.009 138.802 153.349 139.184 152.836C139.565 152.308 140.086 151.927 140.746 151.692C141.406 151.443 142.154 151.318 142.99 151.318C143.826 151.318 144.574 151.443 145.234 151.692C145.894 151.927 146.414 152.308 146.796 152.836C147.177 153.349 147.368 154.009 147.368 154.816C147.368 155.623 147.177 156.283 146.796 156.796C146.414 157.309 145.894 157.691 145.234 157.94C144.574 158.189 143.826 158.314 142.99 158.314ZM142.99 157.918C143.386 157.918 143.694 157.698 143.914 157.258C144.134 156.803 144.244 155.989 144.244 154.816C144.244 153.643 144.134 152.836 143.914 152.396C143.694 151.941 143.386 151.714 142.99 151.714C142.608 151.714 142.3 151.941 142.066 152.396C141.846 152.836 141.736 153.643 141.736 154.816C141.736 155.989 141.846 156.803 142.066 157.258C142.3 157.698 142.608 157.918 142.99 157.918ZM146.422 153.21L145.982 153.056C146.202 152.484 146.554 152.007 147.038 151.626C147.536 151.245 148.072 151.054 148.644 151.054C149.113 151.054 149.465 151.186 149.7 151.45C149.949 151.699 150.074 152.029 150.074 152.44C150.074 152.88 149.956 153.21 149.722 153.43C149.487 153.635 149.223 153.738 148.93 153.738C148.68 153.738 148.446 153.65 148.226 153.474C148.02 153.298 147.903 153.034 147.874 152.682C147.844 152.315 147.969 151.846 148.248 151.274L148.402 151.406C147.844 151.611 147.426 151.853 147.148 152.132C146.869 152.396 146.627 152.755 146.422 153.21ZM155.994 151.318C157.285 151.318 158.297 151.699 159.03 152.462C159.763 153.225 160.13 154.471 160.13 156.202H152.892L152.848 155.784H157.358C157.373 155.065 157.329 154.405 157.226 153.804C157.123 153.188 156.962 152.697 156.742 152.33C156.522 151.963 156.229 151.78 155.862 151.78C155.349 151.78 154.909 152.103 154.542 152.748C154.19 153.393 153.977 154.464 153.904 155.96L153.97 156.092C153.955 156.268 153.941 156.451 153.926 156.642C153.926 156.833 153.926 157.031 153.926 157.236C153.926 158.248 154.065 159.069 154.344 159.7C154.637 160.331 155.004 160.793 155.444 161.086C155.884 161.365 156.331 161.504 156.786 161.504C157.094 161.504 157.409 161.46 157.732 161.372C158.069 161.269 158.407 161.093 158.744 160.844C159.081 160.58 159.397 160.213 159.69 159.744L160.086 159.876C159.91 160.433 159.631 160.976 159.25 161.504C158.869 162.032 158.385 162.465 157.798 162.802C157.211 163.139 156.507 163.308 155.686 163.308C154.689 163.308 153.809 163.095 153.046 162.67C152.283 162.245 151.682 161.599 151.242 160.734C150.817 159.869 150.604 158.769 150.604 157.434C150.604 156.07 150.831 154.933 151.286 154.024C151.755 153.115 152.393 152.44 153.2 152C154.021 151.545 154.953 151.318 155.994 151.318ZM165.892 145.774V160.954C165.892 161.57 165.995 161.988 166.2 162.208C166.42 162.428 166.787 162.538 167.3 162.538V163C167.021 162.985 166.603 162.971 166.046 162.956C165.489 162.927 164.924 162.912 164.352 162.912C163.78 162.912 163.201 162.927 162.614 162.956C162.042 162.971 161.609 162.985 161.316 163V162.538C161.829 162.538 162.189 162.428 162.394 162.208C162.614 161.988 162.724 161.57 162.724 160.954V148.414C162.724 147.754 162.621 147.27 162.416 146.962C162.225 146.639 161.859 146.478 161.316 146.478V146.016C161.785 146.06 162.24 146.082 162.68 146.082C163.281 146.082 163.853 146.06 164.396 146.016C164.939 145.957 165.437 145.877 165.892 145.774ZM171.096 145.95C171.712 145.95 172.196 146.104 172.548 146.412C172.915 146.705 173.098 147.116 173.098 147.644C173.098 148.172 172.915 148.59 172.548 148.898C172.196 149.191 171.712 149.338 171.096 149.338C170.48 149.338 169.989 149.191 169.622 148.898C169.27 148.59 169.094 148.172 169.094 147.644C169.094 147.116 169.27 146.705 169.622 146.412C169.989 146.104 170.48 145.95 171.096 145.95ZM172.812 151.384V160.954C172.812 161.57 172.915 161.988 173.12 162.208C173.34 162.428 173.707 162.538 174.22 162.538V163C173.956 162.985 173.545 162.971 172.988 162.956C172.431 162.927 171.866 162.912 171.294 162.912C170.722 162.912 170.143 162.927 169.556 162.956C168.969 162.971 168.529 162.985 168.236 163V162.538C168.749 162.538 169.109 162.428 169.314 162.208C169.534 161.988 169.644 161.57 169.644 160.954V154.024C169.644 153.364 169.541 152.88 169.336 152.572C169.145 152.249 168.779 152.088 168.236 152.088V151.626C168.705 151.67 169.16 151.692 169.6 151.692C170.216 151.692 170.788 151.67 171.316 151.626C171.859 151.567 172.357 151.487 172.812 151.384ZM179.443 167.136C178.534 167.136 177.72 167.055 177.001 166.894C176.297 166.747 175.74 166.513 175.329 166.19C174.933 165.882 174.735 165.501 174.735 165.046C174.735 164.591 174.941 164.181 175.351 163.814C175.762 163.462 176.371 163.183 177.177 162.978L177.375 163.33C177.097 163.55 176.891 163.785 176.759 164.034C176.642 164.298 176.583 164.569 176.583 164.848C176.583 165.464 176.862 165.933 177.419 166.256C177.991 166.593 178.761 166.762 179.729 166.762C180.389 166.762 180.976 166.674 181.489 166.498C182.017 166.322 182.428 166.058 182.721 165.706C183.029 165.354 183.183 164.921 183.183 164.408C183.183 163.968 183.022 163.594 182.699 163.286C182.377 162.993 181.731 162.846 180.763 162.846H179.399C178.798 162.846 178.27 162.78 177.815 162.648C177.375 162.516 177.031 162.311 176.781 162.032C176.532 161.739 176.407 161.372 176.407 160.932C176.407 160.316 176.649 159.773 177.133 159.304C177.617 158.835 178.336 158.395 179.289 157.984L179.509 158.16C179.231 158.336 178.967 158.527 178.717 158.732C178.483 158.923 178.365 159.172 178.365 159.48C178.365 159.949 178.659 160.184 179.245 160.184H181.643C182.45 160.184 183.169 160.279 183.799 160.47C184.445 160.661 184.951 160.976 185.317 161.416C185.699 161.841 185.889 162.399 185.889 163.088C185.889 163.807 185.655 164.474 185.185 165.09C184.731 165.706 184.027 166.197 183.073 166.564C182.12 166.945 180.91 167.136 179.443 167.136ZM179.663 158.314C178.827 158.314 178.079 158.189 177.419 157.94C176.759 157.691 176.239 157.309 175.857 156.796C175.476 156.283 175.285 155.623 175.285 154.816C175.285 154.009 175.476 153.349 175.857 152.836C176.239 152.308 176.759 151.927 177.419 151.692C178.079 151.443 178.827 151.318 179.663 151.318C180.499 151.318 181.247 151.443 181.907 151.692C182.567 151.927 183.088 152.308 183.469 152.836C183.851 153.349 184.041 154.009 184.041 154.816C184.041 155.623 183.851 156.283 183.469 156.796C183.088 157.309 182.567 157.691 181.907 157.94C181.247 158.189 180.499 158.314 179.663 158.314ZM179.663 157.918C180.059 157.918 180.367 157.698 180.587 157.258C180.807 156.803 180.917 155.989 180.917 154.816C180.917 153.643 180.807 152.836 180.587 152.396C180.367 151.941 180.059 151.714 179.663 151.714C179.282 151.714 178.974 151.941 178.739 152.396C178.519 152.836 178.409 153.643 178.409 154.816C178.409 155.989 178.519 156.803 178.739 157.258C178.974 157.698 179.282 157.918 179.663 157.918ZM183.095 153.21L182.655 153.056C182.875 152.484 183.227 152.007 183.711 151.626C184.21 151.245 184.745 151.054 185.317 151.054C185.787 151.054 186.139 151.186 186.373 151.45C186.623 151.699 186.747 152.029 186.747 152.44C186.747 152.88 186.63 153.21 186.395 153.43C186.161 153.635 185.897 153.738 185.603 153.738C185.354 153.738 185.119 153.65 184.899 153.474C184.694 153.298 184.577 153.034 184.547 152.682C184.518 152.315 184.643 151.846 184.921 151.274L185.075 151.406C184.518 151.611 184.1 151.853 183.821 152.132C183.543 152.396 183.301 152.755 183.095 153.21ZM191.802 148.018V151.626H194.398V152.066H191.802V160.954C191.802 161.394 191.882 161.709 192.044 161.9C192.205 162.076 192.447 162.164 192.77 162.164C193.034 162.164 193.298 162.069 193.562 161.878C193.826 161.673 194.06 161.328 194.266 160.844L194.64 161.042C194.405 161.702 194.046 162.245 193.562 162.67C193.092 163.095 192.447 163.308 191.626 163.308C191.142 163.308 190.716 163.242 190.35 163.11C189.983 162.993 189.675 162.809 189.426 162.56C189.103 162.237 188.89 161.841 188.788 161.372C188.685 160.888 188.634 160.265 188.634 159.502V152.066H186.786V151.626H188.634V148.722C189.25 148.722 189.814 148.671 190.328 148.568C190.856 148.451 191.347 148.267 191.802 148.018ZM201.692 147.116C202.059 147.116 202.374 147.182 202.638 147.314C202.902 147.446 203.107 147.637 203.254 147.886C203.415 148.091 203.533 148.363 203.606 148.7C203.694 149.037 203.738 149.375 203.738 149.712C203.738 150.445 203.547 151.127 203.166 151.758C202.799 152.374 202.22 152.865 201.428 153.232L201.23 152.836C201.641 152.66 202.007 152.389 202.33 152.022C202.653 151.655 202.843 151.281 202.902 150.9C202.975 150.577 202.975 150.269 202.902 149.976C202.579 150.328 202.154 150.504 201.626 150.504C201.113 150.504 200.695 150.357 200.372 150.064C200.049 149.756 199.888 149.338 199.888 148.81C199.888 148.297 200.057 147.886 200.394 147.578C200.746 147.27 201.179 147.116 201.692 147.116ZM197.16 147.116C197.527 147.116 197.842 147.182 198.106 147.314C198.37 147.446 198.575 147.637 198.722 147.886C198.883 148.091 199.001 148.363 199.074 148.7C199.162 149.037 199.206 149.375 199.206 149.712C199.206 150.445 199.015 151.127 198.634 151.758C198.267 152.374 197.688 152.865 196.896 153.232L196.698 152.836C197.109 152.66 197.475 152.389 197.798 152.022C198.121 151.655 198.311 151.281 198.37 150.9C198.443 150.577 198.443 150.269 198.37 149.976C198.047 150.328 197.622 150.504 197.094 150.504C196.581 150.504 196.163 150.357 195.84 150.064C195.517 149.756 195.356 149.338 195.356 148.81C195.356 148.297 195.525 147.886 195.862 147.578C196.214 147.27 196.647 147.116 197.16 147.116Z" fill="#0000FF"/>
</svg>
