<svg width="300" height="300" viewBox="0 0 300 300" fill="none" xmlns="http://www.w3.org/2000/svg">
<rect width="300" height="300" fill="#B74636"/>
<path d="M30.0316 117.144C29.6796 117.144 29.3716 117.078 29.1076 116.946C28.8436 116.799 28.6309 116.609 28.4696 116.374C28.3229 116.139 28.2056 115.861 28.1176 115.538C28.0296 115.215 27.9856 114.878 27.9856 114.526C27.9856 113.807 28.1689 113.133 28.5356 112.502C28.9169 111.871 29.5036 111.373 30.2956 111.006L30.4936 111.402C30.0829 111.593 29.7162 111.871 29.3936 112.238C29.0856 112.59 28.9022 112.964 28.8436 113.36C28.7556 113.668 28.7482 113.969 28.8216 114.262C29.1442 113.91 29.5769 113.734 30.1196 113.734C30.6182 113.734 31.0289 113.888 31.3516 114.196C31.6742 114.489 31.8356 114.9 31.8356 115.428C31.8356 115.941 31.6669 116.359 31.3296 116.682C30.9922 116.99 30.5596 117.144 30.0316 117.144ZM34.5636 117.144C34.2116 117.144 33.9036 117.078 33.6396 116.946C33.3756 116.799 33.1629 116.609 33.0016 116.374C32.8549 116.139 32.7376 115.861 32.6496 115.538C32.5616 115.215 32.5176 114.878 32.5176 114.526C32.5176 113.807 32.7009 113.133 33.0676 112.502C33.4489 111.871 34.0356 111.373 34.8276 111.006L35.0256 111.402C34.6149 111.593 34.2482 111.871 33.9256 112.238C33.6176 112.59 33.4342 112.964 33.3756 113.36C33.2876 113.668 33.2802 113.969 33.3536 114.262C33.6762 113.91 34.1089 113.734 34.6516 113.734C35.1502 113.734 35.5609 113.888 35.8836 114.196C36.2062 114.489 36.3676 114.9 36.3676 115.428C36.3676 115.941 36.1989 116.359 35.8616 116.682C35.5242 116.99 35.0916 117.144 34.5636 117.144ZM49.7407 111.424C49.682 112.084 49.638 112.722 49.6087 113.338C49.594 113.954 49.5867 114.431 49.5867 114.768C49.5867 115.091 49.594 115.399 49.6087 115.692C49.6233 115.985 49.638 116.235 49.6527 116.44H49.1467C48.956 115.296 48.692 114.401 48.3547 113.756C48.0173 113.096 47.5993 112.627 47.1007 112.348C46.6167 112.069 46.0373 111.93 45.3627 111.93H44.6367C44.2113 111.93 43.8887 111.967 43.6687 112.04C43.4487 112.113 43.302 112.26 43.2287 112.48C43.1553 112.7 43.1187 113.037 43.1187 113.492V124.536C43.1187 125.108 43.1773 125.533 43.2947 125.812C43.412 126.091 43.6393 126.274 43.9767 126.362C44.314 126.45 44.8127 126.501 45.4727 126.516V127C45.018 126.985 44.4313 126.971 43.7127 126.956C42.994 126.941 42.2387 126.934 41.4467 126.934C40.816 126.934 40.2 126.941 39.5987 126.956C38.9973 126.971 38.4547 126.985 37.9707 127V126.56C38.44 126.531 38.792 126.472 39.0267 126.384C39.2613 126.296 39.4153 126.12 39.4887 125.856C39.5767 125.592 39.6207 125.196 39.6207 124.668V113.756C39.6207 113.213 39.5767 112.817 39.4887 112.568C39.4153 112.304 39.254 112.128 39.0047 112.04C38.77 111.937 38.4253 111.879 37.9707 111.864V111.424C38.572 111.439 39.21 111.453 39.8847 111.468C40.5593 111.468 41.2267 111.475 41.8867 111.49C42.5467 111.49 43.1627 111.49 43.7347 111.49C44.3067 111.49 44.776 111.49 45.1427 111.49C45.8173 111.49 46.58 111.49 47.4307 111.49C48.296 111.475 49.066 111.453 49.7407 111.424ZM46.4627 119.036C46.4627 119.036 46.4627 119.109 46.4627 119.256C46.4627 119.403 46.4627 119.476 46.4627 119.476H42.4587C42.4587 119.476 42.4587 119.403 42.4587 119.256C42.4587 119.109 42.4587 119.036 42.4587 119.036H46.4627ZM47.0127 116.132C46.954 116.968 46.9247 117.606 46.9247 118.046C46.9393 118.486 46.9467 118.889 46.9467 119.256C46.9467 119.623 46.954 120.026 46.9687 120.466C46.9833 120.906 47.02 121.544 47.0787 122.38H46.5727C46.4847 121.867 46.3453 121.39 46.1547 120.95C45.964 120.51 45.6853 120.158 45.3187 119.894C44.952 119.615 44.4753 119.476 43.8887 119.476V119.036C44.3287 119.036 44.6953 118.948 44.9887 118.772C45.2967 118.581 45.5533 118.339 45.7587 118.046C45.964 117.738 46.1253 117.415 46.2427 117.078C46.36 116.741 46.448 116.425 46.5067 116.132H47.0127ZM53.441 127.154C52.781 127.154 52.231 127.029 51.791 126.78C51.351 126.531 51.0283 126.201 50.823 125.79C50.6176 125.365 50.515 124.903 50.515 124.404C50.515 123.773 50.6543 123.26 50.933 122.864C51.2263 122.468 51.6003 122.145 52.055 121.896C52.5096 121.647 52.9863 121.441 53.485 121.28C53.9983 121.119 54.4823 120.965 54.937 120.818C55.4063 120.657 55.7803 120.473 56.059 120.268C56.3523 120.048 56.499 119.769 56.499 119.432V117.716C56.499 117.335 56.433 116.997 56.301 116.704C56.1836 116.396 55.993 116.161 55.729 116C55.4796 115.839 55.1496 115.758 54.739 115.758C54.4456 115.758 54.1523 115.802 53.859 115.89C53.5656 115.963 53.3236 116.095 53.133 116.286C53.5436 116.433 53.859 116.66 54.079 116.968C54.3136 117.261 54.431 117.599 54.431 117.98C54.431 118.479 54.255 118.875 53.903 119.168C53.5656 119.461 53.1623 119.608 52.693 119.608C52.165 119.608 51.7616 119.447 51.483 119.124C51.219 118.787 51.087 118.383 51.087 117.914C51.087 117.489 51.1896 117.137 51.395 116.858C51.615 116.579 51.9156 116.315 52.297 116.066C52.7076 115.831 53.199 115.648 53.771 115.516C54.3576 115.384 54.9883 115.318 55.663 115.318C56.3376 115.318 56.9463 115.391 57.489 115.538C58.0316 115.67 58.4863 115.919 58.853 116.286C59.1903 116.623 59.4103 117.041 59.513 117.54C59.6156 118.024 59.667 118.64 59.667 119.388V125.372C59.667 125.739 59.7036 125.995 59.777 126.142C59.8503 126.274 59.975 126.34 60.151 126.34C60.283 126.34 60.4076 126.303 60.525 126.23C60.657 126.157 60.7963 126.069 60.943 125.966L61.163 126.34C60.855 126.604 60.4956 126.809 60.085 126.956C59.689 127.088 59.2416 127.154 58.743 127.154C58.2003 127.154 57.7676 127.081 57.445 126.934C57.1223 126.773 56.8876 126.56 56.741 126.296C56.609 126.032 56.543 125.724 56.543 125.372C56.191 125.929 55.7656 126.369 55.267 126.692C54.7683 127 54.1596 127.154 53.441 127.154ZM55.003 125.746C55.2963 125.746 55.5603 125.68 55.795 125.548C56.0443 125.401 56.279 125.167 56.499 124.844V120.334C56.367 120.554 56.1836 120.752 55.949 120.928C55.7143 121.104 55.465 121.287 55.201 121.478C54.937 121.654 54.6803 121.852 54.431 122.072C54.1963 122.292 54.0056 122.563 53.859 122.886C53.7123 123.209 53.639 123.597 53.639 124.052C53.639 124.624 53.7636 125.049 54.013 125.328C54.2623 125.607 54.5923 125.746 55.003 125.746ZM69.3597 115.318C69.829 115.318 70.2103 115.421 70.5037 115.626C70.797 115.817 71.0097 116.066 71.1417 116.374C71.2883 116.682 71.3617 117.005 71.3617 117.342C71.3617 117.885 71.2003 118.332 70.8777 118.684C70.5697 119.021 70.159 119.19 69.6457 119.19C69.1323 119.19 68.729 119.065 68.4357 118.816C68.157 118.552 68.0177 118.207 68.0177 117.782C68.0177 117.371 68.1057 117.034 68.2817 116.77C68.4723 116.491 68.707 116.257 68.9857 116.066C68.7803 116.007 68.575 116.015 68.3697 116.088C68.091 116.132 67.827 116.249 67.5777 116.44C67.3283 116.616 67.1157 116.843 66.9397 117.122C66.7637 117.386 66.6243 117.679 66.5217 118.002C66.419 118.31 66.3677 118.611 66.3677 118.904V124.734C66.3677 125.438 66.5363 125.915 66.8737 126.164C67.2257 126.413 67.7463 126.538 68.4357 126.538V127C68.0983 126.985 67.607 126.971 66.9617 126.956C66.3163 126.927 65.6417 126.912 64.9377 126.912C64.351 126.912 63.757 126.927 63.1557 126.956C62.5543 126.971 62.0997 126.985 61.7917 127V126.538C62.305 126.538 62.6643 126.428 62.8697 126.208C63.0897 125.988 63.1997 125.57 63.1997 124.954V118.024C63.1997 117.364 63.097 116.88 62.8917 116.572C62.701 116.249 62.3343 116.088 61.7917 116.088V115.626C62.261 115.67 62.7157 115.692 63.1557 115.692C63.7717 115.692 64.3437 115.67 64.8717 115.626C65.4143 115.567 65.913 115.487 66.3677 115.384V117.43C66.5437 117.034 66.7783 116.675 67.0717 116.352C67.365 116.029 67.7023 115.78 68.0837 115.604C68.465 115.413 68.8903 115.318 69.3597 115.318ZM82.6872 115.626V116.066C82.4085 116.139 82.1445 116.315 81.8952 116.594C81.6459 116.858 81.4039 117.313 81.1692 117.958L77.9572 127.044C77.7225 127.029 77.4805 127.022 77.2312 127.022C76.9965 127.022 76.7619 127.029 76.5272 127.044L72.6112 117.32C72.3765 116.748 72.1419 116.403 71.9072 116.286C71.6872 116.154 71.4965 116.088 71.3352 116.088V115.626C71.8045 115.655 72.2885 115.685 72.7872 115.714C73.3005 115.729 73.8579 115.736 74.4592 115.736C74.9139 115.736 75.3905 115.729 75.8892 115.714C76.4025 115.685 76.8792 115.655 77.3192 115.626V116.088C77.0112 116.088 76.7325 116.103 76.4832 116.132C76.2485 116.161 76.0872 116.257 75.9992 116.418C75.9112 116.579 75.9259 116.865 76.0432 117.276L78.6172 124.096L78.3972 124.404L80.1352 119.586C80.4139 118.794 80.5312 118.149 80.4872 117.65C80.4432 117.137 80.2819 116.755 80.0032 116.506C79.7245 116.242 79.3505 116.095 78.8812 116.066V115.626C79.1012 115.641 79.3359 115.655 79.5852 115.67C79.8492 115.67 80.0985 115.677 80.3332 115.692C80.5825 115.692 80.8025 115.692 80.9932 115.692C81.2865 115.692 81.5945 115.685 81.9172 115.67C82.2399 115.655 82.4965 115.641 82.6872 115.626ZM88.5868 115.318C89.8775 115.318 90.8895 115.699 91.6228 116.462C92.3561 117.225 92.7228 118.471 92.7228 120.202H85.4848L85.4408 119.784H89.9508C89.9655 119.065 89.9215 118.405 89.8188 117.804C89.7161 117.188 89.5548 116.697 89.3348 116.33C89.1148 115.963 88.8215 115.78 88.4548 115.78C87.9415 115.78 87.5015 116.103 87.1348 116.748C86.7828 117.393 86.5701 118.464 86.4968 119.96L86.5628 120.092C86.5481 120.268 86.5335 120.451 86.5188 120.642C86.5188 120.833 86.5188 121.031 86.5188 121.236C86.5188 122.248 86.6581 123.069 86.9368 123.7C87.2301 124.331 87.5968 124.793 88.0368 125.086C88.4768 125.365 88.9241 125.504 89.3788 125.504C89.6868 125.504 90.0021 125.46 90.3248 125.372C90.6621 125.269 90.9995 125.093 91.3368 124.844C91.6741 124.58 91.9895 124.213 92.2828 123.744L92.6788 123.876C92.5028 124.433 92.2241 124.976 91.8428 125.504C91.4615 126.032 90.9775 126.465 90.3908 126.802C89.8041 127.139 89.1001 127.308 88.2788 127.308C87.2815 127.308 86.4015 127.095 85.6388 126.67C84.8761 126.245 84.2748 125.599 83.8348 124.734C83.4095 123.869 83.1968 122.769 83.1968 121.434C83.1968 120.07 83.4241 118.933 83.8788 118.024C84.3481 117.115 84.9861 116.44 85.7928 116C86.6141 115.545 87.5455 115.318 88.5868 115.318ZM98.4628 109.774V124.954C98.4628 125.57 98.5581 125.988 98.7488 126.208C98.9541 126.428 99.2988 126.538 99.7828 126.538V127C99.5041 126.985 99.0934 126.971 98.5508 126.956C98.0228 126.927 97.4801 126.912 96.9228 126.912C96.3508 126.912 95.7714 126.927 95.1848 126.956C94.6128 126.971 94.1801 126.985 93.8868 127V126.538C94.4001 126.538 94.7594 126.428 94.9648 126.208C95.1848 125.988 95.2948 125.57 95.2948 124.954V112.414C95.2948 111.754 95.1921 111.27 94.9868 110.962C94.7961 110.639 94.4294 110.478 93.8868 110.478V110.016C94.3561 110.06 94.8108 110.082 95.2508 110.082C95.8521 110.082 96.4241 110.06 96.9668 110.016C97.5094 109.957 98.0081 109.877 98.4628 109.774ZM105.635 115.626V116.066C105.18 116.154 104.725 116.345 104.271 116.638C103.816 116.931 103.354 117.305 102.885 117.76L101.191 119.52L101.411 119.102L105.173 125.394C105.334 125.658 105.503 125.893 105.679 126.098C105.855 126.303 106.067 126.45 106.317 126.538V127C106.097 126.985 105.767 126.971 105.327 126.956C104.887 126.927 104.447 126.912 104.007 126.912C103.464 126.912 102.921 126.927 102.379 126.956C101.836 126.971 101.433 126.985 101.169 127V126.538C101.462 126.538 101.66 126.472 101.763 126.34C101.865 126.193 101.851 126.01 101.719 125.79L99.5408 121.852C99.3648 121.573 99.1888 121.397 99.0128 121.324C98.8514 121.236 98.6314 121.185 98.3528 121.17V120.752C98.6608 120.723 98.9248 120.671 99.1448 120.598C99.3794 120.525 99.5921 120.385 99.7828 120.18L101.455 118.552C101.953 118.083 102.203 117.665 102.203 117.298C102.203 116.931 102.041 116.638 101.719 116.418C101.411 116.198 101 116.081 100.487 116.066V115.626C100.897 115.641 101.345 115.655 101.829 115.67C102.313 115.685 102.723 115.692 103.061 115.692C103.354 115.692 103.662 115.692 103.985 115.692C104.322 115.677 104.637 115.67 104.931 115.67C105.224 115.655 105.459 115.641 105.635 115.626ZM112.026 115.318C113.097 115.318 114.036 115.516 114.842 115.912C115.649 116.308 116.28 116.946 116.734 117.826C117.189 118.706 117.416 119.872 117.416 121.324C117.416 122.776 117.189 123.942 116.734 124.822C116.28 125.687 115.649 126.318 114.842 126.714C114.036 127.11 113.097 127.308 112.026 127.308C110.985 127.308 110.054 127.11 109.232 126.714C108.426 126.318 107.788 125.687 107.318 124.822C106.864 123.942 106.636 122.776 106.636 121.324C106.636 119.872 106.864 118.706 107.318 117.826C107.788 116.946 108.426 116.308 109.232 115.912C110.054 115.516 110.985 115.318 112.026 115.318ZM112.026 115.758C111.44 115.758 110.948 116.198 110.552 117.078C110.156 117.943 109.958 119.359 109.958 121.324C109.958 123.289 110.156 124.705 110.552 125.57C110.948 126.435 111.44 126.868 112.026 126.868C112.628 126.868 113.119 126.435 113.5 125.57C113.896 124.705 114.094 123.289 114.094 121.324C114.094 119.359 113.896 117.943 113.5 117.078C113.119 116.198 112.628 115.758 112.026 115.758ZM126.974 115.318C127.59 115.318 128.088 115.399 128.47 115.56C128.866 115.707 129.174 115.912 129.394 116.176C129.628 116.455 129.797 116.814 129.9 117.254C130.017 117.694 130.076 118.288 130.076 119.036V124.954C130.076 125.57 130.178 125.988 130.384 126.208C130.604 126.428 130.97 126.538 131.484 126.538V127C131.205 126.985 130.787 126.971 130.23 126.956C129.672 126.927 129.122 126.912 128.58 126.912C128.022 126.912 127.472 126.927 126.93 126.956C126.402 126.971 125.998 126.985 125.72 127V126.538C126.16 126.538 126.468 126.428 126.644 126.208C126.82 125.988 126.908 125.57 126.908 124.954V118.112C126.908 117.745 126.871 117.43 126.798 117.166C126.724 116.887 126.592 116.675 126.402 116.528C126.211 116.367 125.925 116.286 125.544 116.286C125.148 116.286 124.781 116.396 124.444 116.616C124.121 116.836 123.857 117.144 123.652 117.54C123.461 117.921 123.366 118.354 123.366 118.838V124.954C123.366 125.57 123.454 125.988 123.63 126.208C123.82 126.428 124.128 126.538 124.554 126.538V127C124.29 126.985 123.901 126.971 123.388 126.956C122.889 126.927 122.368 126.912 121.826 126.912C121.268 126.912 120.696 126.927 120.11 126.956C119.523 126.971 119.083 126.985 118.79 127V126.538C119.303 126.538 119.662 126.428 119.868 126.208C120.088 125.988 120.198 125.57 120.198 124.954V118.024C120.198 117.364 120.095 116.88 119.89 116.572C119.699 116.249 119.332 116.088 118.79 116.088V115.626C119.259 115.67 119.714 115.692 120.154 115.692C120.77 115.692 121.342 115.67 121.87 115.626C122.412 115.567 122.911 115.487 123.366 115.384V117.364C123.732 116.616 124.231 116.088 124.862 115.78C125.492 115.472 126.196 115.318 126.974 115.318ZM136.769 112.018V115.626H139.365V116.066H136.769V124.954C136.769 125.394 136.85 125.709 137.011 125.9C137.173 126.076 137.415 126.164 137.737 126.164C138.001 126.164 138.265 126.069 138.529 125.878C138.793 125.673 139.028 125.328 139.233 124.844L139.607 125.042C139.373 125.702 139.013 126.245 138.529 126.67C138.06 127.095 137.415 127.308 136.593 127.308C136.109 127.308 135.684 127.242 135.317 127.11C134.951 126.993 134.643 126.809 134.393 126.56C134.071 126.237 133.858 125.841 133.755 125.372C133.653 124.888 133.601 124.265 133.601 123.502V116.066H131.753V115.626H133.601V112.722C134.217 112.722 134.782 112.671 135.295 112.568C135.823 112.451 136.315 112.267 136.769 112.018ZM147.606 115.318C148.075 115.318 148.456 115.421 148.75 115.626C149.043 115.817 149.256 116.066 149.388 116.374C149.534 116.682 149.608 117.005 149.608 117.342C149.608 117.885 149.446 118.332 149.124 118.684C148.816 119.021 148.405 119.19 147.892 119.19C147.378 119.19 146.975 119.065 146.682 118.816C146.403 118.552 146.264 118.207 146.264 117.782C146.264 117.371 146.352 117.034 146.528 116.77C146.718 116.491 146.953 116.257 147.232 116.066C147.026 116.007 146.821 116.015 146.616 116.088C146.337 116.132 146.073 116.249 145.824 116.44C145.574 116.616 145.362 116.843 145.186 117.122C145.01 117.386 144.87 117.679 144.768 118.002C144.665 118.31 144.614 118.611 144.614 118.904V124.734C144.614 125.438 144.782 125.915 145.12 126.164C145.472 126.413 145.992 126.538 146.682 126.538V127C146.344 126.985 145.853 126.971 145.208 126.956C144.562 126.927 143.888 126.912 143.184 126.912C142.597 126.912 142.003 126.927 141.402 126.956C140.8 126.971 140.346 126.985 140.038 127V126.538C140.551 126.538 140.91 126.428 141.116 126.208C141.336 125.988 141.446 125.57 141.446 124.954V118.024C141.446 117.364 141.343 116.88 141.138 116.572C140.947 116.249 140.58 116.088 140.038 116.088V115.626C140.507 115.67 140.962 115.692 141.402 115.692C142.018 115.692 142.59 115.67 143.118 115.626C143.66 115.567 144.159 115.487 144.614 115.384V117.43C144.79 117.034 145.024 116.675 145.318 116.352C145.611 116.029 145.948 115.78 146.33 115.604C146.711 115.413 147.136 115.318 147.606 115.318ZM153.343 127.154C152.683 127.154 152.133 127.029 151.693 126.78C151.253 126.531 150.931 126.201 150.725 125.79C150.52 125.365 150.417 124.903 150.417 124.404C150.417 123.773 150.557 123.26 150.835 122.864C151.129 122.468 151.503 122.145 151.957 121.896C152.412 121.647 152.889 121.441 153.387 121.28C153.901 121.119 154.385 120.965 154.839 120.818C155.309 120.657 155.683 120.473 155.961 120.268C156.255 120.048 156.401 119.769 156.401 119.432V117.716C156.401 117.335 156.335 116.997 156.203 116.704C156.086 116.396 155.895 116.161 155.631 116C155.382 115.839 155.052 115.758 154.641 115.758C154.348 115.758 154.055 115.802 153.761 115.89C153.468 115.963 153.226 116.095 153.035 116.286C153.446 116.433 153.761 116.66 153.981 116.968C154.216 117.261 154.333 117.599 154.333 117.98C154.333 118.479 154.157 118.875 153.805 119.168C153.468 119.461 153.065 119.608 152.595 119.608C152.067 119.608 151.664 119.447 151.385 119.124C151.121 118.787 150.989 118.383 150.989 117.914C150.989 117.489 151.092 117.137 151.297 116.858C151.517 116.579 151.818 116.315 152.199 116.066C152.61 115.831 153.101 115.648 153.673 115.516C154.26 115.384 154.891 115.318 155.565 115.318C156.24 115.318 156.849 115.391 157.391 115.538C157.934 115.67 158.389 115.919 158.755 116.286C159.093 116.623 159.313 117.041 159.415 117.54C159.518 118.024 159.569 118.64 159.569 119.388V125.372C159.569 125.739 159.606 125.995 159.679 126.142C159.753 126.274 159.877 126.34 160.053 126.34C160.185 126.34 160.31 126.303 160.427 126.23C160.559 126.157 160.699 126.069 160.845 125.966L161.065 126.34C160.757 126.604 160.398 126.809 159.987 126.956C159.591 127.088 159.144 127.154 158.645 127.154C158.103 127.154 157.67 127.081 157.347 126.934C157.025 126.773 156.79 126.56 156.643 126.296C156.511 126.032 156.445 125.724 156.445 125.372C156.093 125.929 155.668 126.369 155.169 126.692C154.671 127 154.062 127.154 153.343 127.154ZM154.905 125.746C155.199 125.746 155.463 125.68 155.697 125.548C155.947 125.401 156.181 125.167 156.401 124.844V120.334C156.269 120.554 156.086 120.752 155.851 120.928C155.617 121.104 155.367 121.287 155.103 121.478C154.839 121.654 154.583 121.852 154.333 122.072C154.099 122.292 153.908 122.563 153.761 122.886C153.615 123.209 153.541 123.597 153.541 124.052C153.541 124.624 153.666 125.049 153.915 125.328C154.165 125.607 154.495 125.746 154.905 125.746ZM166.05 115.318C166.666 115.318 167.201 115.399 167.656 115.56C168.125 115.707 168.463 115.853 168.668 116C169.167 116.337 169.475 116.117 169.592 115.34H170.054C170.025 115.751 170.003 116.257 169.988 116.858C169.973 117.445 169.966 118.229 169.966 119.212H169.504C169.431 118.669 169.291 118.134 169.086 117.606C168.881 117.078 168.58 116.645 168.184 116.308C167.803 115.971 167.304 115.802 166.688 115.802C166.263 115.802 165.903 115.927 165.61 116.176C165.317 116.411 165.17 116.755 165.17 117.21C165.17 117.65 165.302 118.039 165.566 118.376C165.83 118.699 166.167 119.014 166.578 119.322C167.003 119.615 167.443 119.931 167.898 120.268C168.382 120.635 168.822 121.001 169.218 121.368C169.614 121.72 169.929 122.109 170.164 122.534C170.399 122.959 170.516 123.465 170.516 124.052C170.516 124.712 170.325 125.291 169.944 125.79C169.563 126.274 169.057 126.648 168.426 126.912C167.81 127.176 167.121 127.308 166.358 127.308C165.918 127.308 165.522 127.264 165.17 127.176C164.833 127.088 164.539 126.978 164.29 126.846C164.099 126.758 163.916 126.677 163.74 126.604C163.579 126.516 163.425 126.443 163.278 126.384C163.131 126.34 162.999 126.391 162.882 126.538C162.779 126.685 162.699 126.89 162.64 127.154H162.178C162.207 126.685 162.229 126.113 162.244 125.438C162.259 124.763 162.266 123.869 162.266 122.754H162.728C162.816 123.546 162.977 124.25 163.212 124.866C163.447 125.467 163.762 125.944 164.158 126.296C164.569 126.633 165.082 126.802 165.698 126.802C165.947 126.802 166.189 126.751 166.424 126.648C166.659 126.545 166.849 126.377 166.996 126.142C167.157 125.907 167.238 125.607 167.238 125.24C167.238 124.595 167.025 124.059 166.6 123.634C166.189 123.209 165.661 122.747 165.016 122.248C164.547 121.867 164.099 121.493 163.674 121.126C163.263 120.745 162.926 120.334 162.662 119.894C162.398 119.439 162.266 118.926 162.266 118.354C162.266 117.694 162.442 117.137 162.794 116.682C163.146 116.227 163.608 115.89 164.18 115.67C164.767 115.435 165.39 115.318 166.05 115.318ZM176.322 112.018V115.626H178.918V116.066H176.322V124.954C176.322 125.394 176.403 125.709 176.564 125.9C176.725 126.076 176.967 126.164 177.29 126.164C177.554 126.164 177.818 126.069 178.082 125.878C178.346 125.673 178.581 125.328 178.786 124.844L179.16 125.042C178.925 125.702 178.566 126.245 178.082 126.67C177.613 127.095 176.967 127.308 176.146 127.308C175.662 127.308 175.237 127.242 174.87 127.11C174.503 126.993 174.195 126.809 173.946 126.56C173.623 126.237 173.411 125.841 173.308 125.372C173.205 124.888 173.154 124.265 173.154 123.502V116.066H171.306V115.626H173.154V112.722C173.77 112.722 174.335 112.671 174.848 112.568C175.376 112.451 175.867 112.267 176.322 112.018ZM185.181 115.318C186.471 115.318 187.483 115.699 188.217 116.462C188.95 117.225 189.317 118.471 189.317 120.202H182.079L182.035 119.784H186.545C186.559 119.065 186.515 118.405 186.413 117.804C186.31 117.188 186.149 116.697 185.929 116.33C185.709 115.963 185.415 115.78 185.049 115.78C184.535 115.78 184.095 116.103 183.729 116.748C183.377 117.393 183.164 118.464 183.091 119.96L183.157 120.092C183.142 120.268 183.127 120.451 183.113 120.642C183.113 120.833 183.113 121.031 183.113 121.236C183.113 122.248 183.252 123.069 183.531 123.7C183.824 124.331 184.191 124.793 184.631 125.086C185.071 125.365 185.518 125.504 185.973 125.504C186.281 125.504 186.596 125.46 186.919 125.372C187.256 125.269 187.593 125.093 187.931 124.844C188.268 124.58 188.583 124.213 188.877 123.744L189.273 123.876C189.097 124.433 188.818 124.976 188.437 125.504C188.055 126.032 187.571 126.465 186.985 126.802C186.398 127.139 185.694 127.308 184.873 127.308C183.875 127.308 182.995 127.095 182.233 126.67C181.47 126.245 180.869 125.599 180.429 124.734C180.003 123.869 179.791 122.769 179.791 121.434C179.791 120.07 180.018 118.933 180.473 118.024C180.942 117.115 181.58 116.44 182.387 116C183.208 115.545 184.139 115.318 185.181 115.318ZM198.646 115.318C199.262 115.318 199.76 115.399 200.142 115.56C200.538 115.707 200.846 115.912 201.066 116.176C201.3 116.455 201.469 116.814 201.572 117.254C201.689 117.694 201.748 118.288 201.748 119.036V124.954C201.748 125.57 201.85 125.988 202.056 126.208C202.276 126.428 202.642 126.538 203.156 126.538V127C202.877 126.985 202.459 126.971 201.902 126.956C201.344 126.927 200.794 126.912 200.252 126.912C199.694 126.912 199.144 126.927 198.602 126.956C198.074 126.971 197.67 126.985 197.392 127V126.538C197.832 126.538 198.14 126.428 198.316 126.208C198.492 125.988 198.58 125.57 198.58 124.954V118.112C198.58 117.745 198.543 117.43 198.47 117.166C198.396 116.887 198.264 116.675 198.074 116.528C197.883 116.367 197.597 116.286 197.216 116.286C196.82 116.286 196.453 116.396 196.116 116.616C195.793 116.836 195.529 117.144 195.324 117.54C195.133 117.921 195.038 118.354 195.038 118.838V124.954C195.038 125.57 195.126 125.988 195.302 126.208C195.492 126.428 195.8 126.538 196.226 126.538V127C195.962 126.985 195.573 126.971 195.06 126.956C194.561 126.927 194.04 126.912 193.498 126.912C192.94 126.912 192.368 126.927 191.782 126.956C191.195 126.971 190.755 126.985 190.462 127V126.538C190.975 126.538 191.334 126.428 191.54 126.208C191.76 125.988 191.87 125.57 191.87 124.954V118.024C191.87 117.364 191.767 116.88 191.562 116.572C191.371 116.249 191.004 116.088 190.462 116.088V115.626C190.931 115.67 191.386 115.692 191.826 115.692C192.442 115.692 193.014 115.67 193.542 115.626C194.084 115.567 194.583 115.487 195.038 115.384V117.364C195.404 116.616 195.903 116.088 196.534 115.78C197.164 115.472 197.868 115.318 198.646 115.318ZM213.318 112.018V115.626H215.914V116.066H213.318V124.954C213.318 125.394 213.399 125.709 213.56 125.9C213.722 126.076 213.964 126.164 214.286 126.164C214.55 126.164 214.814 126.069 215.078 125.878C215.342 125.673 215.577 125.328 215.782 124.844L216.156 125.042C215.922 125.702 215.562 126.245 215.078 126.67C214.609 127.095 213.964 127.308 213.142 127.308C212.658 127.308 212.233 127.242 211.866 127.11C211.5 126.993 211.192 126.809 210.942 126.56C210.62 126.237 210.407 125.841 210.304 125.372C210.202 124.888 210.15 124.265 210.15 123.502V116.066H208.302V115.626H210.15V112.722C210.766 112.722 211.331 112.671 211.844 112.568C212.372 112.451 212.864 112.267 213.318 112.018ZM219.447 109.95C220.063 109.95 220.547 110.104 220.899 110.412C221.265 110.705 221.449 111.116 221.449 111.644C221.449 112.172 221.265 112.59 220.899 112.898C220.547 113.191 220.063 113.338 219.447 113.338C218.831 113.338 218.339 113.191 217.973 112.898C217.621 112.59 217.445 112.172 217.445 111.644C217.445 111.116 217.621 110.705 217.973 110.412C218.339 110.104 218.831 109.95 219.447 109.95ZM221.163 115.384V124.954C221.163 125.57 221.265 125.988 221.471 126.208C221.691 126.428 222.057 126.538 222.571 126.538V127C222.307 126.985 221.896 126.971 221.339 126.956C220.781 126.927 220.217 126.912 219.645 126.912C219.073 126.912 218.493 126.927 217.907 126.956C217.32 126.971 216.88 126.985 216.587 127V126.538C217.1 126.538 217.459 126.428 217.665 126.208C217.885 125.988 217.995 125.57 217.995 124.954V118.024C217.995 117.364 217.892 116.88 217.687 116.572C217.496 116.249 217.129 116.088 216.587 116.088V115.626C217.056 115.67 217.511 115.692 217.951 115.692C218.567 115.692 219.139 115.67 219.667 115.626C220.209 115.567 220.708 115.487 221.163 115.384ZM228.014 109.774V124.954C228.014 125.57 228.117 125.988 228.322 126.208C228.542 126.428 228.909 126.538 229.422 126.538V127C229.143 126.985 228.725 126.971 228.168 126.956C227.611 126.927 227.046 126.912 226.474 126.912C225.902 126.912 225.323 126.927 224.736 126.956C224.164 126.971 223.731 126.985 223.438 127V126.538C223.951 126.538 224.311 126.428 224.516 126.208C224.736 125.988 224.846 125.57 224.846 124.954V112.414C224.846 111.754 224.743 111.27 224.538 110.962C224.347 110.639 223.981 110.478 223.438 110.478V110.016C223.907 110.06 224.362 110.082 224.802 110.082C225.403 110.082 225.975 110.06 226.518 110.016C227.061 109.957 227.559 109.877 228.014 109.774ZM234.824 112.018V115.626H237.42V116.066H234.824V124.954C234.824 125.394 234.905 125.709 235.066 125.9C235.227 126.076 235.469 126.164 235.792 126.164C236.056 126.164 236.32 126.069 236.584 125.878C236.848 125.673 237.083 125.328 237.288 124.844L237.662 125.042C237.427 125.702 237.068 126.245 236.584 126.67C236.115 127.095 235.469 127.308 234.648 127.308C234.164 127.308 233.739 127.242 233.372 127.11C233.005 126.993 232.697 126.809 232.448 126.56C232.125 126.237 231.913 125.841 231.81 125.372C231.707 124.888 231.656 124.265 231.656 123.502V116.066H229.808V115.626H231.656V112.722C232.272 112.722 232.837 112.671 233.35 112.568C233.878 112.451 234.369 112.267 234.824 112.018ZM245.66 115.318C246.13 115.318 246.511 115.421 246.804 115.626C247.098 115.817 247.31 116.066 247.442 116.374C247.589 116.682 247.662 117.005 247.662 117.342C247.662 117.885 247.501 118.332 247.178 118.684C246.87 119.021 246.46 119.19 245.946 119.19C245.433 119.19 245.03 119.065 244.736 118.816C244.458 118.552 244.318 118.207 244.318 117.782C244.318 117.371 244.406 117.034 244.582 116.77C244.773 116.491 245.008 116.257 245.286 116.066C245.081 116.007 244.876 116.015 244.67 116.088C244.392 116.132 244.128 116.249 243.878 116.44C243.629 116.616 243.416 116.843 243.24 117.122C243.064 117.386 242.925 117.679 242.822 118.002C242.72 118.31 242.668 118.611 242.668 118.904V124.734C242.668 125.438 242.837 125.915 243.174 126.164C243.526 126.413 244.047 126.538 244.736 126.538V127C244.399 126.985 243.908 126.971 243.262 126.956C242.617 126.927 241.942 126.912 241.238 126.912C240.652 126.912 240.058 126.927 239.456 126.956C238.855 126.971 238.4 126.985 238.092 127V126.538C238.606 126.538 238.965 126.428 239.17 126.208C239.39 125.988 239.5 125.57 239.5 124.954V118.024C239.5 117.364 239.398 116.88 239.192 116.572C239.002 116.249 238.635 116.088 238.092 116.088V115.626C238.562 115.67 239.016 115.692 239.456 115.692C240.072 115.692 240.644 115.67 241.172 115.626C241.715 115.567 242.214 115.487 242.668 115.384V117.43C242.844 117.034 243.079 116.675 243.372 116.352C243.666 116.029 244.003 115.78 244.384 115.604C244.766 115.413 245.191 115.318 245.66 115.318ZM251.398 127.154C250.738 127.154 250.188 127.029 249.748 126.78C249.308 126.531 248.985 126.201 248.78 125.79C248.575 125.365 248.472 124.903 248.472 124.404C248.472 123.773 248.611 123.26 248.89 122.864C249.183 122.468 249.557 122.145 250.012 121.896C250.467 121.647 250.943 121.441 251.442 121.28C251.955 121.119 252.439 120.965 252.894 120.818C253.363 120.657 253.737 120.473 254.016 120.268C254.309 120.048 254.456 119.769 254.456 119.432V117.716C254.456 117.335 254.39 116.997 254.258 116.704C254.141 116.396 253.95 116.161 253.686 116C253.437 115.839 253.107 115.758 252.696 115.758C252.403 115.758 252.109 115.802 251.816 115.89C251.523 115.963 251.281 116.095 251.09 116.286C251.501 116.433 251.816 116.66 252.036 116.968C252.271 117.261 252.388 117.599 252.388 117.98C252.388 118.479 252.212 118.875 251.86 119.168C251.523 119.461 251.119 119.608 250.65 119.608C250.122 119.608 249.719 119.447 249.44 119.124C249.176 118.787 249.044 118.383 249.044 117.914C249.044 117.489 249.147 117.137 249.352 116.858C249.572 116.579 249.873 116.315 250.254 116.066C250.665 115.831 251.156 115.648 251.728 115.516C252.315 115.384 252.945 115.318 253.62 115.318C254.295 115.318 254.903 115.391 255.446 115.538C255.989 115.67 256.443 115.919 256.81 116.286C257.147 116.623 257.367 117.041 257.47 117.54C257.573 118.024 257.624 118.64 257.624 119.388V125.372C257.624 125.739 257.661 125.995 257.734 126.142C257.807 126.274 257.932 126.34 258.108 126.34C258.24 126.34 258.365 126.303 258.482 126.23C258.614 126.157 258.753 126.069 258.9 125.966L259.12 126.34C258.812 126.604 258.453 126.809 258.042 126.956C257.646 127.088 257.199 127.154 256.7 127.154C256.157 127.154 255.725 127.081 255.402 126.934C255.079 126.773 254.845 126.56 254.698 126.296C254.566 126.032 254.5 125.724 254.5 125.372C254.148 125.929 253.723 126.369 253.224 126.692C252.725 127 252.117 127.154 251.398 127.154ZM252.96 125.746C253.253 125.746 253.517 125.68 253.752 125.548C254.001 125.401 254.236 125.167 254.456 124.844V120.334C254.324 120.554 254.141 120.752 253.906 120.928C253.671 121.104 253.422 121.287 253.158 121.478C252.894 121.654 252.637 121.852 252.388 122.072C252.153 122.292 251.963 122.563 251.816 122.886C251.669 123.209 251.596 123.597 251.596 124.052C251.596 124.624 251.721 125.049 251.97 125.328C252.219 125.607 252.549 125.746 252.96 125.746ZM264.215 109.774V124.954C264.215 125.57 264.31 125.988 264.501 126.208C264.706 126.428 265.051 126.538 265.535 126.538V127C265.256 126.985 264.845 126.971 264.303 126.956C263.775 126.927 263.232 126.912 262.675 126.912C262.103 126.912 261.523 126.927 260.937 126.956C260.365 126.971 259.932 126.985 259.639 127V126.538C260.152 126.538 260.511 126.428 260.717 126.208C260.937 125.988 261.047 125.57 261.047 124.954V112.414C261.047 111.754 260.944 111.27 260.739 110.962C260.548 110.639 260.181 110.478 259.639 110.478V110.016C260.108 110.06 260.563 110.082 261.003 110.082C261.604 110.082 262.176 110.06 262.719 110.016C263.261 109.957 263.76 109.877 264.215 109.774ZM271.387 115.626V116.066C270.932 116.154 270.477 116.345 270.023 116.638C269.568 116.931 269.106 117.305 268.637 117.76L266.943 119.52L267.163 119.102L270.925 125.394C271.086 125.658 271.255 125.893 271.431 126.098C271.607 126.303 271.819 126.45 272.069 126.538V127C271.849 126.985 271.519 126.971 271.079 126.956C270.639 126.927 270.199 126.912 269.759 126.912C269.216 126.912 268.673 126.927 268.131 126.956C267.588 126.971 267.185 126.985 266.921 127V126.538C267.214 126.538 267.412 126.472 267.515 126.34C267.617 126.193 267.603 126.01 267.471 125.79L265.293 121.852C265.117 121.573 264.941 121.397 264.765 121.324C264.603 121.236 264.383 121.185 264.105 121.17V120.752C264.413 120.723 264.677 120.671 264.897 120.598C265.131 120.525 265.344 120.385 265.535 120.18L267.207 118.552C267.705 118.083 267.955 117.665 267.955 117.298C267.955 116.931 267.793 116.638 267.471 116.418C267.163 116.198 266.752 116.081 266.239 116.066V115.626C266.649 115.641 267.097 115.655 267.581 115.67C268.065 115.685 268.475 115.692 268.813 115.692C269.106 115.692 269.414 115.692 269.737 115.692C270.074 115.677 270.389 115.67 270.683 115.67C270.976 115.655 271.211 115.641 271.387 115.626ZM53.0413 141.318C53.6573 141.318 54.156 141.399 54.5373 141.56C54.9187 141.707 55.2267 141.912 55.4613 142.176C55.696 142.455 55.8647 142.821 55.9673 143.276C56.07 143.716 56.1213 144.303 56.1213 145.036V150.954C56.1213 151.57 56.2167 151.988 56.4073 152.208C56.598 152.428 56.928 152.538 57.3973 152.538V153C57.1333 152.985 56.73 152.971 56.1873 152.956C55.6593 152.927 55.1387 152.912 54.6253 152.912C54.0973 152.912 53.5767 152.927 53.0633 152.956C52.55 152.971 52.1613 152.985 51.8973 153V152.538C52.2933 152.538 52.5647 152.428 52.7113 152.208C52.8727 151.988 52.9533 151.57 52.9533 150.954V144.112C52.9533 143.745 52.924 143.43 52.8653 143.166C52.8067 142.887 52.6893 142.675 52.5133 142.528C52.352 142.367 52.1027 142.286 51.7653 142.286C51.384 142.286 51.032 142.396 50.7093 142.616C50.3867 142.836 50.1227 143.144 49.9173 143.54C49.7267 143.921 49.6313 144.354 49.6313 144.838V150.954C49.6313 151.57 49.712 151.988 49.8733 152.208C50.0347 152.428 50.306 152.538 50.6873 152.538V153C50.4527 152.985 50.086 152.971 49.5873 152.956C49.1033 152.927 48.6047 152.912 48.0913 152.912C47.534 152.912 46.962 152.927 46.3753 152.956C45.7887 152.971 45.3487 152.985 45.0553 153V152.538C45.5687 152.538 45.928 152.428 46.1333 152.208C46.3533 151.988 46.4633 151.57 46.4633 150.954V144.024C46.4633 143.364 46.3607 142.88 46.1553 142.572C45.9647 142.249 45.598 142.088 45.0553 142.088V141.626C45.5247 141.67 45.9793 141.692 46.4193 141.692C47.0353 141.692 47.6073 141.67 48.1353 141.626C48.678 141.567 49.1767 141.487 49.6313 141.384V143.364C49.9833 142.631 50.46 142.11 51.0613 141.802C51.6627 141.479 52.3227 141.318 53.0413 141.318ZM59.6633 141.318C60.2793 141.318 60.778 141.399 61.1593 141.56C61.5407 141.707 61.8487 141.912 62.0833 142.176C62.318 142.455 62.4867 142.821 62.5893 143.276C62.692 143.716 62.7433 144.303 62.7433 145.036V150.954C62.7433 151.57 62.846 151.988 63.0513 152.208C63.2713 152.428 63.638 152.538 64.1513 152.538V153C63.8727 152.985 63.4547 152.971 62.8973 152.956C62.34 152.927 61.79 152.912 61.2473 152.912C60.7193 152.912 60.1987 152.927 59.6853 152.956C59.172 152.971 58.7833 152.985 58.5193 153V152.538C58.9153 152.538 59.1867 152.428 59.3333 152.208C59.4947 151.988 59.5753 151.57 59.5753 150.954V144.112C59.5753 143.745 59.5387 143.43 59.4653 143.166C59.4067 142.887 59.282 142.675 59.0913 142.528C58.9153 142.367 58.6367 142.286 58.2553 142.286C57.874 142.286 57.522 142.403 57.1993 142.638C56.8767 142.873 56.6127 143.188 56.4073 143.584C56.2167 143.98 56.114 144.42 56.0993 144.904L55.9893 143.562C56.3853 142.682 56.906 142.088 57.5513 141.78C58.2113 141.472 58.9153 141.318 59.6633 141.318ZM67.8314 135.95C68.4474 135.95 68.9314 136.104 69.2834 136.412C69.65 136.705 69.8334 137.116 69.8334 137.644C69.8334 138.172 69.65 138.59 69.2834 138.898C68.9314 139.191 68.4474 139.338 67.8314 139.338C67.2154 139.338 66.724 139.191 66.3574 138.898C66.0054 138.59 65.8294 138.172 65.8294 137.644C65.8294 137.116 66.0054 136.705 66.3574 136.412C66.724 136.104 67.2154 135.95 67.8314 135.95ZM69.5474 141.384V150.954C69.5474 151.57 69.65 151.988 69.8554 152.208C70.0754 152.428 70.442 152.538 70.9554 152.538V153C70.6914 152.985 70.2807 152.971 69.7234 152.956C69.166 152.927 68.6014 152.912 68.0294 152.912C67.4574 152.912 66.878 152.927 66.2914 152.956C65.7047 152.971 65.2647 152.985 64.9714 153V152.538C65.4847 152.538 65.844 152.428 66.0494 152.208C66.2694 151.988 66.3794 151.57 66.3794 150.954V144.024C66.3794 143.364 66.2767 142.88 66.0714 142.572C65.8807 142.249 65.514 142.088 64.9714 142.088V141.626C65.4407 141.67 65.8954 141.692 66.3354 141.692C66.9514 141.692 67.5234 141.67 68.0514 141.626C68.594 141.567 69.0927 141.487 69.5474 141.384ZM80.0948 141.318C80.7108 141.318 81.2095 141.399 81.5908 141.56C81.9868 141.707 82.2948 141.912 82.5148 142.176C82.7495 142.455 82.9181 142.814 83.0208 143.254C83.1381 143.694 83.1968 144.288 83.1968 145.036V150.954C83.1968 151.57 83.2995 151.988 83.5048 152.208C83.7248 152.428 84.0915 152.538 84.6048 152.538V153C84.3261 152.985 83.9081 152.971 83.3508 152.956C82.7935 152.927 82.2435 152.912 81.7008 152.912C81.1435 152.912 80.5935 152.927 80.0508 152.956C79.5228 152.971 79.1195 152.985 78.8408 153V152.538C79.2808 152.538 79.5888 152.428 79.7648 152.208C79.9408 151.988 80.0288 151.57 80.0288 150.954V144.112C80.0288 143.745 79.9921 143.43 79.9188 143.166C79.8455 142.887 79.7135 142.675 79.5228 142.528C79.3321 142.367 79.0461 142.286 78.6648 142.286C78.2688 142.286 77.9021 142.396 77.5648 142.616C77.2421 142.836 76.9781 143.144 76.7728 143.54C76.5821 143.921 76.4868 144.354 76.4868 144.838V150.954C76.4868 151.57 76.5748 151.988 76.7508 152.208C76.9415 152.428 77.2495 152.538 77.6748 152.538V153C77.4108 152.985 77.0221 152.971 76.5088 152.956C76.0101 152.927 75.4895 152.912 74.9468 152.912C74.3895 152.912 73.8175 152.927 73.2308 152.956C72.6441 152.971 72.2041 152.985 71.9108 153V152.538C72.4241 152.538 72.7835 152.428 72.9888 152.208C73.2088 151.988 73.3188 151.57 73.3188 150.954V144.024C73.3188 143.364 73.2161 142.88 73.0108 142.572C72.8201 142.249 72.4535 142.088 71.9108 142.088V141.626C72.3801 141.67 72.8348 141.692 73.2748 141.692C73.8908 141.692 74.4628 141.67 74.9908 141.626C75.5335 141.567 76.0321 141.487 76.4868 141.384V143.364C76.8535 142.616 77.3521 142.088 77.9828 141.78C78.6135 141.472 79.3175 141.318 80.0948 141.318ZM96.2353 141.318C97.3059 141.318 98.2446 141.516 99.0513 141.912C99.8579 142.308 100.489 142.946 100.943 143.826C101.398 144.706 101.625 145.872 101.625 147.324C101.625 148.776 101.398 149.942 100.943 150.822C100.489 151.687 99.8579 152.318 99.0513 152.714C98.2446 153.11 97.3059 153.308 96.2353 153.308C95.1939 153.308 94.2626 153.11 93.4413 152.714C92.6346 152.318 91.9966 151.687 91.5273 150.822C91.0726 149.942 90.8453 148.776 90.8453 147.324C90.8453 145.872 91.0726 144.706 91.5273 143.826C91.9966 142.946 92.6346 142.308 93.4413 141.912C94.2626 141.516 95.1939 141.318 96.2353 141.318ZM96.2353 141.758C95.6486 141.758 95.1573 142.198 94.7613 143.078C94.3653 143.943 94.1673 145.359 94.1673 147.324C94.1673 149.289 94.3653 150.705 94.7613 151.57C95.1573 152.435 95.6486 152.868 96.2353 152.868C96.8366 152.868 97.3279 152.435 97.7093 151.57C98.1053 150.705 98.3033 149.289 98.3033 147.324C98.3033 145.359 98.1053 143.943 97.7093 143.078C97.3279 142.198 96.8366 141.758 96.2353 141.758ZM107.487 141.384V154.804C107.487 155.493 107.663 155.948 108.015 156.168C108.367 156.403 108.851 156.52 109.467 156.52V156.982C109.085 156.967 108.557 156.945 107.883 156.916C107.223 156.901 106.519 156.894 105.771 156.894C105.228 156.894 104.693 156.901 104.165 156.916C103.651 156.945 103.263 156.967 102.999 156.982V156.52C103.483 156.52 103.82 156.417 104.011 156.212C104.216 156.007 104.319 155.611 104.319 155.024V144.024C104.319 143.364 104.216 142.88 104.011 142.572C103.805 142.249 103.439 142.088 102.911 142.088V141.626C103.38 141.67 103.835 141.692 104.275 141.692C104.876 141.692 105.448 141.67 105.991 141.626C106.533 141.567 107.032 141.487 107.487 141.384ZM110.897 141.318C111.645 141.318 112.312 141.523 112.899 141.934C113.485 142.33 113.955 142.939 114.307 143.76C114.659 144.567 114.835 145.579 114.835 146.796C114.835 147.867 114.71 148.805 114.461 149.612C114.226 150.419 113.881 151.101 113.427 151.658C112.987 152.201 112.451 152.611 111.821 152.89C111.205 153.169 110.508 153.308 109.731 153.308C109.159 153.308 108.638 153.205 108.169 153C107.699 152.809 107.34 152.531 107.091 152.164L107.311 151.878C107.457 152.142 107.663 152.347 107.927 152.494C108.205 152.641 108.521 152.714 108.873 152.714C109.533 152.714 110.053 152.494 110.435 152.054C110.816 151.599 111.087 150.969 111.249 150.162C111.425 149.341 111.513 148.365 111.513 147.236C111.513 145.975 111.432 144.985 111.271 144.266C111.109 143.547 110.889 143.034 110.611 142.726C110.332 142.418 109.995 142.264 109.599 142.264C109.071 142.264 108.587 142.469 108.147 142.88C107.721 143.291 107.479 143.877 107.421 144.64L107.311 143.87C107.575 143.034 108.022 142.403 108.653 141.978C109.298 141.538 110.046 141.318 110.897 141.318ZM124.176 141.318C124.792 141.318 125.291 141.399 125.672 141.56C126.053 141.707 126.361 141.912 126.596 142.176C126.831 142.455 126.999 142.821 127.102 143.276C127.205 143.716 127.256 144.303 127.256 145.036V150.954C127.256 151.57 127.351 151.988 127.542 152.208C127.733 152.428 128.063 152.538 128.532 152.538V153C128.268 152.985 127.865 152.971 127.322 152.956C126.794 152.927 126.273 152.912 125.76 152.912C125.232 152.912 124.711 152.927 124.198 152.956C123.685 152.971 123.296 152.985 123.032 153V152.538C123.428 152.538 123.699 152.428 123.846 152.208C124.007 151.988 124.088 151.57 124.088 150.954V144.112C124.088 143.745 124.059 143.43 124 143.166C123.941 142.887 123.824 142.675 123.648 142.528C123.487 142.367 123.237 142.286 122.9 142.286C122.519 142.286 122.167 142.396 121.844 142.616C121.521 142.836 121.257 143.144 121.052 143.54C120.861 143.921 120.766 144.354 120.766 144.838V150.954C120.766 151.57 120.847 151.988 121.008 152.208C121.169 152.428 121.441 152.538 121.822 152.538V153C121.587 152.985 121.221 152.971 120.722 152.956C120.238 152.927 119.739 152.912 119.226 152.912C118.669 152.912 118.097 152.927 117.51 152.956C116.923 152.971 116.483 152.985 116.19 153V152.538C116.703 152.538 117.063 152.428 117.268 152.208C117.488 151.988 117.598 151.57 117.598 150.954V144.024C117.598 143.364 117.495 142.88 117.29 142.572C117.099 142.249 116.733 142.088 116.19 142.088V141.626C116.659 141.67 117.114 141.692 117.554 141.692C118.17 141.692 118.742 141.67 119.27 141.626C119.813 141.567 120.311 141.487 120.766 141.384V143.364C121.118 142.631 121.595 142.11 122.196 141.802C122.797 141.479 123.457 141.318 124.176 141.318ZM130.798 141.318C131.414 141.318 131.913 141.399 132.294 141.56C132.675 141.707 132.983 141.912 133.218 142.176C133.453 142.455 133.621 142.821 133.724 143.276C133.827 143.716 133.878 144.303 133.878 145.036V150.954C133.878 151.57 133.981 151.988 134.186 152.208C134.406 152.428 134.773 152.538 135.286 152.538V153C135.007 152.985 134.589 152.971 134.032 152.956C133.475 152.927 132.925 152.912 132.382 152.912C131.854 152.912 131.333 152.927 130.82 152.956C130.307 152.971 129.918 152.985 129.654 153V152.538C130.05 152.538 130.321 152.428 130.468 152.208C130.629 151.988 130.71 151.57 130.71 150.954V144.112C130.71 143.745 130.673 143.43 130.6 143.166C130.541 142.887 130.417 142.675 130.226 142.528C130.05 142.367 129.771 142.286 129.39 142.286C129.009 142.286 128.657 142.403 128.334 142.638C128.011 142.873 127.747 143.188 127.542 143.584C127.351 143.98 127.249 144.42 127.234 144.904L127.124 143.562C127.52 142.682 128.041 142.088 128.686 141.78C129.346 141.472 130.05 141.318 130.798 141.318ZM139.01 153.154C138.027 153.154 137.316 152.897 136.876 152.384C136.436 151.871 136.216 151.247 136.216 150.514C136.216 149.883 136.355 149.37 136.634 148.974C136.927 148.578 137.301 148.255 137.756 148.006C138.211 147.742 138.687 147.529 139.186 147.368C139.699 147.192 140.183 147.023 140.638 146.862C141.107 146.686 141.481 146.488 141.76 146.268C142.053 146.048 142.2 145.769 142.2 145.432V143.716C142.2 143.335 142.134 142.997 142.002 142.704C141.885 142.396 141.694 142.161 141.43 142C141.181 141.839 140.851 141.758 140.44 141.758C140.147 141.758 139.853 141.802 139.56 141.89C139.267 141.963 139.025 142.095 138.834 142.286C139.245 142.433 139.56 142.66 139.78 142.968C140.015 143.261 140.132 143.599 140.132 143.98C140.132 144.479 139.956 144.875 139.604 145.168C139.267 145.461 138.863 145.608 138.394 145.608C137.866 145.608 137.463 145.447 137.184 145.124C136.92 144.787 136.788 144.383 136.788 143.914C136.788 143.489 136.891 143.137 137.096 142.858C137.316 142.579 137.617 142.315 137.998 142.066C138.409 141.831 138.9 141.648 139.472 141.516C140.059 141.384 140.689 141.318 141.364 141.318C142.039 141.318 142.647 141.391 143.19 141.538C143.733 141.67 144.187 141.919 144.554 142.286C144.891 142.623 145.104 143.041 145.192 143.54C145.295 144.039 145.346 144.655 145.346 145.388L142.904 150.404C142.523 151.137 142.119 151.702 141.694 152.098C141.283 152.494 140.851 152.773 140.396 152.934C139.941 153.081 139.479 153.154 139.01 153.154ZM140.682 151.746C141.034 151.746 141.364 151.636 141.672 151.416C141.98 151.181 142.281 150.785 142.574 150.228L142.288 146.246C142.127 146.481 141.921 146.693 141.672 146.884C141.437 147.06 141.181 147.236 140.902 147.412C140.638 147.588 140.381 147.786 140.132 148.006C139.897 148.226 139.707 148.497 139.56 148.82C139.413 149.128 139.34 149.517 139.34 149.986C139.34 150.617 139.472 151.071 139.736 151.35C140 151.614 140.315 151.746 140.682 151.746ZM146.93 153.308C146.006 153.308 145.185 153.103 144.466 152.692C143.762 152.281 143.205 151.643 142.794 150.778C142.398 149.913 142.2 148.798 142.2 147.434C142.2 146.202 142.391 145.131 142.772 144.222C143.168 143.298 143.74 142.587 144.488 142.088C145.236 141.575 146.153 141.318 147.238 141.318C148.455 141.318 149.409 141.699 150.098 142.462C150.802 143.225 151.154 144.471 151.154 146.202H144.444L144.4 145.784H148.382C148.397 145.065 148.36 144.405 148.272 143.804C148.184 143.188 148.045 142.697 147.854 142.33C147.663 141.963 147.414 141.78 147.106 141.78C146.651 141.78 146.263 142.103 145.94 142.748C145.632 143.393 145.449 144.464 145.39 145.96L145.456 146.092C145.441 146.268 145.427 146.451 145.412 146.642C145.412 146.833 145.412 147.031 145.412 147.236C145.412 148.248 145.544 149.069 145.808 149.7C146.072 150.331 146.402 150.793 146.798 151.086C147.209 151.365 147.619 151.504 148.03 151.504C148.309 151.504 148.595 151.46 148.888 151.372C149.181 151.269 149.475 151.093 149.768 150.844C150.076 150.58 150.362 150.213 150.626 149.744L151.022 149.876C150.861 150.433 150.604 150.976 150.252 151.504C149.9 152.032 149.445 152.465 148.888 152.802C148.345 153.139 147.693 153.308 146.93 153.308ZM159.852 141.318C160.321 141.318 160.703 141.421 160.996 141.626C161.289 141.817 161.502 142.066 161.634 142.374C161.781 142.682 161.854 143.005 161.854 143.342C161.854 143.885 161.693 144.332 161.37 144.684C161.062 145.021 160.651 145.19 160.138 145.19C159.625 145.19 159.221 145.065 158.928 144.816C158.649 144.552 158.51 144.207 158.51 143.782C158.51 143.371 158.598 143.034 158.774 142.77C158.965 142.491 159.199 142.257 159.478 142.066C159.273 142.007 159.067 142.015 158.862 142.088C158.583 142.132 158.319 142.249 158.07 142.44C157.821 142.616 157.608 142.843 157.432 143.122C157.256 143.386 157.117 143.679 157.014 144.002C156.911 144.31 156.86 144.611 156.86 144.904V150.734C156.86 151.438 157.029 151.915 157.366 152.164C157.718 152.413 158.239 152.538 158.928 152.538V153C158.591 152.985 158.099 152.971 157.454 152.956C156.809 152.927 156.134 152.912 155.43 152.912C154.843 152.912 154.249 152.927 153.648 152.956C153.047 152.971 152.592 152.985 152.284 153V152.538C152.797 152.538 153.157 152.428 153.362 152.208C153.582 151.988 153.692 151.57 153.692 150.954V144.024C153.692 143.364 153.589 142.88 153.384 142.572C153.193 142.249 152.827 142.088 152.284 142.088V141.626C152.753 141.67 153.208 141.692 153.648 141.692C154.264 141.692 154.836 141.67 155.364 141.626C155.907 141.567 156.405 141.487 156.86 141.384V143.43C157.036 143.034 157.271 142.675 157.564 142.352C157.857 142.029 158.195 141.78 158.576 141.604C158.957 141.413 159.383 141.318 159.852 141.318ZM166.461 135.774V150.954C166.461 151.57 166.556 151.988 166.747 152.208C166.952 152.428 167.297 152.538 167.781 152.538V153C167.502 152.985 167.091 152.971 166.549 152.956C166.021 152.927 165.478 152.912 164.921 152.912C164.349 152.912 163.769 152.927 163.183 152.956C162.611 152.971 162.178 152.985 161.885 153V152.538C162.398 152.538 162.757 152.428 162.963 152.208C163.183 151.988 163.293 151.57 163.293 150.954V138.414C163.293 137.754 163.19 137.27 162.985 136.962C162.794 136.639 162.427 136.478 161.885 136.478V136.016C162.354 136.06 162.809 136.082 163.249 136.082C163.85 136.082 164.422 136.06 164.965 136.016C165.507 135.957 166.006 135.877 166.461 135.774ZM173.633 141.626V142.066C173.178 142.154 172.723 142.345 172.269 142.638C171.814 142.931 171.352 143.305 170.883 143.76L169.189 145.52L169.409 145.102L173.171 151.394C173.332 151.658 173.501 151.893 173.677 152.098C173.853 152.303 174.065 152.45 174.315 152.538V153C174.095 152.985 173.765 152.971 173.325 152.956C172.885 152.927 172.445 152.912 172.005 152.912C171.462 152.912 170.919 152.927 170.377 152.956C169.834 152.971 169.431 152.985 169.167 153V152.538C169.46 152.538 169.658 152.472 169.761 152.34C169.863 152.193 169.849 152.01 169.717 151.79L167.539 147.852C167.363 147.573 167.187 147.397 167.011 147.324C166.849 147.236 166.629 147.185 166.351 147.17V146.752C166.659 146.723 166.923 146.671 167.143 146.598C167.377 146.525 167.59 146.385 167.781 146.18L169.453 144.552C169.951 144.083 170.201 143.665 170.201 143.298C170.201 142.931 170.039 142.638 169.717 142.418C169.409 142.198 168.998 142.081 168.485 142.066V141.626C168.895 141.641 169.343 141.655 169.827 141.67C170.311 141.685 170.721 141.692 171.059 141.692C171.352 141.692 171.66 141.692 171.983 141.692C172.32 141.677 172.635 141.67 172.929 141.67C173.222 141.655 173.457 141.641 173.633 141.626ZM179.22 141.318C179.836 141.318 180.371 141.399 180.826 141.56C181.295 141.707 181.633 141.853 181.838 142C182.337 142.337 182.645 142.117 182.762 141.34H183.224C183.195 141.751 183.173 142.257 183.158 142.858C183.143 143.445 183.136 144.229 183.136 145.212H182.674C182.601 144.669 182.461 144.134 182.256 143.606C182.051 143.078 181.75 142.645 181.354 142.308C180.973 141.971 180.474 141.802 179.858 141.802C179.433 141.802 179.073 141.927 178.78 142.176C178.487 142.411 178.34 142.755 178.34 143.21C178.34 143.65 178.472 144.039 178.736 144.376C179 144.699 179.337 145.014 179.748 145.322C180.173 145.615 180.613 145.931 181.068 146.268C181.552 146.635 181.992 147.001 182.388 147.368C182.784 147.72 183.099 148.109 183.334 148.534C183.569 148.959 183.686 149.465 183.686 150.052C183.686 150.712 183.495 151.291 183.114 151.79C182.733 152.274 182.227 152.648 181.596 152.912C180.98 153.176 180.291 153.308 179.528 153.308C179.088 153.308 178.692 153.264 178.34 153.176C178.003 153.088 177.709 152.978 177.46 152.846C177.269 152.758 177.086 152.677 176.91 152.604C176.749 152.516 176.595 152.443 176.448 152.384C176.301 152.34 176.169 152.391 176.052 152.538C175.949 152.685 175.869 152.89 175.81 153.154H175.348C175.377 152.685 175.399 152.113 175.414 151.438C175.429 150.763 175.436 149.869 175.436 148.754H175.898C175.986 149.546 176.147 150.25 176.382 150.866C176.617 151.467 176.932 151.944 177.328 152.296C177.739 152.633 178.252 152.802 178.868 152.802C179.117 152.802 179.359 152.751 179.594 152.648C179.829 152.545 180.019 152.377 180.166 152.142C180.327 151.907 180.408 151.607 180.408 151.24C180.408 150.595 180.195 150.059 179.77 149.634C179.359 149.209 178.831 148.747 178.186 148.248C177.717 147.867 177.269 147.493 176.844 147.126C176.433 146.745 176.096 146.334 175.832 145.894C175.568 145.439 175.436 144.926 175.436 144.354C175.436 143.694 175.612 143.137 175.964 142.682C176.316 142.227 176.778 141.89 177.35 141.67C177.937 141.435 178.56 141.318 179.22 141.318ZM190.702 141.318C191.773 141.318 192.711 141.516 193.518 141.912C194.325 142.308 194.955 142.946 195.41 143.826C195.865 144.706 196.092 145.872 196.092 147.324C196.092 148.776 195.865 149.942 195.41 150.822C194.955 151.687 194.325 152.318 193.518 152.714C192.711 153.11 191.773 153.308 190.702 153.308C189.661 153.308 188.729 153.11 187.908 152.714C187.101 152.318 186.463 151.687 185.994 150.822C185.539 149.942 185.312 148.776 185.312 147.324C185.312 145.872 185.539 144.706 185.994 143.826C186.463 142.946 187.101 142.308 187.908 141.912C188.729 141.516 189.661 141.318 190.702 141.318ZM190.702 141.758C190.115 141.758 189.624 142.198 189.228 143.078C188.832 143.943 188.634 145.359 188.634 147.324C188.634 149.289 188.832 150.705 189.228 151.57C189.624 152.435 190.115 152.868 190.702 152.868C191.303 152.868 191.795 152.435 192.176 151.57C192.572 150.705 192.77 149.289 192.77 147.324C192.77 145.359 192.572 143.943 192.176 143.078C191.795 142.198 191.303 141.758 190.702 141.758ZM205.452 141.318C206.068 141.318 206.566 141.399 206.948 141.56C207.329 141.707 207.637 141.912 207.872 142.176C208.106 142.455 208.275 142.821 208.378 143.276C208.48 143.716 208.532 144.303 208.532 145.036V150.954C208.532 151.57 208.627 151.988 208.818 152.208C209.008 152.428 209.338 152.538 209.808 152.538V153C209.544 152.985 209.14 152.971 208.598 152.956C208.07 152.927 207.549 152.912 207.036 152.912C206.508 152.912 205.987 152.927 205.474 152.956C204.96 152.971 204.572 152.985 204.308 153V152.538C204.704 152.538 204.975 152.428 205.122 152.208C205.283 151.988 205.364 151.57 205.364 150.954V144.112C205.364 143.745 205.334 143.43 205.276 143.166C205.217 142.887 205.1 142.675 204.924 142.528C204.762 142.367 204.513 142.286 204.176 142.286C203.794 142.286 203.442 142.396 203.12 142.616C202.797 142.836 202.533 143.144 202.328 143.54C202.137 143.921 202.042 144.354 202.042 144.838V150.954C202.042 151.57 202.122 151.988 202.284 152.208C202.445 152.428 202.716 152.538 203.098 152.538V153C202.863 152.985 202.496 152.971 201.998 152.956C201.514 152.927 201.015 152.912 200.502 152.912C199.944 152.912 199.372 152.927 198.786 152.956C198.199 152.971 197.759 152.985 197.466 153V152.538C197.979 152.538 198.338 152.428 198.544 152.208C198.764 151.988 198.874 151.57 198.874 150.954V144.024C198.874 143.364 198.771 142.88 198.566 142.572C198.375 142.249 198.008 142.088 197.466 142.088V141.626C197.935 141.67 198.39 141.692 198.83 141.692C199.446 141.692 200.018 141.67 200.546 141.626C201.088 141.567 201.587 141.487 202.042 141.384V143.364C202.394 142.631 202.87 142.11 203.472 141.802C204.073 141.479 204.733 141.318 205.452 141.318ZM212.074 141.318C212.69 141.318 213.188 141.399 213.57 141.56C213.951 141.707 214.259 141.912 214.494 142.176C214.728 142.455 214.897 142.821 215 143.276C215.102 143.716 215.154 144.303 215.154 145.036V150.954C215.154 151.57 215.256 151.988 215.462 152.208C215.682 152.428 216.048 152.538 216.562 152.538V153C216.283 152.985 215.865 152.971 215.308 152.956C214.75 152.927 214.2 152.912 213.658 152.912C213.13 152.912 212.609 152.927 212.096 152.956C211.582 152.971 211.194 152.985 210.93 153V152.538C211.326 152.538 211.597 152.428 211.744 152.208C211.905 151.988 211.986 151.57 211.986 150.954V144.112C211.986 143.745 211.949 143.43 211.876 143.166C211.817 142.887 211.692 142.675 211.502 142.528C211.326 142.367 211.047 142.286 210.666 142.286C210.284 142.286 209.932 142.403 209.61 142.638C209.287 142.873 209.023 143.188 208.818 143.584C208.627 143.98 208.524 144.42 208.51 144.904L208.4 143.562C208.796 142.682 209.316 142.088 209.962 141.78C210.622 141.472 211.326 141.318 212.074 141.318ZM221.848 135.796V143.364C222.214 142.601 222.706 142.073 223.322 141.78C223.952 141.472 224.656 141.318 225.434 141.318C226.064 141.318 226.57 141.399 226.952 141.56C227.333 141.707 227.634 141.912 227.854 142.176C228.103 142.455 228.279 142.814 228.382 143.254C228.499 143.694 228.558 144.288 228.558 145.036V150.954C228.558 151.57 228.66 151.988 228.866 152.208C229.086 152.428 229.452 152.538 229.966 152.538V153C229.687 152.985 229.262 152.971 228.69 152.956C228.132 152.927 227.59 152.912 227.062 152.912C226.49 152.912 225.932 152.927 225.39 152.956C224.862 152.971 224.466 152.985 224.202 153V152.538C224.642 152.538 224.95 152.428 225.126 152.208C225.302 151.988 225.39 151.57 225.39 150.954V144.112C225.39 143.745 225.353 143.43 225.28 143.166C225.206 142.887 225.067 142.675 224.862 142.528C224.671 142.367 224.392 142.286 224.026 142.286C223.63 142.286 223.263 142.396 222.926 142.616C222.603 142.821 222.339 143.115 222.134 143.496C221.943 143.877 221.848 144.317 221.848 144.816V150.954C221.848 151.57 221.936 151.988 222.112 152.208C222.288 152.428 222.596 152.538 223.036 152.538V153C222.772 152.985 222.383 152.971 221.87 152.956C221.356 152.927 220.836 152.912 220.308 152.912C219.736 152.912 219.156 152.927 218.57 152.956C217.998 152.971 217.565 152.985 217.272 153V152.538C217.785 152.538 218.144 152.428 218.35 152.208C218.57 151.988 218.68 151.57 218.68 150.954V138.436C218.68 137.776 218.577 137.292 218.372 136.984C218.181 136.661 217.814 136.5 217.272 136.5V136.038C217.741 136.082 218.196 136.104 218.636 136.104C219.237 136.104 219.809 136.082 220.352 136.038C220.894 135.979 221.393 135.899 221.848 135.796ZM236.442 141.318C237.733 141.318 238.745 141.699 239.478 142.462C240.212 143.225 240.578 144.471 240.578 146.202H233.34L233.296 145.784H237.806C237.821 145.065 237.777 144.405 237.674 143.804C237.572 143.188 237.41 142.697 237.19 142.33C236.97 141.963 236.677 141.78 236.31 141.78C235.797 141.78 235.357 142.103 234.99 142.748C234.638 143.393 234.426 144.464 234.352 145.96L234.418 146.092C234.404 146.268 234.389 146.451 234.374 146.642C234.374 146.833 234.374 147.031 234.374 147.236C234.374 148.248 234.514 149.069 234.792 149.7C235.086 150.331 235.452 150.793 235.892 151.086C236.332 151.365 236.78 151.504 237.234 151.504C237.542 151.504 237.858 151.46 238.18 151.372C238.518 151.269 238.855 151.093 239.192 150.844C239.53 150.58 239.845 150.213 240.138 149.744L240.534 149.876C240.358 150.433 240.08 150.976 239.698 151.504C239.317 152.032 238.833 152.465 238.246 152.802C237.66 153.139 236.956 153.308 236.134 153.308C235.137 153.308 234.257 153.095 233.494 152.67C232.732 152.245 232.13 151.599 231.69 150.734C231.265 149.869 231.052 148.769 231.052 147.434C231.052 146.07 231.28 144.933 231.734 144.024C232.204 143.115 232.842 142.44 233.648 142C234.47 141.545 235.401 141.318 236.442 141.318ZM252.676 135.774V150.58C252.676 151.24 252.779 151.731 252.984 152.054C253.19 152.362 253.556 152.516 254.084 152.516V152.978C253.63 152.934 253.175 152.912 252.72 152.912C252.104 152.912 251.525 152.934 250.982 152.978C250.454 153.022 249.963 153.103 249.508 153.22V138.414C249.508 137.754 249.406 137.27 249.2 136.962C249.01 136.639 248.643 136.478 248.1 136.478V136.016C248.57 136.06 249.024 136.082 249.464 136.082C250.066 136.082 250.638 136.06 251.18 136.016C251.723 135.957 252.222 135.877 252.676 135.774ZM247.066 141.318C247.712 141.318 248.276 141.428 248.76 141.648C249.259 141.853 249.648 142.205 249.926 142.704L249.662 142.946C249.472 142.594 249.215 142.345 248.892 142.198C248.584 142.037 248.254 141.956 247.902 141.956C247.154 141.956 246.56 142.396 246.12 143.276C245.68 144.141 245.468 145.483 245.482 147.302C245.482 148.549 245.563 149.546 245.724 150.294C245.9 151.027 246.142 151.555 246.45 151.878C246.773 152.201 247.14 152.362 247.55 152.362C248.049 152.362 248.496 152.164 248.892 151.768C249.288 151.372 249.501 150.837 249.53 150.162L249.64 150.932C249.42 151.709 249.061 152.303 248.562 152.714C248.078 153.11 247.44 153.308 246.648 153.308C245.783 153.308 245.006 153.095 244.316 152.67C243.642 152.245 243.114 151.592 242.732 150.712C242.351 149.817 242.16 148.666 242.16 147.258C242.16 145.923 242.373 144.823 242.798 143.958C243.224 143.078 243.803 142.418 244.536 141.978C245.284 141.538 246.128 141.318 247.066 141.318ZM73.7845 167.318C74.4005 167.318 74.8992 167.399 75.2805 167.56C75.6618 167.707 75.9698 167.912 76.2045 168.176C76.4392 168.455 76.6078 168.821 76.7105 169.276C76.8132 169.716 76.8645 170.303 76.8645 171.036V176.954C76.8645 177.57 76.9598 177.988 77.1505 178.208C77.3412 178.428 77.6712 178.538 78.1405 178.538V179C77.8765 178.985 77.4732 178.971 76.9305 178.956C76.4025 178.927 75.8818 178.912 75.3685 178.912C74.8405 178.912 74.3198 178.927 73.8065 178.956C73.2932 178.971 72.9045 178.985 72.6405 179V178.538C73.0365 178.538 73.3078 178.428 73.4545 178.208C73.6158 177.988 73.6965 177.57 73.6965 176.954V170.112C73.6965 169.745 73.6672 169.43 73.6085 169.166C73.5498 168.887 73.4325 168.675 73.2565 168.528C73.0952 168.367 72.8458 168.286 72.5085 168.286C72.1272 168.286 71.7752 168.396 71.4525 168.616C71.1298 168.836 70.8658 169.144 70.6605 169.54C70.4698 169.921 70.3745 170.354 70.3745 170.838V176.954C70.3745 177.57 70.4552 177.988 70.6165 178.208C70.7778 178.428 71.0492 178.538 71.4305 178.538V179C71.1958 178.985 70.8292 178.971 70.3305 178.956C69.8465 178.927 69.3478 178.912 68.8345 178.912C68.2772 178.912 67.7052 178.927 67.1185 178.956C66.5318 178.971 66.0918 178.985 65.7985 179V178.538C66.3118 178.538 66.6712 178.428 66.8765 178.208C67.0965 177.988 67.2065 177.57 67.2065 176.954V170.024C67.2065 169.364 67.1038 168.88 66.8985 168.572C66.7078 168.249 66.3412 168.088 65.7985 168.088V167.626C66.2678 167.67 66.7225 167.692 67.1625 167.692C67.7785 167.692 68.3505 167.67 68.8785 167.626C69.4212 167.567 69.9198 167.487 70.3745 167.384V169.364C70.7265 168.631 71.2032 168.11 71.8045 167.802C72.4058 167.479 73.0658 167.318 73.7845 167.318ZM80.4065 167.318C81.0225 167.318 81.5212 167.399 81.9025 167.56C82.2838 167.707 82.5918 167.912 82.8265 168.176C83.0612 168.455 83.2298 168.821 83.3325 169.276C83.4352 169.716 83.4865 170.303 83.4865 171.036V176.954C83.4865 177.57 83.5892 177.988 83.7945 178.208C84.0145 178.428 84.3812 178.538 84.8945 178.538V179C84.6158 178.985 84.1978 178.971 83.6405 178.956C83.0832 178.927 82.5332 178.912 81.9905 178.912C81.4625 178.912 80.9418 178.927 80.4285 178.956C79.9152 178.971 79.5265 178.985 79.2625 179V178.538C79.6585 178.538 79.9298 178.428 80.0765 178.208C80.2378 177.988 80.3185 177.57 80.3185 176.954V170.112C80.3185 169.745 80.2818 169.43 80.2085 169.166C80.1498 168.887 80.0252 168.675 79.8345 168.528C79.6585 168.367 79.3798 168.286 78.9985 168.286C78.6172 168.286 78.2652 168.403 77.9425 168.638C77.6198 168.873 77.3558 169.188 77.1505 169.584C76.9598 169.98 76.8572 170.42 76.8425 170.904L76.7325 169.562C77.1285 168.682 77.6492 168.088 78.2945 167.78C78.9545 167.472 79.6585 167.318 80.4065 167.318ZM91.3905 167.318C92.6812 167.318 93.6932 167.699 94.4265 168.462C95.1599 169.225 95.5265 170.471 95.5265 172.202H88.2885L88.2445 171.784H92.7545C92.7692 171.065 92.7252 170.405 92.6225 169.804C92.5199 169.188 92.3585 168.697 92.1385 168.33C91.9185 167.963 91.6252 167.78 91.2585 167.78C90.7452 167.78 90.3052 168.103 89.9385 168.748C89.5865 169.393 89.3739 170.464 89.3005 171.96L89.3665 172.092C89.3519 172.268 89.3372 172.451 89.3225 172.642C89.3225 172.833 89.3225 173.031 89.3225 173.236C89.3225 174.248 89.4619 175.069 89.7405 175.7C90.0339 176.331 90.4005 176.793 90.8405 177.086C91.2805 177.365 91.7279 177.504 92.1825 177.504C92.4905 177.504 92.8059 177.46 93.1285 177.372C93.4659 177.269 93.8032 177.093 94.1405 176.844C94.4779 176.58 94.7932 176.213 95.0865 175.744L95.4825 175.876C95.3065 176.433 95.0279 176.976 94.6465 177.504C94.2652 178.032 93.7812 178.465 93.1945 178.802C92.6079 179.139 91.9039 179.308 91.0825 179.308C90.0852 179.308 89.2052 179.095 88.4425 178.67C87.6799 178.245 87.0785 177.599 86.6385 176.734C86.2132 175.869 86.0005 174.769 86.0005 173.434C86.0005 172.07 86.2279 170.933 86.6825 170.024C87.1519 169.115 87.7899 168.44 88.5965 168C89.4179 167.545 90.3492 167.318 91.3905 167.318ZM107.624 161.774V176.58C107.624 177.24 107.727 177.731 107.932 178.054C108.138 178.362 108.504 178.516 109.032 178.516V178.978C108.578 178.934 108.123 178.912 107.668 178.912C107.052 178.912 106.473 178.934 105.93 178.978C105.402 179.022 104.911 179.103 104.456 179.22V164.414C104.456 163.754 104.354 163.27 104.148 162.962C103.958 162.639 103.591 162.478 103.048 162.478V162.016C103.518 162.06 103.972 162.082 104.412 162.082C105.014 162.082 105.586 162.06 106.128 162.016C106.671 161.957 107.17 161.877 107.624 161.774ZM102.014 167.318C102.66 167.318 103.224 167.428 103.708 167.648C104.207 167.853 104.596 168.205 104.874 168.704L104.61 168.946C104.42 168.594 104.163 168.345 103.84 168.198C103.532 168.037 103.202 167.956 102.85 167.956C102.102 167.956 101.508 168.396 101.068 169.276C100.628 170.141 100.416 171.483 100.43 173.302C100.43 174.549 100.511 175.546 100.672 176.294C100.848 177.027 101.09 177.555 101.398 177.878C101.721 178.201 102.088 178.362 102.498 178.362C102.997 178.362 103.444 178.164 103.84 177.768C104.236 177.372 104.449 176.837 104.478 176.162L104.588 176.932C104.368 177.709 104.009 178.303 103.51 178.714C103.026 179.11 102.388 179.308 101.596 179.308C100.731 179.308 99.9538 179.095 99.2645 178.67C98.5898 178.245 98.0618 177.592 97.6805 176.712C97.2991 175.817 97.1085 174.666 97.1085 173.258C97.1085 171.923 97.3211 170.823 97.7465 169.958C98.1718 169.078 98.7511 168.418 99.4845 167.978C100.232 167.538 101.076 167.318 102.014 167.318ZM125.908 161.774V176.58C125.908 177.24 126.01 177.731 126.216 178.054C126.421 178.362 126.788 178.516 127.316 178.516V178.978C126.861 178.934 126.406 178.912 125.952 178.912C125.336 178.912 124.756 178.934 124.214 178.978C123.686 179.022 123.194 179.103 122.74 179.22V164.414C122.74 163.754 122.637 163.27 122.432 162.962C122.241 162.639 121.874 162.478 121.332 162.478V162.016C121.801 162.06 122.256 162.082 122.696 162.082C123.297 162.082 123.869 162.06 124.412 162.016C124.954 161.957 125.453 161.877 125.908 161.774ZM120.298 167.318C120.943 167.318 121.508 167.428 121.992 167.648C122.49 167.853 122.879 168.205 123.158 168.704L122.894 168.946C122.703 168.594 122.446 168.345 122.124 168.198C121.816 168.037 121.486 167.956 121.134 167.956C120.386 167.956 119.792 168.396 119.352 169.276C118.912 170.141 118.699 171.483 118.714 173.302C118.714 174.549 118.794 175.546 118.956 176.294C119.132 177.027 119.374 177.555 119.682 177.878C120.004 178.201 120.371 178.362 120.782 178.362C121.28 178.362 121.728 178.164 122.124 177.768C122.52 177.372 122.732 176.837 122.762 176.162L122.872 176.932C122.652 177.709 122.292 178.303 121.794 178.714C121.31 179.11 120.672 179.308 119.88 179.308C119.014 179.308 118.237 179.095 117.548 178.67C116.873 178.245 116.345 177.592 115.964 176.712C115.582 175.817 115.392 174.666 115.392 173.258C115.392 171.923 115.604 170.823 116.03 169.958C116.455 169.078 117.034 168.418 117.768 167.978C118.516 167.538 119.359 167.318 120.298 167.318ZM133.908 167.318C135.199 167.318 136.211 167.699 136.944 168.462C137.677 169.225 138.044 170.471 138.044 172.202H130.806L130.762 171.784H135.272C135.287 171.065 135.243 170.405 135.14 169.804C135.037 169.188 134.876 168.697 134.656 168.33C134.436 167.963 134.143 167.78 133.776 167.78C133.263 167.78 132.823 168.103 132.456 168.748C132.104 169.393 131.891 170.464 131.818 171.96L131.884 172.092C131.869 172.268 131.855 172.451 131.84 172.642C131.84 172.833 131.84 173.031 131.84 173.236C131.84 174.248 131.979 175.069 132.258 175.7C132.551 176.331 132.918 176.793 133.358 177.086C133.798 177.365 134.245 177.504 134.7 177.504C135.008 177.504 135.323 177.46 135.646 177.372C135.983 177.269 136.321 177.093 136.658 176.844C136.995 176.58 137.311 176.213 137.604 175.744L138 175.876C137.824 176.433 137.545 176.976 137.164 177.504C136.783 178.032 136.299 178.465 135.712 178.802C135.125 179.139 134.421 179.308 133.6 179.308C132.603 179.308 131.723 179.095 130.96 178.67C130.197 178.245 129.596 177.599 129.156 176.734C128.731 175.869 128.518 174.769 128.518 173.434C128.518 172.07 128.745 170.933 129.2 170.024C129.669 169.115 130.307 168.44 131.114 168C131.935 167.545 132.867 167.318 133.908 167.318ZM143.784 164.018V167.626H146.38V168.066H143.784V176.954C143.784 177.394 143.865 177.709 144.026 177.9C144.187 178.076 144.429 178.164 144.752 178.164C145.016 178.164 145.28 178.069 145.544 177.878C145.808 177.673 146.043 177.328 146.248 176.844L146.622 177.042C146.387 177.702 146.028 178.245 145.544 178.67C145.075 179.095 144.429 179.308 143.608 179.308C143.124 179.308 142.699 179.242 142.332 179.11C141.965 178.993 141.657 178.809 141.408 178.56C141.085 178.237 140.873 177.841 140.77 177.372C140.667 176.888 140.616 176.265 140.616 175.502V168.066H138.768V167.626H140.616V164.722C141.232 164.722 141.797 164.671 142.31 164.568C142.838 164.451 143.329 164.267 143.784 164.018ZM156.393 167.318C157.009 167.318 157.544 167.399 157.999 167.56C158.468 167.707 158.805 167.853 159.011 168C159.509 168.337 159.817 168.117 159.935 167.34H160.397C160.367 167.751 160.345 168.257 160.331 168.858C160.316 169.445 160.309 170.229 160.309 171.212H159.847C159.773 170.669 159.634 170.134 159.429 169.606C159.223 169.078 158.923 168.645 158.527 168.308C158.145 167.971 157.647 167.802 157.031 167.802C156.605 167.802 156.246 167.927 155.953 168.176C155.659 168.411 155.513 168.755 155.513 169.21C155.513 169.65 155.645 170.039 155.909 170.376C156.173 170.699 156.51 171.014 156.921 171.322C157.346 171.615 157.786 171.931 158.241 172.268C158.725 172.635 159.165 173.001 159.561 173.368C159.957 173.72 160.272 174.109 160.507 174.534C160.741 174.959 160.859 175.465 160.859 176.052C160.859 176.712 160.668 177.291 160.287 177.79C159.905 178.274 159.399 178.648 158.769 178.912C158.153 179.176 157.463 179.308 156.701 179.308C156.261 179.308 155.865 179.264 155.513 179.176C155.175 179.088 154.882 178.978 154.633 178.846C154.442 178.758 154.259 178.677 154.083 178.604C153.921 178.516 153.767 178.443 153.621 178.384C153.474 178.34 153.342 178.391 153.225 178.538C153.122 178.685 153.041 178.89 152.983 179.154H152.521C152.55 178.685 152.572 178.113 152.587 177.438C152.601 176.763 152.609 175.869 152.609 174.754H153.071C153.159 175.546 153.32 176.25 153.555 176.866C153.789 177.467 154.105 177.944 154.501 178.296C154.911 178.633 155.425 178.802 156.041 178.802C156.29 178.802 156.532 178.751 156.767 178.648C157.001 178.545 157.192 178.377 157.339 178.142C157.5 177.907 157.581 177.607 157.581 177.24C157.581 176.595 157.368 176.059 156.943 175.634C156.532 175.209 156.004 174.747 155.359 174.248C154.889 173.867 154.442 173.493 154.017 173.126C153.606 172.745 153.269 172.334 153.005 171.894C152.741 171.439 152.609 170.926 152.609 170.354C152.609 169.694 152.785 169.137 153.137 168.682C153.489 168.227 153.951 167.89 154.523 167.67C155.109 167.435 155.733 167.318 156.393 167.318ZM165.235 179.154C164.575 179.154 164.025 179.029 163.585 178.78C163.145 178.531 162.822 178.201 162.617 177.79C162.412 177.365 162.309 176.903 162.309 176.404C162.309 175.773 162.448 175.26 162.727 174.864C163.02 174.468 163.394 174.145 163.849 173.896C164.304 173.647 164.78 173.441 165.279 173.28C165.792 173.119 166.276 172.965 166.731 172.818C167.2 172.657 167.574 172.473 167.853 172.268C168.146 172.048 168.293 171.769 168.293 171.432V169.716C168.293 169.335 168.227 168.997 168.095 168.704C167.978 168.396 167.787 168.161 167.523 168C167.274 167.839 166.944 167.758 166.533 167.758C166.24 167.758 165.946 167.802 165.653 167.89C165.36 167.963 165.118 168.095 164.927 168.286C165.338 168.433 165.653 168.66 165.873 168.968C166.108 169.261 166.225 169.599 166.225 169.98C166.225 170.479 166.049 170.875 165.697 171.168C165.36 171.461 164.956 171.608 164.487 171.608C163.959 171.608 163.556 171.447 163.277 171.124C163.013 170.787 162.881 170.383 162.881 169.914C162.881 169.489 162.984 169.137 163.189 168.858C163.409 168.579 163.71 168.315 164.091 168.066C164.502 167.831 164.993 167.648 165.565 167.516C166.152 167.384 166.782 167.318 167.457 167.318C168.132 167.318 168.74 167.391 169.283 167.538C169.826 167.67 170.28 167.919 170.647 168.286C170.984 168.623 171.204 169.041 171.307 169.54C171.41 170.024 171.461 170.64 171.461 171.388V177.372C171.461 177.739 171.498 177.995 171.571 178.142C171.644 178.274 171.769 178.34 171.945 178.34C172.077 178.34 172.202 178.303 172.319 178.23C172.451 178.157 172.59 178.069 172.737 177.966L172.957 178.34C172.649 178.604 172.29 178.809 171.879 178.956C171.483 179.088 171.036 179.154 170.537 179.154C169.994 179.154 169.562 179.081 169.239 178.934C168.916 178.773 168.682 178.56 168.535 178.296C168.403 178.032 168.337 177.724 168.337 177.372C167.985 177.929 167.56 178.369 167.061 178.692C166.562 179 165.954 179.154 165.235 179.154ZM166.797 177.746C167.09 177.746 167.354 177.68 167.589 177.548C167.838 177.401 168.073 177.167 168.293 176.844V172.334C168.161 172.554 167.978 172.752 167.743 172.928C167.508 173.104 167.259 173.287 166.995 173.478C166.731 173.654 166.474 173.852 166.225 174.072C165.99 174.292 165.8 174.563 165.653 174.886C165.506 175.209 165.433 175.597 165.433 176.052C165.433 176.624 165.558 177.049 165.807 177.328C166.056 177.607 166.386 177.746 166.797 177.746ZM181.572 167.318C182.188 167.318 182.686 167.399 183.068 167.56C183.449 167.707 183.757 167.912 183.992 168.176C184.226 168.455 184.395 168.821 184.498 169.276C184.6 169.716 184.652 170.303 184.652 171.036V176.954C184.652 177.57 184.747 177.988 184.938 178.208C185.128 178.428 185.458 178.538 185.928 178.538V179C185.664 178.985 185.26 178.971 184.718 178.956C184.19 178.927 183.669 178.912 183.156 178.912C182.628 178.912 182.107 178.927 181.594 178.956C181.08 178.971 180.692 178.985 180.428 179V178.538C180.824 178.538 181.095 178.428 181.242 178.208C181.403 177.988 181.484 177.57 181.484 176.954V170.112C181.484 169.745 181.454 169.43 181.396 169.166C181.337 168.887 181.22 168.675 181.044 168.528C180.882 168.367 180.633 168.286 180.296 168.286C179.914 168.286 179.562 168.396 179.24 168.616C178.917 168.836 178.653 169.144 178.448 169.54C178.257 169.921 178.162 170.354 178.162 170.838V176.954C178.162 177.57 178.242 177.988 178.404 178.208C178.565 178.428 178.836 178.538 179.218 178.538V179C178.983 178.985 178.616 178.971 178.118 178.956C177.634 178.927 177.135 178.912 176.622 178.912C176.064 178.912 175.492 178.927 174.906 178.956C174.319 178.971 173.879 178.985 173.586 179V178.538C174.099 178.538 174.458 178.428 174.664 178.208C174.884 177.988 174.994 177.57 174.994 176.954V170.024C174.994 169.364 174.891 168.88 174.686 168.572C174.495 168.249 174.128 168.088 173.586 168.088V167.626C174.055 167.67 174.51 167.692 174.95 167.692C175.566 167.692 176.138 167.67 176.666 167.626C177.208 167.567 177.707 167.487 178.162 167.384V169.364C178.514 168.631 178.99 168.11 179.592 167.802C180.193 167.479 180.853 167.318 181.572 167.318ZM188.194 167.318C188.81 167.318 189.308 167.399 189.69 167.56C190.071 167.707 190.379 167.912 190.614 168.176C190.848 168.455 191.017 168.821 191.12 169.276C191.222 169.716 191.274 170.303 191.274 171.036V176.954C191.274 177.57 191.376 177.988 191.582 178.208C191.802 178.428 192.168 178.538 192.682 178.538V179C192.403 178.985 191.985 178.971 191.428 178.956C190.87 178.927 190.32 178.912 189.778 178.912C189.25 178.912 188.729 178.927 188.216 178.956C187.702 178.971 187.314 178.985 187.05 179V178.538C187.446 178.538 187.717 178.428 187.864 178.208C188.025 177.988 188.106 177.57 188.106 176.954V170.112C188.106 169.745 188.069 169.43 187.996 169.166C187.937 168.887 187.812 168.675 187.622 168.528C187.446 168.367 187.167 168.286 186.786 168.286C186.404 168.286 186.052 168.403 185.73 168.638C185.407 168.873 185.143 169.188 184.938 169.584C184.747 169.98 184.644 170.42 184.63 170.904L184.52 169.562C184.916 168.682 185.436 168.088 186.082 167.78C186.742 167.472 187.446 167.318 188.194 167.318ZM201.488 167.318C202.104 167.318 202.602 167.399 202.984 167.56C203.365 167.707 203.673 167.912 203.908 168.176C204.142 168.455 204.311 168.821 204.414 169.276C204.516 169.716 204.568 170.303 204.568 171.036V176.954C204.568 177.57 204.663 177.988 204.854 178.208C205.044 178.428 205.374 178.538 205.844 178.538V179C205.58 178.985 205.176 178.971 204.634 178.956C204.106 178.927 203.585 178.912 203.072 178.912C202.544 178.912 202.023 178.927 201.51 178.956C200.996 178.971 200.608 178.985 200.344 179V178.538C200.74 178.538 201.011 178.428 201.158 178.208C201.319 177.988 201.4 177.57 201.4 176.954V170.112C201.4 169.745 201.37 169.43 201.312 169.166C201.253 168.887 201.136 168.675 200.96 168.528C200.798 168.367 200.549 168.286 200.212 168.286C199.83 168.286 199.478 168.396 199.156 168.616C198.833 168.836 198.569 169.144 198.364 169.54C198.173 169.921 198.078 170.354 198.078 170.838V176.954C198.078 177.57 198.158 177.988 198.32 178.208C198.481 178.428 198.752 178.538 199.134 178.538V179C198.899 178.985 198.532 178.971 198.034 178.956C197.55 178.927 197.051 178.912 196.538 178.912C195.98 178.912 195.408 178.927 194.822 178.956C194.235 178.971 193.795 178.985 193.502 179V178.538C194.015 178.538 194.374 178.428 194.58 178.208C194.8 177.988 194.91 177.57 194.91 176.954V170.024C194.91 169.364 194.807 168.88 194.602 168.572C194.411 168.249 194.044 168.088 193.502 168.088V167.626C193.971 167.67 194.426 167.692 194.866 167.692C195.482 167.692 196.054 167.67 196.582 167.626C197.124 167.567 197.623 167.487 198.078 167.384V169.364C198.43 168.631 198.906 168.11 199.508 167.802C200.109 167.479 200.769 167.318 201.488 167.318ZM208.11 167.318C208.726 167.318 209.224 167.399 209.606 167.56C209.987 167.707 210.295 167.912 210.53 168.176C210.764 168.455 210.933 168.821 211.036 169.276C211.138 169.716 211.19 170.303 211.19 171.036V176.954C211.19 177.57 211.292 177.988 211.498 178.208C211.718 178.428 212.084 178.538 212.598 178.538V179C212.319 178.985 211.901 178.971 211.344 178.956C210.786 178.927 210.236 178.912 209.694 178.912C209.166 178.912 208.645 178.927 208.132 178.956C207.618 178.971 207.23 178.985 206.966 179V178.538C207.362 178.538 207.633 178.428 207.78 178.208C207.941 177.988 208.022 177.57 208.022 176.954V170.112C208.022 169.745 207.985 169.43 207.912 169.166C207.853 168.887 207.728 168.675 207.538 168.528C207.362 168.367 207.083 168.286 206.702 168.286C206.32 168.286 205.968 168.403 205.646 168.638C205.323 168.873 205.059 169.188 204.854 169.584C204.663 169.98 204.56 170.42 204.546 170.904L204.436 169.562C204.832 168.682 205.352 168.088 205.998 167.78C206.658 167.472 207.362 167.318 208.11 167.318ZM219.094 167.318C220.384 167.318 221.396 167.699 222.13 168.462C222.863 169.225 223.23 170.471 223.23 172.202H215.992L215.948 171.784H220.458C220.472 171.065 220.428 170.405 220.326 169.804C220.223 169.188 220.062 168.697 219.842 168.33C219.622 167.963 219.328 167.78 218.962 167.78C218.448 167.78 218.008 168.103 217.642 168.748C217.29 169.393 217.077 170.464 217.004 171.96L217.07 172.092C217.055 172.268 217.04 172.451 217.026 172.642C217.026 172.833 217.026 173.031 217.026 173.236C217.026 174.248 217.165 175.069 217.444 175.7C217.737 176.331 218.104 176.793 218.544 177.086C218.984 177.365 219.431 177.504 219.886 177.504C220.194 177.504 220.509 177.46 220.832 177.372C221.169 177.269 221.506 177.093 221.844 176.844C222.181 176.58 222.496 176.213 222.79 175.744L223.186 175.876C223.01 176.433 222.731 176.976 222.35 177.504C221.968 178.032 221.484 178.465 220.898 178.802C220.311 179.139 219.607 179.308 218.786 179.308C217.788 179.308 216.908 179.095 216.146 178.67C215.383 178.245 214.782 177.599 214.342 176.734C213.916 175.869 213.704 174.769 213.704 173.434C213.704 172.07 213.931 170.933 214.386 170.024C214.855 169.115 215.493 168.44 216.3 168C217.121 167.545 218.052 167.318 219.094 167.318ZM230.782 163.116C231.149 163.116 231.464 163.182 231.728 163.314C231.992 163.446 232.197 163.637 232.344 163.886C232.505 164.091 232.623 164.363 232.696 164.7C232.784 165.037 232.828 165.375 232.828 165.712C232.828 166.445 232.637 167.127 232.256 167.758C231.889 168.374 231.31 168.865 230.518 169.232L230.32 168.836C230.731 168.66 231.097 168.389 231.42 168.022C231.743 167.655 231.933 167.281 231.992 166.9C232.065 166.577 232.065 166.269 231.992 165.976C231.669 166.328 231.244 166.504 230.716 166.504C230.203 166.504 229.785 166.357 229.462 166.064C229.139 165.756 228.978 165.338 228.978 164.81C228.978 164.297 229.147 163.886 229.484 163.578C229.836 163.27 230.269 163.116 230.782 163.116ZM226.25 163.116C226.617 163.116 226.932 163.182 227.196 163.314C227.46 163.446 227.665 163.637 227.812 163.886C227.973 164.091 228.091 164.363 228.164 164.7C228.252 165.037 228.296 165.375 228.296 165.712C228.296 166.445 228.105 167.127 227.724 167.758C227.357 168.374 226.778 168.865 225.986 169.232L225.788 168.836C226.199 168.66 226.565 168.389 226.888 168.022C227.211 167.655 227.401 167.281 227.46 166.9C227.533 166.577 227.533 166.269 227.46 165.976C227.137 166.328 226.712 166.504 226.184 166.504C225.671 166.504 225.253 166.357 224.93 166.064C224.607 165.756 224.446 165.338 224.446 164.81C224.446 164.297 224.615 163.886 224.952 163.578C225.304 163.27 225.737 163.116 226.25 163.116Z" fill="#0000FF"/>
</svg>
