<svg width="200" height="200" viewBox="0 0 200 200" fill="none" xmlns="http://www.w3.org/2000/svg">
<rect width="200" height="200" fill="#A4A68D"/>
<path d="M80.1261 40.424V40.864C79.6567 40.8787 79.2974 40.9373 79.0481 41.04C78.8134 41.128 78.6594 41.304 78.5861 41.568C78.5127 41.8173 78.4761 42.2133 78.4761 42.756V53.668C78.4761 54.196 78.5127 54.592 78.5861 54.856C78.6741 55.12 78.8354 55.296 79.0701 55.384C79.3047 55.472 79.6567 55.5307 80.1261 55.56V56C79.7301 55.9707 79.2314 55.956 78.6301 55.956C78.0287 55.9413 77.4201 55.934 76.8041 55.934C76.0854 55.934 75.4181 55.9413 74.8021 55.956C74.2007 55.956 73.7094 55.9707 73.3281 56V55.56C73.7974 55.5307 74.1494 55.472 74.3841 55.384C74.6187 55.296 74.7727 55.12 74.8461 54.856C74.9341 54.592 74.9781 54.196 74.9781 53.668V42.756C74.9781 42.2133 74.9341 41.8173 74.8461 41.568C74.7727 41.304 74.6114 41.128 74.3621 41.04C74.1274 40.9373 73.7827 40.8787 73.3281 40.864V40.424C73.7094 40.4387 74.2007 40.4533 74.8021 40.468C75.4181 40.4827 76.0854 40.49 76.8041 40.49C77.4201 40.49 78.0287 40.4827 78.6301 40.468C79.2314 40.4533 79.7301 40.4387 80.1261 40.424ZM90.723 38.774V53.954C90.723 54.57 90.8257 54.988 91.031 55.208C91.251 55.428 91.6177 55.538 92.131 55.538V56C91.8524 55.9853 91.4344 55.9707 90.877 55.956C90.3197 55.9267 89.755 55.912 89.183 55.912C88.611 55.912 88.0317 55.9267 87.445 55.956C86.873 55.9707 86.4404 55.9853 86.147 56V55.538C86.6604 55.538 87.0197 55.428 87.225 55.208C87.445 54.988 87.555 54.57 87.555 53.954V41.414C87.555 40.754 87.4524 40.27 87.247 39.962C87.0564 39.6393 86.6897 39.478 86.147 39.478V39.016C86.6164 39.06 87.071 39.082 87.511 39.082C88.1124 39.082 88.6844 39.06 89.227 39.016C89.7697 38.9573 90.2684 38.8767 90.723 38.774ZM98.5282 44.318C99.5989 44.318 100.538 44.516 101.344 44.912C102.151 45.308 102.782 45.946 103.236 46.826C103.691 47.706 103.918 48.872 103.918 50.324C103.918 51.776 103.691 52.942 103.236 53.822C102.782 54.6873 102.151 55.318 101.344 55.714C100.538 56.11 99.5989 56.308 98.5282 56.308C97.4869 56.308 96.5556 56.11 95.7342 55.714C94.9276 55.318 94.2896 54.6873 93.8202 53.822C93.3656 52.942 93.1382 51.776 93.1382 50.324C93.1382 48.872 93.3656 47.706 93.8202 46.826C94.2896 45.946 94.9276 45.308 95.7342 44.912C96.5556 44.516 97.4869 44.318 98.5282 44.318ZM98.5282 44.758C97.9416 44.758 97.4502 45.198 97.0542 46.078C96.6582 46.9433 96.4602 48.3587 96.4602 50.324C96.4602 52.2893 96.6582 53.7047 97.0542 54.57C97.4502 55.4353 97.9416 55.868 98.5282 55.868C99.1296 55.868 99.6209 55.4353 100.002 54.57C100.398 53.7047 100.596 52.2893 100.596 50.324C100.596 48.3587 100.398 46.9433 100.002 46.078C99.6209 45.198 99.1296 44.758 98.5282 44.758ZM115.638 44.626V45.066C115.36 45.1393 115.096 45.3153 114.846 45.594C114.597 45.858 114.355 46.3127 114.12 46.958L110.908 56.044C110.674 56.0293 110.432 56.022 110.182 56.022C109.948 56.022 109.713 56.0293 109.478 56.044L105.562 46.32C105.328 45.748 105.093 45.4033 104.858 45.286C104.638 45.154 104.448 45.088 104.286 45.088V44.626C104.756 44.6553 105.24 44.6847 105.738 44.714C106.252 44.7287 106.809 44.736 107.41 44.736C107.865 44.736 108.342 44.7287 108.84 44.714C109.354 44.6847 109.83 44.6553 110.27 44.626V45.088C109.962 45.088 109.684 45.1027 109.434 45.132C109.2 45.1613 109.038 45.2567 108.95 45.418C108.862 45.5793 108.877 45.8653 108.994 46.276L111.568 53.096L111.348 53.404L113.086 48.586C113.365 47.794 113.482 47.1487 113.438 46.65C113.394 46.1367 113.233 45.7553 112.954 45.506C112.676 45.242 112.302 45.0953 111.832 45.066V44.626C112.052 44.6407 112.287 44.6553 112.536 44.67C112.8 44.67 113.05 44.6773 113.284 44.692C113.534 44.692 113.754 44.692 113.944 44.692C114.238 44.692 114.546 44.6847 114.868 44.67C115.191 44.6553 115.448 44.6407 115.638 44.626ZM121.538 44.318C122.829 44.318 123.841 44.6993 124.574 45.462C125.307 46.2247 125.674 47.4713 125.674 49.202H118.436L118.392 48.784H122.902C122.917 48.0653 122.873 47.4053 122.77 46.804C122.667 46.188 122.506 45.6967 122.286 45.33C122.066 44.9633 121.773 44.78 121.406 44.78C120.893 44.78 120.453 45.1027 120.086 45.748C119.734 46.3933 119.521 47.464 119.448 48.96L119.514 49.092C119.499 49.268 119.485 49.4513 119.47 49.642C119.47 49.8327 119.47 50.0307 119.47 50.236C119.47 51.248 119.609 52.0693 119.888 52.7C120.181 53.3307 120.548 53.7927 120.988 54.086C121.428 54.3647 121.875 54.504 122.33 54.504C122.638 54.504 122.953 54.46 123.276 54.372C123.613 54.2693 123.951 54.0933 124.288 53.844C124.625 53.58 124.941 53.2133 125.234 52.744L125.63 52.876C125.454 53.4333 125.175 53.976 124.794 54.504C124.413 55.032 123.929 55.4647 123.342 55.802C122.755 56.1393 122.051 56.308 121.23 56.308C120.233 56.308 119.353 56.0953 118.59 55.67C117.827 55.2447 117.226 54.5993 116.786 53.734C116.361 52.8687 116.148 51.7687 116.148 50.434C116.148 49.07 116.375 47.9333 116.83 47.024C117.299 46.1147 117.937 45.44 118.744 45C119.565 44.5453 120.497 44.318 121.538 44.318ZM33.6248 70.318C34.7688 70.318 35.7148 70.7873 36.4628 71.726C37.2254 72.65 37.6068 74.08 37.6068 76.016C37.6068 77.5413 37.3721 78.766 36.9028 79.69C36.4481 80.614 35.8394 81.2813 35.0768 81.692C34.3141 82.1027 33.4781 82.308 32.5688 82.308C31.9674 82.308 31.4101 82.2053 30.8968 82C30.3834 81.7947 29.9434 81.4573 29.5768 80.988L29.8848 80.878C30.1488 81.2007 30.4568 81.4427 30.8088 81.604C31.1754 81.7653 31.5348 81.846 31.8868 81.846C32.6934 81.846 33.2948 81.3913 33.6908 80.482C34.0868 79.5727 34.2848 78.1867 34.2848 76.324C34.2848 75.0627 34.2041 74.0653 34.0428 73.332C33.8961 72.584 33.6761 72.056 33.3828 71.748C33.0894 71.4253 32.7374 71.264 32.3268 71.264C31.8134 71.264 31.3441 71.4767 30.9188 71.902C30.4934 72.3127 30.2514 72.892 30.1928 73.64L30.0828 72.87C30.3468 72.034 30.7941 71.4033 31.4248 70.978C32.0554 70.538 32.7888 70.318 33.6248 70.318ZM30.2588 64.796V81.56C29.8921 81.5013 29.5181 81.5013 29.1368 81.56C28.7554 81.6187 28.4034 81.7213 28.0808 81.868C27.7581 82 27.4868 82.1613 27.2668 82.352L26.9368 82.154C26.9954 81.9487 27.0321 81.7433 27.0468 81.538C27.0761 81.3327 27.0908 81.1273 27.0908 80.922V67.436C27.0908 66.776 26.9881 66.292 26.7828 65.984C26.5921 65.6613 26.2254 65.5 25.6828 65.5V65.038C26.1521 65.082 26.6068 65.104 27.0468 65.104C27.6481 65.104 28.2201 65.082 28.7628 65.038C29.3054 64.9793 29.8041 64.8987 30.2588 64.796ZM46.5374 70.318C47.0067 70.318 47.3881 70.4207 47.6814 70.626C47.9747 70.8167 48.1874 71.066 48.3194 71.374C48.4661 71.682 48.5394 72.0047 48.5394 72.342C48.5394 72.8847 48.3781 73.332 48.0554 73.684C47.7474 74.0213 47.3367 74.19 46.8234 74.19C46.3101 74.19 45.9067 74.0653 45.6134 73.816C45.3347 73.552 45.1954 73.2073 45.1954 72.782C45.1954 72.3713 45.2834 72.034 45.4594 71.77C45.6501 71.4913 45.8847 71.2567 46.1634 71.066C45.9581 71.0073 45.7527 71.0147 45.5474 71.088C45.2687 71.132 45.0047 71.2493 44.7554 71.44C44.5061 71.616 44.2934 71.8433 44.1174 72.122C43.9414 72.386 43.8021 72.6793 43.6994 73.002C43.5967 73.31 43.5454 73.6107 43.5454 73.904V79.734C43.5454 80.438 43.7141 80.9147 44.0514 81.164C44.4034 81.4133 44.9241 81.538 45.6134 81.538V82C45.2761 81.9853 44.7847 81.9707 44.1394 81.956C43.4941 81.9267 42.8194 81.912 42.1154 81.912C41.5287 81.912 40.9347 81.9267 40.3334 81.956C39.7321 81.9707 39.2774 81.9853 38.9694 82V81.538C39.4827 81.538 39.8421 81.428 40.0474 81.208C40.2674 80.988 40.3774 80.57 40.3774 79.954V73.024C40.3774 72.364 40.2747 71.88 40.0694 71.572C39.8787 71.2493 39.5121 71.088 38.9694 71.088V70.626C39.4387 70.67 39.8934 70.692 40.3334 70.692C40.9494 70.692 41.5214 70.67 42.0494 70.626C42.5921 70.5673 43.0907 70.4867 43.5454 70.384V72.43C43.7214 72.034 43.9561 71.6747 44.2494 71.352C44.5427 71.0293 44.8801 70.78 45.2614 70.604C45.6427 70.4133 46.0681 70.318 46.5374 70.318ZM52.2749 82.154C51.6149 82.154 51.0649 82.0293 50.6249 81.78C50.1849 81.5307 49.8623 81.2007 49.6569 80.79C49.4516 80.3647 49.3489 79.9027 49.3489 79.404C49.3489 78.7733 49.4883 78.26 49.7669 77.864C50.0603 77.468 50.4343 77.1453 50.8889 76.896C51.3436 76.6467 51.8203 76.4413 52.3189 76.28C52.8323 76.1187 53.3163 75.9647 53.7709 75.818C54.2403 75.6567 54.6143 75.4733 54.8929 75.268C55.1863 75.048 55.3329 74.7693 55.3329 74.432V72.716C55.3329 72.3347 55.2669 71.9973 55.1349 71.704C55.0176 71.396 54.8269 71.1613 54.5629 71C54.3136 70.8387 53.9836 70.758 53.5729 70.758C53.2796 70.758 52.9863 70.802 52.6929 70.89C52.3996 70.9633 52.1576 71.0953 51.9669 71.286C52.3776 71.4327 52.6929 71.66 52.9129 71.968C53.1476 72.2613 53.2649 72.5987 53.2649 72.98C53.2649 73.4787 53.0889 73.8747 52.7369 74.168C52.3996 74.4613 51.9963 74.608 51.5269 74.608C50.9989 74.608 50.5956 74.4467 50.3169 74.124C50.0529 73.7867 49.9209 73.3833 49.9209 72.914C49.9209 72.4887 50.0236 72.1367 50.2289 71.858C50.4489 71.5793 50.7496 71.3153 51.1309 71.066C51.5416 70.8313 52.0329 70.648 52.6049 70.516C53.1916 70.384 53.8223 70.318 54.4969 70.318C55.1716 70.318 55.7803 70.3913 56.3229 70.538C56.8656 70.67 57.3203 70.9193 57.6869 71.286C58.0243 71.6233 58.2443 72.0413 58.3469 72.54C58.4496 73.024 58.5009 73.64 58.5009 74.388V80.372C58.5009 80.7387 58.5376 80.9953 58.6109 81.142C58.6843 81.274 58.8089 81.34 58.9849 81.34C59.1169 81.34 59.2416 81.3033 59.3589 81.23C59.4909 81.1567 59.6303 81.0687 59.7769 80.966L59.9969 81.34C59.6889 81.604 59.3296 81.8093 58.9189 81.956C58.5229 82.088 58.0756 82.154 57.5769 82.154C57.0343 82.154 56.6016 82.0807 56.2789 81.934C55.9563 81.7727 55.7216 81.56 55.5749 81.296C55.4429 81.032 55.3769 80.724 55.3769 80.372C55.0249 80.9293 54.5996 81.3693 54.1009 81.692C53.6023 82 52.9936 82.154 52.2749 82.154ZM53.8369 80.746C54.1303 80.746 54.3943 80.68 54.6289 80.548C54.8783 80.4013 55.1129 80.1667 55.3329 79.844V75.334C55.2009 75.554 55.0176 75.752 54.7829 75.928C54.5483 76.104 54.2989 76.2873 54.0349 76.478C53.7709 76.654 53.5143 76.852 53.2649 77.072C53.0303 77.292 52.8396 77.5633 52.6929 77.886C52.5463 78.2087 52.4729 78.5973 52.4729 79.052C52.4729 79.624 52.5976 80.0493 52.8469 80.328C53.0963 80.6067 53.4263 80.746 53.8369 80.746ZM63.4857 64.95C64.1017 64.95 64.5857 65.104 64.9377 65.412C65.3043 65.7053 65.4877 66.116 65.4877 66.644C65.4877 67.172 65.3043 67.59 64.9377 67.898C64.5857 68.1913 64.1017 68.338 63.4857 68.338C62.8697 68.338 62.3783 68.1913 62.0117 67.898C61.6597 67.59 61.4837 67.172 61.4837 66.644C61.4837 66.116 61.6597 65.7053 62.0117 65.412C62.3783 65.104 62.8697 64.95 63.4857 64.95ZM65.2017 70.384V79.954C65.2017 80.57 65.3043 80.988 65.5097 81.208C65.7297 81.428 66.0963 81.538 66.6097 81.538V82C66.3457 81.9853 65.935 81.9707 65.3777 81.956C64.8203 81.9267 64.2557 81.912 63.6837 81.912C63.1117 81.912 62.5323 81.9267 61.9457 81.956C61.359 81.9707 60.919 81.9853 60.6257 82V81.538C61.139 81.538 61.4983 81.428 61.7037 81.208C61.9237 80.988 62.0337 80.57 62.0337 79.954V73.024C62.0337 72.364 61.931 71.88 61.7257 71.572C61.535 71.2493 61.1683 71.088 60.6257 71.088V70.626C61.095 70.67 61.5497 70.692 61.9897 70.692C62.6057 70.692 63.1777 70.67 63.7057 70.626C64.2483 70.5673 64.747 70.4867 65.2017 70.384ZM75.7491 70.318C76.3651 70.318 76.8638 70.3987 77.2451 70.56C77.6411 70.7067 77.9491 70.912 78.1691 71.176C78.4038 71.4547 78.5724 71.814 78.6751 72.254C78.7924 72.694 78.8511 73.288 78.8511 74.036V79.954C78.8511 80.57 78.9538 80.988 79.1591 81.208C79.3791 81.428 79.7458 81.538 80.2591 81.538V82C79.9804 81.9853 79.5624 81.9707 79.0051 81.956C78.4478 81.9267 77.8978 81.912 77.3551 81.912C76.7978 81.912 76.2478 81.9267 75.7051 81.956C75.1771 81.9707 74.7738 81.9853 74.4951 82V81.538C74.9351 81.538 75.2431 81.428 75.4191 81.208C75.5951 80.988 75.6831 80.57 75.6831 79.954V73.112C75.6831 72.7453 75.6464 72.43 75.5731 72.166C75.4998 71.8873 75.3678 71.6747 75.1771 71.528C74.9864 71.3667 74.7004 71.286 74.3191 71.286C73.9231 71.286 73.5564 71.396 73.2191 71.616C72.8964 71.836 72.6324 72.144 72.4271 72.54C72.2364 72.9213 72.1411 73.354 72.1411 73.838V79.954C72.1411 80.57 72.2291 80.988 72.4051 81.208C72.5958 81.428 72.9038 81.538 73.3291 81.538V82C73.0651 81.9853 72.6764 81.9707 72.1631 81.956C71.6644 81.9267 71.1438 81.912 70.6011 81.912C70.0438 81.912 69.4718 81.9267 68.8851 81.956C68.2984 81.9707 67.8584 81.9853 67.5651 82V81.538C68.0784 81.538 68.4378 81.428 68.6431 81.208C68.8631 80.988 68.9731 80.57 68.9731 79.954V73.024C68.9731 72.364 68.8704 71.88 68.6651 71.572C68.4744 71.2493 68.1078 71.088 67.5651 71.088V70.626C68.0344 70.67 68.4891 70.692 68.9291 70.692C69.5451 70.692 70.1171 70.67 70.6451 70.626C71.1878 70.5673 71.6864 70.4867 72.1411 70.384V72.364C72.5078 71.616 73.0064 71.088 73.6371 70.78C74.2678 70.472 74.9718 70.318 75.7491 70.318ZM85.4348 70.318C86.0508 70.318 86.5861 70.3987 87.0408 70.56C87.5101 70.7067 87.8474 70.8533 88.0528 71C88.5514 71.3373 88.8594 71.1173 88.9768 70.34H89.4388C89.4094 70.7507 89.3874 71.2567 89.3728 71.858C89.3581 72.4447 89.3508 73.2293 89.3508 74.212H88.8888C88.8154 73.6693 88.6761 73.134 88.4708 72.606C88.2654 72.078 87.9648 71.6453 87.5688 71.308C87.1874 70.9707 86.6888 70.802 86.0728 70.802C85.6474 70.802 85.2881 70.9267 84.9948 71.176C84.7014 71.4107 84.5548 71.7553 84.5548 72.21C84.5548 72.65 84.6868 73.0387 84.9508 73.376C85.2148 73.6987 85.5521 74.014 85.9628 74.322C86.3881 74.6153 86.8281 74.9307 87.2828 75.268C87.7668 75.6347 88.2068 76.0013 88.6028 76.368C88.9988 76.72 89.3141 77.1087 89.5488 77.534C89.7834 77.9593 89.9008 78.4653 89.9008 79.052C89.9008 79.712 89.7101 80.2913 89.3288 80.79C88.9474 81.274 88.4414 81.648 87.8108 81.912C87.1948 82.176 86.5054 82.308 85.7428 82.308C85.3028 82.308 84.9068 82.264 84.5548 82.176C84.2174 82.088 83.9241 81.978 83.6748 81.846C83.4841 81.758 83.3008 81.6773 83.1248 81.604C82.9634 81.516 82.8094 81.4427 82.6628 81.384C82.5161 81.34 82.3841 81.3913 82.2668 81.538C82.1641 81.6847 82.0834 81.89 82.0248 82.154H81.5628C81.5921 81.6847 81.6141 81.1127 81.6288 80.438C81.6434 79.7633 81.6508 78.8687 81.6508 77.754H82.1128C82.2008 78.546 82.3621 79.25 82.5968 79.866C82.8314 80.4673 83.1468 80.944 83.5428 81.296C83.9534 81.6333 84.4668 81.802 85.0828 81.802C85.3321 81.802 85.5741 81.7507 85.8088 81.648C86.0434 81.5453 86.2341 81.3767 86.3808 81.142C86.5421 80.9073 86.6228 80.6067 86.6228 80.24C86.6228 79.5947 86.4101 79.0593 85.9848 78.634C85.5741 78.2087 85.0461 77.7467 84.4008 77.248C83.9314 76.8667 83.4841 76.4927 83.0588 76.126C82.6481 75.7447 82.3108 75.334 82.0468 74.894C81.7828 74.4393 81.6508 73.926 81.6508 73.354C81.6508 72.694 81.8268 72.1367 82.1788 71.682C82.5308 71.2273 82.9928 70.89 83.5648 70.67C84.1514 70.4353 84.7748 70.318 85.4348 70.318ZM95.7069 67.018V70.626H98.3029V71.066H95.7069V79.954C95.7069 80.394 95.7876 80.7093 95.9489 80.9C96.1102 81.076 96.3522 81.164 96.6749 81.164C96.9389 81.164 97.2029 81.0687 97.4669 80.878C97.7309 80.6727 97.9656 80.328 98.1709 79.844L98.5449 80.042C98.3102 80.702 97.9509 81.2447 97.4669 81.67C96.9976 82.0953 96.3522 82.308 95.5309 82.308C95.0469 82.308 94.6216 82.242 94.2549 82.11C93.8882 81.9927 93.5802 81.8093 93.3309 81.56C93.0082 81.2373 92.7956 80.8413 92.6929 80.372C92.5902 79.888 92.5389 79.2647 92.5389 78.502V71.066H90.6909V70.626H92.5389V67.722C93.1549 67.722 93.7196 67.6707 94.2329 67.568C94.7609 67.4507 95.2522 67.2673 95.7069 67.018ZM104.565 70.318C105.636 70.318 106.575 70.516 107.381 70.912C108.188 71.308 108.819 71.946 109.273 72.826C109.728 73.706 109.955 74.872 109.955 76.324C109.955 77.776 109.728 78.942 109.273 79.822C108.819 80.6873 108.188 81.318 107.381 81.714C106.575 82.11 105.636 82.308 104.565 82.308C103.524 82.308 102.593 82.11 101.771 81.714C100.965 81.318 100.327 80.6873 99.8573 79.822C99.4027 78.942 99.1753 77.776 99.1753 76.324C99.1753 74.872 99.4027 73.706 99.8573 72.826C100.327 71.946 100.965 71.308 101.771 70.912C102.593 70.516 103.524 70.318 104.565 70.318ZM104.565 70.758C103.979 70.758 103.487 71.198 103.091 72.078C102.695 72.9433 102.497 74.3587 102.497 76.324C102.497 78.2893 102.695 79.7047 103.091 80.57C103.487 81.4353 103.979 81.868 104.565 81.868C105.167 81.868 105.658 81.4353 106.039 80.57C106.435 79.7047 106.633 78.2893 106.633 76.324C106.633 74.3587 106.435 72.9433 106.039 72.078C105.658 71.198 105.167 70.758 104.565 70.758ZM118.897 70.318C119.366 70.318 119.747 70.4207 120.041 70.626C120.334 70.8167 120.547 71.066 120.679 71.374C120.825 71.682 120.899 72.0047 120.899 72.342C120.899 72.8847 120.737 73.332 120.415 73.684C120.107 74.0213 119.696 74.19 119.183 74.19C118.669 74.19 118.266 74.0653 117.973 73.816C117.694 73.552 117.555 73.2073 117.555 72.782C117.555 72.3713 117.643 72.034 117.819 71.77C118.009 71.4913 118.244 71.2567 118.523 71.066C118.317 71.0073 118.112 71.0147 117.907 71.088C117.628 71.132 117.364 71.2493 117.115 71.44C116.865 71.616 116.653 71.8433 116.477 72.122C116.301 72.386 116.161 72.6793 116.059 73.002C115.956 73.31 115.905 73.6107 115.905 73.904V79.734C115.905 80.438 116.073 80.9147 116.411 81.164C116.763 81.4133 117.283 81.538 117.973 81.538V82C117.635 81.9853 117.144 81.9707 116.499 81.956C115.853 81.9267 115.179 81.912 114.475 81.912C113.888 81.912 113.294 81.9267 112.693 81.956C112.091 81.9707 111.637 81.9853 111.329 82V81.538C111.842 81.538 112.201 81.428 112.407 81.208C112.627 80.988 112.737 80.57 112.737 79.954V73.024C112.737 72.364 112.634 71.88 112.429 71.572C112.238 71.2493 111.871 71.088 111.329 71.088V70.626C111.798 70.67 112.253 70.692 112.693 70.692C113.309 70.692 113.881 70.67 114.409 70.626C114.951 70.5673 115.45 70.4867 115.905 70.384V72.43C116.081 72.034 116.315 71.6747 116.609 71.352C116.902 71.0293 117.239 70.78 117.621 70.604C118.002 70.4133 118.427 70.318 118.897 70.318ZM129.584 70.318C130.2 70.318 130.699 70.3987 131.08 70.56C131.462 70.7067 131.77 70.912 132.004 71.176C132.239 71.4547 132.408 71.8213 132.51 72.276C132.613 72.716 132.664 73.3027 132.664 74.036V79.954C132.664 80.57 132.76 80.988 132.95 81.208C133.141 81.428 133.471 81.538 133.94 81.538V82C133.676 81.9853 133.273 81.9707 132.73 81.956C132.202 81.9267 131.682 81.912 131.168 81.912C130.64 81.912 130.12 81.9267 129.606 81.956C129.093 81.9707 128.704 81.9853 128.44 82V81.538C128.836 81.538 129.108 81.428 129.254 81.208C129.416 80.988 129.496 80.57 129.496 79.954V73.112C129.496 72.7453 129.467 72.43 129.408 72.166C129.35 71.8873 129.232 71.6747 129.056 71.528C128.895 71.3667 128.646 71.286 128.308 71.286C127.927 71.286 127.575 71.396 127.252 71.616C126.93 71.836 126.666 72.144 126.46 72.54C126.27 72.9213 126.174 73.354 126.174 73.838V79.954C126.174 80.57 126.255 80.988 126.416 81.208C126.578 81.428 126.849 81.538 127.23 81.538V82C126.996 81.9853 126.629 81.9707 126.13 81.956C125.646 81.9267 125.148 81.912 124.634 81.912C124.077 81.912 123.505 81.9267 122.918 81.956C122.332 81.9707 121.892 81.9853 121.598 82V81.538C122.112 81.538 122.471 81.428 122.676 81.208C122.896 80.988 123.006 80.57 123.006 79.954V73.024C123.006 72.364 122.904 71.88 122.698 71.572C122.508 71.2493 122.141 71.088 121.598 71.088V70.626C122.068 70.67 122.522 70.692 122.962 70.692C123.578 70.692 124.15 70.67 124.678 70.626C125.221 70.5673 125.72 70.4867 126.174 70.384V72.364C126.526 71.6307 127.003 71.11 127.604 70.802C128.206 70.4793 128.866 70.318 129.584 70.318ZM136.206 70.318C136.822 70.318 137.321 70.3987 137.702 70.56C138.084 70.7067 138.392 70.912 138.626 71.176C138.861 71.4547 139.03 71.8213 139.132 72.276C139.235 72.716 139.286 73.3027 139.286 74.036V79.954C139.286 80.57 139.389 80.988 139.594 81.208C139.814 81.428 140.181 81.538 140.694 81.538V82C140.416 81.9853 139.998 81.9707 139.44 81.956C138.883 81.9267 138.333 81.912 137.79 81.912C137.262 81.912 136.742 81.9267 136.228 81.956C135.715 81.9707 135.326 81.9853 135.062 82V81.538C135.458 81.538 135.73 81.428 135.876 81.208C136.038 80.988 136.118 80.57 136.118 79.954V73.112C136.118 72.7453 136.082 72.43 136.008 72.166C135.95 71.8873 135.825 71.6747 135.634 71.528C135.458 71.3667 135.18 71.286 134.798 71.286C134.417 71.286 134.065 71.4033 133.742 71.638C133.42 71.8727 133.156 72.188 132.95 72.584C132.76 72.98 132.657 73.42 132.642 73.904L132.532 72.562C132.928 71.682 133.449 71.088 134.094 70.78C134.754 70.472 135.458 70.318 136.206 70.318ZM144.374 64.95C144.99 64.95 145.474 65.104 145.826 65.412C146.193 65.7053 146.376 66.116 146.376 66.644C146.376 67.172 146.193 67.59 145.826 67.898C145.474 68.1913 144.99 68.338 144.374 68.338C143.758 68.338 143.267 68.1913 142.9 67.898C142.548 67.59 142.372 67.172 142.372 66.644C142.372 66.116 142.548 65.7053 142.9 65.412C143.267 65.104 143.758 64.95 144.374 64.95ZM146.09 70.384V79.954C146.09 80.57 146.193 80.988 146.398 81.208C146.618 81.428 146.985 81.538 147.498 81.538V82C147.234 81.9853 146.824 81.9707 146.266 81.956C145.709 81.9267 145.144 81.912 144.572 81.912C144 81.912 143.421 81.9267 142.834 81.956C142.248 81.9707 141.808 81.9853 141.514 82V81.538C142.028 81.538 142.387 81.428 142.592 81.208C142.812 80.988 142.922 80.57 142.922 79.954V73.024C142.922 72.364 142.82 71.88 142.614 71.572C142.424 71.2493 142.057 71.088 141.514 71.088V70.626C141.984 70.67 142.438 70.692 142.878 70.692C143.494 70.692 144.066 70.67 144.594 70.626C145.137 70.5673 145.636 70.4867 146.09 70.384ZM156.638 70.318C157.254 70.318 157.752 70.3987 158.134 70.56C158.53 70.7067 158.838 70.912 159.058 71.176C159.292 71.4547 159.461 71.814 159.564 72.254C159.681 72.694 159.74 73.288 159.74 74.036V79.954C159.74 80.57 159.842 80.988 160.048 81.208C160.268 81.428 160.634 81.538 161.148 81.538V82C160.869 81.9853 160.451 81.9707 159.894 81.956C159.336 81.9267 158.786 81.912 158.244 81.912C157.686 81.912 157.136 81.9267 156.594 81.956C156.066 81.9707 155.662 81.9853 155.384 82V81.538C155.824 81.538 156.132 81.428 156.308 81.208C156.484 80.988 156.572 80.57 156.572 79.954V73.112C156.572 72.7453 156.535 72.43 156.462 72.166C156.388 71.8873 156.256 71.6747 156.066 71.528C155.875 71.3667 155.589 71.286 155.208 71.286C154.812 71.286 154.445 71.396 154.108 71.616C153.785 71.836 153.521 72.144 153.316 72.54C153.125 72.9213 153.03 73.354 153.03 73.838V79.954C153.03 80.57 153.118 80.988 153.294 81.208C153.484 81.428 153.792 81.538 154.218 81.538V82C153.954 81.9853 153.565 81.9707 153.052 81.956C152.553 81.9267 152.032 81.912 151.49 81.912C150.932 81.912 150.36 81.9267 149.774 81.956C149.187 81.9707 148.747 81.9853 148.454 82V81.538C148.967 81.538 149.326 81.428 149.532 81.208C149.752 80.988 149.862 80.57 149.862 79.954V73.024C149.862 72.364 149.759 71.88 149.554 71.572C149.363 71.2493 148.996 71.088 148.454 71.088V70.626C148.923 70.67 149.378 70.692 149.818 70.692C150.434 70.692 151.006 70.67 151.534 70.626C152.076 70.5673 152.575 70.4867 153.03 70.384V72.364C153.396 71.616 153.895 71.088 154.526 70.78C155.156 70.472 155.86 70.318 156.638 70.318ZM166.085 86.136C165.176 86.136 164.362 86.0553 163.643 85.894C162.939 85.7473 162.382 85.5127 161.971 85.19C161.575 84.882 161.377 84.5007 161.377 84.046C161.377 83.5913 161.582 83.1807 161.993 82.814C162.404 82.462 163.012 82.1833 163.819 81.978L164.017 82.33C163.738 82.55 163.533 82.7847 163.401 83.034C163.284 83.298 163.225 83.5693 163.225 83.848C163.225 84.464 163.504 84.9333 164.061 85.256C164.633 85.5933 165.403 85.762 166.371 85.762C167.031 85.762 167.618 85.674 168.131 85.498C168.659 85.322 169.07 85.058 169.363 84.706C169.671 84.354 169.825 83.9213 169.825 83.408C169.825 82.968 169.664 82.594 169.341 82.286C169.018 81.9927 168.373 81.846 167.405 81.846H166.041C165.44 81.846 164.912 81.78 164.457 81.648C164.017 81.516 163.672 81.3107 163.423 81.032C163.174 80.7387 163.049 80.372 163.049 79.932C163.049 79.316 163.291 78.7733 163.775 78.304C164.259 77.8347 164.978 77.3947 165.931 76.984L166.151 77.16C165.872 77.336 165.608 77.5267 165.359 77.732C165.124 77.9227 165.007 78.172 165.007 78.48C165.007 78.9493 165.3 79.184 165.887 79.184H168.285C169.092 79.184 169.81 79.2793 170.441 79.47C171.086 79.6607 171.592 79.976 171.959 80.416C172.34 80.8413 172.531 81.3987 172.531 82.088C172.531 82.8067 172.296 83.474 171.827 84.09C171.372 84.706 170.668 85.1973 169.715 85.564C168.762 85.9453 167.552 86.136 166.085 86.136ZM166.305 77.314C165.469 77.314 164.721 77.1893 164.061 76.94C163.401 76.6907 162.88 76.3093 162.499 75.796C162.118 75.2827 161.927 74.6227 161.927 73.816C161.927 73.0093 162.118 72.3493 162.499 71.836C162.88 71.308 163.401 70.9267 164.061 70.692C164.721 70.4427 165.469 70.318 166.305 70.318C167.141 70.318 167.889 70.4427 168.549 70.692C169.209 70.9267 169.73 71.308 170.111 71.836C170.492 72.3493 170.683 73.0093 170.683 73.816C170.683 74.6227 170.492 75.2827 170.111 75.796C169.73 76.3093 169.209 76.6907 168.549 76.94C167.889 77.1893 167.141 77.314 166.305 77.314ZM166.305 76.918C166.701 76.918 167.009 76.698 167.229 76.258C167.449 75.8033 167.559 74.9893 167.559 73.816C167.559 72.6427 167.449 71.836 167.229 71.396C167.009 70.9413 166.701 70.714 166.305 70.714C165.924 70.714 165.616 70.9413 165.381 71.396C165.161 71.836 165.051 72.6427 165.051 73.816C165.051 74.9893 165.161 75.8033 165.381 76.258C165.616 76.698 165.924 76.918 166.305 76.918ZM169.737 72.21L169.297 72.056C169.517 71.484 169.869 71.0073 170.353 70.626C170.852 70.2447 171.387 70.054 171.959 70.054C172.428 70.054 172.78 70.186 173.015 70.45C173.264 70.6993 173.389 71.0293 173.389 71.44C173.389 71.88 173.272 72.21 173.037 72.43C172.802 72.6353 172.538 72.738 172.245 72.738C171.996 72.738 171.761 72.65 171.541 72.474C171.336 72.298 171.218 72.034 171.189 71.682C171.16 71.3153 171.284 70.846 171.563 70.274L171.717 70.406C171.16 70.6113 170.742 70.8533 170.463 71.132C170.184 71.396 169.942 71.7553 169.737 72.21Z" fill="#F8F495"/>
<path d="M28.7485 104.38V104.68C28.4085 104.69 28.1485 104.73 27.9685 104.8C27.7985 104.86 27.6835 104.98 27.6235 105.16C27.5635 105.33 27.5335 105.6 27.5335 105.97V113.41C27.5335 113.77 27.5635 114.04 27.6235 114.22C27.6835 114.4 27.7985 114.52 27.9685 114.58C28.1485 114.64 28.4085 114.68 28.7485 114.7V115C28.5185 114.98 28.2285 114.97 27.8785 114.97C27.5385 114.96 27.1935 114.955 26.8435 114.955C26.4535 114.955 26.0885 114.96 25.7485 114.97C25.4085 114.97 25.1335 114.98 24.9235 115V114.7C25.2635 114.68 25.5185 114.64 25.6885 114.58C25.8685 114.52 25.9885 114.4 26.0485 114.22C26.1085 114.04 26.1385 113.77 26.1385 113.41V105.16L26.1985 105.205L22.5235 115.075H22.2835L18.5035 105.34V113.26C18.5035 113.62 18.5335 113.905 18.5935 114.115C18.6635 114.315 18.7935 114.46 18.9835 114.55C19.1835 114.63 19.4785 114.68 19.8685 114.7V115C19.6885 114.98 19.4535 114.97 19.1635 114.97C18.8735 114.96 18.5985 114.955 18.3385 114.955C18.0885 114.955 17.8335 114.96 17.5735 114.97C17.3235 114.97 17.1135 114.98 16.9435 115V114.7C17.2835 114.68 17.5385 114.63 17.7085 114.55C17.8885 114.46 18.0085 114.315 18.0685 114.115C18.1285 113.905 18.1585 113.62 18.1585 113.26V105.97C18.1585 105.6 18.1285 105.33 18.0685 105.16C18.0085 104.98 17.8885 104.86 17.7085 104.8C17.5385 104.73 17.2835 104.69 16.9435 104.68V104.38C17.1135 104.39 17.3235 104.4 17.5735 104.41C17.8335 104.42 18.0885 104.425 18.3385 104.425C18.5585 104.425 18.7835 104.42 19.0135 104.41C19.2535 104.4 19.4535 104.39 19.6135 104.38L23.0185 113.35L22.7635 113.47L26.1385 104.425C26.2585 104.425 26.3735 104.425 26.4835 104.425C26.6035 104.425 26.7235 104.425 26.8435 104.425C27.1935 104.425 27.5385 104.42 27.8785 104.41C28.2285 104.4 28.5185 104.39 28.7485 104.38ZM33.1962 107.065C34.0762 107.065 34.7612 107.335 35.2512 107.875C35.7512 108.405 36.0012 109.235 36.0012 110.365H30.7062L30.6912 110.08H34.5612C34.5812 109.59 34.5412 109.14 34.4412 108.73C34.3412 108.31 34.1812 107.975 33.9612 107.725C33.7512 107.475 33.4762 107.35 33.1362 107.35C32.6762 107.35 32.2662 107.58 31.9062 108.04C31.5562 108.5 31.3462 109.23 31.2762 110.23L31.3212 110.29C31.3012 110.44 31.2862 110.605 31.2762 110.785C31.2662 110.965 31.2612 111.145 31.2612 111.325C31.2612 112.005 31.3712 112.59 31.5912 113.08C31.8112 113.57 32.0962 113.945 32.4462 114.205C32.8062 114.455 33.1762 114.58 33.5562 114.58C33.8562 114.58 34.1412 114.535 34.4112 114.445C34.6812 114.345 34.9312 114.185 35.1612 113.965C35.3912 113.745 35.5912 113.45 35.7612 113.08L36.0612 113.2C35.9512 113.53 35.7712 113.85 35.5212 114.16C35.2712 114.47 34.9562 114.725 34.5762 114.925C34.1962 115.115 33.7562 115.21 33.2562 115.21C32.5362 115.21 31.9162 115.045 31.3962 114.715C30.8862 114.385 30.4912 113.93 30.2112 113.35C29.9412 112.76 29.8062 112.085 29.8062 111.325C29.8062 110.445 29.9462 109.69 30.2262 109.06C30.5062 108.42 30.9012 107.93 31.4112 107.59C31.9212 107.24 32.5162 107.065 33.1962 107.065ZM42.1791 107.065C42.5591 107.065 42.8741 107.115 43.1241 107.215C43.3841 107.315 43.5991 107.455 43.7691 107.635C43.9591 107.835 44.0941 108.085 44.1741 108.385C44.2541 108.685 44.2941 109.09 44.2941 109.6V113.605C44.2941 114.025 44.3791 114.31 44.5491 114.46C44.7291 114.61 45.0241 114.685 45.4341 114.685V115C45.2641 114.99 45.0041 114.98 44.6541 114.97C44.3041 114.95 43.9641 114.94 43.6341 114.94C43.3041 114.94 42.9791 114.95 42.6591 114.97C42.3491 114.98 42.1141 114.99 41.9541 115V114.685C42.3141 114.685 42.5691 114.61 42.7191 114.46C42.8691 114.31 42.9441 114.025 42.9441 113.605V109.27C42.9441 108.96 42.9191 108.675 42.8691 108.415C42.8191 108.155 42.7041 107.945 42.5241 107.785C42.3541 107.625 42.0891 107.545 41.7291 107.545C41.3091 107.545 40.9391 107.665 40.6191 107.905C40.3091 108.145 40.0641 108.475 39.8841 108.895C39.7141 109.305 39.6291 109.765 39.6291 110.275V113.605C39.6291 114.025 39.7041 114.31 39.8541 114.46C40.0041 114.61 40.2591 114.685 40.6191 114.685V115C40.4591 114.99 40.2191 114.98 39.8991 114.97C39.5891 114.95 39.2691 114.94 38.9391 114.94C38.6091 114.94 38.2691 114.95 37.9191 114.97C37.5691 114.98 37.3091 114.99 37.1391 115V114.685C37.5491 114.685 37.8391 114.61 38.0091 114.46C38.1891 114.31 38.2791 114.025 38.2791 113.605V108.91C38.2791 108.46 38.1991 108.13 38.0391 107.92C37.8791 107.7 37.5791 107.59 37.1391 107.59V107.275C37.4591 107.305 37.7691 107.32 38.0691 107.32C38.3591 107.32 38.6341 107.305 38.8941 107.275C39.1641 107.235 39.4091 107.18 39.6291 107.11V108.88C39.8891 108.2 40.2491 107.73 40.7091 107.47C41.1791 107.2 41.6691 107.065 42.1791 107.065ZM54.7746 107.065C55.1246 107.065 55.4296 107.115 55.6896 107.215C55.9496 107.315 56.1646 107.455 56.3346 107.635C56.5246 107.835 56.6546 108.095 56.7246 108.415C56.7946 108.735 56.8296 109.13 56.8296 109.6V113.605C56.8296 114.025 56.9146 114.31 57.0846 114.46C57.2646 114.61 57.5596 114.685 57.9696 114.685V115C57.7996 114.99 57.5396 114.98 57.1896 114.97C56.8396 114.95 56.4996 114.94 56.1696 114.94C55.8396 114.94 55.5146 114.95 55.1946 114.97C54.8846 114.98 54.6496 114.99 54.4896 115V114.685C54.8496 114.685 55.1046 114.61 55.2546 114.46C55.4046 114.31 55.4796 114.025 55.4796 113.605V109.27C55.4796 108.96 55.4596 108.675 55.4196 108.415C55.3796 108.155 55.2796 107.945 55.1196 107.785C54.9596 107.625 54.6996 107.545 54.3396 107.545C53.9496 107.545 53.5996 107.665 53.2896 107.905C52.9896 108.145 52.7496 108.475 52.5696 108.895C52.3996 109.305 52.3146 109.765 52.3146 110.275V113.605C52.3146 114.025 52.3896 114.31 52.5396 114.46C52.6896 114.61 52.9446 114.685 53.3046 114.685V115C53.1446 114.99 52.9046 114.98 52.5846 114.97C52.2746 114.95 51.9546 114.94 51.6246 114.94C51.2946 114.94 50.9546 114.95 50.6046 114.97C50.2546 114.98 49.9946 114.99 49.8246 115V114.685C50.2346 114.685 50.5246 114.61 50.6946 114.46C50.8746 114.31 50.9646 114.025 50.9646 113.605V108.91C50.9646 108.46 50.8846 108.13 50.7246 107.92C50.5646 107.7 50.2646 107.59 49.8246 107.59V107.275C50.1446 107.305 50.4546 107.32 50.7546 107.32C51.0446 107.32 51.3196 107.305 51.5796 107.275C51.8496 107.235 52.0946 107.18 52.3146 107.11V108.88C52.5746 108.23 52.9296 107.765 53.3796 107.485C53.8296 107.205 54.2946 107.065 54.7746 107.065ZM59.2896 107.065C59.6396 107.065 59.9446 107.115 60.2046 107.215C60.4646 107.315 60.6796 107.455 60.8496 107.635C61.0396 107.835 61.1696 108.095 61.2396 108.415C61.3096 108.735 61.3446 109.13 61.3446 109.6V113.605C61.3446 114.025 61.4296 114.31 61.5996 114.46C61.7796 114.61 62.0746 114.685 62.4846 114.685V115C62.3146 114.99 62.0546 114.98 61.7046 114.97C61.3546 114.95 61.0146 114.94 60.6846 114.94C60.3546 114.94 60.0296 114.95 59.7096 114.97C59.3996 114.98 59.1646 114.99 59.0046 115V114.685C59.3646 114.685 59.6196 114.61 59.7696 114.46C59.9196 114.31 59.9946 114.025 59.9946 113.605V109.27C59.9946 108.96 59.9746 108.675 59.9346 108.415C59.8946 108.155 59.7946 107.945 59.6346 107.785C59.4746 107.625 59.2146 107.545 58.8546 107.545C58.4646 107.545 58.1146 107.665 57.8046 107.905C57.5046 108.145 57.2646 108.47 57.0846 108.88C56.9146 109.29 56.8296 109.75 56.8296 110.26L56.7846 108.865C57.0546 108.175 57.4196 107.705 57.8796 107.455C58.3396 107.195 58.8096 107.065 59.2896 107.065ZM65.2701 115.105C64.8601 115.105 64.5051 115.03 64.2051 114.88C63.9051 114.72 63.6751 114.5 63.5151 114.22C63.3651 113.94 63.2901 113.615 63.2901 113.245C63.2901 112.805 63.3901 112.445 63.5901 112.165C63.8001 111.885 64.0651 111.66 64.3851 111.49C64.7051 111.32 65.0401 111.18 65.3901 111.07C65.7501 110.95 66.0901 110.84 66.4101 110.74C66.7301 110.63 66.9901 110.505 67.1901 110.365C67.4001 110.225 67.5051 110.04 67.5051 109.81V108.88C67.5051 108.46 67.4401 108.14 67.3101 107.92C67.1901 107.7 67.0251 107.555 66.8151 107.485C66.6051 107.405 66.3701 107.365 66.1101 107.365C65.8601 107.365 65.5901 107.4 65.3001 107.47C65.0201 107.54 64.7951 107.685 64.6251 107.905C64.8151 107.945 64.9801 108.045 65.1201 108.205C65.2601 108.365 65.3301 108.57 65.3301 108.82C65.3301 109.07 65.2501 109.27 65.0901 109.42C64.9301 109.56 64.7251 109.63 64.4751 109.63C64.1851 109.63 63.9701 109.54 63.8301 109.36C63.7001 109.17 63.6351 108.96 63.6351 108.73C63.6351 108.47 63.7001 108.26 63.8301 108.1C63.9601 107.94 64.1251 107.79 64.3251 107.65C64.5551 107.49 64.8501 107.355 65.2101 107.245C65.5801 107.125 65.9951 107.065 66.4551 107.065C66.8651 107.065 67.2151 107.115 67.5051 107.215C67.7951 107.305 68.0351 107.44 68.2251 107.62C68.4851 107.86 68.6551 108.155 68.7351 108.505C68.8151 108.845 68.8551 109.255 68.8551 109.735V113.905C68.8551 114.155 68.8901 114.335 68.9601 114.445C69.0401 114.555 69.1601 114.61 69.3201 114.61C69.4301 114.61 69.5351 114.585 69.6351 114.535C69.7351 114.485 69.8551 114.405 69.9951 114.295L70.1601 114.55C69.9501 114.71 69.7501 114.845 69.5601 114.955C69.3701 115.055 69.1151 115.105 68.7951 115.105C68.5051 115.105 68.2651 115.055 68.0751 114.955C67.8851 114.855 67.7401 114.71 67.6401 114.52C67.5501 114.32 67.5051 114.07 67.5051 113.77C67.2351 114.22 66.9101 114.555 66.5301 114.775C66.1601 114.995 65.7401 115.105 65.2701 115.105ZM65.8101 114.505C66.1401 114.505 66.4451 114.41 66.7251 114.22C67.0151 114.03 67.2751 113.745 67.5051 113.365V110.425C67.3851 110.595 67.2101 110.74 66.9801 110.86C66.7501 110.97 66.5001 111.085 66.2301 111.205C65.9601 111.315 65.7001 111.45 65.4501 111.61C65.2101 111.76 65.0101 111.96 64.8501 112.21C64.6901 112.46 64.6101 112.785 64.6101 113.185C64.6101 113.585 64.7151 113.905 64.9251 114.145C65.1451 114.385 65.4401 114.505 65.8101 114.505ZM75.6508 107.065C76.0308 107.065 76.3458 107.115 76.5958 107.215C76.8558 107.315 77.0708 107.455 77.2408 107.635C77.4308 107.835 77.5658 108.085 77.6458 108.385C77.7258 108.685 77.7658 109.09 77.7658 109.6V113.605C77.7658 114.025 77.8508 114.31 78.0208 114.46C78.2008 114.61 78.4958 114.685 78.9058 114.685V115C78.7358 114.99 78.4758 114.98 78.1258 114.97C77.7758 114.95 77.4358 114.94 77.1058 114.94C76.7758 114.94 76.4508 114.95 76.1308 114.97C75.8208 114.98 75.5858 114.99 75.4258 115V114.685C75.7858 114.685 76.0408 114.61 76.1908 114.46C76.3408 114.31 76.4158 114.025 76.4158 113.605V109.27C76.4158 108.96 76.3908 108.675 76.3408 108.415C76.2908 108.155 76.1758 107.945 75.9958 107.785C75.8258 107.625 75.5608 107.545 75.2008 107.545C74.7808 107.545 74.4108 107.665 74.0908 107.905C73.7808 108.145 73.5358 108.475 73.3558 108.895C73.1858 109.305 73.1008 109.765 73.1008 110.275V113.605C73.1008 114.025 73.1758 114.31 73.3258 114.46C73.4758 114.61 73.7308 114.685 74.0908 114.685V115C73.9308 114.99 73.6908 114.98 73.3708 114.97C73.0608 114.95 72.7408 114.94 72.4108 114.94C72.0808 114.94 71.7408 114.95 71.3908 114.97C71.0408 114.98 70.7808 114.99 70.6108 115V114.685C71.0208 114.685 71.3108 114.61 71.4808 114.46C71.6608 114.31 71.7508 114.025 71.7508 113.605V108.91C71.7508 108.46 71.6708 108.13 71.5108 107.92C71.3508 107.7 71.0508 107.59 70.6108 107.59V107.275C70.9308 107.305 71.2408 107.32 71.5408 107.32C71.8308 107.32 72.1058 107.305 72.3658 107.275C72.6358 107.235 72.8808 107.18 73.1008 107.11V108.88C73.3608 108.2 73.7208 107.73 74.1808 107.47C74.6508 107.2 75.1408 107.065 75.6508 107.065ZM85.1972 103.24V113.605C85.1972 114.025 85.2722 114.31 85.4222 114.46C85.5722 114.61 85.8272 114.685 86.1872 114.685V115C86.0272 114.99 85.7872 114.98 85.4672 114.97C85.1572 114.95 84.8422 114.94 84.5222 114.94C84.1822 114.94 83.8372 114.95 83.4872 114.97C83.1372 114.98 82.8772 114.99 82.7072 115V114.685C83.1172 114.685 83.4072 114.61 83.5772 114.46C83.7572 114.31 83.8472 114.025 83.8472 113.605V105.04C83.8472 104.59 83.7672 104.26 83.6072 104.05C83.4472 103.83 83.1472 103.72 82.7072 103.72V103.405C83.0272 103.435 83.3372 103.45 83.6372 103.45C83.9272 103.45 84.2022 103.435 84.4622 103.405C84.7322 103.365 84.9772 103.31 85.1972 103.24ZM89.9672 107.275V107.575C89.7172 107.595 89.4822 107.665 89.2622 107.785C89.0422 107.895 88.8272 108.06 88.6172 108.28L86.5022 110.5L86.7122 110.08L89.5022 113.905C89.6722 114.135 89.8322 114.315 89.9822 114.445C90.1422 114.575 90.3322 114.655 90.5522 114.685V115C90.4422 114.99 90.2672 114.98 90.0272 114.97C89.7972 114.95 89.5672 114.94 89.3372 114.94C89.0272 114.94 88.7122 114.95 88.3922 114.97C88.0722 114.98 87.8322 114.99 87.6722 115V114.685C87.8722 114.685 88.0122 114.635 88.0922 114.535C88.1722 114.435 88.1572 114.315 88.0472 114.175L86.3222 111.655C86.1322 111.385 85.9572 111.21 85.7972 111.13C85.6472 111.05 85.4272 111.005 85.1372 110.995V110.695C85.4572 110.655 85.7172 110.59 85.9172 110.5C86.1172 110.4 86.3072 110.255 86.4872 110.065L87.5972 108.91C87.9172 108.58 88.0772 108.32 88.0772 108.13C88.0772 107.93 87.9722 107.79 87.7622 107.71C87.5622 107.62 87.2972 107.575 86.9672 107.575V107.275C87.2272 107.285 87.5172 107.3 87.8372 107.32C88.1672 107.33 88.4422 107.335 88.6622 107.335C88.8322 107.335 88.9972 107.335 89.1572 107.335C89.3172 107.325 89.4672 107.315 89.6072 107.305C89.7472 107.295 89.8672 107.285 89.9672 107.275ZM93.0728 115.105C92.6628 115.105 92.3078 115.03 92.0078 114.88C91.7078 114.72 91.4778 114.5 91.3178 114.22C91.1678 113.94 91.0928 113.615 91.0928 113.245C91.0928 112.805 91.1928 112.445 91.3928 112.165C91.6028 111.885 91.8678 111.66 92.1878 111.49C92.5078 111.32 92.8428 111.18 93.1928 111.07C93.5528 110.95 93.8928 110.84 94.2128 110.74C94.5328 110.63 94.7928 110.505 94.9928 110.365C95.2028 110.225 95.3078 110.04 95.3078 109.81V108.88C95.3078 108.46 95.2428 108.14 95.1128 107.92C94.9928 107.7 94.8278 107.555 94.6178 107.485C94.4078 107.405 94.1728 107.365 93.9128 107.365C93.6628 107.365 93.3928 107.4 93.1028 107.47C92.8228 107.54 92.5978 107.685 92.4278 107.905C92.6178 107.945 92.7828 108.045 92.9228 108.205C93.0628 108.365 93.1328 108.57 93.1328 108.82C93.1328 109.07 93.0528 109.27 92.8928 109.42C92.7328 109.56 92.5278 109.63 92.2778 109.63C91.9878 109.63 91.7728 109.54 91.6328 109.36C91.5028 109.17 91.4378 108.96 91.4378 108.73C91.4378 108.47 91.5028 108.26 91.6328 108.1C91.7628 107.94 91.9278 107.79 92.1278 107.65C92.3578 107.49 92.6528 107.355 93.0128 107.245C93.3828 107.125 93.7978 107.065 94.2578 107.065C94.6678 107.065 95.0178 107.115 95.3078 107.215C95.5978 107.305 95.8378 107.44 96.0278 107.62C96.2878 107.86 96.4578 108.155 96.5378 108.505C96.6178 108.845 96.6578 109.255 96.6578 109.735V113.905C96.6578 114.155 96.6928 114.335 96.7628 114.445C96.8428 114.555 96.9628 114.61 97.1228 114.61C97.2328 114.61 97.3378 114.585 97.4378 114.535C97.5378 114.485 97.6578 114.405 97.7978 114.295L97.9628 114.55C97.7528 114.71 97.5528 114.845 97.3628 114.955C97.1728 115.055 96.9178 115.105 96.5978 115.105C96.3078 115.105 96.0678 115.055 95.8778 114.955C95.6878 114.855 95.5428 114.71 95.4428 114.52C95.3528 114.32 95.3078 114.07 95.3078 113.77C95.0378 114.22 94.7128 114.555 94.3328 114.775C93.9628 114.995 93.5428 115.105 93.0728 115.105ZM93.6128 114.505C93.9428 114.505 94.2478 114.41 94.5278 114.22C94.8178 114.03 95.0778 113.745 95.3078 113.365V110.425C95.1878 110.595 95.0128 110.74 94.7828 110.86C94.5528 110.97 94.3028 111.085 94.0328 111.205C93.7628 111.315 93.5028 111.45 93.2528 111.61C93.0128 111.76 92.8128 111.96 92.6528 112.21C92.4928 112.46 92.4128 112.785 92.4128 113.185C92.4128 113.585 92.5178 113.905 92.7278 114.145C92.9478 114.385 93.2428 114.505 93.6128 114.505ZM103.454 107.065C103.834 107.065 104.149 107.115 104.399 107.215C104.659 107.315 104.874 107.455 105.044 107.635C105.234 107.835 105.369 108.085 105.449 108.385C105.529 108.685 105.569 109.09 105.569 109.6V113.605C105.569 114.025 105.654 114.31 105.824 114.46C106.004 114.61 106.299 114.685 106.709 114.685V115C106.539 114.99 106.279 114.98 105.929 114.97C105.579 114.95 105.239 114.94 104.909 114.94C104.579 114.94 104.254 114.95 103.934 114.97C103.624 114.98 103.389 114.99 103.229 115V114.685C103.589 114.685 103.844 114.61 103.994 114.46C104.144 114.31 104.219 114.025 104.219 113.605V109.27C104.219 108.96 104.194 108.675 104.144 108.415C104.094 108.155 103.979 107.945 103.799 107.785C103.629 107.625 103.364 107.545 103.004 107.545C102.584 107.545 102.214 107.665 101.894 107.905C101.584 108.145 101.339 108.475 101.159 108.895C100.989 109.305 100.904 109.765 100.904 110.275V113.605C100.904 114.025 100.979 114.31 101.129 114.46C101.279 114.61 101.534 114.685 101.894 114.685V115C101.734 114.99 101.494 114.98 101.174 114.97C100.864 114.95 100.544 114.94 100.214 114.94C99.8835 114.94 99.5435 114.95 99.1935 114.97C98.8435 114.98 98.5835 114.99 98.4135 115V114.685C98.8235 114.685 99.1135 114.61 99.2835 114.46C99.4635 114.31 99.5535 114.025 99.5535 113.605V108.91C99.5535 108.46 99.4735 108.13 99.3135 107.92C99.1535 107.7 98.8535 107.59 98.4135 107.59V107.275C98.7335 107.305 99.0435 107.32 99.3435 107.32C99.6335 107.32 99.9085 107.305 100.169 107.275C100.439 107.235 100.684 107.18 100.904 107.11V108.88C101.164 108.2 101.524 107.73 101.984 107.47C102.454 107.2 102.944 107.065 103.454 107.065ZM114.774 107.065C115.414 107.065 115.989 107.205 116.499 107.485C117.009 107.765 117.414 108.205 117.714 108.805C118.024 109.405 118.179 110.185 118.179 111.145C118.179 112.105 118.024 112.885 117.714 113.485C117.414 114.075 117.009 114.51 116.499 114.79C115.989 115.07 115.414 115.21 114.774 115.21C114.144 115.21 113.569 115.07 113.049 114.79C112.539 114.51 112.129 114.075 111.819 113.485C111.519 112.885 111.369 112.105 111.369 111.145C111.369 110.185 111.519 109.405 111.819 108.805C112.129 108.205 112.539 107.765 113.049 107.485C113.569 107.205 114.144 107.065 114.774 107.065ZM114.774 107.365C114.204 107.365 113.734 107.66 113.364 108.25C113.004 108.84 112.824 109.805 112.824 111.145C112.824 112.485 113.004 113.45 113.364 114.04C113.734 114.62 114.204 114.91 114.774 114.91C115.344 114.91 115.809 114.62 116.169 114.04C116.539 113.45 116.724 112.485 116.724 111.145C116.724 109.805 116.539 108.84 116.169 108.25C115.809 107.66 115.344 107.365 114.774 107.365ZM122.077 117.82C121.547 117.82 121.047 117.765 120.577 117.655C120.107 117.545 119.727 117.37 119.437 117.13C119.157 116.9 119.017 116.605 119.017 116.245C119.017 115.895 119.157 115.595 119.437 115.345C119.717 115.095 120.097 114.905 120.577 114.775L120.667 115.015C120.447 115.085 120.272 115.225 120.142 115.435C120.012 115.645 119.947 115.88 119.947 116.14C119.947 116.6 120.157 116.95 120.577 117.19C121.007 117.44 121.562 117.565 122.242 117.565C122.692 117.565 123.132 117.505 123.562 117.385C123.992 117.275 124.347 117.085 124.627 116.815C124.907 116.545 125.047 116.19 125.047 115.75C125.047 115.42 124.927 115.15 124.687 114.94C124.457 114.72 123.997 114.61 123.307 114.61H122.197C121.877 114.61 121.567 114.585 121.267 114.535C120.967 114.485 120.722 114.38 120.532 114.22C120.342 114.06 120.247 113.815 120.247 113.485C120.247 113.145 120.387 112.82 120.667 112.51C120.947 112.19 121.462 111.865 122.212 111.535L122.392 111.67C122.052 111.85 121.757 112.035 121.507 112.225C121.257 112.405 121.132 112.62 121.132 112.87C121.132 113.19 121.372 113.35 121.852 113.35H123.727C124.147 113.35 124.532 113.41 124.882 113.53C125.242 113.65 125.532 113.84 125.752 114.1C125.972 114.36 126.082 114.7 126.082 115.12C126.082 115.59 125.932 116.03 125.632 116.44C125.332 116.85 124.882 117.18 124.282 117.43C123.692 117.69 122.957 117.82 122.077 117.82ZM122.152 111.805C121.662 111.805 121.217 111.725 120.817 111.565C120.417 111.395 120.102 111.135 119.872 110.785C119.642 110.435 119.527 109.985 119.527 109.435C119.527 108.885 119.642 108.435 119.872 108.085C120.102 107.735 120.417 107.48 120.817 107.32C121.217 107.15 121.662 107.065 122.152 107.065C122.652 107.065 123.097 107.15 123.487 107.32C123.887 107.48 124.202 107.735 124.432 108.085C124.662 108.435 124.777 108.885 124.777 109.435C124.777 109.985 124.662 110.435 124.432 110.785C124.202 111.135 123.887 111.395 123.487 111.565C123.097 111.725 122.652 111.805 122.152 111.805ZM122.152 111.535C122.532 111.535 122.827 111.385 123.037 111.085C123.257 110.785 123.367 110.235 123.367 109.435C123.367 108.635 123.257 108.085 123.037 107.785C122.827 107.485 122.532 107.335 122.152 107.335C121.782 107.335 121.487 107.485 121.267 107.785C121.047 108.085 120.937 108.635 120.937 109.435C120.937 110.235 121.047 110.785 121.267 111.085C121.487 111.385 121.782 111.535 122.152 111.535ZM124.312 108.31L124.042 108.205C124.182 107.865 124.422 107.565 124.762 107.305C125.102 107.045 125.457 106.915 125.827 106.915C126.087 106.915 126.297 106.99 126.457 107.14C126.617 107.28 126.697 107.495 126.697 107.785C126.697 108.095 126.612 108.315 126.442 108.445C126.282 108.565 126.117 108.625 125.947 108.625C125.797 108.625 125.657 108.575 125.527 108.475C125.397 108.365 125.322 108.195 125.302 107.965C125.282 107.735 125.352 107.44 125.512 107.08L125.707 107.125C125.287 107.285 124.987 107.455 124.807 107.635C124.627 107.805 124.462 108.03 124.312 108.31ZM129.853 107.065C130.253 107.065 130.593 107.13 130.873 107.26C131.153 107.39 131.358 107.51 131.488 107.62C131.818 107.89 132.018 107.71 132.088 107.08H132.433C132.413 107.36 132.398 107.695 132.388 108.085C132.378 108.465 132.373 108.98 132.373 109.63H132.028C131.968 109.26 131.863 108.9 131.713 108.55C131.573 108.2 131.363 107.915 131.083 107.695C130.803 107.465 130.438 107.35 129.988 107.35C129.638 107.35 129.343 107.45 129.103 107.65C128.873 107.84 128.758 108.125 128.758 108.505C128.758 108.805 128.848 109.065 129.028 109.285C129.208 109.495 129.443 109.695 129.733 109.885C130.023 110.065 130.338 110.265 130.678 110.485C131.058 110.725 131.403 110.97 131.713 111.22C132.023 111.47 132.268 111.745 132.448 112.045C132.638 112.345 132.733 112.7 132.733 113.11C132.733 113.57 132.613 113.955 132.373 114.265C132.133 114.575 131.818 114.81 131.428 114.97C131.048 115.13 130.628 115.21 130.168 115.21C129.948 115.21 129.738 115.19 129.538 115.15C129.348 115.12 129.163 115.07 128.983 115C128.883 114.95 128.778 114.89 128.668 114.82C128.568 114.75 128.468 114.675 128.368 114.595C128.268 114.515 128.178 114.52 128.098 114.61C128.018 114.69 127.958 114.855 127.918 115.105H127.573C127.593 114.785 127.608 114.395 127.618 113.935C127.628 113.475 127.633 112.865 127.633 112.105H127.978C128.048 112.665 128.148 113.155 128.278 113.575C128.408 113.995 128.613 114.325 128.893 114.565C129.173 114.795 129.563 114.91 130.063 114.91C130.263 114.91 130.463 114.865 130.663 114.775C130.873 114.685 131.048 114.535 131.188 114.325C131.328 114.115 131.398 113.835 131.398 113.485C131.398 113.045 131.238 112.685 130.918 112.405C130.598 112.125 130.193 111.83 129.703 111.52C129.343 111.29 129.003 111.06 128.683 110.83C128.373 110.6 128.118 110.34 127.918 110.05C127.728 109.76 127.633 109.41 127.633 109C127.633 108.55 127.733 108.185 127.933 107.905C128.143 107.615 128.418 107.405 128.758 107.275C129.098 107.135 129.463 107.065 129.853 107.065ZM136.007 115.105C135.597 115.105 135.242 115.03 134.942 114.88C134.642 114.72 134.412 114.5 134.252 114.22C134.102 113.94 134.027 113.615 134.027 113.245C134.027 112.805 134.127 112.445 134.327 112.165C134.537 111.885 134.802 111.66 135.122 111.49C135.442 111.32 135.777 111.18 136.127 111.07C136.487 110.95 136.827 110.84 137.147 110.74C137.467 110.63 137.727 110.505 137.927 110.365C138.137 110.225 138.242 110.04 138.242 109.81V108.88C138.242 108.46 138.177 108.14 138.047 107.92C137.927 107.7 137.762 107.555 137.552 107.485C137.342 107.405 137.107 107.365 136.847 107.365C136.597 107.365 136.327 107.4 136.037 107.47C135.757 107.54 135.532 107.685 135.362 107.905C135.552 107.945 135.717 108.045 135.857 108.205C135.997 108.365 136.067 108.57 136.067 108.82C136.067 109.07 135.987 109.27 135.827 109.42C135.667 109.56 135.462 109.63 135.212 109.63C134.922 109.63 134.707 109.54 134.567 109.36C134.437 109.17 134.372 108.96 134.372 108.73C134.372 108.47 134.437 108.26 134.567 108.1C134.697 107.94 134.862 107.79 135.062 107.65C135.292 107.49 135.587 107.355 135.947 107.245C136.317 107.125 136.732 107.065 137.192 107.065C137.602 107.065 137.952 107.115 138.242 107.215C138.532 107.305 138.772 107.44 138.962 107.62C139.222 107.86 139.392 108.155 139.472 108.505C139.552 108.845 139.592 109.255 139.592 109.735V113.905C139.592 114.155 139.627 114.335 139.697 114.445C139.777 114.555 139.897 114.61 140.057 114.61C140.167 114.61 140.272 114.585 140.372 114.535C140.472 114.485 140.592 114.405 140.732 114.295L140.897 114.55C140.687 114.71 140.487 114.845 140.297 114.955C140.107 115.055 139.852 115.105 139.532 115.105C139.242 115.105 139.002 115.055 138.812 114.955C138.622 114.855 138.477 114.71 138.377 114.52C138.287 114.32 138.242 114.07 138.242 113.77C137.972 114.22 137.647 114.555 137.267 114.775C136.897 114.995 136.477 115.105 136.007 115.105ZM136.547 114.505C136.877 114.505 137.182 114.41 137.462 114.22C137.752 114.03 138.012 113.745 138.242 113.365V110.425C138.122 110.595 137.947 110.74 137.717 110.86C137.487 110.97 137.237 111.085 136.967 111.205C136.697 111.315 136.437 111.45 136.187 111.61C135.947 111.76 135.747 111.96 135.587 112.21C135.427 112.46 135.347 112.785 135.347 113.185C135.347 113.585 135.452 113.905 135.662 114.145C135.882 114.385 136.177 114.505 136.547 114.505ZM137.132 103.135C137.522 103.135 137.862 103.26 138.152 103.51C138.442 103.75 138.587 104.08 138.587 104.5C138.587 104.93 138.442 105.27 138.152 105.52C137.862 105.76 137.522 105.88 137.132 105.88C136.752 105.88 136.417 105.76 136.127 105.52C135.837 105.27 135.692 104.93 135.692 104.5C135.692 104.08 135.837 103.75 136.127 103.51C136.417 103.26 136.752 103.135 137.132 103.135ZM137.132 103.45C136.892 103.45 136.662 103.54 136.442 103.72C136.222 103.9 136.112 104.165 136.112 104.515C136.112 104.865 136.222 105.13 136.442 105.31C136.662 105.48 136.892 105.565 137.132 105.565C137.382 105.565 137.617 105.48 137.837 105.31C138.057 105.13 138.167 104.865 138.167 104.515C138.167 104.165 138.057 103.9 137.837 103.72C137.617 103.54 137.382 103.45 137.132 103.45ZM149.363 107.065C150.183 107.065 150.863 107.405 151.403 108.085C151.943 108.755 152.213 109.775 152.213 111.145C152.213 112.045 152.058 112.8 151.748 113.41C151.448 114.01 151.043 114.46 150.533 114.76C150.023 115.06 149.468 115.21 148.868 115.21C148.368 115.21 147.883 115.07 147.413 114.79C146.953 114.5 146.608 114.075 146.378 113.515L146.678 113.68C146.928 114.08 147.238 114.38 147.608 114.58C147.978 114.77 148.358 114.865 148.748 114.865C149.418 114.865 149.918 114.565 150.248 113.965C150.588 113.355 150.758 112.415 150.758 111.145C150.758 110.335 150.693 109.66 150.563 109.12C150.433 108.58 150.233 108.18 149.963 107.92C149.693 107.65 149.348 107.515 148.928 107.515C148.468 107.515 148.038 107.725 147.638 108.145C147.248 108.555 147.008 109.16 146.918 109.96L146.738 109.75C146.848 108.9 147.143 108.24 147.623 107.77C148.113 107.3 148.693 107.065 149.363 107.065ZM147.023 103.255V114.22C146.893 114.33 146.758 114.445 146.618 114.565C146.488 114.675 146.358 114.785 146.228 114.895C146.098 115.005 145.963 115.12 145.823 115.24L145.568 115.135C145.608 114.995 145.633 114.855 145.643 114.715C145.663 114.565 145.673 114.415 145.673 114.265V105.055C145.673 104.605 145.593 104.275 145.433 104.065C145.273 103.845 144.973 103.735 144.533 103.735V103.42C144.853 103.45 145.163 103.465 145.463 103.465C145.753 103.465 146.028 103.45 146.288 103.42C146.558 103.38 146.803 103.325 147.023 103.255ZM158.025 107.065C158.295 107.065 158.53 107.12 158.73 107.23C158.94 107.34 159.1 107.485 159.21 107.665C159.33 107.835 159.39 108.03 159.39 108.25C159.39 108.5 159.31 108.72 159.15 108.91C159 109.1 158.795 109.195 158.535 109.195C158.325 109.195 158.14 109.13 157.98 109C157.82 108.86 157.74 108.665 157.74 108.415C157.74 108.225 157.79 108.065 157.89 107.935C158 107.795 158.12 107.685 158.25 107.605C158.18 107.505 158.075 107.455 157.935 107.455C157.625 107.455 157.34 107.55 157.08 107.74C156.82 107.92 156.6 108.155 156.42 108.445C156.24 108.735 156.1 109.045 156 109.375C155.9 109.695 155.85 109.995 155.85 110.275V113.455C155.85 113.945 155.99 114.275 156.27 114.445C156.56 114.605 156.95 114.685 157.44 114.685V115C157.21 114.99 156.885 114.98 156.465 114.97C156.045 114.95 155.6 114.94 155.13 114.94C154.79 114.94 154.45 114.95 154.11 114.97C153.78 114.98 153.53 114.99 153.36 115V114.685C153.77 114.685 154.06 114.61 154.23 114.46C154.41 114.31 154.5 114.025 154.5 113.605V108.91C154.5 108.46 154.42 108.13 154.26 107.92C154.1 107.7 153.8 107.59 153.36 107.59V107.275C153.68 107.305 153.99 107.32 154.29 107.32C154.58 107.32 154.855 107.305 155.115 107.275C155.385 107.235 155.63 107.18 155.85 107.11V108.985C155.96 108.695 156.115 108.405 156.315 108.115C156.525 107.815 156.775 107.565 157.065 107.365C157.355 107.165 157.675 107.065 158.025 107.065ZM166.849 107.11V113.38C166.849 113.83 166.929 114.165 167.089 114.385C167.259 114.595 167.559 114.7 167.989 114.7V115.015C167.679 114.985 167.369 114.97 167.059 114.97C166.769 114.97 166.489 114.985 166.219 115.015C165.959 115.045 165.719 115.1 165.499 115.18V113.41C165.249 114.06 164.894 114.525 164.434 114.805C163.984 115.075 163.519 115.21 163.039 115.21C162.689 115.21 162.384 115.16 162.124 115.06C161.864 114.96 161.649 114.82 161.479 114.64C161.289 114.44 161.159 114.18 161.089 113.86C161.019 113.54 160.984 113.145 160.984 112.675V108.91C160.984 108.46 160.904 108.13 160.744 107.92C160.584 107.7 160.284 107.59 159.844 107.59V107.275C160.164 107.305 160.474 107.32 160.774 107.32C161.064 107.32 161.339 107.305 161.599 107.275C161.869 107.235 162.114 107.18 162.334 107.11V113.005C162.334 113.315 162.354 113.6 162.394 113.86C162.434 114.12 162.534 114.33 162.694 114.49C162.854 114.65 163.114 114.73 163.474 114.73C163.864 114.73 164.209 114.61 164.509 114.37C164.819 114.13 165.059 113.805 165.229 113.395C165.409 112.985 165.499 112.525 165.499 112.015V108.91C165.499 108.46 165.419 108.13 165.259 107.92C165.099 107.7 164.799 107.59 164.359 107.59V107.275C164.679 107.305 164.989 107.32 165.289 107.32C165.579 107.32 165.854 107.305 166.114 107.275C166.384 107.235 166.629 107.18 166.849 107.11ZM171.515 117.82C170.985 117.82 170.485 117.765 170.015 117.655C169.545 117.545 169.165 117.37 168.875 117.13C168.595 116.9 168.455 116.605 168.455 116.245C168.455 115.895 168.595 115.595 168.875 115.345C169.155 115.095 169.535 114.905 170.015 114.775L170.105 115.015C169.885 115.085 169.71 115.225 169.58 115.435C169.45 115.645 169.385 115.88 169.385 116.14C169.385 116.6 169.595 116.95 170.015 117.19C170.445 117.44 171 117.565 171.68 117.565C172.13 117.565 172.57 117.505 173 117.385C173.43 117.275 173.785 117.085 174.065 116.815C174.345 116.545 174.485 116.19 174.485 115.75C174.485 115.42 174.365 115.15 174.125 114.94C173.895 114.72 173.435 114.61 172.745 114.61H171.635C171.315 114.61 171.005 114.585 170.705 114.535C170.405 114.485 170.16 114.38 169.97 114.22C169.78 114.06 169.685 113.815 169.685 113.485C169.685 113.145 169.825 112.82 170.105 112.51C170.385 112.19 170.9 111.865 171.65 111.535L171.83 111.67C171.49 111.85 171.195 112.035 170.945 112.225C170.695 112.405 170.57 112.62 170.57 112.87C170.57 113.19 170.81 113.35 171.29 113.35H173.165C173.585 113.35 173.97 113.41 174.32 113.53C174.68 113.65 174.97 113.84 175.19 114.1C175.41 114.36 175.52 114.7 175.52 115.12C175.52 115.59 175.37 116.03 175.07 116.44C174.77 116.85 174.32 117.18 173.72 117.43C173.13 117.69 172.395 117.82 171.515 117.82ZM171.59 111.805C171.1 111.805 170.655 111.725 170.255 111.565C169.855 111.395 169.54 111.135 169.31 110.785C169.08 110.435 168.965 109.985 168.965 109.435C168.965 108.885 169.08 108.435 169.31 108.085C169.54 107.735 169.855 107.48 170.255 107.32C170.655 107.15 171.1 107.065 171.59 107.065C172.09 107.065 172.535 107.15 172.925 107.32C173.325 107.48 173.64 107.735 173.87 108.085C174.1 108.435 174.215 108.885 174.215 109.435C174.215 109.985 174.1 110.435 173.87 110.785C173.64 111.135 173.325 111.395 172.925 111.565C172.535 111.725 172.09 111.805 171.59 111.805ZM171.59 111.535C171.97 111.535 172.265 111.385 172.475 111.085C172.695 110.785 172.805 110.235 172.805 109.435C172.805 108.635 172.695 108.085 172.475 107.785C172.265 107.485 171.97 107.335 171.59 107.335C171.22 107.335 170.925 107.485 170.705 107.785C170.485 108.085 170.375 108.635 170.375 109.435C170.375 110.235 170.485 110.785 170.705 111.085C170.925 111.385 171.22 111.535 171.59 111.535ZM173.75 108.31L173.48 108.205C173.62 107.865 173.86 107.565 174.2 107.305C174.54 107.045 174.895 106.915 175.265 106.915C175.525 106.915 175.735 106.99 175.895 107.14C176.055 107.28 176.135 107.495 176.135 107.785C176.135 108.095 176.05 108.315 175.88 108.445C175.72 108.565 175.555 108.625 175.385 108.625C175.235 108.625 175.095 108.575 174.965 108.475C174.835 108.365 174.76 108.195 174.74 107.965C174.72 107.735 174.79 107.44 174.95 107.08L175.145 107.125C174.725 107.285 174.425 107.455 174.245 107.635C174.065 107.805 173.9 108.03 173.75 108.31ZM180.179 107.065C181.059 107.065 181.744 107.335 182.234 107.875C182.734 108.405 182.984 109.235 182.984 110.365H177.689L177.674 110.08H181.544C181.564 109.59 181.524 109.14 181.424 108.73C181.324 108.31 181.164 107.975 180.944 107.725C180.734 107.475 180.459 107.35 180.119 107.35C179.659 107.35 179.249 107.58 178.889 108.04C178.539 108.5 178.329 109.23 178.259 110.23L178.304 110.29C178.284 110.44 178.269 110.605 178.259 110.785C178.249 110.965 178.244 111.145 178.244 111.325C178.244 112.005 178.354 112.59 178.574 113.08C178.794 113.57 179.079 113.945 179.429 114.205C179.789 114.455 180.159 114.58 180.539 114.58C180.839 114.58 181.124 114.535 181.394 114.445C181.664 114.345 181.914 114.185 182.144 113.965C182.374 113.745 182.574 113.45 182.744 113.08L183.044 113.2C182.934 113.53 182.754 113.85 182.504 114.16C182.254 114.47 181.939 114.725 181.559 114.925C181.179 115.115 180.739 115.21 180.239 115.21C179.519 115.21 178.899 115.045 178.379 114.715C177.869 114.385 177.474 113.93 177.194 113.35C176.924 112.76 176.789 112.085 176.789 111.325C176.789 110.445 176.929 109.69 177.209 109.06C177.489 108.42 177.884 107.93 178.394 107.59C178.904 107.24 179.499 107.065 180.179 107.065ZM45.0775 121.27C45.3575 121.27 45.6025 121.31 45.8125 121.39C46.0325 121.46 46.2225 121.555 46.3825 121.675C46.5325 121.795 46.6475 121.935 46.7275 122.095C46.8075 122.255 46.8475 122.425 46.8475 122.605C46.8475 122.835 46.7725 123.025 46.6225 123.175C46.4725 123.325 46.2825 123.4 46.0525 123.4C45.8325 123.4 45.6375 123.33 45.4675 123.19C45.3075 123.04 45.2275 122.84 45.2275 122.59C45.2275 122.38 45.2825 122.21 45.3925 122.08C45.5125 121.95 45.6675 121.865 45.8575 121.825C45.8275 121.735 45.7475 121.66 45.6175 121.6C45.4975 121.53 45.3325 121.495 45.1225 121.495C44.8925 121.495 44.6925 121.545 44.5225 121.645C44.3625 121.745 44.2375 121.88 44.1475 122.05C44.0275 122.26 43.9525 122.575 43.9225 122.995C43.8925 123.405 43.8775 124.04 43.8775 124.9V125.29H45.4825V125.59H43.8775V131.455C43.8775 131.945 44.0175 132.275 44.2975 132.445C44.5875 132.605 44.9775 132.685 45.4675 132.685V133C45.2375 132.99 44.9125 132.98 44.4925 132.97C44.0725 132.95 43.6275 132.94 43.1575 132.94C42.8175 132.94 42.4775 132.95 42.1375 132.97C41.8075 132.98 41.5575 132.99 41.3875 133V132.685C41.7975 132.685 42.0875 132.61 42.2575 132.46C42.4375 132.31 42.5275 132.025 42.5275 131.605V125.59H41.3275V125.29H42.5275C42.5275 124.7 42.5525 124.205 42.6025 123.805C42.6525 123.405 42.7325 123.065 42.8425 122.785C42.9525 122.495 43.1025 122.24 43.2925 122.02C43.4925 121.79 43.7475 121.61 44.0575 121.48C44.3675 121.34 44.7075 121.27 45.0775 121.27ZM49.7789 125.065C50.4189 125.065 50.9939 125.205 51.5039 125.485C52.0139 125.765 52.4189 126.205 52.7189 126.805C53.0289 127.405 53.1839 128.185 53.1839 129.145C53.1839 130.105 53.0289 130.885 52.7189 131.485C52.4189 132.075 52.0139 132.51 51.5039 132.79C50.9939 133.07 50.4189 133.21 49.7789 133.21C49.1489 133.21 48.5739 133.07 48.0539 132.79C47.5439 132.51 47.1339 132.075 46.8239 131.485C46.5239 130.885 46.3739 130.105 46.3739 129.145C46.3739 128.185 46.5239 127.405 46.8239 126.805C47.1339 126.205 47.5439 125.765 48.0539 125.485C48.5739 125.205 49.1489 125.065 49.7789 125.065ZM49.7789 125.365C49.2089 125.365 48.7389 125.66 48.3689 126.25C48.0089 126.84 47.8289 127.805 47.8289 129.145C47.8289 130.485 48.0089 131.45 48.3689 132.04C48.7389 132.62 49.2089 132.91 49.7789 132.91C50.3489 132.91 50.8139 132.62 51.1739 132.04C51.5439 131.45 51.7289 130.485 51.7289 129.145C51.7289 127.805 51.5439 126.84 51.1739 126.25C50.8139 125.66 50.3489 125.365 49.7789 125.365ZM58.9867 125.065C59.2567 125.065 59.4917 125.12 59.6917 125.23C59.9017 125.34 60.0617 125.485 60.1717 125.665C60.2917 125.835 60.3517 126.03 60.3517 126.25C60.3517 126.5 60.2717 126.72 60.1117 126.91C59.9617 127.1 59.7567 127.195 59.4967 127.195C59.2867 127.195 59.1017 127.13 58.9417 127C58.7817 126.86 58.7017 126.665 58.7017 126.415C58.7017 126.225 58.7517 126.065 58.8517 125.935C58.9617 125.795 59.0817 125.685 59.2117 125.605C59.1417 125.505 59.0367 125.455 58.8967 125.455C58.5867 125.455 58.3017 125.55 58.0417 125.74C57.7817 125.92 57.5617 126.155 57.3817 126.445C57.2017 126.735 57.0617 127.045 56.9617 127.375C56.8617 127.695 56.8117 127.995 56.8117 128.275V131.455C56.8117 131.945 56.9517 132.275 57.2317 132.445C57.5217 132.605 57.9117 132.685 58.4017 132.685V133C58.1717 132.99 57.8467 132.98 57.4267 132.97C57.0067 132.95 56.5617 132.94 56.0917 132.94C55.7517 132.94 55.4117 132.95 55.0717 132.97C54.7417 132.98 54.4917 132.99 54.3217 133V132.685C54.7317 132.685 55.0217 132.61 55.1917 132.46C55.3717 132.31 55.4617 132.025 55.4617 131.605V126.91C55.4617 126.46 55.3817 126.13 55.2217 125.92C55.0617 125.7 54.7617 125.59 54.3217 125.59V125.275C54.6417 125.305 54.9517 125.32 55.2517 125.32C55.5417 125.32 55.8167 125.305 56.0767 125.275C56.3467 125.235 56.5917 125.18 56.8117 125.11V126.985C56.9217 126.695 57.0767 126.405 57.2767 126.115C57.4867 125.815 57.7367 125.565 58.0267 125.365C58.3167 125.165 58.6367 125.065 58.9867 125.065ZM66.3454 121.24V131.605C66.3454 132.025 66.4304 132.31 66.6004 132.46C66.7804 132.61 67.0754 132.685 67.4854 132.685V133C67.3154 132.99 67.0554 132.98 66.7054 132.97C66.3654 132.95 66.0204 132.94 65.6704 132.94C65.3304 132.94 64.9854 132.95 64.6354 132.97C64.2854 132.98 64.0254 132.99 63.8554 133V132.685C64.2654 132.685 64.5554 132.61 64.7254 132.46C64.9054 132.31 64.9954 132.025 64.9954 131.605V123.04C64.9954 122.59 64.9154 122.26 64.7554 122.05C64.5954 121.83 64.2954 121.72 63.8554 121.72V121.405C64.1754 121.435 64.4854 121.45 64.7854 121.45C65.0754 121.45 65.3504 121.435 65.6104 121.405C65.8804 121.365 66.1254 121.31 66.3454 121.24ZM70.3824 133.105C69.9724 133.105 69.6174 133.03 69.3174 132.88C69.0174 132.72 68.7874 132.5 68.6274 132.22C68.4774 131.94 68.4024 131.615 68.4024 131.245C68.4024 130.805 68.5024 130.445 68.7024 130.165C68.9124 129.885 69.1774 129.66 69.4974 129.49C69.8174 129.32 70.1524 129.18 70.5024 129.07C70.8624 128.95 71.2024 128.84 71.5224 128.74C71.8424 128.63 72.1024 128.505 72.3024 128.365C72.5124 128.225 72.6174 128.04 72.6174 127.81V126.88C72.6174 126.46 72.5524 126.14 72.4224 125.92C72.3024 125.7 72.1374 125.555 71.9274 125.485C71.7174 125.405 71.4824 125.365 71.2224 125.365C70.9724 125.365 70.7024 125.4 70.4124 125.47C70.1324 125.54 69.9074 125.685 69.7374 125.905C69.9274 125.945 70.0924 126.045 70.2324 126.205C70.3724 126.365 70.4424 126.57 70.4424 126.82C70.4424 127.07 70.3624 127.27 70.2024 127.42C70.0424 127.56 69.8374 127.63 69.5874 127.63C69.2974 127.63 69.0824 127.54 68.9424 127.36C68.8124 127.17 68.7474 126.96 68.7474 126.73C68.7474 126.47 68.8124 126.26 68.9424 126.1C69.0724 125.94 69.2374 125.79 69.4374 125.65C69.6674 125.49 69.9624 125.355 70.3224 125.245C70.6924 125.125 71.1074 125.065 71.5674 125.065C71.9774 125.065 72.3274 125.115 72.6174 125.215C72.9074 125.305 73.1474 125.44 73.3374 125.62C73.5974 125.86 73.7674 126.155 73.8474 126.505C73.9274 126.845 73.9674 127.255 73.9674 127.735V131.905C73.9674 132.155 74.0024 132.335 74.0724 132.445C74.1524 132.555 74.2724 132.61 74.4324 132.61C74.5424 132.61 74.6474 132.585 74.7474 132.535C74.8474 132.485 74.9674 132.405 75.1074 132.295L75.2724 132.55C75.0624 132.71 74.8624 132.845 74.6724 132.955C74.4824 133.055 74.2274 133.105 73.9074 133.105C73.6174 133.105 73.3774 133.055 73.1874 132.955C72.9974 132.855 72.8524 132.71 72.7524 132.52C72.6624 132.32 72.6174 132.07 72.6174 131.77C72.3474 132.22 72.0224 132.555 71.6424 132.775C71.2724 132.995 70.8524 133.105 70.3824 133.105ZM70.9224 132.505C71.2524 132.505 71.5574 132.41 71.8374 132.22C72.1274 132.03 72.3874 131.745 72.6174 131.365V128.425C72.4974 128.595 72.3224 128.74 72.0924 128.86C71.8624 128.97 71.6124 129.085 71.3424 129.205C71.0724 129.315 70.8124 129.45 70.5624 129.61C70.3224 129.76 70.1224 129.96 69.9624 130.21C69.8024 130.46 69.7224 130.785 69.7224 131.185C69.7224 131.585 69.8274 131.905 70.0374 132.145C70.2574 132.385 70.5524 132.505 70.9224 132.505ZM80.7631 125.065C81.1431 125.065 81.4581 125.115 81.7081 125.215C81.9681 125.315 82.1831 125.455 82.3531 125.635C82.5431 125.835 82.6781 126.085 82.7581 126.385C82.8381 126.685 82.8781 127.09 82.8781 127.6V131.605C82.8781 132.025 82.9631 132.31 83.1331 132.46C83.3131 132.61 83.6081 132.685 84.0181 132.685V133C83.8481 132.99 83.5881 132.98 83.2381 132.97C82.8881 132.95 82.5481 132.94 82.2181 132.94C81.8881 132.94 81.5631 132.95 81.2431 132.97C80.9331 132.98 80.6981 132.99 80.5381 133V132.685C80.8981 132.685 81.1531 132.61 81.3031 132.46C81.4531 132.31 81.5281 132.025 81.5281 131.605V127.27C81.5281 126.96 81.5031 126.675 81.4531 126.415C81.4031 126.155 81.2881 125.945 81.1081 125.785C80.9381 125.625 80.6731 125.545 80.3131 125.545C79.8931 125.545 79.5231 125.665 79.2031 125.905C78.8931 126.145 78.6481 126.475 78.4681 126.895C78.2981 127.305 78.2131 127.765 78.2131 128.275V131.605C78.2131 132.025 78.2881 132.31 78.4381 132.46C78.5881 132.61 78.8431 132.685 79.2031 132.685V133C79.0431 132.99 78.8031 132.98 78.4831 132.97C78.1731 132.95 77.8531 132.94 77.5231 132.94C77.1931 132.94 76.8531 132.95 76.5031 132.97C76.1531 132.98 75.8931 132.99 75.7231 133V132.685C76.1331 132.685 76.4231 132.61 76.5931 132.46C76.7731 132.31 76.8631 132.025 76.8631 131.605V126.91C76.8631 126.46 76.7831 126.13 76.6231 125.92C76.4631 125.7 76.1631 125.59 75.7231 125.59V125.275C76.0431 125.305 76.3531 125.32 76.6531 125.32C76.9431 125.32 77.2181 125.305 77.4781 125.275C77.7481 125.235 77.9931 125.18 78.2131 125.11V126.88C78.4731 126.2 78.8331 125.73 79.2931 125.47C79.7631 125.2 80.2531 125.065 80.7631 125.065ZM87.2868 135.82C86.7568 135.82 86.2568 135.765 85.7868 135.655C85.3168 135.545 84.9368 135.37 84.6468 135.13C84.3668 134.9 84.2268 134.605 84.2268 134.245C84.2268 133.895 84.3668 133.595 84.6468 133.345C84.9268 133.095 85.3068 132.905 85.7868 132.775L85.8768 133.015C85.6568 133.085 85.4818 133.225 85.3518 133.435C85.2218 133.645 85.1568 133.88 85.1568 134.14C85.1568 134.6 85.3668 134.95 85.7868 135.19C86.2168 135.44 86.7718 135.565 87.4518 135.565C87.9018 135.565 88.3418 135.505 88.7718 135.385C89.2018 135.275 89.5568 135.085 89.8368 134.815C90.1168 134.545 90.2568 134.19 90.2568 133.75C90.2568 133.42 90.1368 133.15 89.8968 132.94C89.6668 132.72 89.2068 132.61 88.5168 132.61H87.4068C87.0868 132.61 86.7768 132.585 86.4768 132.535C86.1768 132.485 85.9318 132.38 85.7418 132.22C85.5518 132.06 85.4568 131.815 85.4568 131.485C85.4568 131.145 85.5968 130.82 85.8768 130.51C86.1568 130.19 86.6718 129.865 87.4218 129.535L87.6018 129.67C87.2618 129.85 86.9668 130.035 86.7168 130.225C86.4668 130.405 86.3418 130.62 86.3418 130.87C86.3418 131.19 86.5818 131.35 87.0618 131.35H88.9368C89.3568 131.35 89.7418 131.41 90.0918 131.53C90.4518 131.65 90.7418 131.84 90.9618 132.1C91.1818 132.36 91.2918 132.7 91.2918 133.12C91.2918 133.59 91.1418 134.03 90.8418 134.44C90.5418 134.85 90.0918 135.18 89.4918 135.43C88.9018 135.69 88.1668 135.82 87.2868 135.82ZM87.3618 129.805C86.8718 129.805 86.4268 129.725 86.0268 129.565C85.6268 129.395 85.3118 129.135 85.0818 128.785C84.8518 128.435 84.7368 127.985 84.7368 127.435C84.7368 126.885 84.8518 126.435 85.0818 126.085C85.3118 125.735 85.6268 125.48 86.0268 125.32C86.4268 125.15 86.8718 125.065 87.3618 125.065C87.8618 125.065 88.3068 125.15 88.6968 125.32C89.0968 125.48 89.4118 125.735 89.6418 126.085C89.8718 126.435 89.9868 126.885 89.9868 127.435C89.9868 127.985 89.8718 128.435 89.6418 128.785C89.4118 129.135 89.0968 129.395 88.6968 129.565C88.3068 129.725 87.8618 129.805 87.3618 129.805ZM87.3618 129.535C87.7418 129.535 88.0368 129.385 88.2468 129.085C88.4668 128.785 88.5768 128.235 88.5768 127.435C88.5768 126.635 88.4668 126.085 88.2468 125.785C88.0368 125.485 87.7418 125.335 87.3618 125.335C86.9918 125.335 86.6968 125.485 86.4768 125.785C86.2568 126.085 86.1468 126.635 86.1468 127.435C86.1468 128.235 86.2568 128.785 86.4768 129.085C86.6968 129.385 86.9918 129.535 87.3618 129.535ZM89.5218 126.31L89.2518 126.205C89.3918 125.865 89.6318 125.565 89.9718 125.305C90.3118 125.045 90.6668 124.915 91.0368 124.915C91.2968 124.915 91.5068 124.99 91.6668 125.14C91.8268 125.28 91.9068 125.495 91.9068 125.785C91.9068 126.095 91.8218 126.315 91.6518 126.445C91.4918 126.565 91.3268 126.625 91.1568 126.625C91.0068 126.625 90.8668 126.575 90.7368 126.475C90.6068 126.365 90.5318 126.195 90.5118 125.965C90.4918 125.735 90.5618 125.44 90.7218 125.08L90.9168 125.125C90.4968 125.285 90.1968 125.455 90.0168 125.635C89.8368 125.805 89.6718 126.03 89.5218 126.31ZM98.4115 122.785V125.29H100.632V125.59H98.4115V131.395C98.4115 131.865 98.4965 132.195 98.6665 132.385C98.8365 132.575 99.0715 132.67 99.3715 132.67C99.6715 132.67 99.9315 132.55 100.152 132.31C100.372 132.06 100.562 131.645 100.722 131.065L101.022 131.14C100.922 131.72 100.722 132.21 100.422 132.61C100.132 133.01 99.6815 133.21 99.0715 133.21C98.7315 133.21 98.4515 133.165 98.2315 133.075C98.0115 132.995 97.8165 132.875 97.6465 132.715C97.4265 132.485 97.2715 132.21 97.1815 131.89C97.1015 131.57 97.0615 131.145 97.0615 130.615V125.59H95.6215V125.29H97.0615V122.995C97.3115 122.985 97.5515 122.965 97.7815 122.935C98.0115 122.905 98.2215 122.855 98.4115 122.785ZM103.009 121.525C103.269 121.525 103.494 121.62 103.684 121.81C103.874 122 103.969 122.225 103.969 122.485C103.969 122.745 103.874 122.97 103.684 123.16C103.494 123.35 103.269 123.445 103.009 123.445C102.749 123.445 102.524 123.35 102.334 123.16C102.144 122.97 102.049 122.745 102.049 122.485C102.049 122.225 102.144 122 102.334 121.81C102.524 121.62 102.749 121.525 103.009 121.525ZM103.789 125.11V131.605C103.789 132.025 103.874 132.31 104.044 132.46C104.224 132.61 104.519 132.685 104.929 132.685V133C104.759 132.99 104.499 132.98 104.149 132.97C103.809 132.95 103.464 132.94 103.114 132.94C102.774 132.94 102.429 132.95 102.079 132.97C101.729 132.98 101.469 132.99 101.299 133V132.685C101.709 132.685 101.999 132.61 102.169 132.46C102.349 132.31 102.439 132.025 102.439 131.605V126.91C102.439 126.46 102.359 126.13 102.199 125.92C102.039 125.7 101.739 125.59 101.299 125.59V125.275C101.619 125.305 101.929 125.32 102.229 125.32C102.519 125.32 102.794 125.305 103.054 125.275C103.324 125.235 103.569 125.18 103.789 125.11ZM112.519 121.24V131.365C112.519 131.815 112.599 132.15 112.759 132.37C112.929 132.58 113.229 132.685 113.659 132.685V133C113.349 132.97 113.039 132.955 112.729 132.955C112.439 132.955 112.159 132.97 111.889 133C111.629 133.03 111.389 133.085 111.169 133.165V123.04C111.169 122.59 111.089 122.26 110.929 122.05C110.769 121.83 110.469 121.72 110.029 121.72V121.405C110.349 121.435 110.659 121.45 110.959 121.45C111.249 121.45 111.524 121.435 111.784 121.405C112.054 121.365 112.299 121.31 112.519 121.24ZM109.369 125.065C109.809 125.065 110.219 125.17 110.599 125.38C110.989 125.59 111.249 125.95 111.379 126.46L111.184 126.61C111.044 126.19 110.824 125.885 110.524 125.695C110.234 125.505 109.889 125.41 109.489 125.41C108.899 125.41 108.404 125.715 108.004 126.325C107.614 126.935 107.424 127.875 107.434 129.145C107.434 129.955 107.509 130.63 107.659 131.17C107.819 131.7 108.049 132.1 108.349 132.37C108.659 132.63 109.034 132.76 109.474 132.76C109.894 132.76 110.274 132.58 110.614 132.22C110.954 131.86 111.159 131.33 111.229 130.63L111.409 130.84C111.329 131.6 111.084 132.185 110.674 132.595C110.274 133.005 109.729 133.21 109.039 133.21C108.419 133.21 107.874 133.06 107.404 132.76C106.944 132.46 106.589 132.01 106.339 131.41C106.099 130.81 105.979 130.055 105.979 129.145C105.979 128.235 106.134 127.48 106.444 126.88C106.764 126.27 107.179 125.815 107.689 125.515C108.209 125.215 108.769 125.065 109.369 125.065ZM120.53 125.11V134.32C120.53 134.75 120.655 135.035 120.905 135.175C121.165 135.325 121.52 135.4 121.97 135.4V135.715C121.75 135.705 121.445 135.69 121.055 135.67C120.665 135.66 120.25 135.655 119.81 135.655C119.5 135.655 119.19 135.66 118.88 135.67C118.58 135.69 118.35 135.705 118.19 135.715V135.4C118.55 135.4 118.805 135.335 118.955 135.205C119.105 135.075 119.18 134.83 119.18 134.47V126.91C119.18 126.46 119.1 126.13 118.94 125.92C118.78 125.7 118.48 125.59 118.04 125.59V125.275C118.36 125.305 118.67 125.32 118.97 125.32C119.26 125.32 119.535 125.305 119.795 125.275C120.065 125.235 120.31 125.18 120.53 125.11ZM122.93 125.065C123.46 125.065 123.935 125.21 124.355 125.5C124.775 125.78 125.105 126.195 125.345 126.745C125.595 127.295 125.72 127.975 125.72 128.785C125.72 129.325 125.655 129.86 125.525 130.39C125.395 130.91 125.19 131.385 124.91 131.815C124.64 132.235 124.285 132.575 123.845 132.835C123.415 133.085 122.895 133.21 122.285 133.21C121.815 133.21 121.405 133.1 121.055 132.88C120.715 132.66 120.485 132.395 120.365 132.085L120.515 131.875C120.655 132.155 120.855 132.39 121.115 132.58C121.385 132.77 121.72 132.865 122.12 132.865C122.68 132.865 123.115 132.69 123.425 132.34C123.735 131.99 123.95 131.525 124.07 130.945C124.2 130.355 124.265 129.705 124.265 128.995C124.265 128.195 124.2 127.54 124.07 127.03C123.94 126.52 123.745 126.14 123.485 125.89C123.225 125.64 122.905 125.515 122.525 125.515C122.035 125.515 121.59 125.72 121.19 126.13C120.79 126.53 120.535 127.14 120.425 127.96L120.245 127.75C120.355 126.9 120.655 126.24 121.145 125.77C121.645 125.3 122.24 125.065 122.93 125.065ZM128.991 133.105C128.581 133.105 128.226 133.03 127.926 132.88C127.626 132.72 127.396 132.5 127.236 132.22C127.086 131.94 127.011 131.615 127.011 131.245C127.011 130.805 127.111 130.445 127.311 130.165C127.521 129.885 127.786 129.66 128.106 129.49C128.426 129.32 128.761 129.18 129.111 129.07C129.471 128.95 129.811 128.84 130.131 128.74C130.451 128.63 130.711 128.505 130.911 128.365C131.121 128.225 131.226 128.04 131.226 127.81V126.88C131.226 126.46 131.161 126.14 131.031 125.92C130.911 125.7 130.746 125.555 130.536 125.485C130.326 125.405 130.091 125.365 129.831 125.365C129.581 125.365 129.311 125.4 129.021 125.47C128.741 125.54 128.516 125.685 128.346 125.905C128.536 125.945 128.701 126.045 128.841 126.205C128.981 126.365 129.051 126.57 129.051 126.82C129.051 127.07 128.971 127.27 128.811 127.42C128.651 127.56 128.446 127.63 128.196 127.63C127.906 127.63 127.691 127.54 127.551 127.36C127.421 127.17 127.356 126.96 127.356 126.73C127.356 126.47 127.421 126.26 127.551 126.1C127.681 125.94 127.846 125.79 128.046 125.65C128.276 125.49 128.571 125.355 128.931 125.245C129.301 125.125 129.716 125.065 130.176 125.065C130.586 125.065 130.936 125.115 131.226 125.215C131.516 125.305 131.756 125.44 131.946 125.62C132.206 125.86 132.376 126.155 132.456 126.505C132.536 126.845 132.576 127.255 132.576 127.735V131.905C132.576 132.155 132.611 132.335 132.681 132.445C132.761 132.555 132.881 132.61 133.041 132.61C133.151 132.61 133.256 132.585 133.356 132.535C133.456 132.485 133.576 132.405 133.716 132.295L133.881 132.55C133.671 132.71 133.471 132.845 133.281 132.955C133.091 133.055 132.836 133.105 132.516 133.105C132.226 133.105 131.986 133.055 131.796 132.955C131.606 132.855 131.461 132.71 131.361 132.52C131.271 132.32 131.226 132.07 131.226 131.77C130.956 132.22 130.631 132.555 130.251 132.775C129.881 132.995 129.461 133.105 128.991 133.105ZM129.531 132.505C129.861 132.505 130.166 132.41 130.446 132.22C130.736 132.03 130.996 131.745 131.226 131.365V128.425C131.106 128.595 130.931 128.74 130.701 128.86C130.471 128.97 130.221 129.085 129.951 129.205C129.681 129.315 129.421 129.45 129.171 129.61C128.931 129.76 128.731 129.96 128.571 130.21C128.411 130.46 128.331 130.785 128.331 131.185C128.331 131.585 128.436 131.905 128.646 132.145C128.866 132.385 129.161 132.505 129.531 132.505ZM130.116 121.135C130.506 121.135 130.846 121.26 131.136 121.51C131.426 121.75 131.571 122.08 131.571 122.5C131.571 122.93 131.426 123.27 131.136 123.52C130.846 123.76 130.506 123.88 130.116 123.88C129.736 123.88 129.401 123.76 129.111 123.52C128.821 123.27 128.676 122.93 128.676 122.5C128.676 122.08 128.821 121.75 129.111 121.51C129.401 121.26 129.736 121.135 130.116 121.135ZM130.116 121.45C129.876 121.45 129.646 121.54 129.426 121.72C129.206 121.9 129.096 122.165 129.096 122.515C129.096 122.865 129.206 123.13 129.426 123.31C129.646 123.48 129.876 123.565 130.116 123.565C130.366 123.565 130.601 123.48 130.821 123.31C131.041 123.13 131.151 122.865 131.151 122.515C131.151 122.165 131.041 121.9 130.821 121.72C130.601 121.54 130.366 121.45 130.116 121.45ZM144.716 121.24V131.365C144.716 131.815 144.796 132.15 144.956 132.37C145.126 132.58 145.426 132.685 145.856 132.685V133C145.546 132.97 145.236 132.955 144.926 132.955C144.636 132.955 144.356 132.97 144.086 133C143.826 133.03 143.586 133.085 143.366 133.165V123.04C143.366 122.59 143.286 122.26 143.126 122.05C142.966 121.83 142.666 121.72 142.226 121.72V121.405C142.546 121.435 142.856 121.45 143.156 121.45C143.446 121.45 143.721 121.435 143.981 121.405C144.251 121.365 144.496 121.31 144.716 121.24ZM141.566 125.065C142.006 125.065 142.416 125.17 142.796 125.38C143.186 125.59 143.446 125.95 143.576 126.46L143.381 126.61C143.241 126.19 143.021 125.885 142.721 125.695C142.431 125.505 142.086 125.41 141.686 125.41C141.096 125.41 140.601 125.715 140.201 126.325C139.811 126.935 139.621 127.875 139.631 129.145C139.631 129.955 139.706 130.63 139.856 131.17C140.016 131.7 140.246 132.1 140.546 132.37C140.856 132.63 141.231 132.76 141.671 132.76C142.091 132.76 142.471 132.58 142.811 132.22C143.151 131.86 143.356 131.33 143.426 130.63L143.606 130.84C143.526 131.6 143.281 132.185 142.871 132.595C142.471 133.005 141.926 133.21 141.236 133.21C140.616 133.21 140.071 133.06 139.601 132.76C139.141 132.46 138.786 132.01 138.536 131.41C138.296 130.81 138.176 130.055 138.176 129.145C138.176 128.235 138.331 127.48 138.641 126.88C138.961 126.27 139.376 125.815 139.886 125.515C140.406 125.215 140.966 125.065 141.566 125.065ZM150.252 125.065C151.132 125.065 151.817 125.335 152.307 125.875C152.807 126.405 153.057 127.235 153.057 128.365H147.762L147.747 128.08H151.617C151.637 127.59 151.597 127.14 151.497 126.73C151.397 126.31 151.237 125.975 151.017 125.725C150.807 125.475 150.532 125.35 150.192 125.35C149.732 125.35 149.322 125.58 148.962 126.04C148.612 126.5 148.402 127.23 148.332 128.23L148.377 128.29C148.357 128.44 148.342 128.605 148.332 128.785C148.322 128.965 148.317 129.145 148.317 129.325C148.317 130.005 148.427 130.59 148.647 131.08C148.867 131.57 149.152 131.945 149.502 132.205C149.862 132.455 150.232 132.58 150.612 132.58C150.912 132.58 151.197 132.535 151.467 132.445C151.737 132.345 151.987 132.185 152.217 131.965C152.447 131.745 152.647 131.45 152.817 131.08L153.117 131.2C153.007 131.53 152.827 131.85 152.577 132.16C152.327 132.47 152.012 132.725 151.632 132.925C151.252 133.115 150.812 133.21 150.312 133.21C149.592 133.21 148.972 133.045 148.452 132.715C147.942 132.385 147.547 131.93 147.267 131.35C146.997 130.76 146.862 130.085 146.862 129.325C146.862 128.445 147.002 127.69 147.282 127.06C147.562 126.42 147.957 125.93 148.467 125.59C148.977 125.24 149.572 125.065 150.252 125.065ZM156.61 122.785V125.29H158.83V125.59H156.61V131.395C156.61 131.865 156.695 132.195 156.865 132.385C157.035 132.575 157.27 132.67 157.57 132.67C157.87 132.67 158.13 132.55 158.35 132.31C158.57 132.06 158.76 131.645 158.92 131.065L159.22 131.14C159.12 131.72 158.92 132.21 158.62 132.61C158.33 133.01 157.88 133.21 157.27 133.21C156.93 133.21 156.65 133.165 156.43 133.075C156.21 132.995 156.015 132.875 155.845 132.715C155.625 132.485 155.47 132.21 155.38 131.89C155.3 131.57 155.26 131.145 155.26 130.615V125.59H153.82V125.29H155.26V122.995C155.51 122.985 155.75 122.965 155.98 122.935C156.21 122.905 156.42 122.855 156.61 122.785Z" fill="#D9D9D9"/>
</svg>
