<svg width="200" height="200" viewBox="0 0 200 200" fill="none" xmlns="http://www.w3.org/2000/svg">
<rect width="200" height="200" fill="#A4A68D"/>
<path d="M48.3753 32.424V32.864C48.0526 32.9813 47.7153 33.238 47.3633 33.634C47.0113 34.0153 46.7033 34.6313 46.4393 35.482L42.5673 48.044C42.4499 48.0293 42.3253 48.022 42.1933 48.022C42.0613 48.022 41.9293 48.022 41.7973 48.022C41.6653 48.022 41.5333 48.022 41.4013 48.022C41.2693 48.022 41.1446 48.0293 41.0273 48.044L36.4073 34.052C36.2606 33.5973 36.0773 33.2893 35.8573 33.128C35.6519 32.9667 35.4319 32.8787 35.1973 32.864V32.424C35.6079 32.4387 36.0919 32.4533 36.6493 32.468C37.2213 32.4827 37.7859 32.49 38.3433 32.49C38.9886 32.49 39.5899 32.4827 40.1473 32.468C40.7193 32.4533 41.1739 32.4387 41.5113 32.424V32.864C41.0713 32.8787 40.7193 32.93 40.4553 33.018C40.2059 33.106 40.0593 33.2747 40.0153 33.524C39.9859 33.7733 40.0593 34.1693 40.2353 34.712L43.3593 44.26L42.8533 45.162L45.3393 37.264C45.6913 36.1493 45.8599 35.2767 45.8453 34.646C45.8306 34.0153 45.6619 33.568 45.3393 33.304C45.0166 33.0253 44.5546 32.8787 43.9533 32.864V32.424C44.4519 32.4387 44.9213 32.4533 45.3613 32.468C45.8013 32.4827 46.2413 32.49 46.6813 32.49C47.0186 32.49 47.3266 32.4827 47.6053 32.468C47.8986 32.4533 48.1553 32.4387 48.3753 32.424ZM32.6673 32.424V32.864C32.3739 32.908 32.1686 33.018 32.0513 33.194C31.9339 33.3553 31.8826 33.5753 31.8973 33.854C31.9266 34.118 31.9926 34.404 32.0953 34.712L35.4613 44.48L34.8673 45.272L37.6833 37.044L37.9913 37.638L34.5373 48.044C34.4199 48.0293 34.2953 48.022 34.1633 48.022C34.0313 48.022 33.8993 48.022 33.7673 48.022C33.6353 48.022 33.5033 48.022 33.3713 48.022C33.2393 48.022 33.1146 48.0293 32.9973 48.044L28.0693 34.272C27.8786 33.7293 27.6513 33.3627 27.3873 33.172C27.1379 32.9813 26.9033 32.8787 26.6833 32.864V32.424C27.1233 32.4387 27.6439 32.4533 28.2453 32.468C28.8466 32.4827 29.4186 32.49 29.9613 32.49C30.5479 32.49 31.0686 32.4827 31.5233 32.468C31.9926 32.4533 32.3739 32.4387 32.6673 32.424ZM51.0032 30.95C51.6192 30.95 52.1032 31.104 52.4552 31.412C52.8219 31.7053 53.0052 32.116 53.0052 32.644C53.0052 33.172 52.8219 33.59 52.4552 33.898C52.1032 34.1913 51.6192 34.338 51.0032 34.338C50.3872 34.338 49.8959 34.1913 49.5292 33.898C49.1772 33.59 49.0012 33.172 49.0012 32.644C49.0012 32.116 49.1772 31.7053 49.5292 31.412C49.8959 31.104 50.3872 30.95 51.0032 30.95ZM52.7192 36.384V45.954C52.7192 46.57 52.8219 46.988 53.0272 47.208C53.2472 47.428 53.6139 47.538 54.1272 47.538V48C53.8632 47.9853 53.4526 47.9707 52.8952 47.956C52.3379 47.9267 51.7732 47.912 51.2012 47.912C50.6292 47.912 50.0499 47.9267 49.4632 47.956C48.8766 47.9707 48.4366 47.9853 48.1432 48V47.538C48.6566 47.538 49.0159 47.428 49.2212 47.208C49.4412 46.988 49.5512 46.57 49.5512 45.954V39.024C49.5512 38.364 49.4486 37.88 49.2432 37.572C49.0526 37.2493 48.6859 37.088 48.1432 37.088V36.626C48.6126 36.67 49.0672 36.692 49.5072 36.692C50.1232 36.692 50.6952 36.67 51.2232 36.626C51.7659 36.5673 52.2646 36.4867 52.7192 36.384ZM62.6507 36.318C63.12 36.318 63.5014 36.4207 63.7947 36.626C64.088 36.8167 64.3007 37.066 64.4327 37.374C64.5794 37.682 64.6527 38.0047 64.6527 38.342C64.6527 38.8847 64.4914 39.332 64.1687 39.684C63.8607 40.0213 63.45 40.19 62.9367 40.19C62.4234 40.19 62.02 40.0653 61.7267 39.816C61.448 39.552 61.3087 39.2073 61.3087 38.782C61.3087 38.3713 61.3967 38.034 61.5727 37.77C61.7634 37.4913 61.998 37.2567 62.2767 37.066C62.0714 37.0073 61.866 37.0147 61.6607 37.088C61.382 37.132 61.118 37.2493 60.8687 37.44C60.6194 37.616 60.4067 37.8433 60.2307 38.122C60.0547 38.386 59.9154 38.6793 59.8127 39.002C59.71 39.31 59.6587 39.6107 59.6587 39.904V45.734C59.6587 46.438 59.8274 46.9147 60.1647 47.164C60.5167 47.4133 61.0374 47.538 61.7267 47.538V48C61.3894 47.9853 60.898 47.9707 60.2527 47.956C59.6074 47.9267 58.9327 47.912 58.2287 47.912C57.642 47.912 57.048 47.9267 56.4467 47.956C55.8454 47.9707 55.3907 47.9853 55.0827 48V47.538C55.596 47.538 55.9554 47.428 56.1607 47.208C56.3807 46.988 56.4907 46.57 56.4907 45.954V39.024C56.4907 38.364 56.388 37.88 56.1827 37.572C55.992 37.2493 55.6254 37.088 55.0827 37.088V36.626C55.552 36.67 56.0067 36.692 56.4467 36.692C57.0627 36.692 57.6347 36.67 58.1627 36.626C58.7054 36.5673 59.204 36.4867 59.6587 36.384V38.43C59.8347 38.034 60.0694 37.6747 60.3627 37.352C60.656 37.0293 60.9934 36.78 61.3747 36.604C61.756 36.4133 62.1814 36.318 62.6507 36.318ZM70.7274 36.318C72.0181 36.318 73.0301 36.6993 73.7634 37.462C74.4968 38.2247 74.8634 39.4713 74.8634 41.202H67.6254L67.5814 40.784H72.0914C72.1061 40.0653 72.0621 39.4053 71.9594 38.804C71.8568 38.188 71.6954 37.6967 71.4754 37.33C71.2554 36.9633 70.9621 36.78 70.5954 36.78C70.0821 36.78 69.6421 37.1027 69.2754 37.748C68.9234 38.3933 68.7108 39.464 68.6374 40.96L68.7034 41.092C68.6888 41.268 68.6741 41.4513 68.6594 41.642C68.6594 41.8327 68.6594 42.0307 68.6594 42.236C68.6594 43.248 68.7988 44.0693 69.0774 44.7C69.3708 45.3307 69.7374 45.7927 70.1774 46.086C70.6174 46.3647 71.0648 46.504 71.5194 46.504C71.8274 46.504 72.1428 46.46 72.4654 46.372C72.8028 46.2693 73.1401 46.0933 73.4774 45.844C73.8148 45.58 74.1301 45.2133 74.4234 44.744L74.8194 44.876C74.6434 45.4333 74.3648 45.976 73.9834 46.504C73.6021 47.032 73.1181 47.4647 72.5314 47.802C71.9448 48.1393 71.2408 48.308 70.4194 48.308C69.4221 48.308 68.5421 48.0953 67.7794 47.67C67.0168 47.2447 66.4154 46.5993 65.9754 45.734C65.5501 44.8687 65.3374 43.7687 65.3374 42.434C65.3374 41.07 65.5648 39.9333 66.0194 39.024C66.4888 38.1147 67.1268 37.44 67.9334 37C68.7548 36.5453 69.6861 36.318 70.7274 36.318ZM81.9454 30.796C82.4587 30.796 82.906 30.862 83.2874 30.994C83.6687 31.126 84.006 31.302 84.2994 31.522C84.5047 31.6833 84.6807 31.9107 84.8274 32.204C84.974 32.4827 85.0474 32.8053 85.0474 33.172C85.0474 33.568 84.9007 33.92 84.6074 34.228C84.3287 34.536 83.9547 34.69 83.4854 34.69C83.0014 34.69 82.598 34.5507 82.2754 34.272C81.9674 33.9933 81.8134 33.612 81.8134 33.128C81.8134 32.7467 81.9234 32.4093 82.1434 32.116C82.3634 31.8227 82.686 31.6173 83.1114 31.5C83.0674 31.412 82.9794 31.3387 82.8474 31.28C82.7154 31.2213 82.5394 31.192 82.3194 31.192C82.026 31.192 81.784 31.2433 81.5934 31.346C81.4027 31.4487 81.2487 31.588 81.1314 31.764C80.97 31.984 80.86 32.3067 80.8014 32.732C80.7427 33.1427 80.7134 33.7807 80.7134 34.646V36.648H83.0674V37.088H80.7134V45.734C80.7134 46.4527 80.8967 46.9367 81.2634 47.186C81.63 47.4207 82.136 47.538 82.7814 47.538V48C82.4 47.9853 81.8647 47.9707 81.1754 47.956C80.486 47.9267 79.76 47.912 78.9974 47.912C78.44 47.912 77.89 47.9267 77.3474 47.956C76.8194 47.9707 76.416 47.9853 76.1374 48V47.538C76.6507 47.538 77.01 47.428 77.2154 47.208C77.4354 46.988 77.5454 46.57 77.5454 45.954V37.088H76.0494V36.648H77.5454C77.5454 35.7827 77.5894 35.064 77.6774 34.492C77.7654 33.9053 77.912 33.4067 78.1174 32.996C78.3227 32.5853 78.594 32.2187 78.9314 31.896C79.254 31.588 79.6794 31.3313 80.2074 31.126C80.75 30.906 81.3294 30.796 81.9454 30.796ZM91.4398 36.318C91.9091 36.318 92.2904 36.4207 92.5838 36.626C92.8771 36.8167 93.0898 37.066 93.2218 37.374C93.3684 37.682 93.4418 38.0047 93.4418 38.342C93.4418 38.8847 93.2804 39.332 92.9578 39.684C92.6498 40.0213 92.2391 40.19 91.7258 40.19C91.2124 40.19 90.8091 40.0653 90.5158 39.816C90.2371 39.552 90.0978 39.2073 90.0978 38.782C90.0978 38.3713 90.1858 38.034 90.3618 37.77C90.5524 37.4913 90.7871 37.2567 91.0658 37.066C90.8604 37.0073 90.6551 37.0147 90.4498 37.088C90.1711 37.132 89.9071 37.2493 89.6578 37.44C89.4084 37.616 89.1958 37.8433 89.0198 38.122C88.8438 38.386 88.7044 38.6793 88.6018 39.002C88.4991 39.31 88.4478 39.6107 88.4478 39.904V45.734C88.4478 46.438 88.6164 46.9147 88.9538 47.164C89.3058 47.4133 89.8264 47.538 90.5158 47.538V48C90.1784 47.9853 89.6871 47.9707 89.0418 47.956C88.3964 47.9267 87.7218 47.912 87.0178 47.912C86.4311 47.912 85.8371 47.9267 85.2358 47.956C84.6344 47.9707 84.1798 47.9853 83.8718 48V47.538C84.3851 47.538 84.7444 47.428 84.9498 47.208C85.1698 46.988 85.2798 46.57 85.2798 45.954V39.024C85.2798 38.364 85.1771 37.88 84.9718 37.572C84.7811 37.2493 84.4144 37.088 83.8718 37.088V36.626C84.3411 36.67 84.7958 36.692 85.2358 36.692C85.8518 36.692 86.4238 36.67 86.9518 36.626C87.4944 36.5673 87.9931 36.4867 88.4478 36.384V38.43C88.6238 38.034 88.8584 37.6747 89.1517 37.352C89.4451 37.0293 89.7824 36.78 90.1638 36.604C90.5451 36.4133 90.9704 36.318 91.4398 36.318ZM97.1773 48.154C96.5173 48.154 95.9673 48.0293 95.5273 47.78C95.0873 47.5307 94.7646 47.2007 94.5593 46.79C94.3539 46.3647 94.2513 45.9027 94.2513 45.404C94.2513 44.7733 94.3906 44.26 94.6693 43.864C94.9626 43.468 95.3366 43.1453 95.7913 42.896C96.2459 42.6467 96.7226 42.4413 97.2213 42.28C97.7346 42.1187 98.2186 41.9647 98.6733 41.818C99.1426 41.6567 99.5166 41.4733 99.7953 41.268C100.089 41.048 100.235 40.7693 100.235 40.432V38.716C100.235 38.3347 100.169 37.9973 100.037 37.704C99.9199 37.396 99.7293 37.1613 99.4653 37C99.2159 36.8387 98.8859 36.758 98.4753 36.758C98.1819 36.758 97.8886 36.802 97.5953 36.89C97.3019 36.9633 97.0599 37.0953 96.8693 37.286C97.2799 37.4327 97.5953 37.66 97.8153 37.968C98.0499 38.2613 98.1673 38.5987 98.1673 38.98C98.1673 39.4787 97.9913 39.8747 97.6393 40.168C97.3019 40.4613 96.8986 40.608 96.4293 40.608C95.9013 40.608 95.4979 40.4467 95.2193 40.124C94.9553 39.7867 94.8233 39.3833 94.8233 38.914C94.8233 38.4887 94.9259 38.1367 95.1313 37.858C95.3513 37.5793 95.6519 37.3153 96.0333 37.066C96.4439 36.8313 96.9353 36.648 97.5073 36.516C98.0939 36.384 98.7246 36.318 99.3993 36.318C100.074 36.318 100.683 36.3913 101.225 36.538C101.768 36.67 102.223 36.9193 102.589 37.286C102.927 37.6233 103.147 38.0413 103.249 38.54C103.352 39.024 103.403 39.64 103.403 40.388V46.372C103.403 46.7387 103.44 46.9953 103.513 47.142C103.587 47.274 103.711 47.34 103.887 47.34C104.019 47.34 104.144 47.3033 104.261 47.23C104.393 47.1567 104.533 47.0687 104.679 46.966L104.899 47.34C104.591 47.604 104.232 47.8093 103.821 47.956C103.425 48.088 102.978 48.154 102.479 48.154C101.937 48.154 101.504 48.0807 101.181 47.934C100.859 47.7727 100.624 47.56 100.477 47.296C100.345 47.032 100.279 46.724 100.279 46.372C99.9273 46.9293 99.5019 47.3693 99.0033 47.692C98.5046 48 97.8959 48.154 97.1773 48.154ZM98.7393 46.746C99.0326 46.746 99.2966 46.68 99.5313 46.548C99.7806 46.4013 100.015 46.1667 100.235 45.844V41.334C100.103 41.554 99.9199 41.752 99.6853 41.928C99.4506 42.104 99.2013 42.2873 98.9373 42.478C98.6733 42.654 98.4166 42.852 98.1673 43.072C97.9326 43.292 97.7419 43.5633 97.5953 43.886C97.4486 44.2087 97.3753 44.5973 97.3753 45.052C97.3753 45.624 97.4999 46.0493 97.7493 46.328C97.9986 46.6067 98.3286 46.746 98.7393 46.746ZM113.514 36.318C114.13 36.318 114.629 36.3987 115.01 36.56C115.391 36.7067 115.699 36.912 115.934 37.176C116.169 37.4547 116.337 37.8213 116.44 38.276C116.543 38.716 116.594 39.3027 116.594 40.036V45.954C116.594 46.57 116.689 46.988 116.88 47.208C117.071 47.428 117.401 47.538 117.87 47.538V48C117.606 47.9853 117.203 47.9707 116.66 47.956C116.132 47.9267 115.611 47.912 115.098 47.912C114.57 47.912 114.049 47.9267 113.536 47.956C113.023 47.9707 112.634 47.9853 112.37 48V47.538C112.766 47.538 113.037 47.428 113.184 47.208C113.345 46.988 113.426 46.57 113.426 45.954V39.112C113.426 38.7453 113.397 38.43 113.338 38.166C113.279 37.8873 113.162 37.6747 112.986 37.528C112.825 37.3667 112.575 37.286 112.238 37.286C111.857 37.286 111.505 37.396 111.182 37.616C110.859 37.836 110.595 38.144 110.39 38.54C110.199 38.9213 110.104 39.354 110.104 39.838V45.954C110.104 46.57 110.185 46.988 110.346 47.208C110.507 47.428 110.779 47.538 111.16 47.538V48C110.925 47.9853 110.559 47.9707 110.06 47.956C109.576 47.9267 109.077 47.912 108.564 47.912C108.007 47.912 107.435 47.9267 106.848 47.956C106.261 47.9707 105.821 47.9853 105.528 48V47.538C106.041 47.538 106.401 47.428 106.606 47.208C106.826 46.988 106.936 46.57 106.936 45.954V39.024C106.936 38.364 106.833 37.88 106.628 37.572C106.437 37.2493 106.071 37.088 105.528 37.088V36.626C105.997 36.67 106.452 36.692 106.892 36.692C107.508 36.692 108.08 36.67 108.608 36.626C109.151 36.5673 109.649 36.4867 110.104 36.384V38.364C110.456 37.6307 110.933 37.11 111.534 36.802C112.135 36.4793 112.795 36.318 113.514 36.318ZM120.136 36.318C120.752 36.318 121.251 36.3987 121.632 36.56C122.013 36.7067 122.321 36.912 122.556 37.176C122.791 37.4547 122.959 37.8213 123.062 38.276C123.165 38.716 123.216 39.3027 123.216 40.036V45.954C123.216 46.57 123.319 46.988 123.524 47.208C123.744 47.428 124.111 47.538 124.624 47.538V48C124.345 47.9853 123.927 47.9707 123.37 47.956C122.813 47.9267 122.263 47.912 121.72 47.912C121.192 47.912 120.671 47.9267 120.158 47.956C119.645 47.9707 119.256 47.9853 118.992 48V47.538C119.388 47.538 119.659 47.428 119.806 47.208C119.967 46.988 120.048 46.57 120.048 45.954V39.112C120.048 38.7453 120.011 38.43 119.938 38.166C119.879 37.8873 119.755 37.6747 119.564 37.528C119.388 37.3667 119.109 37.286 118.728 37.286C118.347 37.286 117.995 37.4033 117.672 37.638C117.349 37.8727 117.085 38.188 116.88 38.584C116.689 38.98 116.587 39.42 116.572 39.904L116.462 38.562C116.858 37.682 117.379 37.088 118.024 36.78C118.684 36.472 119.388 36.318 120.136 36.318ZM131.12 36.318C132.411 36.318 133.423 36.6993 134.156 37.462C134.889 38.2247 135.256 39.4713 135.256 41.202H128.018L127.974 40.784H132.484C132.499 40.0653 132.455 39.4053 132.352 38.804C132.249 38.188 132.088 37.6967 131.868 37.33C131.648 36.9633 131.355 36.78 130.988 36.78C130.475 36.78 130.035 37.1027 129.668 37.748C129.316 38.3933 129.103 39.464 129.03 40.96L129.096 41.092C129.081 41.268 129.067 41.4513 129.052 41.642C129.052 41.8327 129.052 42.0307 129.052 42.236C129.052 43.248 129.191 44.0693 129.47 44.7C129.763 45.3307 130.13 45.7927 130.57 46.086C131.01 46.3647 131.457 46.504 131.912 46.504C132.22 46.504 132.535 46.46 132.858 46.372C133.195 46.2693 133.533 46.0933 133.87 45.844C134.207 45.58 134.523 45.2133 134.816 44.744L135.212 44.876C135.036 45.4333 134.757 45.976 134.376 46.504C133.995 47.032 133.511 47.4647 132.924 47.802C132.337 48.1393 131.633 48.308 130.812 48.308C129.815 48.308 128.935 48.0953 128.172 47.67C127.409 47.2447 126.808 46.5993 126.368 45.734C125.943 44.8687 125.73 43.7687 125.73 42.434C125.73 41.07 125.957 39.9333 126.412 39.024C126.881 38.1147 127.519 37.44 128.326 37C129.147 36.5453 130.079 36.318 131.12 36.318ZM140.886 36.318C141.502 36.318 142.037 36.3987 142.492 36.56C142.961 36.7067 143.299 36.8533 143.504 37C144.003 37.3373 144.311 37.1173 144.428 36.34H144.89C144.861 36.7507 144.839 37.2567 144.824 37.858C144.809 38.4447 144.802 39.2293 144.802 40.212H144.34C144.267 39.6693 144.127 39.134 143.922 38.606C143.717 38.078 143.416 37.6453 143.02 37.308C142.639 36.9707 142.14 36.802 141.524 36.802C141.099 36.802 140.739 36.9267 140.446 37.176C140.153 37.4107 140.006 37.7553 140.006 38.21C140.006 38.65 140.138 39.0387 140.402 39.376C140.666 39.6987 141.003 40.014 141.414 40.322C141.839 40.6153 142.279 40.9307 142.734 41.268C143.218 41.6347 143.658 42.0013 144.054 42.368C144.45 42.72 144.765 43.1087 145 43.534C145.235 43.9593 145.352 44.4653 145.352 45.052C145.352 45.712 145.161 46.2913 144.78 46.79C144.399 47.274 143.893 47.648 143.262 47.912C142.646 48.176 141.957 48.308 141.194 48.308C140.754 48.308 140.358 48.264 140.006 48.176C139.669 48.088 139.375 47.978 139.126 47.846C138.935 47.758 138.752 47.6773 138.576 47.604C138.415 47.516 138.261 47.4427 138.114 47.384C137.967 47.34 137.835 47.3913 137.718 47.538C137.615 47.6847 137.535 47.89 137.476 48.154H137.014C137.043 47.6847 137.065 47.1127 137.08 46.438C137.095 45.7633 137.102 44.8687 137.102 43.754H137.564C137.652 44.546 137.813 45.25 138.048 45.866C138.283 46.4673 138.598 46.944 138.994 47.296C139.405 47.6333 139.918 47.802 140.534 47.802C140.783 47.802 141.025 47.7507 141.26 47.648C141.495 47.5453 141.685 47.3767 141.832 47.142C141.993 46.9073 142.074 46.6067 142.074 46.24C142.074 45.5947 141.861 45.0593 141.436 44.634C141.025 44.2087 140.497 43.7467 139.852 43.248C139.383 42.8667 138.935 42.4927 138.51 42.126C138.099 41.7447 137.762 41.334 137.498 40.894C137.234 40.4393 137.102 39.926 137.102 39.354C137.102 38.694 137.278 38.1367 137.63 37.682C137.982 37.2273 138.444 36.89 139.016 36.67C139.603 36.4353 140.226 36.318 140.886 36.318ZM157.503 36.318C158.793 36.318 159.805 36.6993 160.539 37.462C161.272 38.2247 161.639 39.4713 161.639 41.202H154.401L154.357 40.784H158.867C158.881 40.0653 158.837 39.4053 158.735 38.804C158.632 38.188 158.471 37.6967 158.251 37.33C158.031 36.9633 157.737 36.78 157.371 36.78C156.857 36.78 156.417 37.1027 156.051 37.748C155.699 38.3933 155.486 39.464 155.413 40.96L155.479 41.092C155.464 41.268 155.449 41.4513 155.435 41.642C155.435 41.8327 155.435 42.0307 155.435 42.236C155.435 43.248 155.574 44.0693 155.853 44.7C156.146 45.3307 156.513 45.7927 156.953 46.086C157.393 46.3647 157.84 46.504 158.295 46.504C158.603 46.504 158.918 46.46 159.241 46.372C159.578 46.2693 159.915 46.0933 160.253 45.844C160.59 45.58 160.905 45.2133 161.199 44.744L161.595 44.876C161.419 45.4333 161.14 45.976 160.759 46.504C160.377 47.032 159.893 47.4647 159.307 47.802C158.72 48.1393 158.016 48.308 157.195 48.308C156.197 48.308 155.317 48.0953 154.555 47.67C153.792 47.2447 153.191 46.5993 152.751 45.734C152.325 44.8687 152.113 43.7687 152.113 42.434C152.113 41.07 152.34 39.9333 152.795 39.024C153.264 38.1147 153.902 37.44 154.709 37C155.53 36.5453 156.461 36.318 157.503 36.318ZM170.352 36.318C170.821 36.318 171.203 36.4207 171.496 36.626C171.789 36.8167 172.002 37.066 172.134 37.374C172.281 37.682 172.354 38.0047 172.354 38.342C172.354 38.8847 172.193 39.332 171.87 39.684C171.562 40.0213 171.151 40.19 170.638 40.19C170.125 40.19 169.721 40.0653 169.428 39.816C169.149 39.552 169.01 39.2073 169.01 38.782C169.01 38.3713 169.098 38.034 169.274 37.77C169.465 37.4913 169.699 37.2567 169.978 37.066C169.773 37.0073 169.567 37.0147 169.362 37.088C169.083 37.132 168.819 37.2493 168.57 37.44C168.321 37.616 168.108 37.8433 167.932 38.122C167.756 38.386 167.617 38.6793 167.514 39.002C167.411 39.31 167.36 39.6107 167.36 39.904V45.734C167.36 46.438 167.529 46.9147 167.866 47.164C168.218 47.4133 168.739 47.538 169.428 47.538V48C169.091 47.9853 168.599 47.9707 167.954 47.956C167.309 47.9267 166.634 47.912 165.93 47.912C165.343 47.912 164.749 47.9267 164.148 47.956C163.547 47.9707 163.092 47.9853 162.784 48V47.538C163.297 47.538 163.657 47.428 163.862 47.208C164.082 46.988 164.192 46.57 164.192 45.954V39.024C164.192 38.364 164.089 37.88 163.884 37.572C163.693 37.2493 163.327 37.088 162.784 37.088V36.626C163.253 36.67 163.708 36.692 164.148 36.692C164.764 36.692 165.336 36.67 165.864 36.626C166.407 36.5673 166.905 36.4867 167.36 36.384V38.43C167.536 38.034 167.771 37.6747 168.064 37.352C168.357 37.0293 168.695 36.78 169.076 36.604C169.457 36.4133 169.883 36.318 170.352 36.318ZM24.2552 56.95C24.8712 56.95 25.3552 57.104 25.7072 57.412C26.0739 57.7053 26.2572 58.116 26.2572 58.644C26.2572 59.172 26.0739 59.59 25.7072 59.898C25.3552 60.1913 24.8712 60.338 24.2552 60.338C23.6392 60.338 23.1479 60.1913 22.7812 59.898C22.4292 59.59 22.2532 59.172 22.2532 58.644C22.2532 58.116 22.4292 57.7053 22.7812 57.412C23.1479 57.104 23.6392 56.95 24.2552 56.95ZM25.9712 62.384V71.954C25.9712 72.57 26.0739 72.988 26.2792 73.208C26.4992 73.428 26.8659 73.538 27.3792 73.538V74C27.1152 73.9853 26.7045 73.9707 26.1472 73.956C25.5899 73.9267 25.0252 73.912 24.4532 73.912C23.8812 73.912 23.3019 73.9267 22.7152 73.956C22.1285 73.9707 21.6885 73.9853 21.3952 74V73.538C21.9085 73.538 22.2679 73.428 22.4732 73.208C22.6932 72.988 22.8032 72.57 22.8032 71.954V65.024C22.8032 64.364 22.7005 63.88 22.4952 63.572C22.3045 63.2493 21.9379 63.088 21.3952 63.088V62.626C21.8645 62.67 22.3192 62.692 22.7592 62.692C23.3752 62.692 23.9472 62.67 24.4752 62.626C25.0179 62.5673 25.5165 62.4867 25.9712 62.384ZM32.8006 56.774V71.954C32.8006 72.57 32.896 72.988 33.0866 73.208C33.292 73.428 33.6366 73.538 34.1206 73.538V74C33.842 73.9853 33.4313 73.9707 32.8886 73.956C32.3606 73.9267 31.818 73.912 31.2606 73.912C30.6886 73.912 30.1093 73.9267 29.5226 73.956C28.9506 73.9707 28.518 73.9853 28.2246 74V73.538C28.738 73.538 29.0973 73.428 29.3026 73.208C29.5226 72.988 29.6326 72.57 29.6326 71.954V59.414C29.6326 58.754 29.53 58.27 29.3246 57.962C29.134 57.6393 28.7673 57.478 28.2246 57.478V57.016C28.694 57.06 29.1486 57.082 29.5886 57.082C30.19 57.082 30.762 57.06 31.3046 57.016C31.8473 56.9573 32.346 56.8767 32.8006 56.774ZM39.9726 62.626V63.066C39.518 63.154 39.0633 63.3447 38.6086 63.638C38.154 63.9313 37.692 64.3053 37.2226 64.76L35.5286 66.52L35.7486 66.102L39.5106 72.394C39.672 72.658 39.8406 72.8927 40.0166 73.098C40.1926 73.3033 40.4053 73.45 40.6546 73.538V74C40.4346 73.9853 40.1046 73.9707 39.6646 73.956C39.2246 73.9267 38.7846 73.912 38.3446 73.912C37.802 73.912 37.2593 73.9267 36.7166 73.956C36.174 73.9707 35.7706 73.9853 35.5066 74V73.538C35.8 73.538 35.998 73.472 36.1006 73.34C36.2033 73.1933 36.1886 73.01 36.0566 72.79L33.8786 68.852C33.7026 68.5733 33.5266 68.3973 33.3506 68.324C33.1893 68.236 32.9693 68.1847 32.6906 68.17V67.752C32.9986 67.7227 33.2626 67.6713 33.4826 67.598C33.7173 67.5247 33.93 67.3853 34.1206 67.18L35.7926 65.552C36.2913 65.0827 36.5406 64.6647 36.5406 64.298C36.5406 63.9313 36.3793 63.638 36.0566 63.418C35.7486 63.198 35.338 63.0807 34.8246 63.066V62.626C35.2353 62.6407 35.6826 62.6553 36.1666 62.67C36.6506 62.6847 37.0613 62.692 37.3986 62.692C37.692 62.692 38 62.692 38.3226 62.692C38.66 62.6773 38.9753 62.67 39.2686 62.67C39.562 62.6553 39.7966 62.6407 39.9726 62.626ZM45.1327 56.774V71.954C45.1327 72.57 45.228 72.988 45.4187 73.208C45.624 73.428 45.9687 73.538 46.4527 73.538V74C46.174 73.9853 45.7633 73.9707 45.2207 73.956C44.6927 73.9267 44.15 73.912 43.5927 73.912C43.0207 73.912 42.4413 73.9267 41.8547 73.956C41.2827 73.9707 40.85 73.9853 40.5567 74V73.538C41.07 73.538 41.4293 73.428 41.6347 73.208C41.8547 72.988 41.9647 72.57 41.9647 71.954V59.414C41.9647 58.754 41.862 58.27 41.6567 57.962C41.466 57.6393 41.0993 57.478 40.5567 57.478V57.016C41.026 57.06 41.4807 57.082 41.9207 57.082C42.522 57.082 43.094 57.06 43.6367 57.016C44.1793 56.9573 44.678 56.8767 45.1327 56.774ZM52.3047 62.626V63.066C51.85 63.154 51.3953 63.3447 50.9407 63.638C50.486 63.9313 50.024 64.3053 49.5547 64.76L47.8607 66.52L48.0807 66.102L51.8427 72.394C52.004 72.658 52.1727 72.8927 52.3487 73.098C52.5247 73.3033 52.7373 73.45 52.9867 73.538V74C52.7667 73.9853 52.4367 73.9707 51.9967 73.956C51.5567 73.9267 51.1167 73.912 50.6767 73.912C50.134 73.912 49.5913 73.9267 49.0487 73.956C48.506 73.9707 48.1027 73.9853 47.8387 74V73.538C48.132 73.538 48.33 73.472 48.4327 73.34C48.5353 73.1933 48.5207 73.01 48.3887 72.79L46.2107 68.852C46.0347 68.5733 45.8587 68.3973 45.6827 68.324C45.5213 68.236 45.3013 68.1847 45.0227 68.17V67.752C45.3307 67.7227 45.5947 67.6713 45.8147 67.598C46.0493 67.5247 46.262 67.3853 46.4527 67.18L48.1247 65.552C48.6233 65.0827 48.8727 64.6647 48.8727 64.298C48.8727 63.9313 48.7113 63.638 48.3887 63.418C48.0807 63.198 47.67 63.0807 47.1567 63.066V62.626C47.5673 62.6407 48.0147 62.6553 48.4987 62.67C48.9827 62.6847 49.3933 62.692 49.7307 62.692C50.024 62.692 50.332 62.692 50.6547 62.692C50.992 62.6773 51.3073 62.67 51.6007 62.67C51.894 62.6553 52.1287 62.6407 52.3047 62.626ZM58.6962 62.318C59.9869 62.318 60.9989 62.6993 61.7322 63.462C62.4655 64.2247 62.8322 65.4713 62.8322 67.202H55.5942L55.5502 66.784H60.0602C60.0749 66.0653 60.0309 65.4053 59.9282 64.804C59.8255 64.188 59.6642 63.6967 59.4442 63.33C59.2242 62.9633 58.9309 62.78 58.5642 62.78C58.0509 62.78 57.6109 63.1027 57.2442 63.748C56.8922 64.3933 56.6795 65.464 56.6062 66.96L56.6722 67.092C56.6575 67.268 56.6429 67.4513 56.6282 67.642C56.6282 67.8327 56.6282 68.0307 56.6282 68.236C56.6282 69.248 56.7675 70.0693 57.0462 70.7C57.3395 71.3307 57.7062 71.7927 58.1462 72.086C58.5862 72.3647 59.0335 72.504 59.4882 72.504C59.7962 72.504 60.1115 72.46 60.4342 72.372C60.7715 72.2693 61.1089 72.0933 61.4462 71.844C61.7835 71.58 62.0989 71.2133 62.3922 70.744L62.7882 70.876C62.6122 71.4333 62.3335 71.976 61.9522 72.504C61.5709 73.032 61.0869 73.4647 60.5002 73.802C59.9135 74.1393 59.2095 74.308 58.3882 74.308C57.3909 74.308 56.5109 74.0953 55.7482 73.67C54.9855 73.2447 54.3842 72.5993 53.9442 71.734C53.5189 70.8687 53.3062 69.7687 53.3062 68.434C53.3062 67.07 53.5335 65.9333 53.9882 65.024C54.4575 64.1147 55.0955 63.44 55.9022 63C56.7235 62.5453 57.6549 62.318 58.6962 62.318ZM80.0649 56.774V71.58C80.0649 72.24 80.1676 72.7313 80.3729 73.054C80.5782 73.362 80.9449 73.516 81.4729 73.516V73.978C81.0182 73.934 80.5636 73.912 80.1089 73.912C79.4929 73.912 78.9136 73.934 78.3709 73.978C77.8429 74.022 77.3516 74.1027 76.8969 74.22V59.414C76.8969 58.754 76.7942 58.27 76.5889 57.962C76.3982 57.6393 76.0316 57.478 75.4889 57.478V57.016C75.9582 57.06 76.4129 57.082 76.8529 57.082C77.4542 57.082 78.0262 57.06 78.5689 57.016C79.1116 56.9573 79.6102 56.8767 80.0649 56.774ZM74.4549 62.318C75.1002 62.318 75.6649 62.428 76.1489 62.648C76.6476 62.8533 77.0362 63.2053 77.3149 63.704L77.0509 63.946C76.8602 63.594 76.6036 63.3447 76.2809 63.198C75.9729 63.0367 75.6429 62.956 75.2909 62.956C74.5429 62.956 73.9489 63.396 73.5089 64.276C73.0689 65.1413 72.8562 66.4833 72.8709 68.302C72.8709 69.5487 72.9516 70.546 73.1129 71.294C73.2889 72.0273 73.5309 72.5553 73.8389 72.878C74.1616 73.2007 74.5282 73.362 74.9389 73.362C75.4376 73.362 75.8849 73.164 76.2809 72.768C76.6769 72.372 76.8896 71.8367 76.9189 71.162L77.0289 71.932C76.8089 72.7093 76.4496 73.3033 75.9509 73.714C75.4669 74.11 74.8289 74.308 74.0369 74.308C73.1716 74.308 72.3942 74.0953 71.7049 73.67C71.0302 73.2447 70.5022 72.592 70.1209 71.712C69.7396 70.8173 69.5489 69.666 69.5489 68.258C69.5489 66.9233 69.7616 65.8233 70.1869 64.958C70.6122 64.078 71.1916 63.418 71.9249 62.978C72.6729 62.538 73.5162 62.318 74.4549 62.318ZM88.0653 62.318C89.356 62.318 90.368 62.6993 91.1013 63.462C91.8347 64.2247 92.2013 65.4713 92.2013 67.202H84.9633L84.9193 66.784H89.4293C89.444 66.0653 89.4 65.4053 89.2973 64.804C89.1947 64.188 89.0333 63.6967 88.8133 63.33C88.5933 62.9633 88.3 62.78 87.9333 62.78C87.42 62.78 86.98 63.1027 86.6133 63.748C86.2613 64.3933 86.0487 65.464 85.9753 66.96L86.0413 67.092C86.0267 67.268 86.012 67.4513 85.9973 67.642C85.9973 67.8327 85.9973 68.0307 85.9973 68.236C85.9973 69.248 86.1367 70.0693 86.4153 70.7C86.7087 71.3307 87.0753 71.7927 87.5153 72.086C87.9553 72.3647 88.4027 72.504 88.8573 72.504C89.1653 72.504 89.4807 72.46 89.8033 72.372C90.1407 72.2693 90.478 72.0933 90.8153 71.844C91.1527 71.58 91.468 71.2133 91.7613 70.744L92.1573 70.876C91.9813 71.4333 91.7027 71.976 91.3213 72.504C90.94 73.032 90.456 73.4647 89.8693 73.802C89.2827 74.1393 88.5787 74.308 87.7573 74.308C86.76 74.308 85.88 74.0953 85.1173 73.67C84.3547 73.2447 83.7533 72.5993 83.3133 71.734C82.888 70.8687 82.6753 69.7687 82.6753 68.434C82.6753 67.07 82.9027 65.9333 83.3573 65.024C83.8267 64.1147 84.4647 63.44 85.2713 63C86.0927 62.5453 87.024 62.318 88.0653 62.318ZM97.9413 59.018V62.626H100.537V63.066H97.9413V71.954C97.9413 72.394 98.0219 72.7093 98.1833 72.9C98.3446 73.076 98.5866 73.164 98.9093 73.164C99.1733 73.164 99.4373 73.0687 99.7013 72.878C99.9653 72.6727 100.2 72.328 100.405 71.844L100.779 72.042C100.545 72.702 100.185 73.2447 99.7013 73.67C99.2319 74.0953 98.5866 74.308 97.7653 74.308C97.2813 74.308 96.8559 74.242 96.4893 74.11C96.1226 73.9927 95.8146 73.8093 95.5653 73.56C95.2426 73.2373 95.0299 72.8413 94.9273 72.372C94.8246 71.888 94.7733 71.2647 94.7733 70.502V63.066H92.9253V62.626H94.7733V59.722C95.3893 59.722 95.9539 59.6707 96.4673 59.568C96.9953 59.4507 97.4866 59.2673 97.9413 59.018ZM110.55 62.318C111.166 62.318 111.701 62.3987 112.156 62.56C112.625 62.7067 112.963 62.8533 113.168 63C113.667 63.3373 113.975 63.1173 114.092 62.34H114.554C114.525 62.7507 114.503 63.2567 114.488 63.858C114.473 64.4447 114.466 65.2293 114.466 66.212H114.004C113.931 65.6693 113.791 65.134 113.586 64.606C113.381 64.078 113.08 63.6453 112.684 63.308C112.303 62.9707 111.804 62.802 111.188 62.802C110.763 62.802 110.403 62.9267 110.11 63.176C109.817 63.4107 109.67 63.7553 109.67 64.21C109.67 64.65 109.802 65.0387 110.066 65.376C110.33 65.6987 110.667 66.014 111.078 66.322C111.503 66.6153 111.943 66.9307 112.398 67.268C112.882 67.6347 113.322 68.0013 113.718 68.368C114.114 68.72 114.429 69.1087 114.664 69.534C114.899 69.9593 115.016 70.4653 115.016 71.052C115.016 71.712 114.825 72.2913 114.444 72.79C114.063 73.274 113.557 73.648 112.926 73.912C112.31 74.176 111.621 74.308 110.858 74.308C110.418 74.308 110.022 74.264 109.67 74.176C109.333 74.088 109.039 73.978 108.79 73.846C108.599 73.758 108.416 73.6773 108.24 73.604C108.079 73.516 107.925 73.4427 107.778 73.384C107.631 73.34 107.499 73.3913 107.382 73.538C107.279 73.6847 107.199 73.89 107.14 74.154H106.678C106.707 73.6847 106.729 73.1127 106.744 72.438C106.759 71.7633 106.766 70.8687 106.766 69.754H107.228C107.316 70.546 107.477 71.25 107.712 71.866C107.947 72.4673 108.262 72.944 108.658 73.296C109.069 73.6333 109.582 73.802 110.198 73.802C110.447 73.802 110.689 73.7507 110.924 73.648C111.159 73.5453 111.349 73.3767 111.496 73.142C111.657 72.9073 111.738 72.6067 111.738 72.24C111.738 71.5947 111.525 71.0593 111.1 70.634C110.689 70.2087 110.161 69.7467 109.516 69.248C109.047 68.8667 108.599 68.4927 108.174 68.126C107.763 67.7447 107.426 67.334 107.162 66.894C106.898 66.4393 106.766 65.926 106.766 65.354C106.766 64.694 106.942 64.1367 107.294 63.682C107.646 63.2273 108.108 62.89 108.68 62.67C109.267 62.4353 109.89 62.318 110.55 62.318ZM119.392 74.154C118.732 74.154 118.182 74.0293 117.742 73.78C117.302 73.5307 116.979 73.2007 116.774 72.79C116.569 72.3647 116.466 71.9027 116.466 71.404C116.466 70.7733 116.605 70.26 116.884 69.864C117.177 69.468 117.551 69.1453 118.006 68.896C118.461 68.6467 118.937 68.4413 119.436 68.28C119.949 68.1187 120.433 67.9647 120.888 67.818C121.357 67.6567 121.731 67.4733 122.01 67.268C122.303 67.048 122.45 66.7693 122.45 66.432V64.716C122.45 64.3347 122.384 63.9973 122.252 63.704C122.135 63.396 121.944 63.1613 121.68 63C121.431 62.8387 121.101 62.758 120.69 62.758C120.397 62.758 120.103 62.802 119.81 62.89C119.517 62.9633 119.275 63.0953 119.084 63.286C119.495 63.4327 119.81 63.66 120.03 63.968C120.265 64.2613 120.382 64.5987 120.382 64.98C120.382 65.4787 120.206 65.8747 119.854 66.168C119.517 66.4613 119.113 66.608 118.644 66.608C118.116 66.608 117.713 66.4467 117.434 66.124C117.17 65.7867 117.038 65.3833 117.038 64.914C117.038 64.4887 117.141 64.1367 117.346 63.858C117.566 63.5793 117.867 63.3153 118.248 63.066C118.659 62.8313 119.15 62.648 119.722 62.516C120.309 62.384 120.939 62.318 121.614 62.318C122.289 62.318 122.897 62.3913 123.44 62.538C123.983 62.67 124.437 62.9193 124.804 63.286C125.141 63.6233 125.361 64.0413 125.464 64.54C125.567 65.024 125.618 65.64 125.618 66.388V72.372C125.618 72.7387 125.655 72.9953 125.728 73.142C125.801 73.274 125.926 73.34 126.102 73.34C126.234 73.34 126.359 73.3033 126.476 73.23C126.608 73.1567 126.747 73.0687 126.894 72.966L127.114 73.34C126.806 73.604 126.447 73.8093 126.036 73.956C125.64 74.088 125.193 74.154 124.694 74.154C124.151 74.154 123.719 74.0807 123.396 73.934C123.073 73.7727 122.839 73.56 122.692 73.296C122.56 73.032 122.494 72.724 122.494 72.372C122.142 72.9293 121.717 73.3693 121.218 73.692C120.719 74 120.111 74.154 119.392 74.154ZM120.954 72.746C121.247 72.746 121.511 72.68 121.746 72.548C121.995 72.4013 122.23 72.1667 122.45 71.844V67.334C122.318 67.554 122.135 67.752 121.9 67.928C121.665 68.104 121.416 68.2873 121.152 68.478C120.888 68.654 120.631 68.852 120.382 69.072C120.147 69.292 119.957 69.5633 119.81 69.886C119.663 70.2087 119.59 70.5973 119.59 71.052C119.59 71.624 119.715 72.0493 119.964 72.328C120.213 72.6067 120.543 72.746 120.954 72.746ZM135.729 62.318C136.345 62.318 136.844 62.3987 137.225 62.56C137.606 62.7067 137.914 62.912 138.149 63.176C138.384 63.4547 138.552 63.8213 138.655 64.276C138.758 64.716 138.809 65.3027 138.809 66.036V71.954C138.809 72.57 138.904 72.988 139.095 73.208C139.286 73.428 139.616 73.538 140.085 73.538V74C139.821 73.9853 139.418 73.9707 138.875 73.956C138.347 73.9267 137.826 73.912 137.313 73.912C136.785 73.912 136.264 73.9267 135.751 73.956C135.238 73.9707 134.849 73.9853 134.585 74V73.538C134.981 73.538 135.252 73.428 135.399 73.208C135.56 72.988 135.641 72.57 135.641 71.954V65.112C135.641 64.7453 135.612 64.43 135.553 64.166C135.494 63.8873 135.377 63.6747 135.201 63.528C135.04 63.3667 134.79 63.286 134.453 63.286C134.072 63.286 133.72 63.396 133.397 63.616C133.074 63.836 132.81 64.144 132.605 64.54C132.414 64.9213 132.319 65.354 132.319 65.838V71.954C132.319 72.57 132.4 72.988 132.561 73.208C132.722 73.428 132.994 73.538 133.375 73.538V74C133.14 73.9853 132.774 73.9707 132.275 73.956C131.791 73.9267 131.292 73.912 130.779 73.912C130.222 73.912 129.65 73.9267 129.063 73.956C128.476 73.9707 128.036 73.9853 127.743 74V73.538C128.256 73.538 128.616 73.428 128.821 73.208C129.041 72.988 129.151 72.57 129.151 71.954V65.024C129.151 64.364 129.048 63.88 128.843 63.572C128.652 63.2493 128.286 63.088 127.743 63.088V62.626C128.212 62.67 128.667 62.692 129.107 62.692C129.723 62.692 130.295 62.67 130.823 62.626C131.366 62.5673 131.864 62.4867 132.319 62.384V64.364C132.671 63.6307 133.148 63.11 133.749 62.802C134.35 62.4793 135.01 62.318 135.729 62.318ZM142.351 62.318C142.967 62.318 143.466 62.3987 143.847 62.56C144.228 62.7067 144.536 62.912 144.771 63.176C145.006 63.4547 145.174 63.8213 145.277 64.276C145.38 64.716 145.431 65.3027 145.431 66.036V71.954C145.431 72.57 145.534 72.988 145.739 73.208C145.959 73.428 146.326 73.538 146.839 73.538V74C146.56 73.9853 146.142 73.9707 145.585 73.956C145.028 73.9267 144.478 73.912 143.935 73.912C143.407 73.912 142.886 73.9267 142.373 73.956C141.86 73.9707 141.471 73.9853 141.207 74V73.538C141.603 73.538 141.874 73.428 142.021 73.208C142.182 72.988 142.263 72.57 142.263 71.954V65.112C142.263 64.7453 142.226 64.43 142.153 64.166C142.094 63.8873 141.97 63.6747 141.779 63.528C141.603 63.3667 141.324 63.286 140.943 63.286C140.562 63.286 140.21 63.4033 139.887 63.638C139.564 63.8727 139.3 64.188 139.095 64.584C138.904 64.98 138.802 65.42 138.787 65.904L138.677 64.562C139.073 63.682 139.594 63.088 140.239 62.78C140.899 62.472 141.603 62.318 142.351 62.318ZM155.645 62.318C156.261 62.318 156.76 62.3987 157.141 62.56C157.522 62.7067 157.83 62.912 158.065 63.176C158.3 63.4547 158.468 63.8213 158.571 64.276C158.674 64.716 158.725 65.3027 158.725 66.036V71.954C158.725 72.57 158.82 72.988 159.011 73.208C159.202 73.428 159.532 73.538 160.001 73.538V74C159.737 73.9853 159.334 73.9707 158.791 73.956C158.263 73.9267 157.742 73.912 157.229 73.912C156.701 73.912 156.18 73.9267 155.667 73.956C155.154 73.9707 154.765 73.9853 154.501 74V73.538C154.897 73.538 155.168 73.428 155.315 73.208C155.476 72.988 155.557 72.57 155.557 71.954V65.112C155.557 64.7453 155.528 64.43 155.469 64.166C155.41 63.8873 155.293 63.6747 155.117 63.528C154.956 63.3667 154.706 63.286 154.369 63.286C153.988 63.286 153.636 63.396 153.313 63.616C152.99 63.836 152.726 64.144 152.521 64.54C152.33 64.9213 152.235 65.354 152.235 65.838V71.954C152.235 72.57 152.316 72.988 152.477 73.208C152.638 73.428 152.91 73.538 153.291 73.538V74C153.056 73.9853 152.69 73.9707 152.191 73.956C151.707 73.9267 151.208 73.912 150.695 73.912C150.138 73.912 149.566 73.9267 148.979 73.956C148.392 73.9707 147.952 73.9853 147.659 74V73.538C148.172 73.538 148.532 73.428 148.737 73.208C148.957 72.988 149.067 72.57 149.067 71.954V65.024C149.067 64.364 148.964 63.88 148.759 63.572C148.568 63.2493 148.202 63.088 147.659 63.088V62.626C148.128 62.67 148.583 62.692 149.023 62.692C149.639 62.692 150.211 62.67 150.739 62.626C151.282 62.5673 151.78 62.4867 152.235 62.384V64.364C152.587 63.6307 153.064 63.11 153.665 62.802C154.266 62.4793 154.926 62.318 155.645 62.318ZM162.267 62.318C162.883 62.318 163.382 62.3987 163.763 62.56C164.144 62.7067 164.452 62.912 164.687 63.176C164.922 63.4547 165.09 63.8213 165.193 64.276C165.296 64.716 165.347 65.3027 165.347 66.036V71.954C165.347 72.57 165.45 72.988 165.655 73.208C165.875 73.428 166.242 73.538 166.755 73.538V74C166.476 73.9853 166.058 73.9707 165.501 73.956C164.944 73.9267 164.394 73.912 163.851 73.912C163.323 73.912 162.802 73.9267 162.289 73.956C161.776 73.9707 161.387 73.9853 161.123 74V73.538C161.519 73.538 161.79 73.428 161.937 73.208C162.098 72.988 162.179 72.57 162.179 71.954V65.112C162.179 64.7453 162.142 64.43 162.069 64.166C162.01 63.8873 161.886 63.6747 161.695 63.528C161.519 63.3667 161.24 63.286 160.859 63.286C160.478 63.286 160.126 63.4033 159.803 63.638C159.48 63.8727 159.216 64.188 159.011 64.584C158.82 64.98 158.718 65.42 158.703 65.904L158.593 64.562C158.989 63.682 159.51 63.088 160.155 62.78C160.815 62.472 161.519 62.318 162.267 62.318ZM173.251 62.318C174.542 62.318 175.554 62.6993 176.287 63.462C177.02 64.2247 177.387 65.4713 177.387 67.202H170.149L170.105 66.784H174.615C174.63 66.0653 174.586 65.4053 174.483 64.804C174.38 64.188 174.219 63.6967 173.999 63.33C173.779 62.9633 173.486 62.78 173.119 62.78C172.606 62.78 172.166 63.1027 171.799 63.748C171.447 64.3933 171.234 65.464 171.161 66.96L171.227 67.092C171.212 67.268 171.198 67.4513 171.183 67.642C171.183 67.8327 171.183 68.0307 171.183 68.236C171.183 69.248 171.322 70.0693 171.601 70.7C171.894 71.3307 172.261 71.7927 172.701 72.086C173.141 72.3647 173.588 72.504 174.043 72.504C174.351 72.504 174.666 72.46 174.989 72.372C175.326 72.2693 175.664 72.0933 176.001 71.844C176.338 71.58 176.654 71.2133 176.947 70.744L177.343 70.876C177.167 71.4333 176.888 71.976 176.507 72.504C176.126 73.032 175.642 73.4647 175.055 73.802C174.468 74.1393 173.764 74.308 172.943 74.308C171.946 74.308 171.066 74.0953 170.303 73.67C169.54 73.2447 168.939 72.5993 168.499 71.734C168.074 70.8687 167.861 69.7687 167.861 68.434C167.861 67.07 168.088 65.9333 168.543 65.024C169.012 64.1147 169.65 63.44 170.457 63C171.278 62.5453 172.21 62.318 173.251 62.318ZM38.7492 88.318C39.3652 88.318 39.9006 88.3987 40.3552 88.56C40.8246 88.7067 41.1619 88.8533 41.3672 89C41.8659 89.3373 42.1739 89.1173 42.2912 88.34H42.7532C42.7239 88.7507 42.7019 89.2567 42.6872 89.858C42.6726 90.4447 42.6652 91.2293 42.6652 92.212H42.2032C42.1299 91.6693 41.9906 91.134 41.7852 90.606C41.5799 90.078 41.2792 89.6453 40.8832 89.308C40.5019 88.9707 40.0032 88.802 39.3872 88.802C38.9619 88.802 38.6026 88.9267 38.3092 89.176C38.0159 89.4107 37.8692 89.7553 37.8692 90.21C37.8692 90.65 38.0012 91.0387 38.2652 91.376C38.5292 91.6987 38.8666 92.014 39.2772 92.322C39.7026 92.6153 40.1426 92.9307 40.5972 93.268C41.0812 93.6347 41.5212 94.0013 41.9172 94.368C42.3132 94.72 42.6286 95.1087 42.8632 95.534C43.0979 95.9593 43.2152 96.4653 43.2152 97.052C43.2152 97.712 43.0246 98.2913 42.6432 98.79C42.2619 99.274 41.7559 99.648 41.1252 99.912C40.5092 100.176 39.8199 100.308 39.0572 100.308C38.6172 100.308 38.2212 100.264 37.8692 100.176C37.5319 100.088 37.2386 99.978 36.9892 99.846C36.7986 99.758 36.6152 99.6773 36.4392 99.604C36.2779 99.516 36.1239 99.4427 35.9772 99.384C35.8306 99.34 35.6986 99.3913 35.5812 99.538C35.4786 99.6847 35.3979 99.89 35.3392 100.154H34.8772C34.9066 99.6847 34.9286 99.1127 34.9432 98.438C34.9579 97.7633 34.9652 96.8687 34.9652 95.754H35.4272C35.5152 96.546 35.6766 97.25 35.9112 97.866C36.1459 98.4673 36.4612 98.944 36.8572 99.296C37.2679 99.6333 37.7812 99.802 38.3972 99.802C38.6466 99.802 38.8886 99.7507 39.1232 99.648C39.3579 99.5453 39.5486 99.3767 39.6952 99.142C39.8566 98.9073 39.9372 98.6067 39.9372 98.24C39.9372 97.5947 39.7246 97.0593 39.2992 96.634C38.8886 96.2087 38.3606 95.7467 37.7152 95.248C37.2459 94.8667 36.7986 94.4927 36.3732 94.126C35.9626 93.7447 35.6252 93.334 35.3612 92.894C35.0972 92.4393 34.9652 91.926 34.9652 91.354C34.9652 90.694 35.1412 90.1367 35.4932 89.682C35.8452 89.2273 36.3072 88.89 36.8792 88.67C37.4659 88.4353 38.0892 88.318 38.7492 88.318ZM50.2313 88.318C51.302 88.318 52.2407 88.516 53.0473 88.912C53.854 89.308 54.4847 89.946 54.9393 90.826C55.394 91.706 55.6213 92.872 55.6213 94.324C55.6213 95.776 55.394 96.942 54.9393 97.822C54.4847 98.6873 53.854 99.318 53.0473 99.714C52.2407 100.11 51.302 100.308 50.2313 100.308C49.19 100.308 48.2587 100.11 47.4373 99.714C46.6307 99.318 45.9927 98.6873 45.5233 97.822C45.0687 96.942 44.8413 95.776 44.8413 94.324C44.8413 92.872 45.0687 91.706 45.5233 90.826C45.9927 89.946 46.6307 89.308 47.4373 88.912C48.2587 88.516 49.19 88.318 50.2313 88.318ZM50.2313 88.758C49.6447 88.758 49.1533 89.198 48.7573 90.078C48.3613 90.9433 48.1633 92.3587 48.1633 94.324C48.1633 96.2893 48.3613 97.7047 48.7573 98.57C49.1533 99.4353 49.6447 99.868 50.2313 99.868C50.8327 99.868 51.324 99.4353 51.7053 98.57C52.1013 97.7047 52.2993 96.2893 52.2993 94.324C52.2993 92.3587 52.1013 90.9433 51.7053 90.078C51.324 89.198 50.8327 88.758 50.2313 88.758ZM64.9808 88.318C65.5968 88.318 66.0955 88.3987 66.4768 88.56C66.8581 88.7067 67.1661 88.912 67.4008 89.176C67.6355 89.4547 67.8041 89.8213 67.9068 90.276C68.0095 90.716 68.0608 91.3027 68.0608 92.036V97.954C68.0608 98.57 68.1561 98.988 68.3468 99.208C68.5375 99.428 68.8675 99.538 69.3368 99.538V100C69.0728 99.9853 68.6695 99.9707 68.1268 99.956C67.5988 99.9267 67.0781 99.912 66.5648 99.912C66.0368 99.912 65.5161 99.9267 65.0028 99.956C64.4895 99.9707 64.1008 99.9853 63.8368 100V99.538C64.2328 99.538 64.5041 99.428 64.6508 99.208C64.8121 98.988 64.8928 98.57 64.8928 97.954V91.112C64.8928 90.7453 64.8635 90.43 64.8048 90.166C64.7461 89.8873 64.6288 89.6747 64.4528 89.528C64.2915 89.3667 64.0421 89.286 63.7048 89.286C63.3235 89.286 62.9715 89.396 62.6488 89.616C62.3261 89.836 62.0621 90.144 61.8568 90.54C61.6661 90.9213 61.5708 91.354 61.5708 91.838V97.954C61.5708 98.57 61.6515 98.988 61.8128 99.208C61.9741 99.428 62.2455 99.538 62.6268 99.538V100C62.3921 99.9853 62.0255 99.9707 61.5268 99.956C61.0428 99.9267 60.5441 99.912 60.0308 99.912C59.4735 99.912 58.9015 99.9267 58.3148 99.956C57.7281 99.9707 57.2881 99.9853 56.9948 100V99.538C57.5081 99.538 57.8675 99.428 58.0728 99.208C58.2928 98.988 58.4028 98.57 58.4028 97.954V91.024C58.4028 90.364 58.3001 89.88 58.0948 89.572C57.9041 89.2493 57.5375 89.088 56.9948 89.088V88.626C57.4641 88.67 57.9188 88.692 58.3588 88.692C58.9748 88.692 59.5468 88.67 60.0748 88.626C60.6175 88.5673 61.1161 88.4867 61.5708 88.384V90.364C61.9228 89.6307 62.3995 89.11 63.0008 88.802C63.6021 88.4793 64.2621 88.318 64.9808 88.318ZM71.6028 88.318C72.2188 88.318 72.7175 88.3987 73.0988 88.56C73.4801 88.7067 73.7881 88.912 74.0228 89.176C74.2575 89.4547 74.4261 89.8213 74.5288 90.276C74.6315 90.716 74.6828 91.3027 74.6828 92.036V97.954C74.6828 98.57 74.7855 98.988 74.9908 99.208C75.2108 99.428 75.5775 99.538 76.0908 99.538V100C75.8121 99.9853 75.3941 99.9707 74.8368 99.956C74.2795 99.9267 73.7295 99.912 73.1868 99.912C72.6588 99.912 72.1381 99.9267 71.6248 99.956C71.1115 99.9707 70.7228 99.9853 70.4588 100V99.538C70.8548 99.538 71.1261 99.428 71.2728 99.208C71.4341 98.988 71.5148 98.57 71.5148 97.954V91.112C71.5148 90.7453 71.4781 90.43 71.4048 90.166C71.3461 89.8873 71.2215 89.6747 71.0308 89.528C70.8548 89.3667 70.5761 89.286 70.1948 89.286C69.8135 89.286 69.4615 89.4033 69.1388 89.638C68.8161 89.8727 68.5521 90.188 68.3468 90.584C68.1561 90.98 68.0535 91.42 68.0388 91.904L67.9288 90.562C68.3248 89.682 68.8455 89.088 69.4908 88.78C70.1508 88.472 70.8548 88.318 71.6028 88.318ZM86.4016 88.318C87.0176 88.318 87.5529 88.3987 88.0076 88.56C88.4769 88.7067 88.8142 88.8533 89.0196 89C89.5182 89.3373 89.8262 89.1173 89.9436 88.34H90.4056C90.3762 88.7507 90.3542 89.2567 90.3396 89.858C90.3249 90.4447 90.3176 91.2293 90.3176 92.212H89.8556C89.7822 91.6693 89.6429 91.134 89.4376 90.606C89.2322 90.078 88.9316 89.6453 88.5356 89.308C88.1542 88.9707 87.6556 88.802 87.0396 88.802C86.6142 88.802 86.2549 88.9267 85.9616 89.176C85.6682 89.4107 85.5216 89.7553 85.5216 90.21C85.5216 90.65 85.6536 91.0387 85.9176 91.376C86.1816 91.6987 86.5189 92.014 86.9296 92.322C87.3549 92.6153 87.7949 92.9307 88.2496 93.268C88.7336 93.6347 89.1736 94.0013 89.5696 94.368C89.9656 94.72 90.2809 95.1087 90.5156 95.534C90.7502 95.9593 90.8676 96.4653 90.8676 97.052C90.8676 97.712 90.6769 98.2913 90.2956 98.79C89.9142 99.274 89.4082 99.648 88.7776 99.912C88.1616 100.176 87.4722 100.308 86.7096 100.308C86.2696 100.308 85.8736 100.264 85.5216 100.176C85.1842 100.088 84.8909 99.978 84.6416 99.846C84.4509 99.758 84.2676 99.6773 84.0916 99.604C83.9302 99.516 83.7762 99.4427 83.6296 99.384C83.4829 99.34 83.3509 99.3913 83.2336 99.538C83.1309 99.6847 83.0502 99.89 82.9916 100.154H82.5296C82.5589 99.6847 82.5809 99.1127 82.5956 98.438C82.6102 97.7633 82.6176 96.8687 82.6176 95.754H83.0796C83.1676 96.546 83.3289 97.25 83.5636 97.866C83.7982 98.4673 84.1136 98.944 84.5096 99.296C84.9202 99.6333 85.4336 99.802 86.0496 99.802C86.2989 99.802 86.5409 99.7507 86.7756 99.648C87.0102 99.5453 87.2009 99.3767 87.3476 99.142C87.5089 98.9073 87.5896 98.6067 87.5896 98.24C87.5896 97.5947 87.3769 97.0593 86.9516 96.634C86.5409 96.2087 86.0129 95.7467 85.3676 95.248C84.8982 94.8667 84.4509 94.4927 84.0256 94.126C83.6149 93.7447 83.2776 93.334 83.0136 92.894C82.7496 92.4393 82.6176 91.926 82.6176 91.354C82.6176 90.694 82.7936 90.1367 83.1456 89.682C83.4976 89.2273 83.9596 88.89 84.5316 88.67C85.1182 88.4353 85.7416 88.318 86.4016 88.318ZM96.6737 85.018V88.626H99.2697V89.066H96.6737V97.954C96.6737 98.394 96.7544 98.7093 96.9157 98.9C97.077 99.076 97.319 99.164 97.6417 99.164C97.9057 99.164 98.1697 99.0687 98.4337 98.878C98.6977 98.6727 98.9324 98.328 99.1377 97.844L99.5117 98.042C99.277 98.702 98.9177 99.2447 98.4337 99.67C97.9644 100.095 97.319 100.308 96.4977 100.308C96.0137 100.308 95.5884 100.242 95.2217 100.11C94.855 99.9927 94.547 99.8093 94.2977 99.56C93.975 99.2373 93.7624 98.8413 93.6597 98.372C93.557 97.888 93.5057 97.2647 93.5057 96.502V89.066H91.6577V88.626H93.5057V85.722C94.1217 85.722 94.6864 85.6707 95.1997 85.568C95.7277 85.4507 96.219 85.2673 96.6737 85.018ZM110.7 88.626V89.066C110.421 89.1393 110.157 89.3153 109.908 89.594C109.659 89.858 109.417 90.3127 109.182 90.958L106.08 99.67L105.266 101.21L100.47 90.32C100.221 89.748 99.9714 89.4033 99.7221 89.286C99.4874 89.154 99.2821 89.088 99.1061 89.088V88.626C99.5901 88.67 100.089 88.7067 100.602 88.736C101.13 88.7507 101.636 88.758 102.12 88.758C102.721 88.758 103.271 88.7433 103.77 88.714C104.269 88.6847 104.738 88.6553 105.178 88.626V89.088C104.885 89.088 104.606 89.11 104.342 89.154C104.093 89.1833 103.917 89.286 103.814 89.462C103.726 89.6233 103.77 89.9093 103.946 90.32L106.718 97.008L106.52 97.14L108.148 92.586C108.427 91.794 108.544 91.1487 108.5 90.65C108.456 90.1367 108.295 89.7553 108.016 89.506C107.737 89.242 107.356 89.0953 106.872 89.066V88.626C107.107 88.6407 107.349 88.6553 107.598 88.67C107.847 88.67 108.097 88.6773 108.346 88.692C108.595 88.692 108.815 88.692 109.006 88.692C109.299 88.692 109.607 88.6847 109.93 88.67C110.253 88.6553 110.509 88.6407 110.7 88.626ZM106.08 99.67L105.244 102.024C105.097 102.391 104.943 102.699 104.782 102.948C104.635 103.212 104.467 103.425 104.276 103.586C104.071 103.762 103.807 103.894 103.484 103.982C103.161 104.085 102.787 104.136 102.362 104.136C102.01 104.136 101.643 104.077 101.262 103.96C100.895 103.843 100.587 103.652 100.338 103.388C100.089 103.124 99.9641 102.787 99.9641 102.376C99.9641 101.921 100.125 101.555 100.448 101.276C100.771 101.012 101.196 100.88 101.724 100.88C102.208 100.88 102.604 100.997 102.912 101.232C103.22 101.467 103.374 101.811 103.374 102.266C103.374 102.559 103.279 102.838 103.088 103.102C102.912 103.366 102.641 103.564 102.274 103.696C102.347 103.711 102.435 103.718 102.538 103.718C102.641 103.718 102.721 103.718 102.78 103.718C103.22 103.718 103.609 103.579 103.946 103.3C104.283 103.021 104.562 102.581 104.782 101.98L105.552 99.714L106.08 99.67ZM115.194 82.774V97.954C115.194 98.57 115.296 98.988 115.502 99.208C115.722 99.428 116.088 99.538 116.602 99.538V100C116.323 99.9853 115.905 99.9707 115.348 99.956C114.79 99.9267 114.226 99.912 113.654 99.912C113.082 99.912 112.502 99.9267 111.916 99.956C111.344 99.9707 110.911 99.9853 110.618 100V99.538C111.131 99.538 111.49 99.428 111.696 99.208C111.916 98.988 112.026 98.57 112.026 97.954V85.414C112.026 84.754 111.923 84.27 111.718 83.962C111.527 83.6393 111.16 83.478 110.618 83.478V83.016C111.087 83.06 111.542 83.082 111.982 83.082C112.583 83.082 113.155 83.06 113.698 83.016C114.24 82.9573 114.739 82.8767 115.194 82.774ZM122.999 88.318C124.29 88.318 125.302 88.6993 126.035 89.462C126.768 90.2247 127.135 91.4713 127.135 93.202H119.897L119.853 92.784H124.363C124.378 92.0653 124.334 91.4053 124.231 90.804C124.128 90.188 123.967 89.6967 123.747 89.33C123.527 88.9633 123.234 88.78 122.867 88.78C122.354 88.78 121.914 89.1027 121.547 89.748C121.195 90.3933 120.982 91.464 120.909 92.96L120.975 93.092C120.96 93.268 120.946 93.4513 120.931 93.642C120.931 93.8327 120.931 94.0307 120.931 94.236C120.931 95.248 121.07 96.0693 121.349 96.7C121.642 97.3307 122.009 97.7927 122.449 98.086C122.889 98.3647 123.336 98.504 123.791 98.504C124.099 98.504 124.414 98.46 124.737 98.372C125.074 98.2693 125.412 98.0933 125.749 97.844C126.086 97.58 126.402 97.2133 126.695 96.744L127.091 96.876C126.915 97.4333 126.636 97.976 126.255 98.504C125.874 99.032 125.39 99.4647 124.803 99.802C124.216 100.139 123.512 100.308 122.691 100.308C121.694 100.308 120.814 100.095 120.051 99.67C119.288 99.2447 118.687 98.5993 118.247 97.734C117.822 96.8687 117.609 95.7687 117.609 94.434C117.609 93.07 117.836 91.9333 118.291 91.024C118.76 90.1147 119.398 89.44 120.205 89C121.026 88.5453 121.958 88.318 122.999 88.318ZM137.752 85.018V88.626H140.348V89.066H137.752V97.954C137.752 98.394 137.832 98.7093 137.994 98.9C138.155 99.076 138.397 99.164 138.72 99.164C138.984 99.164 139.248 99.0687 139.512 98.878C139.776 98.6727 140.01 98.328 140.216 97.844L140.59 98.042C140.355 98.702 139.996 99.2447 139.512 99.67C139.042 100.095 138.397 100.308 137.576 100.308C137.092 100.308 136.666 100.242 136.3 100.11C135.933 99.9927 135.625 99.8093 135.376 99.56C135.053 99.2373 134.84 98.8413 134.738 98.372C134.635 97.888 134.584 97.2647 134.584 96.502V89.066H132.736V88.626H134.584V85.722C135.2 85.722 135.764 85.6707 136.278 85.568C136.806 85.4507 137.297 85.2673 137.752 85.018ZM143.88 82.95C144.496 82.95 144.98 83.104 145.332 83.412C145.699 83.7053 145.882 84.116 145.882 84.644C145.882 85.172 145.699 85.59 145.332 85.898C144.98 86.1913 144.496 86.338 143.88 86.338C143.264 86.338 142.773 86.1913 142.406 85.898C142.054 85.59 141.878 85.172 141.878 84.644C141.878 84.116 142.054 83.7053 142.406 83.412C142.773 83.104 143.264 82.95 143.88 82.95ZM145.596 88.384V97.954C145.596 98.57 145.699 98.988 145.904 99.208C146.124 99.428 146.491 99.538 147.004 99.538V100C146.74 99.9853 146.33 99.9707 145.772 99.956C145.215 99.9267 144.65 99.912 144.078 99.912C143.506 99.912 142.927 99.9267 142.34 99.956C141.754 99.9707 141.314 99.9853 141.02 100V99.538C141.534 99.538 141.893 99.428 142.098 99.208C142.318 98.988 142.428 98.57 142.428 97.954V91.024C142.428 90.364 142.326 89.88 142.12 89.572C141.93 89.2493 141.563 89.088 141.02 89.088V88.626C141.49 88.67 141.944 88.692 142.384 88.692C143 88.692 143.572 88.67 144.1 88.626C144.643 88.5673 145.142 88.4867 145.596 88.384ZM152.448 82.774V97.954C152.448 98.57 152.55 98.988 152.756 99.208C152.976 99.428 153.342 99.538 153.856 99.538V100C153.577 99.9853 153.159 99.9707 152.602 99.956C152.044 99.9267 151.48 99.912 150.908 99.912C150.336 99.912 149.756 99.9267 149.17 99.956C148.598 99.9707 148.165 99.9853 147.872 100V99.538C148.385 99.538 148.744 99.428 148.95 99.208C149.17 98.988 149.28 98.57 149.28 97.954V85.414C149.28 84.754 149.177 84.27 148.972 83.962C148.781 83.6393 148.414 83.478 147.872 83.478V83.016C148.341 83.06 148.796 83.082 149.236 83.082C149.837 83.082 150.409 83.06 150.952 83.016C151.494 82.9573 151.993 82.8767 152.448 82.774ZM160.253 88.318C161.543 88.318 162.555 88.6993 163.289 89.462C164.022 90.2247 164.389 91.4713 164.389 93.202H157.151L157.107 92.784H161.617C161.631 92.0653 161.587 91.4053 161.485 90.804C161.382 90.188 161.221 89.6967 161.001 89.33C160.781 88.9633 160.487 88.78 160.121 88.78C159.607 88.78 159.167 89.1027 158.801 89.748C158.449 90.3933 158.236 91.464 158.163 92.96L158.229 93.092C158.214 93.268 158.199 93.4513 158.185 93.642C158.185 93.8327 158.185 94.0307 158.185 94.236C158.185 95.248 158.324 96.0693 158.603 96.7C158.896 97.3307 159.263 97.7927 159.703 98.086C160.143 98.3647 160.59 98.504 161.045 98.504C161.353 98.504 161.668 98.46 161.991 98.372C162.328 98.2693 162.665 98.0933 163.003 97.844C163.34 97.58 163.655 97.2133 163.949 96.744L164.345 96.876C164.169 97.4333 163.89 97.976 163.509 98.504C163.127 99.032 162.643 99.4647 162.057 99.802C161.47 100.139 160.766 100.308 159.945 100.308C158.947 100.308 158.067 100.095 157.305 99.67C156.542 99.2447 155.941 98.5993 155.501 97.734C155.075 96.8687 154.863 95.7687 154.863 94.434C154.863 93.07 155.09 91.9333 155.545 91.024C156.014 90.1147 156.652 89.44 157.459 89C158.28 88.5453 159.211 88.318 160.253 88.318Z" fill="#F8F495"/>
<path d="M51.947 122.38V122.68C51.607 122.69 51.347 122.74 51.167 122.83C50.997 122.92 50.882 123.065 50.822 123.265C50.762 123.465 50.732 123.75 50.732 124.12V133.075C50.672 133.075 50.612 133.075 50.552 133.075C50.502 133.075 50.447 133.075 50.387 133.075L44.087 123.34V131.26C44.087 131.62 44.117 131.905 44.177 132.115C44.247 132.315 44.377 132.46 44.567 132.55C44.767 132.63 45.062 132.68 45.452 132.7V133C45.272 132.98 45.037 132.97 44.747 132.97C44.457 132.96 44.182 132.955 43.922 132.955C43.672 132.955 43.417 132.96 43.157 132.97C42.907 132.97 42.697 132.98 42.527 133V132.7C42.867 132.68 43.122 132.63 43.292 132.55C43.472 132.46 43.592 132.315 43.652 132.115C43.712 131.905 43.742 131.62 43.742 131.26V123.97C43.742 123.6 43.712 123.33 43.652 123.16C43.592 122.98 43.472 122.86 43.292 122.8C43.122 122.73 42.867 122.69 42.527 122.68V122.38C42.697 122.39 42.907 122.4 43.157 122.41C43.417 122.42 43.672 122.425 43.922 122.425C44.142 122.425 44.352 122.42 44.552 122.41C44.752 122.4 44.932 122.39 45.092 122.38L50.387 130.54V124.12C50.387 123.75 50.352 123.465 50.282 123.265C50.222 123.065 50.092 122.92 49.892 122.83C49.702 122.74 49.412 122.69 49.022 122.68V122.38C49.202 122.39 49.437 122.4 49.727 122.41C50.027 122.42 50.302 122.425 50.552 122.425C50.812 122.425 51.067 122.42 51.317 122.41C51.577 122.4 51.787 122.39 51.947 122.38ZM56.3341 125.065C56.9741 125.065 57.5491 125.205 58.0591 125.485C58.5691 125.765 58.9741 126.205 59.2741 126.805C59.5841 127.405 59.7391 128.185 59.7391 129.145C59.7391 130.105 59.5841 130.885 59.2741 131.485C58.9741 132.075 58.5691 132.51 58.0591 132.79C57.5491 133.07 56.9741 133.21 56.3341 133.21C55.7041 133.21 55.1291 133.07 54.6091 132.79C54.0991 132.51 53.6891 132.075 53.3791 131.485C53.0791 130.885 52.9291 130.105 52.9291 129.145C52.9291 128.185 53.0791 127.405 53.3791 126.805C53.6891 126.205 54.0991 125.765 54.6091 125.485C55.1291 125.205 55.7041 125.065 56.3341 125.065ZM56.3341 125.365C55.7641 125.365 55.2941 125.66 54.9241 126.25C54.5641 126.84 54.3841 127.805 54.3841 129.145C54.3841 130.485 54.5641 131.45 54.9241 132.04C55.2941 132.62 55.7641 132.91 56.3341 132.91C56.9041 132.91 57.3691 132.62 57.7291 132.04C58.0991 131.45 58.2841 130.485 58.2841 129.145C58.2841 127.805 58.0991 126.84 57.7291 126.25C57.3691 125.66 56.9041 125.365 56.3341 125.365ZM67.0517 125.275V125.59C66.8017 125.59 66.5817 125.61 66.3917 125.65C66.2017 125.68 66.0767 125.78 66.0167 125.95C65.9567 126.12 66.0017 126.42 66.1517 126.85L67.7117 131.32L67.6067 131.305L69.8117 125.215L70.1117 125.335L67.3667 133.075C67.3267 133.075 67.2867 133.075 67.2467 133.075C67.2067 133.075 67.1617 133.075 67.1117 133.075L64.6517 126.43C64.4917 126.03 64.3317 125.79 64.1717 125.71C64.0217 125.63 63.8917 125.59 63.7817 125.59V125.275C63.9817 125.305 64.1867 125.33 64.3967 125.35C64.6167 125.36 64.8517 125.365 65.1017 125.365C65.4117 125.365 65.7367 125.355 66.0767 125.335C66.4267 125.315 66.7517 125.295 67.0517 125.275ZM75.2867 125.275V125.575C75.0967 125.595 74.9167 125.68 74.7467 125.83C74.5867 125.97 74.4417 126.235 74.3117 126.625L72.1367 133.075C72.0967 133.075 72.0567 133.075 72.0167 133.075C71.9767 133.075 71.9317 133.075 71.8817 133.075L69.4667 126.94L69.8117 125.215C69.8717 125.215 69.9267 125.215 69.9767 125.215C70.0367 125.215 70.0967 125.215 70.1567 125.215L72.4967 131.41L72.3767 131.5L73.8617 126.985C73.9717 126.645 74.0117 126.38 73.9817 126.19C73.9617 125.99 73.8617 125.845 73.6817 125.755C73.5117 125.655 73.2467 125.595 72.8867 125.575V125.275C73.0667 125.285 73.2217 125.295 73.3517 125.305C73.4817 125.305 73.6067 125.31 73.7267 125.32C73.8567 125.32 73.9967 125.32 74.1467 125.32C74.3767 125.32 74.5817 125.315 74.7617 125.305C74.9517 125.295 75.1267 125.285 75.2867 125.275ZM79.3029 125.065C79.9429 125.065 80.5179 125.205 81.0279 125.485C81.5379 125.765 81.9429 126.205 82.2429 126.805C82.5529 127.405 82.7079 128.185 82.7079 129.145C82.7079 130.105 82.5529 130.885 82.2429 131.485C81.9429 132.075 81.5379 132.51 81.0279 132.79C80.5179 133.07 79.9429 133.21 79.3029 133.21C78.6729 133.21 78.0979 133.07 77.5779 132.79C77.0679 132.51 76.6579 132.075 76.3479 131.485C76.0479 130.885 75.8979 130.105 75.8979 129.145C75.8979 128.185 76.0479 127.405 76.3479 126.805C76.6579 126.205 77.0679 125.765 77.5779 125.485C78.0979 125.205 78.6729 125.065 79.3029 125.065ZM79.3029 125.365C78.7329 125.365 78.2629 125.66 77.8929 126.25C77.5329 126.84 77.3529 127.805 77.3529 129.145C77.3529 130.485 77.5329 131.45 77.8929 132.04C78.2629 132.62 78.7329 132.91 79.3029 132.91C79.8729 132.91 80.3379 132.62 80.6979 132.04C81.0679 131.45 81.2529 130.485 81.2529 129.145C81.2529 127.805 81.0679 126.84 80.6979 126.25C80.3379 125.66 79.8729 125.365 79.3029 125.365ZM88.5106 125.065C88.7806 125.065 89.0156 125.12 89.2156 125.23C89.4256 125.34 89.5856 125.485 89.6956 125.665C89.8156 125.835 89.8756 126.03 89.8756 126.25C89.8756 126.5 89.7956 126.72 89.6356 126.91C89.4856 127.1 89.2806 127.195 89.0206 127.195C88.8106 127.195 88.6256 127.13 88.4656 127C88.3056 126.86 88.2256 126.665 88.2256 126.415C88.2256 126.225 88.2756 126.065 88.3756 125.935C88.4856 125.795 88.6056 125.685 88.7356 125.605C88.6656 125.505 88.5606 125.455 88.4206 125.455C88.1106 125.455 87.8256 125.55 87.5656 125.74C87.3056 125.92 87.0856 126.155 86.9056 126.445C86.7256 126.735 86.5856 127.045 86.4856 127.375C86.3856 127.695 86.3356 127.995 86.3356 128.275V131.455C86.3356 131.945 86.4756 132.275 86.7556 132.445C87.0456 132.605 87.4356 132.685 87.9256 132.685V133C87.6956 132.99 87.3706 132.98 86.9506 132.97C86.5306 132.95 86.0856 132.94 85.6156 132.94C85.2756 132.94 84.9356 132.95 84.5956 132.97C84.2656 132.98 84.0156 132.99 83.8456 133V132.685C84.2556 132.685 84.5456 132.61 84.7156 132.46C84.8956 132.31 84.9856 132.025 84.9856 131.605V126.91C84.9856 126.46 84.9056 126.13 84.7456 125.92C84.5856 125.7 84.2856 125.59 83.8456 125.59V125.275C84.1656 125.305 84.4756 125.32 84.7756 125.32C85.0656 125.32 85.3406 125.305 85.6006 125.275C85.8706 125.235 86.1156 125.18 86.3356 125.11V126.985C86.4456 126.695 86.6006 126.405 86.8006 126.115C87.0106 125.815 87.2606 125.565 87.5506 125.365C87.8406 125.165 88.1606 125.065 88.5106 125.065ZM97.0574 121.24V131.365C97.0574 131.815 97.1374 132.15 97.2974 132.37C97.4674 132.58 97.7674 132.685 98.1974 132.685V133C97.8874 132.97 97.5774 132.955 97.2674 132.955C96.9774 132.955 96.6974 132.97 96.4274 133C96.1674 133.03 95.9274 133.085 95.7074 133.165V123.04C95.7074 122.59 95.6274 122.26 95.4674 122.05C95.3074 121.83 95.0074 121.72 94.5674 121.72V121.405C94.8874 121.435 95.1974 121.45 95.4974 121.45C95.7874 121.45 96.0624 121.435 96.3224 121.405C96.5924 121.365 96.8374 121.31 97.0574 121.24ZM93.9074 125.065C94.3474 125.065 94.7574 125.17 95.1374 125.38C95.5274 125.59 95.7874 125.95 95.9174 126.46L95.7224 126.61C95.5824 126.19 95.3624 125.885 95.0624 125.695C94.7724 125.505 94.4274 125.41 94.0274 125.41C93.4374 125.41 92.9424 125.715 92.5424 126.325C92.1524 126.935 91.9624 127.875 91.9724 129.145C91.9724 129.955 92.0474 130.63 92.1974 131.17C92.3574 131.7 92.5874 132.1 92.8874 132.37C93.1974 132.63 93.5724 132.76 94.0124 132.76C94.4324 132.76 94.8124 132.58 95.1524 132.22C95.4924 131.86 95.6974 131.33 95.7674 130.63L95.9474 130.84C95.8674 131.6 95.6224 132.185 95.2124 132.595C94.8124 133.005 94.2674 133.21 93.5774 133.21C92.9574 133.21 92.4124 133.06 91.9424 132.76C91.4824 132.46 91.1274 132.01 90.8774 131.41C90.6374 130.81 90.5174 130.055 90.5174 129.145C90.5174 128.235 90.6724 127.48 90.9824 126.88C91.3024 126.27 91.7174 125.815 92.2274 125.515C92.7474 125.215 93.3074 125.065 93.9074 125.065ZM101.633 125.065C102.033 125.065 102.373 125.13 102.653 125.26C102.933 125.39 103.138 125.51 103.268 125.62C103.598 125.89 103.798 125.71 103.868 125.08H104.213C104.193 125.36 104.178 125.695 104.168 126.085C104.158 126.465 104.153 126.98 104.153 127.63H103.808C103.748 127.26 103.643 126.9 103.493 126.55C103.353 126.2 103.143 125.915 102.863 125.695C102.583 125.465 102.218 125.35 101.768 125.35C101.418 125.35 101.123 125.45 100.883 125.65C100.653 125.84 100.538 126.125 100.538 126.505C100.538 126.805 100.628 127.065 100.808 127.285C100.988 127.495 101.223 127.695 101.513 127.885C101.803 128.065 102.118 128.265 102.458 128.485C102.838 128.725 103.183 128.97 103.493 129.22C103.803 129.47 104.048 129.745 104.228 130.045C104.418 130.345 104.513 130.7 104.513 131.11C104.513 131.57 104.393 131.955 104.153 132.265C103.913 132.575 103.598 132.81 103.208 132.97C102.828 133.13 102.408 133.21 101.948 133.21C101.728 133.21 101.518 133.19 101.318 133.15C101.128 133.12 100.943 133.07 100.763 133C100.663 132.95 100.558 132.89 100.448 132.82C100.348 132.75 100.248 132.675 100.148 132.595C100.048 132.515 99.9582 132.52 99.8782 132.61C99.7982 132.69 99.7382 132.855 99.6982 133.105H99.3532C99.3732 132.785 99.3882 132.395 99.3982 131.935C99.4082 131.475 99.4132 130.865 99.4132 130.105H99.7582C99.8282 130.665 99.9282 131.155 100.058 131.575C100.188 131.995 100.393 132.325 100.673 132.565C100.953 132.795 101.343 132.91 101.843 132.91C102.043 132.91 102.243 132.865 102.443 132.775C102.653 132.685 102.828 132.535 102.968 132.325C103.108 132.115 103.178 131.835 103.178 131.485C103.178 131.045 103.018 130.685 102.698 130.405C102.378 130.125 101.973 129.83 101.483 129.52C101.123 129.29 100.783 129.06 100.463 128.83C100.153 128.6 99.8982 128.34 99.6982 128.05C99.5082 127.76 99.4132 127.41 99.4132 127C99.4132 126.55 99.5132 126.185 99.7132 125.905C99.9232 125.615 100.198 125.405 100.538 125.275C100.878 125.135 101.243 125.065 101.633 125.065ZM114.433 125.065C114.813 125.065 115.128 125.115 115.378 125.215C115.638 125.315 115.853 125.455 116.023 125.635C116.213 125.835 116.348 126.085 116.428 126.385C116.508 126.685 116.548 127.09 116.548 127.6V131.605C116.548 132.025 116.633 132.31 116.803 132.46C116.983 132.61 117.278 132.685 117.688 132.685V133C117.518 132.99 117.258 132.98 116.908 132.97C116.558 132.95 116.218 132.94 115.888 132.94C115.558 132.94 115.233 132.95 114.913 132.97C114.603 132.98 114.368 132.99 114.208 133V132.685C114.568 132.685 114.823 132.61 114.973 132.46C115.123 132.31 115.198 132.025 115.198 131.605V127.27C115.198 126.96 115.173 126.675 115.123 126.415C115.073 126.155 114.958 125.945 114.778 125.785C114.608 125.625 114.343 125.545 113.983 125.545C113.563 125.545 113.193 125.665 112.873 125.905C112.563 126.145 112.318 126.475 112.138 126.895C111.968 127.305 111.883 127.765 111.883 128.275V131.605C111.883 132.025 111.958 132.31 112.108 132.46C112.258 132.61 112.513 132.685 112.873 132.685V133C112.713 132.99 112.473 132.98 112.153 132.97C111.843 132.95 111.523 132.94 111.193 132.94C110.863 132.94 110.523 132.95 110.173 132.97C109.823 132.98 109.563 132.99 109.393 133V132.685C109.803 132.685 110.093 132.61 110.263 132.46C110.443 132.31 110.533 132.025 110.533 131.605V126.91C110.533 126.46 110.453 126.13 110.293 125.92C110.133 125.7 109.833 125.59 109.393 125.59V125.275C109.713 125.305 110.023 125.32 110.323 125.32C110.613 125.32 110.888 125.305 111.148 125.275C111.418 125.235 111.663 125.18 111.883 125.11V126.88C112.143 126.2 112.503 125.73 112.963 125.47C113.433 125.2 113.923 125.065 114.433 125.065ZM121.988 125.065C122.868 125.065 123.553 125.335 124.043 125.875C124.543 126.405 124.793 127.235 124.793 128.365H119.498L119.483 128.08H123.353C123.373 127.59 123.333 127.14 123.233 126.73C123.133 126.31 122.973 125.975 122.753 125.725C122.543 125.475 122.268 125.35 121.928 125.35C121.468 125.35 121.058 125.58 120.698 126.04C120.348 126.5 120.138 127.23 120.068 128.23L120.113 128.29C120.093 128.44 120.078 128.605 120.068 128.785C120.058 128.965 120.053 129.145 120.053 129.325C120.053 130.005 120.163 130.59 120.383 131.08C120.603 131.57 120.888 131.945 121.238 132.205C121.598 132.455 121.968 132.58 122.348 132.58C122.648 132.58 122.933 132.535 123.203 132.445C123.473 132.345 123.723 132.185 123.953 131.965C124.183 131.745 124.383 131.45 124.553 131.08L124.853 131.2C124.743 131.53 124.563 131.85 124.313 132.16C124.063 132.47 123.748 132.725 123.368 132.925C122.988 133.115 122.548 133.21 122.048 133.21C121.328 133.21 120.708 133.045 120.188 132.715C119.678 132.385 119.283 131.93 119.003 131.35C118.733 130.76 118.598 130.085 118.598 129.325C118.598 128.445 118.738 127.69 119.018 127.06C119.298 126.42 119.693 125.93 120.203 125.59C120.713 125.24 121.308 125.065 121.988 125.065ZM129.576 125.065C130.456 125.065 131.141 125.335 131.631 125.875C132.131 126.405 132.381 127.235 132.381 128.365H127.086L127.071 128.08H130.941C130.961 127.59 130.921 127.14 130.821 126.73C130.721 126.31 130.561 125.975 130.341 125.725C130.131 125.475 129.856 125.35 129.516 125.35C129.056 125.35 128.646 125.58 128.286 126.04C127.936 126.5 127.726 127.23 127.656 128.23L127.701 128.29C127.681 128.44 127.666 128.605 127.656 128.785C127.646 128.965 127.641 129.145 127.641 129.325C127.641 130.005 127.751 130.59 127.971 131.08C128.191 131.57 128.476 131.945 128.826 132.205C129.186 132.455 129.556 132.58 129.936 132.58C130.236 132.58 130.521 132.535 130.791 132.445C131.061 132.345 131.311 132.185 131.541 131.965C131.771 131.745 131.971 131.45 132.141 131.08L132.441 131.2C132.331 131.53 132.151 131.85 131.901 132.16C131.651 132.47 131.336 132.725 130.956 132.925C130.576 133.115 130.136 133.21 129.636 133.21C128.916 133.21 128.296 133.045 127.776 132.715C127.266 132.385 126.871 131.93 126.591 131.35C126.321 130.76 126.186 130.085 126.186 129.325C126.186 128.445 126.326 127.69 126.606 127.06C126.886 126.42 127.281 125.93 127.791 125.59C128.301 125.24 128.896 125.065 129.576 125.065ZM140.343 121.24V131.365C140.343 131.815 140.423 132.15 140.583 132.37C140.753 132.58 141.053 132.685 141.483 132.685V133C141.173 132.97 140.863 132.955 140.553 132.955C140.263 132.955 139.983 132.97 139.713 133C139.453 133.03 139.213 133.085 138.993 133.165V123.04C138.993 122.59 138.913 122.26 138.753 122.05C138.593 121.83 138.293 121.72 137.853 121.72V121.405C138.173 121.435 138.483 121.45 138.783 121.45C139.073 121.45 139.348 121.435 139.608 121.405C139.878 121.365 140.123 121.31 140.343 121.24ZM137.193 125.065C137.633 125.065 138.043 125.17 138.423 125.38C138.813 125.59 139.073 125.95 139.203 126.46L139.008 126.61C138.868 126.19 138.648 125.885 138.348 125.695C138.058 125.505 137.713 125.41 137.313 125.41C136.723 125.41 136.228 125.715 135.828 126.325C135.438 126.935 135.248 127.875 135.258 129.145C135.258 129.955 135.333 130.63 135.483 131.17C135.643 131.7 135.873 132.1 136.173 132.37C136.483 132.63 136.858 132.76 137.298 132.76C137.718 132.76 138.098 132.58 138.438 132.22C138.778 131.86 138.983 131.33 139.053 130.63L139.233 130.84C139.153 131.6 138.908 132.185 138.498 132.595C138.098 133.005 137.553 133.21 136.863 133.21C136.243 133.21 135.698 133.06 135.228 132.76C134.768 132.46 134.413 132.01 134.163 131.41C133.923 130.81 133.803 130.055 133.803 129.145C133.803 128.235 133.958 127.48 134.268 126.88C134.588 126.27 135.003 125.815 135.513 125.515C136.033 125.215 136.593 125.065 137.193 125.065ZM145.879 125.065C146.759 125.065 147.444 125.335 147.934 125.875C148.434 126.405 148.684 127.235 148.684 128.365H143.389L143.374 128.08H147.244C147.264 127.59 147.224 127.14 147.124 126.73C147.024 126.31 146.864 125.975 146.644 125.725C146.434 125.475 146.159 125.35 145.819 125.35C145.359 125.35 144.949 125.58 144.589 126.04C144.239 126.5 144.029 127.23 143.959 128.23L144.004 128.29C143.984 128.44 143.969 128.605 143.959 128.785C143.949 128.965 143.944 129.145 143.944 129.325C143.944 130.005 144.054 130.59 144.274 131.08C144.494 131.57 144.779 131.945 145.129 132.205C145.489 132.455 145.859 132.58 146.239 132.58C146.539 132.58 146.824 132.535 147.094 132.445C147.364 132.345 147.614 132.185 147.844 131.965C148.074 131.745 148.274 131.45 148.444 131.08L148.744 131.2C148.634 131.53 148.454 131.85 148.204 132.16C147.954 132.47 147.639 132.725 147.259 132.925C146.879 133.115 146.439 133.21 145.939 133.21C145.219 133.21 144.599 133.045 144.079 132.715C143.569 132.385 143.174 131.93 142.894 131.35C142.624 130.76 142.489 130.085 142.489 129.325C142.489 128.445 142.629 127.69 142.909 127.06C143.189 126.42 143.584 125.93 144.094 125.59C144.604 125.24 145.199 125.065 145.879 125.065ZM156.647 121.24V131.365C156.647 131.815 156.727 132.15 156.887 132.37C157.057 132.58 157.357 132.685 157.787 132.685V133C157.477 132.97 157.167 132.955 156.857 132.955C156.567 132.955 156.287 132.97 156.017 133C155.757 133.03 155.517 133.085 155.297 133.165V123.04C155.297 122.59 155.217 122.26 155.057 122.05C154.897 121.83 154.597 121.72 154.157 121.72V121.405C154.477 121.435 154.787 121.45 155.087 121.45C155.377 121.45 155.652 121.435 155.912 121.405C156.182 121.365 156.427 121.31 156.647 121.24ZM153.497 125.065C153.937 125.065 154.347 125.17 154.727 125.38C155.117 125.59 155.377 125.95 155.507 126.46L155.312 126.61C155.172 126.19 154.952 125.885 154.652 125.695C154.362 125.505 154.017 125.41 153.617 125.41C153.027 125.41 152.532 125.715 152.132 126.325C151.742 126.935 151.552 127.875 151.562 129.145C151.562 129.955 151.637 130.63 151.787 131.17C151.947 131.7 152.177 132.1 152.477 132.37C152.787 132.63 153.162 132.76 153.602 132.76C154.022 132.76 154.402 132.58 154.742 132.22C155.082 131.86 155.287 131.33 155.357 130.63L155.537 130.84C155.457 131.6 155.212 132.185 154.802 132.595C154.402 133.005 153.857 133.21 153.167 133.21C152.547 133.21 152.002 133.06 151.532 132.76C151.072 132.46 150.717 132.01 150.467 131.41C150.227 130.81 150.107 130.055 150.107 129.145C150.107 128.235 150.262 127.48 150.572 126.88C150.892 126.27 151.307 125.815 151.817 125.515C152.337 125.215 152.897 125.065 153.497 125.065Z" fill="#D9D9D9"/>
</svg>
