<svg width="211" height="267" viewBox="0 0 211 267" fill="none" xmlns="http://www.w3.org/2000/svg">
<path d="M31.1666 10.75L15.1249 26.7917L7.83325 19.5" stroke="#F27EBE" stroke-width="2" stroke-linecap="round" stroke-linejoin="round"/>
<path d="M56.86 22V7.8H62.7C63.3 7.8 63.8467 7.92667 64.34 8.18C64.8467 8.43333 65.2867 8.77333 65.66 9.2C66.0333 9.61333 66.32 10.08 66.52 10.6C66.7333 11.12 66.84 11.6533 66.84 12.2C66.84 12.96 66.6667 13.68 66.32 14.36C65.9867 15.0267 65.52 15.5733 64.92 16C64.3333 16.4267 63.6333 16.64 62.82 16.64H57.88V22H56.86ZM57.88 15.7H62.78C63.4067 15.7 63.9467 15.5333 64.4 15.2C64.8533 14.8667 65.2 14.4333 65.44 13.9C65.68 13.3667 65.8 12.8 65.8 12.2C65.8 11.5733 65.6533 11 65.36 10.48C65.08 9.94667 64.7 9.52 64.22 9.2C63.7533 8.88 63.2333 8.72 62.66 8.72H57.88V15.7ZM73.5219 12.5C72.5885 12.5267 71.7685 12.8067 71.0619 13.34C70.3685 13.86 69.8819 14.58 69.6019 15.5V22H68.6019V11.6H69.5619V14.16C69.9219 13.4267 70.4019 12.8333 71.0019 12.38C71.6019 11.9133 72.2352 11.6467 72.9019 11.58C73.0352 11.5667 73.1552 11.56 73.2619 11.56C73.3685 11.56 73.4552 11.56 73.5219 11.56V12.5ZM78.9881 22.2C78.2548 22.2 77.5748 22.06 76.9481 21.78C76.3348 21.5 75.8015 21.1133 75.3481 20.62C74.8948 20.1133 74.5415 19.5333 74.2881 18.88C74.0348 18.2267 73.9081 17.54 73.9081 16.82C73.9081 16.0867 74.0348 15.4 74.2881 14.76C74.5415 14.1067 74.8948 13.5333 75.3481 13.04C75.8148 12.5333 76.3548 12.14 76.9681 11.86C77.5948 11.5667 78.2681 11.42 78.9881 11.42C79.7081 11.42 80.3748 11.5667 80.9881 11.86C81.6015 12.14 82.1415 12.5333 82.6081 13.04C83.0748 13.5333 83.4348 14.1067 83.6881 14.76C83.9415 15.4 84.0681 16.0867 84.0681 16.82C84.0681 17.54 83.9415 18.2267 83.6881 18.88C83.4348 19.5333 83.0748 20.1133 82.6081 20.62C82.1548 21.1133 81.6148 21.5 80.9881 21.78C80.3748 22.06 79.7081 22.2 78.9881 22.2ZM74.9081 16.86C74.9081 17.6733 75.0881 18.42 75.4481 19.1C75.8215 19.7667 76.3148 20.3 76.9281 20.7C77.5415 21.1 78.2215 21.3 78.9681 21.3C79.7148 21.3 80.3948 21.1 81.0081 20.7C81.6348 20.2867 82.1281 19.74 82.4881 19.06C82.8615 18.3667 83.0481 17.6133 83.0481 16.8C83.0481 15.9867 82.8615 15.24 82.4881 14.56C82.1281 13.88 81.6348 13.34 81.0081 12.94C80.3948 12.5267 79.7215 12.32 78.9881 12.32C78.2415 12.32 77.5615 12.5267 76.9481 12.94C76.3348 13.3533 75.8415 13.9 75.4681 14.58C75.0948 15.26 74.9081 16.02 74.9081 16.86ZM90.5873 21.5C90.5207 21.5267 90.3873 21.5933 90.1873 21.7C89.9873 21.8067 89.734 21.9067 89.4273 22C89.1207 22.08 88.7807 22.12 88.4073 22.12C88.0473 22.12 87.7073 22.0533 87.3873 21.92C87.0807 21.7733 86.834 21.56 86.6473 21.28C86.4607 21 86.3673 20.66 86.3673 20.26V12.42H84.9073V11.6H86.3673V8.04H87.3673V11.6H89.7873V12.42H87.3673V20.02C87.394 20.4067 87.534 20.7 87.7873 20.9C88.0407 21.0867 88.334 21.18 88.6673 21.18C89.0807 21.18 89.4407 21.1133 89.7473 20.98C90.054 20.8333 90.234 20.74 90.2873 20.7L90.5873 21.5ZM96.1383 22.2C95.4049 22.2 94.7249 22.06 94.0983 21.78C93.4849 21.5 92.9516 21.1133 92.4983 20.62C92.0449 20.1133 91.6916 19.5333 91.4383 18.88C91.1849 18.2267 91.0583 17.54 91.0583 16.82C91.0583 16.0867 91.1849 15.4 91.4383 14.76C91.6916 14.1067 92.0449 13.5333 92.4983 13.04C92.9649 12.5333 93.5049 12.14 94.1183 11.86C94.7449 11.5667 95.4183 11.42 96.1383 11.42C96.8583 11.42 97.5249 11.5667 98.1383 11.86C98.7516 12.14 99.2916 12.5333 99.7583 13.04C100.225 13.5333 100.585 14.1067 100.838 14.76C101.092 15.4 101.218 16.0867 101.218 16.82C101.218 17.54 101.092 18.2267 100.838 18.88C100.585 19.5333 100.225 20.1133 99.7583 20.62C99.3049 21.1133 98.7649 21.5 98.1383 21.78C97.5249 22.06 96.8583 22.2 96.1383 22.2ZM92.0583 16.86C92.0583 17.6733 92.2383 18.42 92.5983 19.1C92.9716 19.7667 93.4649 20.3 94.0783 20.7C94.6916 21.1 95.3716 21.3 96.1183 21.3C96.8649 21.3 97.5449 21.1 98.1583 20.7C98.7849 20.2867 99.2783 19.74 99.6383 19.06C100.012 18.3667 100.198 17.6133 100.198 16.8C100.198 15.9867 100.012 15.24 99.6383 14.56C99.2783 13.88 98.7849 13.34 98.1583 12.94C97.5449 12.5267 96.8716 12.32 96.1383 12.32C95.3916 12.32 94.7116 12.5267 94.0983 12.94C93.4849 13.3533 92.9916 13.9 92.6183 14.58C92.2449 15.26 92.0583 16.02 92.0583 16.86ZM107.737 21.5C107.671 21.5267 107.537 21.5933 107.337 21.7C107.137 21.8067 106.884 21.9067 106.577 22C106.271 22.08 105.931 22.12 105.557 22.12C105.197 22.12 104.857 22.0533 104.537 21.92C104.231 21.7733 103.984 21.56 103.797 21.28C103.611 21 103.517 20.66 103.517 20.26V12.42H102.057V11.6H103.517V8.04H104.517V11.6H106.937V12.42H104.517V20.02C104.544 20.4067 104.684 20.7 104.937 20.9C105.191 21.0867 105.484 21.18 105.817 21.18C106.231 21.18 106.591 21.1133 106.897 20.98C107.204 20.8333 107.384 20.74 107.437 20.7L107.737 21.5ZM109.824 25.52C110.037 25.5333 110.224 25.5333 110.384 25.52C110.557 25.52 110.684 25.4933 110.764 25.44C110.884 25.4 111.004 25.2933 111.124 25.12C111.257 24.96 111.43 24.6333 111.644 24.14C111.857 23.66 112.157 22.9467 112.544 22L107.904 11.6H108.964L113.084 20.94L116.904 11.6H117.924L112.224 25.28C112.144 25.4933 112.03 25.68 111.884 25.84C111.75 26.0133 111.584 26.1467 111.384 26.24C111.184 26.3467 110.944 26.4067 110.664 26.42C110.544 26.4333 110.417 26.44 110.284 26.44C110.15 26.4533 109.997 26.4533 109.824 26.44V25.52ZM124.625 22.2C123.731 22.2 122.931 21.9667 122.225 21.5C121.531 21.02 120.971 20.44 120.545 19.76V26.26H119.545V11.6H120.465V13.68C120.891 13.0133 121.458 12.4733 122.165 12.06C122.871 11.6333 123.618 11.42 124.405 11.42C125.138 11.42 125.805 11.5733 126.405 11.88C127.005 12.1733 127.525 12.58 127.965 13.1C128.418 13.6067 128.765 14.18 129.005 14.82C129.258 15.46 129.385 16.1267 129.385 16.82C129.385 17.78 129.185 18.6733 128.785 19.5C128.385 20.3133 127.825 20.9667 127.105 21.46C126.398 21.9533 125.571 22.2 124.625 22.2ZM124.385 21.3C124.998 21.3 125.545 21.1733 126.025 20.92C126.518 20.6667 126.938 20.3267 127.285 19.9C127.631 19.4733 127.898 18.9933 128.085 18.46C128.271 17.9267 128.365 17.38 128.365 16.82C128.365 16.22 128.258 15.6533 128.045 15.12C127.831 14.5733 127.531 14.0933 127.145 13.68C126.771 13.2667 126.331 12.94 125.825 12.7C125.331 12.4467 124.791 12.32 124.205 12.32C123.845 12.32 123.458 12.3933 123.045 12.54C122.645 12.6867 122.258 12.8933 121.885 13.16C121.525 13.4267 121.225 13.7333 120.985 14.08C120.745 14.4133 120.598 14.76 120.545 15.12V18.54C120.785 19.0467 121.091 19.5133 121.465 19.94C121.851 20.3533 122.298 20.6867 122.805 20.94C123.311 21.18 123.838 21.3 124.385 21.3ZM135.831 22.2C135.097 22.2 134.417 22.06 133.791 21.78C133.164 21.4867 132.617 21.0933 132.151 20.6C131.697 20.0933 131.337 19.5133 131.071 18.86C130.817 18.1933 130.691 17.4933 130.691 16.76C130.691 15.7733 130.911 14.88 131.351 14.08C131.791 13.28 132.397 12.64 133.171 12.16C133.944 11.6667 134.811 11.42 135.771 11.42C136.757 11.42 137.631 11.6667 138.391 12.16C139.151 12.6533 139.751 13.3067 140.191 14.12C140.644 14.92 140.871 15.8 140.871 16.76C140.871 16.84 140.871 16.92 140.871 17C140.871 17.08 140.864 17.1467 140.851 17.2H131.731C131.784 17.9867 132.004 18.7 132.391 19.34C132.777 19.98 133.271 20.4867 133.871 20.86C134.484 21.22 135.151 21.4 135.871 21.4C136.591 21.4 137.271 21.2133 137.911 20.84C138.551 20.4667 138.997 19.9867 139.251 19.4L140.131 19.64C139.931 20.1333 139.611 20.5733 139.171 20.96C138.744 21.3467 138.237 21.6533 137.651 21.88C137.077 22.0933 136.471 22.2 135.831 22.2ZM131.691 16.42H139.911C139.857 15.6067 139.644 14.8867 139.271 14.26C138.897 13.6333 138.404 13.14 137.791 12.78C137.191 12.42 136.524 12.24 135.791 12.24C135.057 12.24 134.391 12.42 133.791 12.78C133.191 13.14 132.704 13.6333 132.331 14.26C131.957 14.8867 131.744 15.6067 131.691 16.42ZM147.447 22V11.6H148.447V22H147.447ZM147.447 9.24V7.4H148.447V9.24H147.447ZM156.265 22V7.8H165.505V8.72H157.285V14.36H164.265V15.24H157.285V22H156.265ZM167.46 22V11.6H168.46V22H167.46ZM167.46 9.24V7.4H168.46V9.24H167.46ZM175.42 22.16C174.714 22.16 174.054 22.0133 173.44 21.72C172.84 21.4267 172.32 21.0267 171.88 20.52C171.454 20 171.114 19.4267 170.86 18.8C170.62 18.16 170.5 17.5 170.5 16.82C170.5 16.1133 170.614 15.4333 170.84 14.78C171.08 14.1267 171.414 13.5533 171.84 13.06C172.28 12.5533 172.794 12.1533 173.38 11.86C173.967 11.5667 174.62 11.42 175.34 11.42C176.247 11.42 177.034 11.66 177.7 12.14C178.38 12.6067 178.954 13.18 179.42 13.86V11.6H180.34V22.2C180.34 23.1333 180.114 23.92 179.66 24.56C179.207 25.2 178.607 25.6733 177.86 25.98C177.114 26.3 176.307 26.46 175.44 26.46C174.227 26.46 173.26 26.24 172.54 25.8C171.834 25.36 171.26 24.78 170.82 24.06L171.5 23.6C171.914 24.2933 172.474 24.8067 173.18 25.14C173.887 25.4733 174.64 25.64 175.44 25.64C176.147 25.64 176.794 25.5067 177.38 25.24C177.98 24.9867 178.454 24.6 178.8 24.08C179.16 23.5733 179.34 22.9467 179.34 22.2V19.92C178.927 20.6 178.36 21.1467 177.64 21.56C176.934 21.96 176.194 22.16 175.42 22.16ZM175.66 21.3C176.1 21.3 176.527 21.22 176.94 21.06C177.354 20.9 177.734 20.6867 178.08 20.42C178.427 20.14 178.714 19.8333 178.94 19.5C179.167 19.1667 179.3 18.8333 179.34 18.5V15.08C179.14 14.5467 178.834 14.0733 178.42 13.66C178.02 13.2333 177.567 12.9067 177.06 12.68C176.554 12.44 176.034 12.32 175.5 12.32C174.874 12.32 174.314 12.4533 173.82 12.72C173.327 12.9867 172.907 13.34 172.56 13.78C172.227 14.2067 171.967 14.6933 171.78 15.24C171.607 15.7733 171.52 16.3067 171.52 16.84C171.52 17.44 171.627 18.0067 171.84 18.54C172.054 19.0733 172.347 19.5533 172.72 19.98C173.107 20.3933 173.547 20.72 174.04 20.96C174.547 21.1867 175.087 21.3 175.66 21.3ZM198.367 22H197.367V16.2C197.367 14.88 197.16 13.9067 196.747 13.28C196.347 12.6533 195.727 12.34 194.887 12.34C194.033 12.34 193.273 12.6467 192.607 13.26C191.953 13.86 191.493 14.6333 191.227 15.58V22H190.227V16.2C190.227 14.8667 190.027 13.8933 189.627 13.28C189.227 12.6533 188.607 12.34 187.767 12.34C186.913 12.34 186.153 12.64 185.487 13.24C184.833 13.8267 184.367 14.6 184.087 15.56V22H183.087V11.6H184.027V14.08C184.467 13.2267 185.033 12.5733 185.727 12.12C186.42 11.6533 187.18 11.42 188.007 11.42C188.873 11.42 189.58 11.68 190.127 12.2C190.687 12.7067 191.02 13.3867 191.127 14.24C191.62 13.3067 192.207 12.6067 192.887 12.14C193.567 11.66 194.34 11.42 195.207 11.42C195.78 11.42 196.26 11.5267 196.647 11.74C197.047 11.94 197.373 12.24 197.627 12.64C197.893 13.0267 198.08 13.5067 198.187 14.08C198.307 14.6533 198.367 15.3 198.367 16.02V22ZM200.147 19C200.147 18.3733 200.334 17.8333 200.707 17.38C201.081 16.9133 201.594 16.5533 202.247 16.3C202.901 16.0333 203.654 15.9 204.507 15.9C205.041 15.9 205.594 15.9467 206.167 16.04C206.741 16.1333 207.254 16.26 207.707 16.42V15.44C207.707 14.48 207.427 13.7133 206.867 13.14C206.321 12.5667 205.561 12.28 204.587 12.28C204.067 12.28 203.527 12.3867 202.967 12.6C202.407 12.8133 201.834 13.12 201.247 13.52L200.827 12.8C201.507 12.3467 202.161 12.0067 202.787 11.78C203.427 11.54 204.061 11.42 204.687 11.42C205.927 11.42 206.907 11.7867 207.627 12.52C208.347 13.2533 208.707 14.2533 208.707 15.52V20.68C208.707 20.84 208.741 20.96 208.807 21.04C208.887 21.12 209.001 21.1667 209.147 21.18V22C209.027 22.0133 208.927 22.02 208.847 22.02C208.767 22.02 208.701 22.02 208.647 22.02C208.394 21.98 208.194 21.8733 208.047 21.7C207.914 21.5267 207.841 21.3333 207.827 21.12V20.3C207.347 20.9 206.727 21.3667 205.967 21.7C205.221 22.0333 204.434 22.2 203.607 22.2C202.954 22.2 202.361 22.06 201.827 21.78C201.307 21.5 200.894 21.12 200.587 20.64C200.294 20.1467 200.147 19.6 200.147 19ZM207.307 19.86C207.441 19.6867 207.541 19.52 207.607 19.36C207.674 19.2 207.707 19.0533 207.707 18.92V17.2C207.227 17.0133 206.727 16.8733 206.207 16.78C205.687 16.6867 205.154 16.64 204.607 16.64C203.567 16.64 202.721 16.8467 202.067 17.26C201.427 17.6733 201.107 18.2333 201.107 18.94C201.107 19.38 201.221 19.7867 201.447 20.16C201.674 20.5333 201.987 20.8333 202.387 21.06C202.801 21.2867 203.274 21.4 203.807 21.4C204.554 21.4 205.241 21.26 205.867 20.98C206.507 20.6867 206.987 20.3133 207.307 19.86Z" fill="black"/>
<path d="M31.1666 102.75L15.1249 118.792L7.83325 111.5" stroke="#F27EBE" stroke-width="2" stroke-linecap="round" stroke-linejoin="round"/>
<path d="M69.72 116V103.78L64.14 113.34H63.46L57.88 103.78V116H56.86V101.8H57.88L63.8 111.96L69.72 101.8H70.74V116H69.72ZM77.9814 116.2C77.2481 116.2 76.5681 116.06 75.9414 115.78C75.3281 115.5 74.7947 115.113 74.3414 114.62C73.8881 114.113 73.5347 113.533 73.2814 112.88C73.0281 112.227 72.9014 111.54 72.9014 110.82C72.9014 110.087 73.0281 109.4 73.2814 108.76C73.5347 108.107 73.8881 107.533 74.3414 107.04C74.8081 106.533 75.3481 106.14 75.9614 105.86C76.5881 105.567 77.2614 105.42 77.9814 105.42C78.7014 105.42 79.3681 105.567 79.9814 105.86C80.5947 106.14 81.1347 106.533 81.6014 107.04C82.0681 107.533 82.4281 108.107 82.6814 108.76C82.9347 109.4 83.0614 110.087 83.0614 110.82C83.0614 111.54 82.9347 112.227 82.6814 112.88C82.4281 113.533 82.0681 114.113 81.6014 114.62C81.1481 115.113 80.6081 115.5 79.9814 115.78C79.3681 116.06 78.7014 116.2 77.9814 116.2ZM73.9014 110.86C73.9014 111.673 74.0814 112.42 74.4414 113.1C74.8147 113.767 75.3081 114.3 75.9214 114.7C76.5347 115.1 77.2147 115.3 77.9614 115.3C78.7081 115.3 79.3881 115.1 80.0014 114.7C80.6281 114.287 81.1214 113.74 81.4814 113.06C81.8547 112.367 82.0414 111.613 82.0414 110.8C82.0414 109.987 81.8547 109.24 81.4814 108.56C81.1214 107.88 80.6281 107.34 80.0014 106.94C79.3881 106.527 78.7147 106.32 77.9814 106.32C77.2347 106.32 76.5547 106.527 75.9414 106.94C75.3281 107.353 74.8347 107.9 74.4614 108.58C74.0881 109.26 73.9014 110.02 73.9014 110.86ZM89.4373 116.2C88.704 116.2 88.024 116.06 87.3973 115.78C86.784 115.5 86.2507 115.113 85.7973 114.62C85.344 114.113 84.9907 113.533 84.7373 112.88C84.484 112.227 84.3573 111.54 84.3573 110.82C84.3573 110.087 84.484 109.4 84.7373 108.76C84.9907 108.107 85.344 107.533 85.7973 107.04C86.264 106.533 86.804 106.14 87.4173 105.86C88.044 105.567 88.7173 105.42 89.4373 105.42C90.1573 105.42 90.824 105.567 91.4373 105.86C92.0507 106.14 92.5907 106.533 93.0573 107.04C93.524 107.533 93.884 108.107 94.1373 108.76C94.3907 109.4 94.5173 110.087 94.5173 110.82C94.5173 111.54 94.3907 112.227 94.1373 112.88C93.884 113.533 93.524 114.113 93.0573 114.62C92.604 115.113 92.064 115.5 91.4373 115.78C90.824 116.06 90.1573 116.2 89.4373 116.2ZM85.3573 110.86C85.3573 111.673 85.5373 112.42 85.8973 113.1C86.2707 113.767 86.764 114.3 87.3773 114.7C87.9907 115.1 88.6707 115.3 89.4173 115.3C90.164 115.3 90.844 115.1 91.4573 114.7C92.084 114.287 92.5773 113.74 92.9373 113.06C93.3107 112.367 93.4973 111.613 93.4973 110.8C93.4973 109.987 93.3107 109.24 92.9373 108.56C92.5773 107.88 92.084 107.34 91.4573 106.94C90.844 106.527 90.1707 106.32 89.4373 106.32C88.6907 106.32 88.0107 106.527 87.3973 106.94C86.784 107.353 86.2907 107.9 85.9173 108.58C85.544 109.26 85.3573 110.02 85.3573 110.86ZM95.8133 110.82C95.8133 109.847 96.0199 108.953 96.4333 108.14C96.8466 107.327 97.4133 106.673 98.1333 106.18C98.8533 105.673 99.6733 105.42 100.593 105.42C101.5 105.42 102.3 105.66 102.993 106.14C103.7 106.62 104.253 107.193 104.653 107.86V101.4H105.653V114.68C105.653 114.84 105.687 114.96 105.753 115.04C105.833 115.12 105.94 115.167 106.073 115.18V116C105.86 116.027 105.7 116.033 105.593 116.02C105.353 115.98 105.153 115.867 104.993 115.68C104.833 115.493 104.753 115.293 104.753 115.08V113.92C104.327 114.613 103.753 115.167 103.033 115.58C102.313 115.993 101.573 116.2 100.813 116.2C100.093 116.2 99.4266 116.053 98.8133 115.76C98.1999 115.453 97.6666 115.047 97.2133 114.54C96.7733 114.033 96.4266 113.46 96.1733 112.82C95.9333 112.18 95.8133 111.513 95.8133 110.82ZM104.653 112.5V109.08C104.467 108.573 104.167 108.113 103.753 107.7C103.34 107.273 102.873 106.94 102.353 106.7C101.833 106.447 101.32 106.32 100.813 106.32C100.213 106.32 99.6666 106.447 99.1733 106.7C98.6933 106.953 98.2733 107.293 97.9133 107.72C97.5666 108.147 97.2999 108.633 97.1133 109.18C96.9266 109.713 96.8333 110.267 96.8333 110.84C96.8333 111.427 96.9399 111.993 97.1533 112.54C97.3666 113.073 97.6599 113.553 98.0333 113.98C98.4199 114.393 98.8599 114.72 99.3533 114.96C99.8599 115.187 100.407 115.3 100.993 115.3C101.353 115.3 101.733 115.227 102.133 115.08C102.547 114.933 102.933 114.733 103.293 114.48C103.667 114.213 103.973 113.913 104.213 113.58C104.467 113.233 104.613 112.873 104.653 112.5ZM113.318 116.2C112.505 116.2 111.745 115.987 111.038 115.56C110.331 115.12 109.778 114.573 109.378 113.92V116H108.458V101.4H109.458V107.86C109.951 107.14 110.531 106.553 111.198 106.1C111.878 105.647 112.658 105.42 113.538 105.42C114.285 105.42 114.945 105.573 115.518 105.88C116.105 106.187 116.605 106.6 117.018 107.12C117.431 107.64 117.745 108.22 117.958 108.86C118.185 109.5 118.298 110.16 118.298 110.84C118.298 111.547 118.171 112.227 117.918 112.88C117.665 113.52 117.311 114.093 116.858 114.6C116.405 115.093 115.878 115.487 115.278 115.78C114.678 116.06 114.025 116.2 113.318 116.2ZM113.118 115.3C113.731 115.3 114.291 115.18 114.798 114.94C115.305 114.687 115.738 114.347 116.098 113.92C116.471 113.493 116.758 113.013 116.958 112.48C117.171 111.947 117.278 111.4 117.278 110.84C117.278 110.053 117.111 109.32 116.778 108.64C116.445 107.947 115.978 107.387 115.378 106.96C114.778 106.533 114.085 106.32 113.298 106.32C112.711 106.32 112.171 106.453 111.678 106.72C111.185 106.973 110.751 107.307 110.378 107.72C110.018 108.133 109.711 108.587 109.458 109.08V112.52C109.511 112.907 109.658 113.273 109.898 113.62C110.138 113.953 110.438 114.247 110.798 114.5C111.171 114.74 111.558 114.933 111.958 115.08C112.371 115.227 112.758 115.3 113.118 115.3ZM124.684 116.2C123.951 116.2 123.271 116.06 122.644 115.78C122.031 115.5 121.497 115.113 121.044 114.62C120.591 114.113 120.237 113.533 119.984 112.88C119.731 112.227 119.604 111.54 119.604 110.82C119.604 110.087 119.731 109.4 119.984 108.76C120.237 108.107 120.591 107.533 121.044 107.04C121.511 106.533 122.051 106.14 122.664 105.86C123.291 105.567 123.964 105.42 124.684 105.42C125.404 105.42 126.071 105.567 126.684 105.86C127.297 106.14 127.837 106.533 128.304 107.04C128.771 107.533 129.131 108.107 129.384 108.76C129.637 109.4 129.764 110.087 129.764 110.82C129.764 111.54 129.637 112.227 129.384 112.88C129.131 113.533 128.771 114.113 128.304 114.62C127.851 115.113 127.311 115.5 126.684 115.78C126.071 116.06 125.404 116.2 124.684 116.2ZM120.604 110.86C120.604 111.673 120.784 112.42 121.144 113.1C121.517 113.767 122.011 114.3 122.624 114.7C123.237 115.1 123.917 115.3 124.664 115.3C125.411 115.3 126.091 115.1 126.704 114.7C127.331 114.287 127.824 113.74 128.184 113.06C128.557 112.367 128.744 111.613 128.744 110.8C128.744 109.987 128.557 109.24 128.184 108.56C127.824 107.88 127.331 107.34 126.704 106.94C126.091 106.527 125.417 106.32 124.684 106.32C123.937 106.32 123.257 106.527 122.644 106.94C122.031 107.353 121.537 107.9 121.164 108.58C120.791 109.26 120.604 110.02 120.604 110.86ZM130.92 113C130.92 112.373 131.107 111.833 131.48 111.38C131.853 110.913 132.367 110.553 133.02 110.3C133.673 110.033 134.427 109.9 135.28 109.9C135.813 109.9 136.367 109.947 136.94 110.04C137.513 110.133 138.027 110.26 138.48 110.42V109.44C138.48 108.48 138.2 107.713 137.64 107.14C137.093 106.567 136.333 106.28 135.36 106.28C134.84 106.28 134.3 106.387 133.74 106.6C133.18 106.813 132.607 107.12 132.02 107.52L131.6 106.8C132.28 106.347 132.933 106.007 133.56 105.78C134.2 105.54 134.833 105.42 135.46 105.42C136.7 105.42 137.68 105.787 138.4 106.52C139.12 107.253 139.48 108.253 139.48 109.52V114.68C139.48 114.84 139.513 114.96 139.58 115.04C139.66 115.12 139.773 115.167 139.92 115.18V116C139.8 116.013 139.7 116.02 139.62 116.02C139.54 116.02 139.473 116.02 139.42 116.02C139.167 115.98 138.967 115.873 138.82 115.7C138.687 115.527 138.613 115.333 138.6 115.12V114.3C138.12 114.9 137.5 115.367 136.74 115.7C135.993 116.033 135.207 116.2 134.38 116.2C133.727 116.2 133.133 116.06 132.6 115.78C132.08 115.5 131.667 115.12 131.36 114.64C131.067 114.147 130.92 113.6 130.92 113ZM138.08 113.86C138.213 113.687 138.313 113.52 138.38 113.36C138.447 113.2 138.48 113.053 138.48 112.92V111.2C138 111.013 137.5 110.873 136.98 110.78C136.46 110.687 135.927 110.64 135.38 110.64C134.34 110.64 133.493 110.847 132.84 111.26C132.2 111.673 131.88 112.233 131.88 112.94C131.88 113.38 131.993 113.787 132.22 114.16C132.447 114.533 132.76 114.833 133.16 115.06C133.573 115.287 134.047 115.4 134.58 115.4C135.327 115.4 136.013 115.26 136.64 114.98C137.28 114.687 137.76 114.313 138.08 113.86ZM147.062 106.5C146.129 106.527 145.309 106.807 144.602 107.34C143.909 107.86 143.422 108.58 143.142 109.5V116H142.142V105.6H143.102V108.16C143.462 107.427 143.942 106.833 144.542 106.38C145.142 105.913 145.776 105.647 146.442 105.58C146.576 105.567 146.696 105.56 146.802 105.56C146.909 105.56 146.996 105.56 147.062 105.56V106.5ZM147.487 110.82C147.487 109.847 147.694 108.953 148.107 108.14C148.521 107.327 149.087 106.673 149.807 106.18C150.527 105.673 151.347 105.42 152.267 105.42C153.174 105.42 153.974 105.66 154.667 106.14C155.374 106.62 155.927 107.193 156.327 107.86V101.4H157.327V114.68C157.327 114.84 157.361 114.96 157.427 115.04C157.507 115.12 157.614 115.167 157.747 115.18V116C157.534 116.027 157.374 116.033 157.267 116.02C157.027 115.98 156.827 115.867 156.668 115.68C156.507 115.493 156.427 115.293 156.427 115.08V113.92C156.001 114.613 155.427 115.167 154.707 115.58C153.987 115.993 153.247 116.2 152.487 116.2C151.767 116.2 151.101 116.053 150.487 115.76C149.874 115.453 149.341 115.047 148.887 114.54C148.447 114.033 148.101 113.46 147.847 112.82C147.607 112.18 147.487 111.513 147.487 110.82ZM156.327 112.5V109.08C156.141 108.573 155.841 108.113 155.427 107.7C155.014 107.273 154.547 106.94 154.027 106.7C153.507 106.447 152.994 106.32 152.487 106.32C151.887 106.32 151.341 106.447 150.847 106.7C150.367 106.953 149.947 107.293 149.587 107.72C149.241 108.147 148.974 108.633 148.787 109.18C148.601 109.713 148.507 110.267 148.507 110.84C148.507 111.427 148.614 111.993 148.827 112.54C149.041 113.073 149.334 113.553 149.707 113.98C150.094 114.393 150.534 114.72 151.027 114.96C151.534 115.187 152.081 115.3 152.667 115.3C153.027 115.3 153.407 115.227 153.807 115.08C154.221 114.933 154.607 114.733 154.967 114.48C155.341 114.213 155.647 113.913 155.887 113.58C156.141 113.233 156.287 112.873 156.327 112.5ZM163.412 116.2C162.586 116.2 161.819 116.06 161.112 115.78C160.406 115.5 159.786 115.073 159.252 114.5L159.712 113.8C160.286 114.347 160.866 114.747 161.452 115C162.039 115.24 162.679 115.36 163.372 115.36C164.266 115.36 164.986 115.173 165.532 114.8C166.092 114.427 166.372 113.907 166.372 113.24C166.372 112.787 166.239 112.44 165.972 112.2C165.719 111.947 165.346 111.747 164.852 111.6C164.372 111.44 163.786 111.273 163.092 111.1C162.386 110.913 161.786 110.72 161.292 110.52C160.812 110.32 160.452 110.06 160.212 109.74C159.972 109.42 159.852 108.987 159.852 108.44C159.852 107.76 160.019 107.2 160.352 106.76C160.699 106.307 161.159 105.973 161.732 105.76C162.319 105.533 162.966 105.42 163.672 105.42C164.486 105.42 165.192 105.553 165.792 105.82C166.406 106.087 166.872 106.44 167.192 106.88L166.652 107.52C166.319 107.093 165.886 106.78 165.352 106.58C164.819 106.367 164.232 106.26 163.592 106.26C163.112 106.26 162.659 106.327 162.232 106.46C161.806 106.593 161.459 106.813 161.192 107.12C160.939 107.413 160.812 107.813 160.812 108.32C160.812 108.72 160.906 109.033 161.092 109.26C161.292 109.487 161.586 109.673 161.972 109.82C162.359 109.953 162.839 110.1 163.412 110.26C164.226 110.46 164.926 110.667 165.512 110.88C166.099 111.093 166.552 111.373 166.872 111.72C167.192 112.053 167.352 112.527 167.352 113.14C167.352 114.087 166.992 114.833 166.272 115.38C165.552 115.927 164.599 116.2 163.412 116.2Z" fill="black"/>
<path d="M31.1666 56.75L15.1249 72.7917L7.83325 65.5" stroke="#F27EBE" stroke-width="2" stroke-linecap="round" stroke-linejoin="round"/>
<path d="M56.86 70V55.8H66.1V56.72H57.88V62.36H64.86V63.24H57.88V70H56.86ZM65.7497 67C65.7497 66.3733 65.9364 65.8333 66.3097 65.38C66.683 64.9133 67.1964 64.5533 67.8497 64.3C68.503 64.0333 69.2564 63.9 70.1097 63.9C70.643 63.9 71.1964 63.9467 71.7697 64.04C72.343 64.1333 72.8564 64.26 73.3097 64.42V63.44C73.3097 62.48 73.0297 61.7133 72.4697 61.14C71.923 60.5667 71.163 60.28 70.1897 60.28C69.6697 60.28 69.1297 60.3867 68.5697 60.6C68.0097 60.8133 67.4364 61.12 66.8497 61.52L66.4297 60.8C67.1097 60.3467 67.763 60.0067 68.3897 59.78C69.0297 59.54 69.663 59.42 70.2897 59.42C71.5297 59.42 72.5097 59.7867 73.2297 60.52C73.9497 61.2533 74.3097 62.2533 74.3097 63.52V68.68C74.3097 68.84 74.343 68.96 74.4097 69.04C74.4897 69.12 74.603 69.1667 74.7497 69.18V70C74.6297 70.0133 74.5297 70.02 74.4497 70.02C74.3697 70.02 74.303 70.02 74.2497 70.02C73.9964 69.98 73.7964 69.8733 73.6497 69.7C73.5164 69.5267 73.443 69.3333 73.4297 69.12V68.3C72.9497 68.9 72.3297 69.3667 71.5697 69.7C70.823 70.0333 70.0364 70.2 69.2097 70.2C68.5564 70.2 67.963 70.06 67.4297 69.78C66.9097 69.5 66.4964 69.12 66.1897 68.64C65.8964 68.1467 65.7497 67.6 65.7497 67ZM72.9097 67.86C73.043 67.6867 73.143 67.52 73.2097 67.36C73.2764 67.2 73.3097 67.0533 73.3097 66.92V65.2C72.8297 65.0133 72.3297 64.8733 71.8097 64.78C71.2897 64.6867 70.7564 64.64 70.2097 64.64C69.1697 64.64 68.323 64.8467 67.6697 65.26C67.0297 65.6733 66.7097 66.2333 66.7097 66.94C66.7097 67.38 66.823 67.7867 67.0497 68.16C67.2764 68.5333 67.5897 68.8333 67.9897 69.06C68.403 69.2867 68.8764 69.4 69.4097 69.4C70.1564 69.4 70.843 69.26 71.4697 68.98C72.1097 68.6867 72.5897 68.3133 72.9097 67.86ZM79.8789 70L75.5389 59.6H76.5989L80.4189 68.94L84.2589 59.6H85.2589L80.9189 70H79.8789ZM86.8653 70V59.6H87.8653V70H86.8653ZM86.8653 57.24V55.4H87.8653V57.24H86.8653ZM95.0459 70.2C94.3259 70.2 93.6526 70.06 93.0259 69.78C92.3993 69.4867 91.8526 69.0933 91.3859 68.6C90.9193 68.0933 90.5526 67.5133 90.2859 66.86C90.0326 66.2067 89.9059 65.5067 89.9059 64.76C89.9059 63.76 90.1259 62.86 90.5659 62.06C91.0059 61.26 91.6126 60.62 92.3859 60.14C93.1593 59.66 94.0393 59.42 95.0259 59.42C95.9726 59.42 96.8059 59.64 97.5259 60.08C98.2459 60.5067 98.7859 61.0933 99.1459 61.84L98.1659 62.16C97.8593 61.5867 97.4193 61.14 96.8459 60.82C96.2859 60.4867 95.6659 60.32 94.9859 60.32C94.2259 60.32 93.5393 60.5133 92.9259 60.9C92.3126 61.2867 91.8193 61.82 91.4459 62.5C91.0859 63.1667 90.9059 63.92 90.9059 64.76C90.9059 65.5867 91.0926 66.3467 91.4659 67.04C91.8393 67.7333 92.3326 68.2867 92.9459 68.7C93.5726 69.1 94.2593 69.3 95.0059 69.3C95.4859 69.3 95.9526 69.2133 96.4059 69.04C96.8726 68.8533 97.2726 68.6133 97.6059 68.32C97.9526 68.0267 98.1793 67.7133 98.2859 67.38L99.2659 67.66C99.0926 68.1533 98.7926 68.5933 98.3659 68.98C97.9393 69.3533 97.4393 69.6533 96.8659 69.88C96.3059 70.0933 95.6993 70.2 95.0459 70.2ZM105.407 70.2C104.673 70.2 103.993 70.06 103.367 69.78C102.753 69.5 102.22 69.1133 101.767 68.62C101.313 68.1133 100.96 67.5333 100.707 66.88C100.453 66.2267 100.327 65.54 100.327 64.82C100.327 64.0867 100.453 63.4 100.707 62.76C100.96 62.1067 101.313 61.5333 101.767 61.04C102.233 60.5333 102.773 60.14 103.387 59.86C104.013 59.5667 104.687 59.42 105.407 59.42C106.127 59.42 106.793 59.5667 107.407 59.86C108.02 60.14 108.56 60.5333 109.027 61.04C109.493 61.5333 109.853 62.1067 110.107 62.76C110.36 63.4 110.487 64.0867 110.487 64.82C110.487 65.54 110.36 66.2267 110.107 66.88C109.853 67.5333 109.493 68.1133 109.027 68.62C108.573 69.1133 108.033 69.5 107.407 69.78C106.793 70.06 106.127 70.2 105.407 70.2ZM101.327 64.86C101.327 65.6733 101.507 66.42 101.867 67.1C102.24 67.7667 102.733 68.3 103.347 68.7C103.96 69.1 104.64 69.3 105.387 69.3C106.133 69.3 106.813 69.1 107.427 68.7C108.053 68.2867 108.547 67.74 108.907 67.06C109.28 66.3667 109.467 65.6133 109.467 64.8C109.467 63.9867 109.28 63.24 108.907 62.56C108.547 61.88 108.053 61.34 107.427 60.94C106.813 60.5267 106.14 60.32 105.407 60.32C104.66 60.32 103.98 60.5267 103.367 60.94C102.753 61.3533 102.26 61.9 101.887 62.58C101.513 63.26 101.327 64.02 101.327 64.86ZM121.003 70H120.003V64.2C120.003 62.8667 119.809 61.8933 119.423 61.28C119.049 60.6533 118.449 60.34 117.623 60.34C117.036 60.34 116.456 60.48 115.883 60.76C115.323 61.04 114.829 61.4267 114.403 61.92C113.989 62.4 113.689 62.9467 113.503 63.56V70H112.503V59.6H113.443V62.08C113.723 61.5467 114.096 61.0867 114.563 60.7C115.029 60.3 115.549 59.9867 116.123 59.76C116.696 59.5333 117.289 59.42 117.903 59.42C118.476 59.42 118.956 59.5267 119.343 59.74C119.743 59.94 120.063 60.2333 120.303 60.62C120.556 61.0067 120.736 61.4867 120.843 62.06C120.949 62.6333 121.003 63.2867 121.003 64.02V70Z" fill="black"/>
<path d="M29.1666 194.75L13.1249 210.792L5.83325 203.5" stroke="#F27EBE" stroke-width="2" stroke-linecap="round" stroke-linejoin="round"/>
<path d="M65.12 196.16C64.8933 195.907 64.64 195.687 64.36 195.5C64.08 195.3 63.78 195.14 63.46 195.02C63.14 194.887 62.7933 194.787 62.42 194.72C62.0467 194.653 61.6467 194.62 61.22 194.62C59.8333 194.62 58.82 194.887 58.18 195.42C57.5533 195.94 57.24 196.647 57.24 197.54C57.24 198.14 57.38 198.62 57.66 198.98C57.9533 199.327 58.4067 199.607 59.02 199.82C59.6333 200.033 60.4267 200.24 61.4 200.44C62.4267 200.653 63.3133 200.907 64.06 201.2C64.8067 201.48 65.38 201.867 65.78 202.36C66.1933 202.853 66.4 203.52 66.4 204.36C66.4 204.987 66.28 205.54 66.04 206.02C65.8 206.487 65.4533 206.873 65 207.18C64.5467 207.487 64.0067 207.72 63.38 207.88C62.7667 208.04 62.08 208.12 61.32 208.12C60.5867 208.12 59.8867 208.04 59.22 207.88C58.5533 207.72 57.9267 207.487 57.34 207.18C56.7533 206.873 56.2067 206.48 55.7 206L56.24 205.18C56.5333 205.5 56.86 205.787 57.22 206.04C57.5933 206.28 57.9933 206.487 58.42 206.66C58.86 206.833 59.3267 206.973 59.82 207.08C60.3133 207.173 60.8267 207.22 61.36 207.22C62.6 207.22 63.5667 206.993 64.26 206.54C64.9667 206.073 65.32 205.387 65.32 204.48C65.32 203.853 65.16 203.347 64.84 202.96C64.52 202.573 64.0267 202.26 63.36 202.02C62.6933 201.767 61.86 201.533 60.86 201.32C59.86 201.107 59.0067 200.867 58.3 200.6C57.6067 200.333 57.08 199.973 56.72 199.52C56.3733 199.067 56.2 198.453 56.2 197.68C56.2 196.827 56.4067 196.107 56.82 195.52C57.2467 194.92 57.84 194.467 58.6 194.16C59.36 193.853 60.2333 193.7 61.22 193.7C61.8333 193.7 62.4 193.76 62.92 193.88C63.4533 194 63.94 194.187 64.38 194.44C64.8333 194.68 65.2533 194.987 65.64 195.36L65.12 196.16ZM72.7731 207.5C72.7065 207.527 72.5731 207.593 72.3731 207.7C72.1731 207.807 71.9198 207.907 71.6131 208C71.3065 208.08 70.9665 208.12 70.5931 208.12C70.2331 208.12 69.8931 208.053 69.5731 207.92C69.2665 207.773 69.0198 207.56 68.8331 207.28C68.6465 207 68.5531 206.66 68.5531 206.26V198.42H67.0931V197.6H68.5531V194.04H69.5531V197.6H71.9731V198.42H69.5531V206.02C69.5798 206.407 69.7198 206.7 69.9731 206.9C70.2265 207.087 70.5198 207.18 70.8531 207.18C71.2665 207.18 71.6265 207.113 71.9331 206.98C72.2398 206.833 72.4198 206.74 72.4731 206.7L72.7731 207.5ZM74.8594 211.52C75.0727 211.533 75.2594 211.533 75.4194 211.52C75.5927 211.52 75.7194 211.493 75.7994 211.44C75.9194 211.4 76.0394 211.293 76.1594 211.12C76.2927 210.96 76.466 210.633 76.6794 210.14C76.8927 209.66 77.1927 208.947 77.5794 208L72.9394 197.6H73.9994L78.1194 206.94L81.9394 197.6H82.9594L77.2594 211.28C77.1794 211.493 77.066 211.68 76.9194 211.84C76.786 212.013 76.6194 212.147 76.4194 212.24C76.2194 212.347 75.9794 212.407 75.6994 212.42C75.5794 212.433 75.4527 212.44 75.3194 212.44C75.186 212.453 75.0327 212.453 74.8594 212.44V211.52ZM84.6602 193.4H85.6802V205.94C85.6802 206.42 85.7802 206.753 85.9802 206.94C86.1802 207.113 86.4402 207.2 86.7602 207.2C86.9735 207.2 87.1935 207.18 87.4202 207.14C87.6468 207.1 87.8468 207.047 88.0202 206.98L88.2202 207.8C87.9935 207.88 87.7135 207.953 87.3802 208.02C87.0468 208.087 86.7602 208.12 86.5202 208.12C85.9602 208.12 85.5068 207.953 85.1602 207.62C84.8268 207.273 84.6602 206.813 84.6602 206.24V193.4ZM93.7959 208.2C93.0626 208.2 92.3826 208.06 91.7559 207.78C91.1293 207.487 90.5826 207.093 90.1159 206.6C89.6626 206.093 89.3026 205.513 89.0359 204.86C88.7826 204.193 88.6559 203.493 88.6559 202.76C88.6559 201.773 88.8759 200.88 89.3159 200.08C89.7559 199.28 90.3626 198.64 91.1359 198.16C91.9093 197.667 92.7759 197.42 93.7359 197.42C94.7226 197.42 95.5959 197.667 96.3559 198.16C97.1159 198.653 97.7159 199.307 98.1559 200.12C98.6093 200.92 98.8359 201.8 98.8359 202.76C98.8359 202.84 98.8359 202.92 98.8359 203C98.8359 203.08 98.8293 203.147 98.8159 203.2H89.6959C89.7493 203.987 89.9693 204.7 90.3559 205.34C90.7426 205.98 91.2359 206.487 91.8359 206.86C92.4493 207.22 93.1159 207.4 93.8359 207.4C94.5559 207.4 95.2359 207.213 95.8759 206.84C96.5159 206.467 96.9626 205.987 97.2159 205.4L98.0959 205.64C97.8959 206.133 97.5759 206.573 97.1359 206.96C96.7093 207.347 96.2026 207.653 95.6159 207.88C95.0426 208.093 94.4359 208.2 93.7959 208.2ZM89.6559 202.42H97.8759C97.8226 201.607 97.6093 200.887 97.2359 200.26C96.8626 199.633 96.3693 199.14 95.7559 198.78C95.1559 198.42 94.4893 198.24 93.7559 198.24C93.0226 198.24 92.3559 198.42 91.7559 198.78C91.1559 199.14 90.6693 199.633 90.2959 200.26C89.9226 200.887 89.7093 201.607 89.6559 202.42ZM115.047 194.72H109.847V208H108.827V194.72H103.627V193.8H115.047V194.72ZM116.576 208V197.6H117.576V208H116.576ZM116.576 195.24V193.4H117.576V195.24H116.576ZM120.416 193.4H121.436V205.94C121.436 206.42 121.536 206.753 121.736 206.94C121.936 207.113 122.196 207.2 122.516 207.2C122.73 207.2 122.95 207.18 123.176 207.14C123.403 207.1 123.603 207.047 123.776 206.98L123.976 207.8C123.75 207.88 123.47 207.953 123.136 208.02C122.803 208.087 122.516 208.12 122.276 208.12C121.716 208.12 121.263 207.953 120.916 207.62C120.583 207.273 120.416 206.813 120.416 206.24V193.4ZM129.552 208.2C128.819 208.2 128.139 208.06 127.512 207.78C126.886 207.487 126.339 207.093 125.872 206.6C125.419 206.093 125.059 205.513 124.792 204.86C124.539 204.193 124.412 203.493 124.412 202.76C124.412 201.773 124.632 200.88 125.072 200.08C125.512 199.28 126.119 198.64 126.892 198.16C127.666 197.667 128.532 197.42 129.492 197.42C130.479 197.42 131.352 197.667 132.112 198.16C132.872 198.653 133.472 199.307 133.912 200.12C134.366 200.92 134.592 201.8 134.592 202.76C134.592 202.84 134.592 202.92 134.592 203C134.592 203.08 134.586 203.147 134.572 203.2H125.452C125.506 203.987 125.726 204.7 126.112 205.34C126.499 205.98 126.992 206.487 127.592 206.86C128.206 207.22 128.872 207.4 129.592 207.4C130.312 207.4 130.992 207.213 131.632 206.84C132.272 206.467 132.719 205.987 132.972 205.4L133.852 205.64C133.652 206.133 133.332 206.573 132.892 206.96C132.466 207.347 131.959 207.653 131.372 207.88C130.799 208.093 130.192 208.2 129.552 208.2ZM125.412 202.42H133.632C133.579 201.607 133.366 200.887 132.992 200.26C132.619 199.633 132.126 199.14 131.512 198.78C130.912 198.42 130.246 198.24 129.512 198.24C128.779 198.24 128.112 198.42 127.512 198.78C126.912 199.14 126.426 199.633 126.052 200.26C125.679 200.887 125.466 201.607 125.412 202.42Z" fill="black"/>
<path d="M30.1666 148.75L14.1249 164.792L6.83325 157.5" stroke="#F27EBE" stroke-width="2" stroke-linecap="round" stroke-linejoin="round"/>
<path d="M67.32 158.32C67.32 159.013 67.1467 159.64 66.8 160.2C66.4667 160.747 66.0067 161.187 65.42 161.52C64.8467 161.84 64.2067 162 63.5 162H56.86V147.8H63.48C64.1467 147.8 64.72 147.98 65.2 148.34C65.6933 148.687 66.0667 149.14 66.32 149.7C66.5867 150.247 66.72 150.82 66.72 151.42C66.72 152.127 66.54 152.787 66.18 153.4C65.82 154 65.32 154.44 64.68 154.72C65.4933 154.96 66.1333 155.413 66.6 156.08C67.08 156.733 67.32 157.48 67.32 158.32ZM66.3 158.18C66.3 157.673 66.18 157.2 65.94 156.76C65.7133 156.32 65.4 155.96 65 155.68C64.6 155.4 64.1467 155.26 63.64 155.26H57.88V161.08H63.5C64.02 161.08 64.4933 160.947 64.92 160.68C65.3467 160.4 65.68 160.04 65.92 159.6C66.1733 159.147 66.3 158.673 66.3 158.18ZM57.88 148.72V154.4H63.08C63.6 154.4 64.0533 154.267 64.44 154C64.84 153.72 65.1533 153.367 65.38 152.94C65.6067 152.5 65.72 152.04 65.72 151.56C65.72 151.04 65.6133 150.567 65.4 150.14C65.1867 149.713 64.8867 149.373 64.5 149.12C64.1267 148.853 63.6933 148.72 63.2 148.72H57.88ZM74.3422 152.5C73.4089 152.527 72.5889 152.807 71.8822 153.34C71.1889 153.86 70.7022 154.58 70.4222 155.5V162H69.4222V151.6H70.3822V154.16C70.7422 153.427 71.2222 152.833 71.8222 152.38C72.4222 151.913 73.0555 151.647 73.7222 151.58C73.8555 151.567 73.9755 151.56 74.0822 151.56C74.1889 151.56 74.2755 151.56 74.3422 151.56V152.5ZM75.7586 157.6V151.6H76.7586V157.46C76.7586 158.753 76.9719 159.72 77.3986 160.36C77.8386 160.987 78.4986 161.3 79.3786 161.3C79.9653 161.3 80.5253 161.173 81.0586 160.92C81.6053 160.653 82.0853 160.287 82.4986 159.82C82.9119 159.34 83.2186 158.787 83.4186 158.16V151.6H84.4186V160.68C84.4186 160.84 84.4519 160.96 84.5186 161.04C84.5986 161.12 84.7053 161.167 84.8386 161.18V162C84.7053 162.013 84.5986 162.02 84.5186 162.02C84.4519 162.02 84.3919 162.013 84.3386 162C84.1119 161.973 83.9253 161.88 83.7786 161.72C83.6319 161.547 83.5519 161.34 83.5386 161.1L83.5186 159.54C83.0653 160.367 82.4386 161.02 81.6386 161.5C80.8519 161.967 79.9986 162.2 79.0786 162.2C77.9853 162.2 77.1586 161.813 76.5986 161.04C76.0386 160.267 75.7586 159.12 75.7586 157.6ZM91.4169 162.16C90.7102 162.16 90.0502 162.013 89.4369 161.72C88.8369 161.427 88.3169 161.027 87.8769 160.52C87.4502 160 87.1102 159.427 86.8569 158.8C86.6169 158.16 86.4969 157.5 86.4969 156.82C86.4969 156.113 86.6102 155.433 86.8369 154.78C87.0769 154.127 87.4102 153.553 87.8369 153.06C88.2769 152.553 88.7902 152.153 89.3769 151.86C89.9635 151.567 90.6169 151.42 91.3369 151.42C92.2435 151.42 93.0302 151.66 93.6969 152.14C94.3769 152.607 94.9502 153.18 95.4169 153.86V151.6H96.3369V162.2C96.3369 163.133 96.1102 163.92 95.6569 164.56C95.2035 165.2 94.6035 165.673 93.8569 165.98C93.1102 166.3 92.3035 166.46 91.4369 166.46C90.2235 166.46 89.2569 166.24 88.5369 165.8C87.8302 165.36 87.2569 164.78 86.8169 164.06L87.4969 163.6C87.9102 164.293 88.4702 164.807 89.1769 165.14C89.8835 165.473 90.6369 165.64 91.4369 165.64C92.1435 165.64 92.7902 165.507 93.3769 165.24C93.9769 164.987 94.4502 164.6 94.7969 164.08C95.1569 163.573 95.3369 162.947 95.3369 162.2V159.92C94.9235 160.6 94.3569 161.147 93.6369 161.56C92.9302 161.96 92.1902 162.16 91.4169 162.16ZM91.6569 161.3C92.0969 161.3 92.5235 161.22 92.9369 161.06C93.3502 160.9 93.7302 160.687 94.0769 160.42C94.4235 160.14 94.7102 159.833 94.9369 159.5C95.1635 159.167 95.2969 158.833 95.3369 158.5V155.08C95.1369 154.547 94.8302 154.073 94.4169 153.66C94.0169 153.233 93.5635 152.907 93.0569 152.68C92.5502 152.44 92.0302 152.32 91.4969 152.32C90.8702 152.32 90.3102 152.453 89.8169 152.72C89.3235 152.987 88.9035 153.34 88.5569 153.78C88.2235 154.207 87.9635 154.693 87.7769 155.24C87.6035 155.773 87.5169 156.307 87.5169 156.84C87.5169 157.44 87.6235 158.007 87.8369 158.54C88.0502 159.073 88.3435 159.553 88.7169 159.98C89.1035 160.393 89.5435 160.72 90.0369 160.96C90.5435 161.187 91.0835 161.3 91.6569 161.3ZM103.503 162.2C102.77 162.2 102.09 162.06 101.463 161.78C100.836 161.487 100.29 161.093 99.823 160.6C99.3696 160.093 99.0096 159.513 98.743 158.86C98.4896 158.193 98.363 157.493 98.363 156.76C98.363 155.773 98.583 154.88 99.023 154.08C99.463 153.28 100.07 152.64 100.843 152.16C101.616 151.667 102.483 151.42 103.443 151.42C104.43 151.42 105.303 151.667 106.063 152.16C106.823 152.653 107.423 153.307 107.863 154.12C108.316 154.92 108.543 155.8 108.543 156.76C108.543 156.84 108.543 156.92 108.543 157C108.543 157.08 108.536 157.147 108.523 157.2H99.403C99.4563 157.987 99.6763 158.7 100.063 159.34C100.45 159.98 100.943 160.487 101.543 160.86C102.156 161.22 102.823 161.4 103.543 161.4C104.263 161.4 104.943 161.213 105.583 160.84C106.223 160.467 106.67 159.987 106.923 159.4L107.803 159.64C107.603 160.133 107.283 160.573 106.843 160.96C106.416 161.347 105.91 161.653 105.323 161.88C104.75 162.093 104.143 162.2 103.503 162.2ZM99.363 156.42H107.583C107.53 155.607 107.316 154.887 106.943 154.26C106.57 153.633 106.076 153.14 105.463 152.78C104.863 152.42 104.196 152.24 103.463 152.24C102.73 152.24 102.063 152.42 101.463 152.78C100.863 153.14 100.376 153.633 100.003 154.26C99.6296 154.887 99.4163 155.607 99.363 156.42ZM115.283 152.5C114.35 152.527 113.53 152.807 112.823 153.34C112.13 153.86 111.643 154.58 111.363 155.5V162H110.363V151.6H111.323V154.16C111.683 153.427 112.163 152.833 112.763 152.38C113.363 151.913 113.996 151.647 114.663 151.58C114.796 151.567 114.916 151.56 115.023 151.56C115.13 151.56 115.216 151.56 115.283 151.56V152.5ZM116.8 162V151.6H117.8V162H116.8ZM116.8 149.24V147.4H117.8V149.24H116.8ZM129.06 162H128.06V156.2C128.06 154.867 127.867 153.893 127.48 153.28C127.107 152.653 126.507 152.34 125.68 152.34C125.093 152.34 124.513 152.48 123.94 152.76C123.38 153.04 122.887 153.427 122.46 153.92C122.047 154.4 121.747 154.947 121.56 155.56V162H120.56V151.6H121.5V154.08C121.78 153.547 122.153 153.087 122.62 152.7C123.087 152.3 123.607 151.987 124.18 151.76C124.753 151.533 125.347 151.42 125.96 151.42C126.533 151.42 127.013 151.527 127.4 151.74C127.8 151.94 128.12 152.233 128.36 152.62C128.613 153.007 128.793 153.487 128.9 154.06C129.007 154.633 129.06 155.287 129.06 156.02V162ZM130.984 156.82C130.984 155.847 131.19 154.953 131.604 154.14C132.017 153.327 132.584 152.673 133.304 152.18C134.024 151.673 134.844 151.42 135.764 151.42C136.67 151.42 137.47 151.66 138.164 152.14C138.87 152.62 139.424 153.193 139.824 153.86V147.4H140.824V160.68C140.824 160.84 140.857 160.96 140.924 161.04C141.004 161.12 141.11 161.167 141.244 161.18V162C141.03 162.027 140.87 162.033 140.764 162.02C140.524 161.98 140.324 161.867 140.164 161.68C140.004 161.493 139.924 161.293 139.924 161.08V159.92C139.497 160.613 138.924 161.167 138.204 161.58C137.484 161.993 136.744 162.2 135.984 162.2C135.264 162.2 134.597 162.053 133.984 161.76C133.37 161.453 132.837 161.047 132.384 160.54C131.944 160.033 131.597 159.46 131.344 158.82C131.104 158.18 130.984 157.513 130.984 156.82ZM139.824 158.5V155.08C139.637 154.573 139.337 154.113 138.924 153.7C138.51 153.273 138.044 152.94 137.524 152.7C137.004 152.447 136.49 152.32 135.984 152.32C135.384 152.32 134.837 152.447 134.344 152.7C133.864 152.953 133.444 153.293 133.084 153.72C132.737 154.147 132.47 154.633 132.284 155.18C132.097 155.713 132.004 156.267 132.004 156.84C132.004 157.427 132.11 157.993 132.324 158.54C132.537 159.073 132.83 159.553 133.204 159.98C133.59 160.393 134.03 160.72 134.524 160.96C135.03 161.187 135.577 161.3 136.164 161.3C136.524 161.3 136.904 161.227 137.304 161.08C137.717 160.933 138.104 160.733 138.464 160.48C138.837 160.213 139.144 159.913 139.384 159.58C139.637 159.233 139.784 158.873 139.824 158.5ZM146.908 162.2C146.082 162.2 145.315 162.06 144.608 161.78C143.902 161.5 143.282 161.073 142.748 160.5L143.208 159.8C143.782 160.347 144.362 160.747 144.948 161C145.535 161.24 146.175 161.36 146.868 161.36C147.762 161.36 148.482 161.173 149.028 160.8C149.588 160.427 149.868 159.907 149.868 159.24C149.868 158.787 149.735 158.44 149.468 158.2C149.215 157.947 148.842 157.747 148.348 157.6C147.868 157.44 147.282 157.273 146.588 157.1C145.882 156.913 145.282 156.72 144.788 156.52C144.308 156.32 143.948 156.06 143.708 155.74C143.468 155.42 143.348 154.987 143.348 154.44C143.348 153.76 143.515 153.2 143.848 152.76C144.195 152.307 144.655 151.973 145.228 151.76C145.815 151.533 146.462 151.42 147.168 151.42C147.982 151.42 148.688 151.553 149.288 151.82C149.902 152.087 150.368 152.44 150.688 152.88L150.148 153.52C149.815 153.093 149.382 152.78 148.848 152.58C148.315 152.367 147.728 152.26 147.088 152.26C146.608 152.26 146.155 152.327 145.728 152.46C145.302 152.593 144.955 152.813 144.688 153.12C144.435 153.413 144.308 153.813 144.308 154.32C144.308 154.72 144.402 155.033 144.588 155.26C144.788 155.487 145.082 155.673 145.468 155.82C145.855 155.953 146.335 156.1 146.908 156.26C147.722 156.46 148.422 156.667 149.008 156.88C149.595 157.093 150.048 157.373 150.368 157.72C150.688 158.053 150.848 158.527 150.848 159.14C150.848 160.087 150.488 160.833 149.768 161.38C149.048 161.927 148.095 162.2 146.908 162.2ZM152.819 162V151.6H153.819V162H152.819ZM152.819 149.24V147.4H153.819V149.24H152.819ZM160.779 162.16C160.073 162.16 159.413 162.013 158.799 161.72C158.199 161.427 157.679 161.027 157.239 160.52C156.813 160 156.473 159.427 156.219 158.8C155.979 158.16 155.859 157.5 155.859 156.82C155.859 156.113 155.973 155.433 156.199 154.78C156.439 154.127 156.773 153.553 157.199 153.06C157.639 152.553 158.153 152.153 158.739 151.86C159.326 151.567 159.979 151.42 160.699 151.42C161.606 151.42 162.393 151.66 163.059 152.14C163.739 152.607 164.313 153.18 164.779 153.86V151.6H165.699V162.2C165.699 163.133 165.473 163.92 165.019 164.56C164.566 165.2 163.966 165.673 163.219 165.98C162.473 166.3 161.666 166.46 160.799 166.46C159.586 166.46 158.619 166.24 157.899 165.8C157.193 165.36 156.619 164.78 156.179 164.06L156.859 163.6C157.273 164.293 157.833 164.807 158.539 165.14C159.246 165.473 159.999 165.64 160.799 165.64C161.506 165.64 162.153 165.507 162.739 165.24C163.339 164.987 163.813 164.6 164.159 164.08C164.519 163.573 164.699 162.947 164.699 162.2V159.92C164.286 160.6 163.719 161.147 162.999 161.56C162.293 161.96 161.553 162.16 160.779 162.16ZM161.019 161.3C161.459 161.3 161.886 161.22 162.299 161.06C162.713 160.9 163.093 160.687 163.439 160.42C163.786 160.14 164.073 159.833 164.299 159.5C164.526 159.167 164.659 158.833 164.699 158.5V155.08C164.499 154.547 164.193 154.073 163.779 153.66C163.379 153.233 162.926 152.907 162.419 152.68C161.913 152.44 161.393 152.32 160.859 152.32C160.233 152.32 159.673 152.453 159.179 152.72C158.686 152.987 158.266 153.34 157.919 153.78C157.586 154.207 157.326 154.693 157.139 155.24C156.966 155.773 156.879 156.307 156.879 156.84C156.879 157.44 156.986 158.007 157.199 158.54C157.413 159.073 157.706 159.553 158.079 159.98C158.466 160.393 158.906 160.72 159.399 160.96C159.906 161.187 160.446 161.3 161.019 161.3ZM173.085 161.5C173.019 161.527 172.885 161.593 172.685 161.7C172.485 161.807 172.232 161.907 171.925 162C171.619 162.08 171.279 162.12 170.905 162.12C170.545 162.12 170.205 162.053 169.885 161.92C169.579 161.773 169.332 161.56 169.145 161.28C168.959 161 168.865 160.66 168.865 160.26V152.42H167.405V151.6H168.865V148.04H169.865V151.6H172.285V152.42H169.865V160.02C169.892 160.407 170.032 160.7 170.285 160.9C170.539 161.087 170.832 161.18 171.165 161.18C171.579 161.18 171.939 161.113 172.245 160.98C172.552 160.833 172.732 160.74 172.785 160.7L173.085 161.5ZM178.696 162.2C177.963 162.2 177.283 162.06 176.656 161.78C176.03 161.487 175.483 161.093 175.016 160.6C174.563 160.093 174.203 159.513 173.936 158.86C173.683 158.193 173.556 157.493 173.556 156.76C173.556 155.773 173.776 154.88 174.216 154.08C174.656 153.28 175.263 152.64 176.036 152.16C176.81 151.667 177.676 151.42 178.636 151.42C179.623 151.42 180.496 151.667 181.256 152.16C182.016 152.653 182.616 153.307 183.056 154.12C183.51 154.92 183.736 155.8 183.736 156.76C183.736 156.84 183.736 156.92 183.736 157C183.736 157.08 183.73 157.147 183.716 157.2H174.596C174.65 157.987 174.87 158.7 175.256 159.34C175.643 159.98 176.136 160.487 176.736 160.86C177.35 161.22 178.016 161.4 178.736 161.4C179.456 161.4 180.136 161.213 180.776 160.84C181.416 160.467 181.863 159.987 182.116 159.4L182.996 159.64C182.796 160.133 182.476 160.573 182.036 160.96C181.61 161.347 181.103 161.653 180.516 161.88C179.943 162.093 179.336 162.2 178.696 162.2ZM174.556 156.42H182.776C182.723 155.607 182.51 154.887 182.136 154.26C181.763 153.633 181.27 153.14 180.656 152.78C180.056 152.42 179.39 152.24 178.656 152.24C177.923 152.24 177.256 152.42 176.656 152.78C176.056 153.14 175.57 153.633 175.196 154.26C174.823 154.887 174.61 155.607 174.556 156.42ZM190.476 152.5C189.543 152.527 188.723 152.807 188.016 153.34C187.323 153.86 186.836 154.58 186.556 155.5V162H185.556V151.6H186.516V154.16C186.876 153.427 187.356 152.833 187.956 152.38C188.556 151.913 189.19 151.647 189.856 151.58C189.99 151.567 190.11 151.56 190.216 151.56C190.323 151.56 190.41 151.56 190.476 151.56V152.5Z" fill="black"/>
<path d="M30.1666 240.75L14.1249 256.792L6.83325 249.5" stroke="#F27EBE" stroke-width="2" stroke-linecap="round" stroke-linejoin="round"/>
<path d="M66.78 240.72H61.58V254H60.56V240.72H55.36V239.8H66.78V240.72ZM70.4633 254.2C69.7299 254.2 69.0499 254.06 68.4233 253.78C67.7966 253.487 67.2499 253.093 66.7833 252.6C66.3299 252.093 65.9699 251.513 65.7033 250.86C65.4499 250.193 65.3233 249.493 65.3233 248.76C65.3233 247.773 65.5433 246.88 65.9833 246.08C66.4233 245.28 67.0299 244.64 67.8033 244.16C68.5766 243.667 69.4433 243.42 70.4033 243.42C71.3899 243.42 72.2633 243.667 73.0233 244.16C73.7833 244.653 74.3833 245.307 74.8233 246.12C75.2766 246.92 75.5033 247.8 75.5033 248.76C75.5033 248.84 75.5033 248.92 75.5033 249C75.5033 249.08 75.4966 249.147 75.4833 249.2H66.3633C66.4166 249.987 66.6366 250.7 67.0233 251.34C67.4099 251.98 67.9033 252.487 68.5033 252.86C69.1166 253.22 69.7833 253.4 70.5033 253.4C71.2233 253.4 71.9033 253.213 72.5433 252.84C73.1833 252.467 73.6299 251.987 73.8833 251.4L74.7633 251.64C74.5633 252.133 74.2433 252.573 73.8033 252.96C73.3766 253.347 72.8699 253.653 72.2833 253.88C71.7099 254.093 71.1033 254.2 70.4633 254.2ZM66.3233 248.42H74.5433C74.4899 247.607 74.2766 246.887 73.9033 246.26C73.5299 245.633 73.0366 245.14 72.4233 244.78C71.8233 244.42 71.1566 244.24 70.4233 244.24C69.6899 244.24 69.0233 244.42 68.4233 244.78C67.8233 245.14 67.3366 245.633 66.9633 246.26C66.5899 246.887 66.3766 247.607 66.3233 248.42ZM80.6034 254.2C79.7768 254.2 79.0101 254.06 78.3034 253.78C77.5968 253.5 76.9768 253.073 76.4434 252.5L76.9034 251.8C77.4768 252.347 78.0568 252.747 78.6434 253C79.2301 253.24 79.8701 253.36 80.5634 253.36C81.4568 253.36 82.1768 253.173 82.7234 252.8C83.2834 252.427 83.5634 251.907 83.5634 251.24C83.5634 250.787 83.4301 250.44 83.1634 250.2C82.9101 249.947 82.5368 249.747 82.0434 249.6C81.5634 249.44 80.9768 249.273 80.2834 249.1C79.5768 248.913 78.9768 248.72 78.4834 248.52C78.0034 248.32 77.6434 248.06 77.4034 247.74C77.1634 247.42 77.0434 246.987 77.0434 246.44C77.0434 245.76 77.2101 245.2 77.5434 244.76C77.8901 244.307 78.3501 243.973 78.9234 243.76C79.5101 243.533 80.1568 243.42 80.8634 243.42C81.6768 243.42 82.3834 243.553 82.9834 243.82C83.5968 244.087 84.0634 244.44 84.3834 244.88L83.8434 245.52C83.5101 245.093 83.0768 244.78 82.5434 244.58C82.0101 244.367 81.4234 244.26 80.7834 244.26C80.3034 244.26 79.8501 244.327 79.4234 244.46C78.9968 244.593 78.6501 244.813 78.3834 245.12C78.1301 245.413 78.0034 245.813 78.0034 246.32C78.0034 246.72 78.0968 247.033 78.2834 247.26C78.4834 247.487 78.7768 247.673 79.1634 247.82C79.5501 247.953 80.0301 248.1 80.6034 248.26C81.4168 248.46 82.1168 248.667 82.7034 248.88C83.2901 249.093 83.7434 249.373 84.0634 249.72C84.3834 250.053 84.5434 250.527 84.5434 251.14C84.5434 252.087 84.1834 252.833 83.4634 253.38C82.7434 253.927 81.7901 254.2 80.6034 254.2ZM91.1538 253.5C91.0871 253.527 90.9538 253.593 90.7538 253.7C90.5538 253.807 90.3004 253.907 89.9938 254C89.6871 254.08 89.3471 254.12 88.9738 254.12C88.6138 254.12 88.2738 254.053 87.9538 253.92C87.6471 253.773 87.4004 253.56 87.2138 253.28C87.0271 253 86.9338 252.66 86.9338 252.26V244.42H85.4738V243.6H86.9338V240.04H87.9338V243.6H90.3538V244.42H87.9338V252.02C87.9604 252.407 88.1004 252.7 88.3538 252.9C88.6071 253.087 88.9004 253.18 89.2338 253.18C89.6471 253.18 90.0071 253.113 90.3138 252.98C90.6204 252.833 90.8004 252.74 90.8538 252.7L91.1538 253.5ZM95.82 254.2C94.9933 254.2 94.2267 254.06 93.52 253.78C92.8133 253.5 92.1933 253.073 91.66 252.5L92.12 251.8C92.6933 252.347 93.2733 252.747 93.86 253C94.4467 253.24 95.0867 253.36 95.78 253.36C96.6733 253.36 97.3933 253.173 97.94 252.8C98.5 252.427 98.78 251.907 98.78 251.24C98.78 250.787 98.6467 250.44 98.38 250.2C98.1267 249.947 97.7533 249.747 97.26 249.6C96.78 249.44 96.1933 249.273 95.5 249.1C94.7933 248.913 94.1933 248.72 93.7 248.52C93.22 248.32 92.86 248.06 92.62 247.74C92.38 247.42 92.26 246.987 92.26 246.44C92.26 245.76 92.4267 245.2 92.76 244.76C93.1067 244.307 93.5667 243.973 94.14 243.76C94.7267 243.533 95.3733 243.42 96.08 243.42C96.8933 243.42 97.6 243.553 98.2 243.82C98.8133 244.087 99.28 244.44 99.6 244.88L99.06 245.52C98.7267 245.093 98.2933 244.78 97.76 244.58C97.2267 244.367 96.64 244.26 96 244.26C95.52 244.26 95.0667 244.327 94.64 244.46C94.2133 244.593 93.8667 244.813 93.6 245.12C93.3467 245.413 93.22 245.813 93.22 246.32C93.22 246.72 93.3133 247.033 93.5 247.26C93.7 247.487 93.9933 247.673 94.38 247.82C94.7667 247.953 95.2467 248.1 95.82 248.26C96.6333 248.46 97.3333 248.667 97.92 248.88C98.5067 249.093 98.96 249.373 99.28 249.72C99.6 250.053 99.76 250.527 99.76 251.14C99.76 252.087 99.4 252.833 98.68 253.38C97.96 253.927 97.0067 254.2 95.82 254.2Z" fill="black"/>
</svg>
