<svg width="248" height="447" viewBox="0 0 248 447" fill="none" xmlns="http://www.w3.org/2000/svg">
<path d="M30.1666 10.75L14.1249 26.7917L6.83325 19.5" stroke="#F27EBE" stroke-width="2" stroke-linecap="round" stroke-linejoin="round"/>
<path d="M56.325 28V10.25H63.625C64.375 10.25 65.0583 10.4083 65.675 10.725C66.3083 11.0417 66.8583 11.4667 67.325 12C67.7917 12.5167 68.15 13.1 68.4 13.75C68.6667 14.4 68.8 15.0667 68.8 15.75C68.8 16.7 68.5833 17.6 68.15 18.45C67.7333 19.2833 67.15 19.9667 66.4 20.5C65.6667 21.0333 64.7917 21.3 63.775 21.3H57.6V28H56.325ZM57.6 20.125H63.725C64.5083 20.125 65.1833 19.9167 65.75 19.5C66.3167 19.0833 66.75 18.5417 67.05 17.875C67.35 17.2083 67.5 16.5 67.5 15.75C67.5 14.9667 67.3167 14.25 66.95 13.6C66.6 12.9333 66.125 12.4 65.525 12C64.9417 11.6 64.2917 11.4 63.575 11.4H57.6V20.125ZM77.1523 16.125C75.9857 16.1583 74.9607 16.5083 74.0773 17.175C73.2107 17.825 72.6023 18.725 72.2523 19.875V28H71.0023V15H72.2023V18.2C72.6523 17.2833 73.2523 16.5417 74.0023 15.975C74.7523 15.3917 75.544 15.0583 76.3773 14.975C76.544 14.9583 76.694 14.95 76.8273 14.95C76.9607 14.95 77.069 14.95 77.1523 14.95V16.125ZM83.9852 28.25C83.0685 28.25 82.2185 28.075 81.4352 27.725C80.6685 27.375 80.0018 26.8917 79.4352 26.275C78.8685 25.6417 78.4268 24.9167 78.1102 24.1C77.7935 23.2833 77.6352 22.425 77.6352 21.525C77.6352 20.6083 77.7935 19.75 78.1102 18.95C78.4268 18.1333 78.8685 17.4167 79.4352 16.8C80.0185 16.1667 80.6935 15.675 81.4602 15.325C82.2435 14.9583 83.0852 14.775 83.9852 14.775C84.8852 14.775 85.7185 14.9583 86.4852 15.325C87.2518 15.675 87.9268 16.1667 88.5102 16.8C89.0935 17.4167 89.5435 18.1333 89.8602 18.95C90.1768 19.75 90.3352 20.6083 90.3352 21.525C90.3352 22.425 90.1768 23.2833 89.8602 24.1C89.5435 24.9167 89.0935 25.6417 88.5102 26.275C87.9435 26.8917 87.2685 27.375 86.4852 27.725C85.7185 28.075 84.8852 28.25 83.9852 28.25ZM78.8852 21.575C78.8852 22.5917 79.1102 23.525 79.5602 24.375C80.0268 25.2083 80.6435 25.875 81.4102 26.375C82.1768 26.875 83.0268 27.125 83.9602 27.125C84.8935 27.125 85.7435 26.875 86.5102 26.375C87.2935 25.8583 87.9102 25.175 88.3602 24.325C88.8268 23.4583 89.0602 22.5167 89.0602 21.5C89.0602 20.4833 88.8268 19.55 88.3602 18.7C87.9102 17.85 87.2935 17.175 86.5102 16.675C85.7435 16.1583 84.9018 15.9 83.9852 15.9C83.0518 15.9 82.2018 16.1583 81.4352 16.675C80.6685 17.1917 80.0518 17.875 79.5852 18.725C79.1185 19.575 78.8852 20.525 78.8852 21.575ZM98.4842 27.375C98.4008 27.4083 98.2342 27.4917 97.9842 27.625C97.7342 27.7583 97.4175 27.8833 97.0342 28C96.6508 28.1 96.2258 28.15 95.7592 28.15C95.3092 28.15 94.8842 28.0667 94.4842 27.9C94.1008 27.7167 93.7925 27.45 93.5592 27.1C93.3258 26.75 93.2092 26.325 93.2092 25.825V16.025H91.3842V15H93.2092V10.55H94.4592V15H97.4842V16.025H94.4592V25.525C94.4925 26.0083 94.6675 26.375 94.9842 26.625C95.3008 26.8583 95.6675 26.975 96.0842 26.975C96.6008 26.975 97.0508 26.8917 97.4342 26.725C97.8175 26.5417 98.0425 26.425 98.1092 26.375L98.4842 27.375ZM105.423 28.25C104.506 28.25 103.656 28.075 102.873 27.725C102.106 27.375 101.44 26.8917 100.873 26.275C100.306 25.6417 99.8645 24.9167 99.5479 24.1C99.2312 23.2833 99.0729 22.425 99.0729 21.525C99.0729 20.6083 99.2312 19.75 99.5479 18.95C99.8645 18.1333 100.306 17.4167 100.873 16.8C101.456 16.1667 102.131 15.675 102.898 15.325C103.681 14.9583 104.523 14.775 105.423 14.775C106.323 14.775 107.156 14.9583 107.923 15.325C108.69 15.675 109.365 16.1667 109.948 16.8C110.531 17.4167 110.981 18.1333 111.298 18.95C111.615 19.75 111.773 20.6083 111.773 21.525C111.773 22.425 111.615 23.2833 111.298 24.1C110.981 24.9167 110.531 25.6417 109.948 26.275C109.381 26.8917 108.706 27.375 107.923 27.725C107.156 28.075 106.323 28.25 105.423 28.25ZM100.323 21.575C100.323 22.5917 100.548 23.525 100.998 24.375C101.465 25.2083 102.081 25.875 102.848 26.375C103.615 26.875 104.465 27.125 105.398 27.125C106.331 27.125 107.181 26.875 107.948 26.375C108.731 25.8583 109.348 25.175 109.798 24.325C110.265 23.4583 110.498 22.5167 110.498 21.5C110.498 20.4833 110.265 19.55 109.798 18.7C109.348 17.85 108.731 17.175 107.948 16.675C107.181 16.1583 106.34 15.9 105.423 15.9C104.49 15.9 103.64 16.1583 102.873 16.675C102.106 17.1917 101.49 17.875 101.023 18.725C100.556 19.575 100.323 20.525 100.323 21.575ZM119.922 27.375C119.839 27.4083 119.672 27.4917 119.422 27.625C119.172 27.7583 118.855 27.8833 118.472 28C118.089 28.1 117.664 28.15 117.197 28.15C116.747 28.15 116.322 28.0667 115.922 27.9C115.539 27.7167 115.23 27.45 114.997 27.1C114.764 26.75 114.647 26.325 114.647 25.825V16.025H112.822V15H114.647V10.55H115.897V15H118.922V16.025H115.897V25.525C115.93 26.0083 116.105 26.375 116.422 26.625C116.739 26.8583 117.105 26.975 117.522 26.975C118.039 26.975 118.489 26.8917 118.872 26.725C119.255 26.5417 119.48 26.425 119.547 26.375L119.922 27.375ZM122.53 32.4C122.796 32.4167 123.03 32.4167 123.23 32.4C123.446 32.4 123.605 32.3667 123.705 32.3C123.855 32.25 124.005 32.1167 124.155 31.9C124.321 31.7 124.538 31.2917 124.805 30.675C125.071 30.075 125.446 29.1833 125.93 28L120.13 15H121.455L126.605 26.675L131.38 15H132.655L125.53 32.1C125.43 32.3667 125.288 32.6 125.105 32.8C124.938 33.0167 124.73 33.1833 124.48 33.3C124.23 33.4333 123.93 33.5083 123.58 33.525C123.43 33.5417 123.271 33.55 123.105 33.55C122.938 33.5667 122.746 33.5667 122.53 33.55V32.4ZM141.031 28.25C139.914 28.25 138.914 27.9583 138.031 27.375C137.164 26.775 136.464 26.05 135.931 25.2V33.325H134.681V15H135.831V17.6C136.364 16.7667 137.072 16.0917 137.956 15.575C138.839 15.0417 139.772 14.775 140.756 14.775C141.672 14.775 142.506 14.9667 143.256 15.35C144.006 15.7167 144.656 16.225 145.206 16.875C145.772 17.5083 146.206 18.225 146.506 19.025C146.822 19.825 146.981 20.6583 146.981 21.525C146.981 22.725 146.731 23.8417 146.231 24.875C145.731 25.8917 145.031 26.7083 144.131 27.325C143.247 27.9417 142.214 28.25 141.031 28.25ZM140.731 27.125C141.497 27.125 142.181 26.9667 142.781 26.65C143.397 26.3333 143.922 25.9083 144.356 25.375C144.789 24.8417 145.122 24.2417 145.356 23.575C145.589 22.9083 145.706 22.225 145.706 21.525C145.706 20.775 145.572 20.0667 145.306 19.4C145.039 18.7167 144.664 18.1167 144.181 17.6C143.714 17.0833 143.164 16.675 142.531 16.375C141.914 16.0583 141.239 15.9 140.506 15.9C140.056 15.9 139.572 15.9917 139.056 16.175C138.556 16.3583 138.072 16.6167 137.606 16.95C137.156 17.2833 136.781 17.6667 136.481 18.1C136.181 18.5167 135.997 18.95 135.931 19.4V23.675C136.231 24.3083 136.614 24.8917 137.081 25.425C137.564 25.9417 138.122 26.3583 138.756 26.675C139.389 26.975 140.047 27.125 140.731 27.125ZM155.038 28.25C154.122 28.25 153.272 28.075 152.488 27.725C151.705 27.3583 151.022 26.8667 150.438 26.25C149.872 25.6167 149.422 24.8917 149.088 24.075C148.772 23.2417 148.613 22.3667 148.613 21.45C148.613 20.2167 148.888 19.1 149.438 18.1C149.988 17.1 150.747 16.3 151.713 15.7C152.68 15.0833 153.763 14.775 154.963 14.775C156.197 14.775 157.288 15.0833 158.238 15.7C159.188 16.3167 159.938 17.1333 160.488 18.15C161.055 19.15 161.338 20.25 161.338 21.45C161.338 21.55 161.338 21.65 161.338 21.75C161.338 21.85 161.33 21.9333 161.313 22H149.913C149.98 22.9833 150.255 23.875 150.738 24.675C151.222 25.475 151.838 26.1083 152.588 26.575C153.355 27.025 154.188 27.25 155.088 27.25C155.988 27.25 156.838 27.0167 157.638 26.55C158.438 26.0833 158.997 25.4833 159.313 24.75L160.413 25.05C160.163 25.6667 159.763 26.2167 159.213 26.7C158.68 27.1833 158.047 27.5667 157.313 27.85C156.597 28.1167 155.838 28.25 155.038 28.25ZM149.863 21.025H160.138C160.072 20.0083 159.805 19.1083 159.338 18.325C158.872 17.5417 158.255 16.925 157.488 16.475C156.738 16.025 155.905 15.8 154.988 15.8C154.072 15.8 153.238 16.025 152.488 16.475C151.738 16.925 151.13 17.5417 150.663 18.325C150.197 19.1083 149.93 20.0083 149.863 21.025ZM169.559 28V15H170.809V28H169.559ZM169.559 12.05V9.75H170.809V12.05H169.559ZM180.581 28V10.25H192.131V11.4H181.856V18.45H190.581V19.55H181.856V28H180.581ZM194.575 28V15H195.825V28H194.575ZM194.575 12.05V9.75H195.825V12.05H194.575ZM204.526 28.2C203.642 28.2 202.817 28.0167 202.051 27.65C201.301 27.2833 200.651 26.7833 200.101 26.15C199.567 25.5 199.142 24.7833 198.826 24C198.526 23.2 198.376 22.375 198.376 21.525C198.376 20.6417 198.517 19.7917 198.801 18.975C199.101 18.1583 199.517 17.4417 200.051 16.825C200.601 16.1917 201.242 15.6917 201.976 15.325C202.709 14.9583 203.526 14.775 204.426 14.775C205.559 14.775 206.542 15.075 207.376 15.675C208.226 16.2583 208.942 16.975 209.526 17.825V15H210.676V28.25C210.676 29.4167 210.392 30.4 209.826 31.2C209.259 32 208.509 32.5917 207.576 32.975C206.642 33.375 205.634 33.575 204.551 33.575C203.034 33.575 201.826 33.3 200.926 32.75C200.042 32.2 199.326 31.475 198.776 30.575L199.626 30C200.142 30.8667 200.842 31.5083 201.726 31.925C202.609 32.3417 203.551 32.55 204.551 32.55C205.434 32.55 206.242 32.3833 206.976 32.05C207.726 31.7333 208.317 31.25 208.751 30.6C209.201 29.9667 209.426 29.1833 209.426 28.25V25.4C208.909 26.25 208.201 26.9333 207.301 27.45C206.417 27.95 205.492 28.2 204.526 28.2ZM204.826 27.125C205.376 27.125 205.909 27.025 206.426 26.825C206.942 26.625 207.417 26.3583 207.851 26.025C208.284 25.675 208.642 25.2917 208.926 24.875C209.209 24.4583 209.376 24.0417 209.426 23.625V19.35C209.176 18.6833 208.792 18.0917 208.276 17.575C207.776 17.0417 207.209 16.6333 206.576 16.35C205.942 16.05 205.292 15.9 204.626 15.9C203.842 15.9 203.142 16.0667 202.526 16.4C201.909 16.7333 201.384 17.175 200.951 17.725C200.534 18.2583 200.209 18.8667 199.976 19.55C199.759 20.2167 199.651 20.8833 199.651 21.55C199.651 22.3 199.784 23.0083 200.051 23.675C200.317 24.3417 200.684 24.9417 201.151 25.475C201.634 25.9917 202.184 26.4 202.801 26.7C203.434 26.9833 204.109 27.125 204.826 27.125ZM233.208 28H231.958V20.75C231.958 19.1 231.7 17.8833 231.183 17.1C230.683 16.3167 229.908 15.925 228.858 15.925C227.792 15.925 226.842 16.3083 226.008 17.075C225.192 17.825 224.617 18.7917 224.283 19.975V28H223.033V20.75C223.033 19.0833 222.783 17.8667 222.283 17.1C221.783 16.3167 221.008 15.925 219.958 15.925C218.892 15.925 217.942 16.3 217.108 17.05C216.292 17.7833 215.708 18.75 215.358 19.95V28H214.108V15H215.283V18.1C215.833 17.0333 216.542 16.2167 217.408 15.65C218.275 15.0667 219.225 14.775 220.258 14.775C221.342 14.775 222.225 15.1 222.908 15.75C223.608 16.3833 224.025 17.2333 224.158 18.3C224.775 17.1333 225.508 16.2583 226.358 15.675C227.208 15.075 228.175 14.775 229.258 14.775C229.975 14.775 230.575 14.9083 231.058 15.175C231.558 15.425 231.967 15.8 232.283 16.3C232.617 16.7833 232.85 17.3833 232.983 18.1C233.133 18.8167 233.208 19.625 233.208 20.525V28ZM235.434 24.25C235.434 23.4667 235.668 22.7917 236.134 22.225C236.601 21.6417 237.243 21.1917 238.059 20.875C238.876 20.5417 239.818 20.375 240.884 20.375C241.551 20.375 242.243 20.4333 242.959 20.55C243.676 20.6667 244.318 20.825 244.884 21.025V19.8C244.884 18.6 244.534 17.6417 243.834 16.925C243.151 16.2083 242.201 15.85 240.984 15.85C240.334 15.85 239.659 15.9833 238.959 16.25C238.259 16.5167 237.543 16.9 236.809 17.4L236.284 16.5C237.134 15.9333 237.951 15.5083 238.734 15.225C239.534 14.925 240.326 14.775 241.109 14.775C242.659 14.775 243.884 15.2333 244.784 16.15C245.684 17.0667 246.134 18.3167 246.134 19.9V26.35C246.134 26.55 246.176 26.7 246.259 26.8C246.359 26.9 246.501 26.9583 246.684 26.975V28C246.534 28.0167 246.409 28.025 246.309 28.025C246.209 28.025 246.126 28.025 246.059 28.025C245.743 27.975 245.493 27.8417 245.309 27.625C245.143 27.4083 245.051 27.1667 245.034 26.9V25.875C244.434 26.625 243.659 27.2083 242.709 27.625C241.776 28.0417 240.793 28.25 239.759 28.25C238.943 28.25 238.201 28.075 237.534 27.725C236.884 27.375 236.368 26.9 235.984 26.3C235.618 25.6833 235.434 25 235.434 24.25ZM244.384 25.325C244.551 25.1083 244.676 24.9 244.759 24.7C244.843 24.5 244.884 24.3167 244.884 24.15V22C244.284 21.7667 243.659 21.5917 243.009 21.475C242.359 21.3583 241.693 21.3 241.009 21.3C239.709 21.3 238.651 21.5583 237.834 22.075C237.034 22.5917 236.634 23.2917 236.634 24.175C236.634 24.725 236.776 25.2333 237.059 25.7C237.343 26.1667 237.734 26.5417 238.234 26.825C238.751 27.1083 239.343 27.25 240.009 27.25C240.943 27.25 241.801 27.075 242.584 26.725C243.384 26.3583 243.984 25.8917 244.384 25.325Z" fill="black"/>
<path d="M30.1666 174.75L14.1249 190.792L6.83325 183.5" stroke="#F27EBE" stroke-width="2" stroke-linecap="round" stroke-linejoin="round"/>
<path d="M72.4 192V176.725L65.425 188.675H64.575L57.6 176.725V192H56.325V174.25H57.6L65 186.95L72.4 174.25H73.675V192H72.4ZM82.7268 192.25C81.8101 192.25 80.9601 192.075 80.1768 191.725C79.4101 191.375 78.7434 190.892 78.1768 190.275C77.6101 189.642 77.1684 188.917 76.8518 188.1C76.5351 187.283 76.3768 186.425 76.3768 185.525C76.3768 184.608 76.5351 183.75 76.8518 182.95C77.1684 182.133 77.6101 181.417 78.1768 180.8C78.7601 180.167 79.4351 179.675 80.2018 179.325C80.9851 178.958 81.8268 178.775 82.7268 178.775C83.6268 178.775 84.4601 178.958 85.2268 179.325C85.9934 179.675 86.6684 180.167 87.2518 180.8C87.8351 181.417 88.2851 182.133 88.6018 182.95C88.9184 183.75 89.0768 184.608 89.0768 185.525C89.0768 186.425 88.9184 187.283 88.6018 188.1C88.2851 188.917 87.8351 189.642 87.2518 190.275C86.6851 190.892 86.0101 191.375 85.2268 191.725C84.4601 192.075 83.6268 192.25 82.7268 192.25ZM77.6268 185.575C77.6268 186.592 77.8518 187.525 78.3018 188.375C78.7684 189.208 79.3851 189.875 80.1518 190.375C80.9184 190.875 81.7684 191.125 82.7018 191.125C83.6351 191.125 84.4851 190.875 85.2518 190.375C86.0351 189.858 86.6518 189.175 87.1018 188.325C87.5684 187.458 87.8018 186.517 87.8018 185.5C87.8018 184.483 87.5684 183.55 87.1018 182.7C86.6518 181.85 86.0351 181.175 85.2518 180.675C84.4851 180.158 83.6434 179.9 82.7268 179.9C81.7934 179.9 80.9434 180.158 80.1768 180.675C79.4101 181.192 78.7934 181.875 78.3268 182.725C77.8601 183.575 77.6268 184.525 77.6268 185.575ZM97.0467 192.25C96.13 192.25 95.28 192.075 94.4967 191.725C93.73 191.375 93.0633 190.892 92.4967 190.275C91.93 189.642 91.4883 188.917 91.1717 188.1C90.855 187.283 90.6967 186.425 90.6967 185.525C90.6967 184.608 90.855 183.75 91.1717 182.95C91.4883 182.133 91.93 181.417 92.4967 180.8C93.08 180.167 93.755 179.675 94.5217 179.325C95.305 178.958 96.1467 178.775 97.0467 178.775C97.9467 178.775 98.78 178.958 99.5467 179.325C100.313 179.675 100.988 180.167 101.572 180.8C102.155 181.417 102.605 182.133 102.922 182.95C103.238 183.75 103.397 184.608 103.397 185.525C103.397 186.425 103.238 187.283 102.922 188.1C102.605 188.917 102.155 189.642 101.572 190.275C101.005 190.892 100.33 191.375 99.5467 191.725C98.78 192.075 97.9467 192.25 97.0467 192.25ZM91.9467 185.575C91.9467 186.592 92.1717 187.525 92.6217 188.375C93.0883 189.208 93.705 189.875 94.4717 190.375C95.2383 190.875 96.0883 191.125 97.0217 191.125C97.955 191.125 98.805 190.875 99.5717 190.375C100.355 189.858 100.972 189.175 101.422 188.325C101.888 187.458 102.122 186.517 102.122 185.5C102.122 184.483 101.888 183.55 101.422 182.7C100.972 181.85 100.355 181.175 99.5717 180.675C98.805 180.158 97.9633 179.9 97.0467 179.9C96.1133 179.9 95.2633 180.158 94.4967 180.675C93.73 181.192 93.1133 181.875 92.6467 182.725C92.18 183.575 91.9467 184.525 91.9467 185.575ZM105.017 185.525C105.017 184.308 105.275 183.192 105.792 182.175C106.308 181.158 107.017 180.342 107.917 179.725C108.817 179.092 109.842 178.775 110.992 178.775C112.125 178.775 113.125 179.075 113.992 179.675C114.875 180.275 115.567 180.992 116.067 181.825V173.75H117.317V190.35C117.317 190.55 117.358 190.7 117.442 190.8C117.542 190.9 117.675 190.958 117.842 190.975V192C117.575 192.033 117.375 192.042 117.242 192.025C116.942 191.975 116.692 191.833 116.492 191.6C116.292 191.367 116.192 191.117 116.192 190.85V189.4C115.658 190.267 114.942 190.958 114.042 191.475C113.142 191.992 112.217 192.25 111.267 192.25C110.367 192.25 109.533 192.067 108.767 191.7C108 191.317 107.333 190.808 106.767 190.175C106.217 189.542 105.783 188.825 105.467 188.025C105.167 187.225 105.017 186.392 105.017 185.525ZM116.067 187.625V183.35C115.833 182.717 115.458 182.142 114.942 181.625C114.425 181.092 113.842 180.675 113.192 180.375C112.542 180.058 111.9 179.9 111.267 179.9C110.517 179.9 109.833 180.058 109.217 180.375C108.617 180.692 108.092 181.117 107.642 181.65C107.208 182.183 106.875 182.792 106.642 183.475C106.408 184.142 106.292 184.833 106.292 185.55C106.292 186.283 106.425 186.992 106.692 187.675C106.958 188.342 107.325 188.942 107.792 189.475C108.275 189.992 108.825 190.4 109.442 190.7C110.075 190.983 110.758 191.125 111.492 191.125C111.942 191.125 112.417 191.033 112.917 190.85C113.433 190.667 113.917 190.417 114.367 190.1C114.833 189.767 115.217 189.392 115.517 188.975C115.833 188.542 116.017 188.092 116.067 187.625ZM126.897 192.25C125.881 192.25 124.931 191.983 124.047 191.45C123.164 190.9 122.472 190.217 121.972 189.4V192H120.822V173.75H122.072V181.825C122.689 180.925 123.414 180.192 124.247 179.625C125.097 179.058 126.072 178.775 127.172 178.775C128.106 178.775 128.931 178.967 129.647 179.35C130.381 179.733 131.006 180.25 131.522 180.9C132.039 181.55 132.431 182.275 132.697 183.075C132.981 183.875 133.122 184.7 133.122 185.55C133.122 186.433 132.964 187.283 132.647 188.1C132.331 188.9 131.889 189.617 131.322 190.25C130.756 190.867 130.097 191.358 129.347 191.725C128.597 192.075 127.781 192.25 126.897 192.25ZM126.647 191.125C127.414 191.125 128.114 190.975 128.747 190.675C129.381 190.358 129.922 189.933 130.372 189.4C130.839 188.867 131.197 188.267 131.447 187.6C131.714 186.933 131.847 186.25 131.847 185.55C131.847 184.567 131.639 183.65 131.222 182.8C130.806 181.933 130.222 181.233 129.472 180.7C128.722 180.167 127.856 179.9 126.872 179.9C126.139 179.9 125.464 180.067 124.847 180.4C124.231 180.717 123.689 181.133 123.222 181.65C122.772 182.167 122.389 182.733 122.072 183.35V187.65C122.139 188.133 122.322 188.592 122.622 189.025C122.922 189.442 123.297 189.808 123.747 190.125C124.214 190.425 124.697 190.667 125.197 190.85C125.714 191.033 126.197 191.125 126.647 191.125ZM141.105 192.25C140.188 192.25 139.338 192.075 138.555 191.725C137.788 191.375 137.122 190.892 136.555 190.275C135.988 189.642 135.547 188.917 135.23 188.1C134.913 187.283 134.755 186.425 134.755 185.525C134.755 184.608 134.913 183.75 135.23 182.95C135.547 182.133 135.988 181.417 136.555 180.8C137.138 180.167 137.813 179.675 138.58 179.325C139.363 178.958 140.205 178.775 141.105 178.775C142.005 178.775 142.838 178.958 143.605 179.325C144.372 179.675 145.047 180.167 145.63 180.8C146.213 181.417 146.663 182.133 146.98 182.95C147.297 183.75 147.455 184.608 147.455 185.525C147.455 186.425 147.297 187.283 146.98 188.1C146.663 188.917 146.213 189.642 145.63 190.275C145.063 190.892 144.388 191.375 143.605 191.725C142.838 192.075 142.005 192.25 141.105 192.25ZM136.005 185.575C136.005 186.592 136.23 187.525 136.68 188.375C137.147 189.208 137.763 189.875 138.53 190.375C139.297 190.875 140.147 191.125 141.08 191.125C142.013 191.125 142.863 190.875 143.63 190.375C144.413 189.858 145.03 189.175 145.48 188.325C145.947 187.458 146.18 186.517 146.18 185.5C146.18 184.483 145.947 183.55 145.48 182.7C145.03 181.85 144.413 181.175 143.63 180.675C142.863 180.158 142.022 179.9 141.105 179.9C140.172 179.9 139.322 180.158 138.555 180.675C137.788 181.192 137.172 181.875 136.705 182.725C136.238 183.575 136.005 184.525 136.005 185.575ZM148.9 188.25C148.9 187.467 149.133 186.792 149.6 186.225C150.067 185.642 150.708 185.192 151.525 184.875C152.342 184.542 153.283 184.375 154.35 184.375C155.017 184.375 155.708 184.433 156.425 184.55C157.142 184.667 157.783 184.825 158.35 185.025V183.8C158.35 182.6 158 181.642 157.3 180.925C156.617 180.208 155.667 179.85 154.45 179.85C153.8 179.85 153.125 179.983 152.425 180.25C151.725 180.517 151.008 180.9 150.275 181.4L149.75 180.5C150.6 179.933 151.417 179.508 152.2 179.225C153 178.925 153.792 178.775 154.575 178.775C156.125 178.775 157.35 179.233 158.25 180.15C159.15 181.067 159.6 182.317 159.6 183.9V190.35C159.6 190.55 159.642 190.7 159.725 190.8C159.825 190.9 159.967 190.958 160.15 190.975V192C160 192.017 159.875 192.025 159.775 192.025C159.675 192.025 159.592 192.025 159.525 192.025C159.208 191.975 158.958 191.842 158.775 191.625C158.608 191.408 158.517 191.167 158.5 190.9V189.875C157.9 190.625 157.125 191.208 156.175 191.625C155.242 192.042 154.258 192.25 153.225 192.25C152.408 192.25 151.667 192.075 151 191.725C150.35 191.375 149.833 190.9 149.45 190.3C149.083 189.683 148.9 189 148.9 188.25ZM157.85 189.325C158.017 189.108 158.142 188.9 158.225 188.7C158.308 188.5 158.35 188.317 158.35 188.15V186C157.75 185.767 157.125 185.592 156.475 185.475C155.825 185.358 155.158 185.3 154.475 185.3C153.175 185.3 152.117 185.558 151.3 186.075C150.5 186.592 150.1 187.292 150.1 188.175C150.1 188.725 150.242 189.233 150.525 189.7C150.808 190.167 151.2 190.542 151.7 190.825C152.217 191.108 152.808 191.25 153.475 191.25C154.408 191.25 155.267 191.075 156.05 190.725C156.85 190.358 157.45 189.892 157.85 189.325ZM169.078 180.125C167.911 180.158 166.886 180.508 166.003 181.175C165.136 181.825 164.528 182.725 164.178 183.875V192H162.928V179H164.128V182.2C164.578 181.283 165.178 180.542 165.928 179.975C166.678 179.392 167.469 179.058 168.303 178.975C168.469 178.958 168.619 178.95 168.753 178.95C168.886 178.95 168.994 178.95 169.078 178.95V180.125ZM169.609 185.525C169.609 184.308 169.868 183.192 170.384 182.175C170.901 181.158 171.609 180.342 172.509 179.725C173.409 179.092 174.434 178.775 175.584 178.775C176.718 178.775 177.718 179.075 178.584 179.675C179.468 180.275 180.159 180.992 180.659 181.825V173.75H181.909V190.35C181.909 190.55 181.951 190.7 182.034 190.8C182.134 190.9 182.268 190.958 182.434 190.975V192C182.168 192.033 181.968 192.042 181.834 192.025C181.534 191.975 181.284 191.833 181.084 191.6C180.884 191.367 180.784 191.117 180.784 190.85V189.4C180.251 190.267 179.534 190.958 178.634 191.475C177.734 191.992 176.809 192.25 175.859 192.25C174.959 192.25 174.126 192.067 173.359 191.7C172.593 191.317 171.926 190.808 171.359 190.175C170.809 189.542 170.376 188.825 170.059 188.025C169.759 187.225 169.609 186.392 169.609 185.525ZM180.659 187.625V183.35C180.426 182.717 180.051 182.142 179.534 181.625C179.018 181.092 178.434 180.675 177.784 180.375C177.134 180.058 176.493 179.9 175.859 179.9C175.109 179.9 174.426 180.058 173.809 180.375C173.209 180.692 172.684 181.117 172.234 181.65C171.801 182.183 171.468 182.792 171.234 183.475C171.001 184.142 170.884 184.833 170.884 185.55C170.884 186.283 171.018 186.992 171.284 187.675C171.551 188.342 171.918 188.942 172.384 189.475C172.868 189.992 173.418 190.4 174.034 190.7C174.668 190.983 175.351 191.125 176.084 191.125C176.534 191.125 177.009 191.033 177.509 190.85C178.026 190.667 178.509 190.417 178.959 190.1C179.426 189.767 179.809 189.392 180.109 188.975C180.426 188.542 180.609 188.092 180.659 187.625ZM189.515 192.25C188.482 192.25 187.524 192.075 186.64 191.725C185.757 191.375 184.982 190.842 184.315 190.125L184.89 189.25C185.607 189.933 186.332 190.433 187.065 190.75C187.799 191.05 188.599 191.2 189.465 191.2C190.582 191.2 191.482 190.967 192.165 190.5C192.865 190.033 193.215 189.383 193.215 188.55C193.215 187.983 193.049 187.55 192.715 187.25C192.399 186.933 191.932 186.683 191.315 186.5C190.715 186.3 189.982 186.092 189.115 185.875C188.232 185.642 187.482 185.4 186.865 185.15C186.265 184.9 185.815 184.575 185.515 184.175C185.215 183.775 185.065 183.233 185.065 182.55C185.065 181.7 185.274 181 185.69 180.45C186.124 179.883 186.699 179.467 187.415 179.2C188.149 178.917 188.957 178.775 189.84 178.775C190.857 178.775 191.74 178.942 192.49 179.275C193.257 179.608 193.84 180.05 194.24 180.6L193.565 181.4C193.149 180.867 192.607 180.475 191.94 180.225C191.274 179.958 190.54 179.825 189.74 179.825C189.14 179.825 188.574 179.908 188.04 180.075C187.507 180.242 187.074 180.517 186.74 180.9C186.424 181.267 186.265 181.767 186.265 182.4C186.265 182.9 186.382 183.292 186.615 183.575C186.865 183.858 187.232 184.092 187.715 184.275C188.199 184.442 188.799 184.625 189.515 184.825C190.532 185.075 191.407 185.333 192.14 185.6C192.874 185.867 193.44 186.217 193.84 186.65C194.24 187.067 194.44 187.658 194.44 188.425C194.44 189.608 193.99 190.542 193.09 191.225C192.19 191.908 190.999 192.25 189.515 192.25Z" fill="black"/>
<path d="M30.1666 92.75L14.1249 108.792L6.83325 101.5" stroke="#F27EBE" stroke-width="2" stroke-linecap="round" stroke-linejoin="round"/>
<path d="M56.325 110V92.25H67.875V93.4H57.6V100.45H66.325V101.55H57.6V110H56.325ZM67.4371 106.25C67.4371 105.467 67.6704 104.792 68.1371 104.225C68.6038 103.642 69.2454 103.192 70.0621 102.875C70.8788 102.542 71.8204 102.375 72.8871 102.375C73.5538 102.375 74.2454 102.433 74.9621 102.55C75.6788 102.667 76.3204 102.825 76.8871 103.025V101.8C76.8871 100.6 76.5371 99.6417 75.8371 98.925C75.1538 98.2083 74.2038 97.85 72.9871 97.85C72.3371 97.85 71.6621 97.9833 70.9621 98.25C70.2621 98.5167 69.5454 98.9 68.8121 99.4L68.2871 98.5C69.1371 97.9333 69.9538 97.5083 70.7371 97.225C71.5371 96.925 72.3288 96.775 73.1121 96.775C74.6621 96.775 75.8871 97.2333 76.7871 98.15C77.6871 99.0667 78.1371 100.317 78.1371 101.9V108.35C78.1371 108.55 78.1788 108.7 78.2621 108.8C78.3621 108.9 78.5038 108.958 78.6871 108.975V110C78.5371 110.017 78.4121 110.025 78.3121 110.025C78.2121 110.025 78.1288 110.025 78.0621 110.025C77.7454 109.975 77.4954 109.842 77.3121 109.625C77.1454 109.408 77.0538 109.167 77.0371 108.9V107.875C76.4371 108.625 75.6621 109.208 74.7121 109.625C73.7788 110.042 72.7954 110.25 71.7621 110.25C70.9454 110.25 70.2038 110.075 69.5371 109.725C68.8871 109.375 68.3704 108.9 67.9871 108.3C67.6204 107.683 67.4371 107 67.4371 106.25ZM76.3871 107.325C76.5538 107.108 76.6788 106.9 76.7621 106.7C76.8454 106.5 76.8871 106.317 76.8871 106.15V104C76.2871 103.767 75.6621 103.592 75.0121 103.475C74.3621 103.358 73.6954 103.3 73.0121 103.3C71.7121 103.3 70.6538 103.558 69.8371 104.075C69.0371 104.592 68.6371 105.292 68.6371 106.175C68.6371 106.725 68.7788 107.233 69.0621 107.7C69.3454 108.167 69.7371 108.542 70.2371 108.825C70.7538 109.108 71.3454 109.25 72.0121 109.25C72.9454 109.25 73.8038 109.075 74.5871 108.725C75.3871 108.358 75.9871 107.892 76.3871 107.325ZM85.0986 110L79.6736 97H80.9986L85.7736 108.675L90.5736 97H91.8236L86.3986 110H85.0986ZM93.8316 110V97H95.0816V110H93.8316ZM93.8316 94.05V91.75H95.0816V94.05H93.8316ZM104.057 110.25C103.157 110.25 102.316 110.075 101.532 109.725C100.749 109.358 100.066 108.867 99.4824 108.25C98.8991 107.617 98.4408 106.892 98.1074 106.075C97.7908 105.258 97.6324 104.383 97.6324 103.45C97.6324 102.2 97.9074 101.075 98.4574 100.075C99.0074 99.075 99.7658 98.275 100.732 97.675C101.699 97.075 102.799 96.775 104.032 96.775C105.216 96.775 106.257 97.05 107.157 97.6C108.057 98.1333 108.732 98.8667 109.182 99.8L107.957 100.2C107.574 99.4833 107.024 98.925 106.307 98.525C105.607 98.1083 104.832 97.9 103.982 97.9C103.032 97.9 102.174 98.1417 101.407 98.625C100.641 99.1083 100.024 99.775 99.5574 100.625C99.1074 101.458 98.8824 102.4 98.8824 103.45C98.8824 104.483 99.1158 105.433 99.5824 106.3C100.049 107.167 100.666 107.858 101.432 108.375C102.216 108.875 103.074 109.125 104.007 109.125C104.607 109.125 105.191 109.017 105.757 108.8C106.341 108.567 106.841 108.267 107.257 107.9C107.691 107.533 107.974 107.142 108.107 106.725L109.332 107.075C109.116 107.692 108.741 108.242 108.207 108.725C107.674 109.192 107.049 109.567 106.332 109.85C105.632 110.117 104.874 110.25 104.057 110.25ZM117.008 110.25C116.092 110.25 115.242 110.075 114.458 109.725C113.692 109.375 113.025 108.892 112.458 108.275C111.892 107.642 111.45 106.917 111.133 106.1C110.817 105.283 110.658 104.425 110.658 103.525C110.658 102.608 110.817 101.75 111.133 100.95C111.45 100.133 111.892 99.4167 112.458 98.8C113.042 98.1667 113.717 97.675 114.483 97.325C115.267 96.9583 116.108 96.775 117.008 96.775C117.908 96.775 118.742 96.9583 119.508 97.325C120.275 97.675 120.95 98.1667 121.533 98.8C122.117 99.4167 122.567 100.133 122.883 100.95C123.2 101.75 123.358 102.608 123.358 103.525C123.358 104.425 123.2 105.283 122.883 106.1C122.567 106.917 122.117 107.642 121.533 108.275C120.967 108.892 120.292 109.375 119.508 109.725C118.742 110.075 117.908 110.25 117.008 110.25ZM111.908 103.575C111.908 104.592 112.133 105.525 112.583 106.375C113.05 107.208 113.667 107.875 114.433 108.375C115.2 108.875 116.05 109.125 116.983 109.125C117.917 109.125 118.767 108.875 119.533 108.375C120.317 107.858 120.933 107.175 121.383 106.325C121.85 105.458 122.083 104.517 122.083 103.5C122.083 102.483 121.85 101.55 121.383 100.7C120.933 99.85 120.317 99.175 119.533 98.675C118.767 98.1583 117.925 97.9 117.008 97.9C116.075 97.9 115.225 98.1583 114.458 98.675C113.692 99.1917 113.075 99.875 112.608 100.725C112.142 101.575 111.908 102.525 111.908 103.575ZM136.503 110H135.253V102.75C135.253 101.083 135.012 99.8667 134.528 99.1C134.062 98.3167 133.312 97.925 132.278 97.925C131.545 97.925 130.82 98.1 130.103 98.45C129.403 98.8 128.787 99.2833 128.253 99.9C127.737 100.5 127.362 101.183 127.128 101.95V110H125.878V97H127.053V100.1C127.403 99.4333 127.87 98.8583 128.453 98.375C129.037 97.875 129.687 97.4833 130.403 97.2C131.12 96.9167 131.862 96.775 132.628 96.775C133.345 96.775 133.945 96.9083 134.428 97.175C134.928 97.425 135.328 97.7917 135.628 98.275C135.945 98.7583 136.17 99.3583 136.303 100.075C136.437 100.792 136.503 101.608 136.503 102.525V110Z" fill="black"/>
<path d="M30.1666 338.75L14.1249 354.792L6.83325 347.5" stroke="#F27EBE" stroke-width="2" stroke-linecap="round" stroke-linejoin="round"/>
<path d="M66.65 341.2C66.3667 340.883 66.05 340.608 65.7 340.375C65.35 340.125 64.975 339.925 64.575 339.775C64.175 339.608 63.7417 339.483 63.275 339.4C62.8083 339.317 62.3083 339.275 61.775 339.275C60.0417 339.275 58.775 339.608 57.975 340.275C57.1917 340.925 56.8 341.808 56.8 342.925C56.8 343.675 56.975 344.275 57.325 344.725C57.6917 345.158 58.2583 345.508 59.025 345.775C59.7917 346.042 60.7833 346.3 62 346.55C63.2833 346.817 64.3917 347.133 65.325 347.5C66.2583 347.85 66.975 348.333 67.475 348.95C67.9917 349.567 68.25 350.4 68.25 351.45C68.25 352.233 68.1 352.925 67.8 353.525C67.5 354.108 67.0667 354.592 66.5 354.975C65.9333 355.358 65.2583 355.65 64.475 355.85C63.7083 356.05 62.85 356.15 61.9 356.15C60.9833 356.15 60.1083 356.05 59.275 355.85C58.4417 355.65 57.6583 355.358 56.925 354.975C56.1917 354.592 55.5083 354.1 54.875 353.5L55.55 352.475C55.9167 352.875 56.325 353.233 56.775 353.55C57.2417 353.85 57.7417 354.108 58.275 354.325C58.825 354.542 59.4083 354.717 60.025 354.85C60.6417 354.967 61.2833 355.025 61.95 355.025C63.5 355.025 64.7083 354.742 65.575 354.175C66.4583 353.592 66.9 352.733 66.9 351.6C66.9 350.817 66.7 350.183 66.3 349.7C65.9 349.217 65.2833 348.825 64.45 348.525C63.6167 348.208 62.575 347.917 61.325 347.65C60.075 347.383 59.0083 347.083 58.125 346.75C57.2583 346.417 56.6 345.967 56.15 345.4C55.7167 344.833 55.5 344.067 55.5 343.1C55.5 342.033 55.7583 341.133 56.275 340.4C56.8083 339.65 57.55 339.083 58.5 338.7C59.45 338.317 60.5417 338.125 61.775 338.125C62.5417 338.125 63.25 338.2 63.9 338.35C64.5667 338.5 65.175 338.733 65.725 339.05C66.2917 339.35 66.8167 339.733 67.3 340.2L66.65 341.2ZM76.2164 355.375C76.1331 355.408 75.9664 355.492 75.7164 355.625C75.4664 355.758 75.1497 355.883 74.7664 356C74.3831 356.1 73.9581 356.15 73.4914 356.15C73.0414 356.15 72.6164 356.067 72.2164 355.9C71.8331 355.717 71.5247 355.45 71.2914 355.1C71.0581 354.75 70.9414 354.325 70.9414 353.825V344.025H69.1164V343H70.9414V338.55H72.1914V343H75.2164V344.025H72.1914V353.525C72.2247 354.008 72.3997 354.375 72.7164 354.625C73.0331 354.858 73.3997 354.975 73.8164 354.975C74.3331 354.975 74.7831 354.892 75.1664 354.725C75.5497 354.542 75.7747 354.425 75.8414 354.375L76.2164 355.375ZM78.8242 360.4C79.0909 360.417 79.3242 360.417 79.5242 360.4C79.7409 360.4 79.8992 360.367 79.9992 360.3C80.1492 360.25 80.2992 360.117 80.4492 359.9C80.6159 359.7 80.8326 359.292 81.0992 358.675C81.3659 358.075 81.7409 357.183 82.2242 356L76.4242 343H77.7492L82.8992 354.675L87.6742 343H88.9492L81.8242 360.1C81.7242 360.367 81.5826 360.6 81.3992 360.8C81.2326 361.017 81.0242 361.183 80.7742 361.3C80.5242 361.433 80.2242 361.508 79.8742 361.525C79.7242 361.542 79.5659 361.55 79.3992 361.55C79.2326 361.567 79.0409 361.567 78.8242 361.55V360.4ZM91.0752 337.75H92.3502V353.425C92.3502 354.025 92.4752 354.442 92.7252 354.675C92.9752 354.892 93.3002 355 93.7002 355C93.9669 355 94.2419 354.975 94.5252 354.925C94.8085 354.875 95.0585 354.808 95.2752 354.725L95.5252 355.75C95.2419 355.85 94.8919 355.942 94.4752 356.025C94.0585 356.108 93.7002 356.15 93.4002 356.15C92.7002 356.15 92.1335 355.942 91.7002 355.525C91.2835 355.092 91.0752 354.517 91.0752 353.8V337.75ZM102.495 356.25C101.578 356.25 100.728 356.075 99.9449 355.725C99.1616 355.358 98.4783 354.867 97.8949 354.25C97.3283 353.617 96.8783 352.892 96.5449 352.075C96.2283 351.242 96.0699 350.367 96.0699 349.45C96.0699 348.217 96.3449 347.1 96.8949 346.1C97.4449 345.1 98.2033 344.3 99.1699 343.7C100.137 343.083 101.22 342.775 102.42 342.775C103.653 342.775 104.745 343.083 105.695 343.7C106.645 344.317 107.395 345.133 107.945 346.15C108.512 347.15 108.795 348.25 108.795 349.45C108.795 349.55 108.795 349.65 108.795 349.75C108.795 349.85 108.787 349.933 108.77 350H97.3699C97.4366 350.983 97.7116 351.875 98.1949 352.675C98.6783 353.475 99.2949 354.108 100.045 354.575C100.812 355.025 101.645 355.25 102.545 355.25C103.445 355.25 104.295 355.017 105.095 354.55C105.895 354.083 106.453 353.483 106.77 352.75L107.87 353.05C107.62 353.667 107.22 354.217 106.67 354.7C106.137 355.183 105.503 355.567 104.77 355.85C104.053 356.117 103.295 356.25 102.495 356.25ZM97.3199 349.025H107.595C107.528 348.008 107.262 347.108 106.795 346.325C106.328 345.542 105.712 344.925 104.945 344.475C104.195 344.025 103.362 343.8 102.445 343.8C101.528 343.8 100.695 344.025 99.9449 344.475C99.1949 344.925 98.5866 345.542 98.1199 346.325C97.6533 347.108 97.3866 348.008 97.3199 349.025ZM129.059 339.4H122.559V356H121.284V339.4H114.784V338.25H129.059V339.4ZM130.97 356V343H132.22V356H130.97ZM130.97 340.05V337.75H132.22V340.05H130.97ZM135.771 337.75H137.046V353.425C137.046 354.025 137.171 354.442 137.421 354.675C137.671 354.892 137.996 355 138.396 355C138.662 355 138.937 354.975 139.221 354.925C139.504 354.875 139.754 354.808 139.971 354.725L140.221 355.75C139.937 355.85 139.587 355.942 139.171 356.025C138.754 356.108 138.396 356.15 138.096 356.15C137.396 356.15 136.829 355.942 136.396 355.525C135.979 355.092 135.771 354.517 135.771 353.8V337.75ZM147.19 356.25C146.274 356.25 145.424 356.075 144.64 355.725C143.857 355.358 143.174 354.867 142.59 354.25C142.024 353.617 141.574 352.892 141.24 352.075C140.924 351.242 140.765 350.367 140.765 349.45C140.765 348.217 141.04 347.1 141.59 346.1C142.14 345.1 142.899 344.3 143.865 343.7C144.832 343.083 145.915 342.775 147.115 342.775C148.349 342.775 149.44 343.083 150.39 343.7C151.34 344.317 152.09 345.133 152.64 346.15C153.207 347.15 153.49 348.25 153.49 349.45C153.49 349.55 153.49 349.65 153.49 349.75C153.49 349.85 153.482 349.933 153.465 350H142.065C142.132 350.983 142.407 351.875 142.89 352.675C143.374 353.475 143.99 354.108 144.74 354.575C145.507 355.025 146.34 355.25 147.24 355.25C148.14 355.25 148.99 355.017 149.79 354.55C150.59 354.083 151.149 353.483 151.465 352.75L152.565 353.05C152.315 353.667 151.915 354.217 151.365 354.7C150.832 355.183 150.199 355.567 149.465 355.85C148.749 356.117 147.99 356.25 147.19 356.25ZM142.015 349.025H152.29C152.224 348.008 151.957 347.108 151.49 346.325C151.024 345.542 150.407 344.925 149.64 344.475C148.89 344.025 148.057 343.8 147.14 343.8C146.224 343.8 145.39 344.025 144.64 344.475C143.89 344.925 143.282 345.542 142.815 346.325C142.349 347.108 142.082 348.008 142.015 349.025Z" fill="black"/>
<path d="M30.1666 256.75L14.1249 272.792L6.83325 265.5" stroke="#F27EBE" stroke-width="2" stroke-linecap="round" stroke-linejoin="round"/>
<path d="M69.4 269.4C69.4 270.267 69.1833 271.05 68.75 271.75C68.3333 272.433 67.7583 272.983 67.025 273.4C66.3083 273.8 65.5083 274 64.625 274H56.325V256.25H64.6C65.4333 256.25 66.15 256.475 66.75 256.925C67.3667 257.358 67.8333 257.925 68.15 258.625C68.4833 259.308 68.65 260.025 68.65 260.775C68.65 261.658 68.425 262.483 67.975 263.25C67.525 264 66.9 264.55 66.1 264.9C67.1167 265.2 67.9167 265.767 68.5 266.6C69.1 267.417 69.4 268.35 69.4 269.4ZM68.125 269.225C68.125 268.592 67.975 268 67.675 267.45C67.3917 266.9 67 266.45 66.5 266.1C66 265.75 65.4333 265.575 64.8 265.575H57.6V272.85H64.625C65.275 272.85 65.8667 272.683 66.4 272.35C66.9333 272 67.35 271.55 67.65 271C67.9667 270.433 68.125 269.842 68.125 269.225ZM57.6 257.4V264.5H64.1C64.75 264.5 65.3167 264.333 65.8 264C66.3 263.65 66.6917 263.208 66.975 262.675C67.2583 262.125 67.4 261.55 67.4 260.95C67.4 260.3 67.2667 259.708 67 259.175C66.7333 258.642 66.3583 258.217 65.875 257.9C65.4083 257.567 64.8667 257.4 64.25 257.4H57.6ZM78.1777 262.125C77.0111 262.158 75.9861 262.508 75.1027 263.175C74.2361 263.825 73.6277 264.725 73.2777 265.875V274H72.0277V261H73.2277V264.2C73.6777 263.283 74.2777 262.542 75.0277 261.975C75.7777 261.392 76.5694 261.058 77.4027 260.975C77.5694 260.958 77.7194 260.95 77.8527 260.95C77.9861 260.95 78.0944 260.95 78.1777 260.95V262.125ZM79.9482 268.5V261H81.1982V268.325C81.1982 269.942 81.4649 271.15 81.9982 271.95C82.5482 272.733 83.3732 273.125 84.4732 273.125C85.2066 273.125 85.9066 272.967 86.5732 272.65C87.2566 272.317 87.8566 271.858 88.3732 271.275C88.8899 270.675 89.2732 269.983 89.5232 269.2V261H90.7732V272.35C90.7732 272.55 90.8149 272.7 90.8982 272.8C90.9982 272.9 91.1316 272.958 91.2982 272.975V274C91.1316 274.017 90.9982 274.025 90.8982 274.025C90.8149 274.025 90.7399 274.017 90.6732 274C90.3899 273.967 90.1566 273.85 89.9732 273.65C89.7899 273.433 89.6899 273.175 89.6732 272.875L89.6482 270.925C89.0816 271.958 88.2982 272.775 87.2982 273.375C86.3149 273.958 85.2482 274.25 84.0982 274.25C82.7316 274.25 81.6982 273.767 80.9982 272.8C80.2982 271.833 79.9482 270.4 79.9482 268.5ZM99.5211 274.2C98.6378 274.2 97.8128 274.017 97.0461 273.65C96.2961 273.283 95.6461 272.783 95.0961 272.15C94.5628 271.5 94.1378 270.783 93.8211 270C93.5211 269.2 93.3711 268.375 93.3711 267.525C93.3711 266.642 93.5128 265.792 93.7961 264.975C94.0961 264.158 94.5128 263.442 95.0461 262.825C95.5961 262.192 96.2378 261.692 96.9711 261.325C97.7044 260.958 98.5211 260.775 99.4211 260.775C100.554 260.775 101.538 261.075 102.371 261.675C103.221 262.258 103.938 262.975 104.521 263.825V261H105.671V274.25C105.671 275.417 105.388 276.4 104.821 277.2C104.254 278 103.504 278.592 102.571 278.975C101.638 279.375 100.629 279.575 99.5461 279.575C98.0294 279.575 96.8211 279.3 95.9211 278.75C95.0378 278.2 94.3211 277.475 93.7711 276.575L94.6211 276C95.1378 276.867 95.8378 277.508 96.7211 277.925C97.6044 278.342 98.5461 278.55 99.5461 278.55C100.429 278.55 101.238 278.383 101.971 278.05C102.721 277.733 103.313 277.25 103.746 276.6C104.196 275.967 104.421 275.183 104.421 274.25V271.4C103.904 272.25 103.196 272.933 102.296 273.45C101.413 273.95 100.488 274.2 99.5211 274.2ZM99.8211 273.125C100.371 273.125 100.904 273.025 101.421 272.825C101.938 272.625 102.413 272.358 102.846 272.025C103.279 271.675 103.638 271.292 103.921 270.875C104.204 270.458 104.371 270.042 104.421 269.625V265.35C104.171 264.683 103.788 264.092 103.271 263.575C102.771 263.042 102.204 262.633 101.571 262.35C100.938 262.05 100.288 261.9 99.6211 261.9C98.8378 261.9 98.1378 262.067 97.5211 262.4C96.9044 262.733 96.3794 263.175 95.9461 263.725C95.5294 264.258 95.2044 264.867 94.9711 265.55C94.7544 266.217 94.6461 266.883 94.6461 267.55C94.6461 268.3 94.7794 269.008 95.0461 269.675C95.3128 270.342 95.6794 270.942 96.1461 271.475C96.6294 271.992 97.1794 272.4 97.7961 272.7C98.4294 272.983 99.1044 273.125 99.8211 273.125ZM114.629 274.25C113.712 274.25 112.862 274.075 112.079 273.725C111.295 273.358 110.612 272.867 110.029 272.25C109.462 271.617 109.012 270.892 108.679 270.075C108.362 269.242 108.204 268.367 108.204 267.45C108.204 266.217 108.479 265.1 109.029 264.1C109.579 263.1 110.337 262.3 111.304 261.7C112.27 261.083 113.354 260.775 114.554 260.775C115.787 260.775 116.879 261.083 117.829 261.7C118.779 262.317 119.529 263.133 120.079 264.15C120.645 265.15 120.929 266.25 120.929 267.45C120.929 267.55 120.929 267.65 120.929 267.75C120.929 267.85 120.92 267.933 120.904 268H109.504C109.57 268.983 109.845 269.875 110.329 270.675C110.812 271.475 111.429 272.108 112.179 272.575C112.945 273.025 113.779 273.25 114.679 273.25C115.579 273.25 116.429 273.017 117.229 272.55C118.029 272.083 118.587 271.483 118.904 270.75L120.004 271.05C119.754 271.667 119.354 272.217 118.804 272.7C118.27 273.183 117.637 273.567 116.904 273.85C116.187 274.117 115.429 274.25 114.629 274.25ZM109.454 267.025H119.729C119.662 266.008 119.395 265.108 118.929 264.325C118.462 263.542 117.845 262.925 117.079 262.475C116.329 262.025 115.495 261.8 114.579 261.8C113.662 261.8 112.829 262.025 112.079 262.475C111.329 262.925 110.72 263.542 110.254 264.325C109.787 265.108 109.52 266.008 109.454 267.025ZM129.354 262.125C128.187 262.158 127.162 262.508 126.279 263.175C125.412 263.825 124.804 264.725 124.454 265.875V274H123.204V261H124.404V264.2C124.854 263.283 125.454 262.542 126.204 261.975C126.954 261.392 127.746 261.058 128.579 260.975C128.746 260.958 128.896 260.95 129.029 260.95C129.162 260.95 129.271 260.95 129.354 260.95V262.125ZM131.249 274V261H132.499V274H131.249ZM131.249 258.05V255.75H132.499V258.05H131.249ZM146.575 274H145.325V266.75C145.325 265.083 145.084 263.867 144.6 263.1C144.134 262.317 143.384 261.925 142.35 261.925C141.617 261.925 140.892 262.1 140.175 262.45C139.475 262.8 138.859 263.283 138.325 263.9C137.809 264.5 137.434 265.183 137.2 265.95V274H135.95V261H137.125V264.1C137.475 263.433 137.942 262.858 138.525 262.375C139.109 261.875 139.759 261.483 140.475 261.2C141.192 260.917 141.934 260.775 142.7 260.775C143.417 260.775 144.017 260.908 144.5 261.175C145 261.425 145.4 261.792 145.7 262.275C146.017 262.758 146.242 263.358 146.375 264.075C146.509 264.792 146.575 265.608 146.575 266.525V274ZM148.979 267.525C148.979 266.308 149.238 265.192 149.754 264.175C150.271 263.158 150.979 262.342 151.879 261.725C152.779 261.092 153.804 260.775 154.954 260.775C156.088 260.775 157.088 261.075 157.954 261.675C158.838 262.275 159.529 262.992 160.029 263.825V255.75H161.279V272.35C161.279 272.55 161.321 272.7 161.404 272.8C161.504 272.9 161.638 272.958 161.804 272.975V274C161.538 274.033 161.338 274.042 161.204 274.025C160.904 273.975 160.654 273.833 160.454 273.6C160.254 273.367 160.154 273.117 160.154 272.85V271.4C159.621 272.267 158.904 272.958 158.004 273.475C157.104 273.992 156.179 274.25 155.229 274.25C154.329 274.25 153.496 274.067 152.729 273.7C151.963 273.317 151.296 272.808 150.729 272.175C150.179 271.542 149.746 270.825 149.429 270.025C149.129 269.225 148.979 268.392 148.979 267.525ZM160.029 269.625V265.35C159.796 264.717 159.421 264.142 158.904 263.625C158.388 263.092 157.804 262.675 157.154 262.375C156.504 262.058 155.863 261.9 155.229 261.9C154.479 261.9 153.796 262.058 153.179 262.375C152.579 262.692 152.054 263.117 151.604 263.65C151.171 264.183 150.838 264.792 150.604 265.475C150.371 266.142 150.254 266.833 150.254 267.55C150.254 268.283 150.388 268.992 150.654 269.675C150.921 270.342 151.288 270.942 151.754 271.475C152.238 271.992 152.788 272.4 153.404 272.7C154.038 272.983 154.721 273.125 155.454 273.125C155.904 273.125 156.379 273.033 156.879 272.85C157.396 272.667 157.879 272.417 158.329 272.1C158.796 271.767 159.179 271.392 159.479 270.975C159.796 270.542 159.979 270.092 160.029 269.625ZM168.885 274.25C167.852 274.25 166.894 274.075 166.01 273.725C165.127 273.375 164.352 272.842 163.685 272.125L164.26 271.25C164.977 271.933 165.702 272.433 166.435 272.75C167.169 273.05 167.969 273.2 168.835 273.2C169.952 273.2 170.852 272.967 171.535 272.5C172.235 272.033 172.585 271.383 172.585 270.55C172.585 269.983 172.419 269.55 172.085 269.25C171.769 268.933 171.302 268.683 170.685 268.5C170.085 268.3 169.352 268.092 168.485 267.875C167.602 267.642 166.852 267.4 166.235 267.15C165.635 266.9 165.185 266.575 164.885 266.175C164.585 265.775 164.435 265.233 164.435 264.55C164.435 263.7 164.644 263 165.06 262.45C165.494 261.883 166.069 261.467 166.785 261.2C167.519 260.917 168.327 260.775 169.21 260.775C170.227 260.775 171.11 260.942 171.86 261.275C172.627 261.608 173.21 262.05 173.61 262.6L172.935 263.4C172.519 262.867 171.977 262.475 171.31 262.225C170.644 261.958 169.91 261.825 169.11 261.825C168.51 261.825 167.944 261.908 167.41 262.075C166.877 262.242 166.444 262.517 166.11 262.9C165.794 263.267 165.635 263.767 165.635 264.4C165.635 264.9 165.752 265.292 165.985 265.575C166.235 265.858 166.602 266.092 167.085 266.275C167.569 266.442 168.169 266.625 168.885 266.825C169.902 267.075 170.777 267.333 171.51 267.6C172.244 267.867 172.81 268.217 173.21 268.65C173.61 269.067 173.81 269.658 173.81 270.425C173.81 271.608 173.36 272.542 172.46 273.225C171.56 273.908 170.369 274.25 168.885 274.25ZM176.273 274V261H177.523V274H176.273ZM176.273 258.05V255.75H177.523V258.05H176.273ZM186.224 274.2C185.341 274.2 184.516 274.017 183.749 273.65C182.999 273.283 182.349 272.783 181.799 272.15C181.266 271.5 180.841 270.783 180.524 270C180.224 269.2 180.074 268.375 180.074 267.525C180.074 266.642 180.216 265.792 180.499 264.975C180.799 264.158 181.216 263.442 181.749 262.825C182.299 262.192 182.941 261.692 183.674 261.325C184.407 260.958 185.224 260.775 186.124 260.775C187.257 260.775 188.241 261.075 189.074 261.675C189.924 262.258 190.641 262.975 191.224 263.825V261H192.374V274.25C192.374 275.417 192.091 276.4 191.524 277.2C190.957 278 190.207 278.592 189.274 278.975C188.341 279.375 187.332 279.575 186.249 279.575C184.732 279.575 183.524 279.3 182.624 278.75C181.741 278.2 181.024 277.475 180.474 276.575L181.324 276C181.841 276.867 182.541 277.508 183.424 277.925C184.307 278.342 185.249 278.55 186.249 278.55C187.132 278.55 187.941 278.383 188.674 278.05C189.424 277.733 190.016 277.25 190.449 276.6C190.899 275.967 191.124 275.183 191.124 274.25V271.4C190.607 272.25 189.899 272.933 188.999 273.45C188.116 273.95 187.191 274.2 186.224 274.2ZM186.524 273.125C187.074 273.125 187.607 273.025 188.124 272.825C188.641 272.625 189.116 272.358 189.549 272.025C189.982 271.675 190.341 271.292 190.624 270.875C190.907 270.458 191.074 270.042 191.124 269.625V265.35C190.874 264.683 190.491 264.092 189.974 263.575C189.474 263.042 188.907 262.633 188.274 262.35C187.641 262.05 186.991 261.9 186.324 261.9C185.541 261.9 184.841 262.067 184.224 262.4C183.607 262.733 183.082 263.175 182.649 263.725C182.232 264.258 181.907 264.867 181.674 265.55C181.457 266.217 181.349 266.883 181.349 267.55C181.349 268.3 181.482 269.008 181.749 269.675C182.016 270.342 182.382 270.942 182.849 271.475C183.332 271.992 183.882 272.4 184.499 272.7C185.132 272.983 185.807 273.125 186.524 273.125ZM201.607 273.375C201.523 273.408 201.357 273.492 201.107 273.625C200.857 273.758 200.54 273.883 200.157 274C199.773 274.1 199.348 274.15 198.882 274.15C198.432 274.15 198.007 274.067 197.607 273.9C197.223 273.717 196.915 273.45 196.682 273.1C196.448 272.75 196.332 272.325 196.332 271.825V262.025H194.507V261H196.332V256.55H197.582V261H200.607V262.025H197.582V271.525C197.615 272.008 197.79 272.375 198.107 272.625C198.423 272.858 198.79 272.975 199.207 272.975C199.723 272.975 200.173 272.892 200.557 272.725C200.94 272.542 201.165 272.425 201.232 272.375L201.607 273.375ZM208.62 274.25C207.704 274.25 206.854 274.075 206.07 273.725C205.287 273.358 204.604 272.867 204.02 272.25C203.454 271.617 203.004 270.892 202.67 270.075C202.354 269.242 202.195 268.367 202.195 267.45C202.195 266.217 202.47 265.1 203.02 264.1C203.57 263.1 204.329 262.3 205.295 261.7C206.262 261.083 207.345 260.775 208.545 260.775C209.779 260.775 210.87 261.083 211.82 261.7C212.77 262.317 213.52 263.133 214.07 264.15C214.637 265.15 214.92 266.25 214.92 267.45C214.92 267.55 214.92 267.65 214.92 267.75C214.92 267.85 214.912 267.933 214.895 268H203.495C203.562 268.983 203.837 269.875 204.32 270.675C204.804 271.475 205.42 272.108 206.17 272.575C206.937 273.025 207.77 273.25 208.67 273.25C209.57 273.25 210.42 273.017 211.22 272.55C212.02 272.083 212.579 271.483 212.895 270.75L213.995 271.05C213.745 271.667 213.345 272.217 212.795 272.7C212.262 273.183 211.629 273.567 210.895 273.85C210.179 274.117 209.42 274.25 208.62 274.25ZM203.445 267.025H213.72C213.654 266.008 213.387 265.108 212.92 264.325C212.454 263.542 211.837 262.925 211.07 262.475C210.32 262.025 209.487 261.8 208.57 261.8C207.654 261.8 206.82 262.025 206.07 262.475C205.32 262.925 204.712 263.542 204.245 264.325C203.779 265.108 203.512 266.008 203.445 267.025ZM223.346 262.125C222.179 262.158 221.154 262.508 220.271 263.175C219.404 263.825 218.796 264.725 218.446 265.875V274H217.196V261H218.396V264.2C218.846 263.283 219.446 262.542 220.196 261.975C220.946 261.392 221.737 261.058 222.571 260.975C222.737 260.958 222.887 260.95 223.021 260.95C223.154 260.95 223.262 260.95 223.346 260.95V262.125Z" fill="black"/>
<path d="M29.1666 420.75L13.1249 436.792L5.83325 429.5" stroke="#F27EBE" stroke-width="2" stroke-linecap="round" stroke-linejoin="round"/>
<path d="M68.725 420.4H62.225V437H60.95V420.4H54.45V419.25H68.725V420.4ZM73.3291 437.25C72.4124 437.25 71.5624 437.075 70.7791 436.725C69.9958 436.358 69.3124 435.867 68.7291 435.25C68.1624 434.617 67.7124 433.892 67.3791 433.075C67.0624 432.242 66.9041 431.367 66.9041 430.45C66.9041 429.217 67.1791 428.1 67.7291 427.1C68.2791 426.1 69.0374 425.3 70.0041 424.7C70.9708 424.083 72.0541 423.775 73.2541 423.775C74.4874 423.775 75.5791 424.083 76.5291 424.7C77.4791 425.317 78.2291 426.133 78.7791 427.15C79.3458 428.15 79.6291 429.25 79.6291 430.45C79.6291 430.55 79.6291 430.65 79.6291 430.75C79.6291 430.85 79.6208 430.933 79.6041 431H68.2041C68.2708 431.983 68.5458 432.875 69.0291 433.675C69.5124 434.475 70.1291 435.108 70.8791 435.575C71.6458 436.025 72.4791 436.25 73.3791 436.25C74.2791 436.25 75.1291 436.017 75.9291 435.55C76.7291 435.083 77.2874 434.483 77.6041 433.75L78.7041 434.05C78.4541 434.667 78.0541 435.217 77.5041 435.7C76.9708 436.183 76.3374 436.567 75.6041 436.85C74.8874 437.117 74.1291 437.25 73.3291 437.25ZM68.1541 430.025H78.4291C78.3624 429.008 78.0958 428.108 77.6291 427.325C77.1624 426.542 76.5458 425.925 75.7791 425.475C75.0291 425.025 74.1958 424.8 73.2791 424.8C72.3624 424.8 71.5291 425.025 70.7791 425.475C70.0291 425.925 69.4208 426.542 68.9541 427.325C68.4874 428.108 68.2208 429.008 68.1541 430.025ZM86.0043 437.25C84.971 437.25 84.0126 437.075 83.1293 436.725C82.246 436.375 81.471 435.842 80.8043 435.125L81.3793 434.25C82.096 434.933 82.821 435.433 83.5543 435.75C84.2876 436.05 85.0876 436.2 85.9543 436.2C87.071 436.2 87.971 435.967 88.6543 435.5C89.3543 435.033 89.7043 434.383 89.7043 433.55C89.7043 432.983 89.5376 432.55 89.2043 432.25C88.8876 431.933 88.421 431.683 87.8043 431.5C87.2043 431.3 86.471 431.092 85.6043 430.875C84.721 430.642 83.971 430.4 83.3543 430.15C82.7543 429.9 82.3043 429.575 82.0043 429.175C81.7043 428.775 81.5543 428.233 81.5543 427.55C81.5543 426.7 81.7626 426 82.1793 425.45C82.6126 424.883 83.1876 424.467 83.9043 424.2C84.6376 423.917 85.446 423.775 86.3293 423.775C87.346 423.775 88.2293 423.942 88.9793 424.275C89.746 424.608 90.3293 425.05 90.7293 425.6L90.0543 426.4C89.6376 425.867 89.096 425.475 88.4293 425.225C87.7626 424.958 87.0293 424.825 86.2293 424.825C85.6293 424.825 85.0626 424.908 84.5293 425.075C83.996 425.242 83.5626 425.517 83.2293 425.9C82.9126 426.267 82.7543 426.767 82.7543 427.4C82.7543 427.9 82.871 428.292 83.1043 428.575C83.3543 428.858 83.721 429.092 84.2043 429.275C84.6876 429.442 85.2876 429.625 86.0043 429.825C87.021 430.075 87.896 430.333 88.6293 430.6C89.3626 430.867 89.9293 431.217 90.3293 431.65C90.7293 432.067 90.9293 432.658 90.9293 433.425C90.9293 434.608 90.4793 435.542 89.5793 436.225C88.6793 436.908 87.4876 437.25 86.0043 437.25ZM99.1922 436.375C99.1089 436.408 98.9422 436.492 98.6922 436.625C98.4422 436.758 98.1255 436.883 97.7422 437C97.3589 437.1 96.9339 437.15 96.4672 437.15C96.0172 437.15 95.5922 437.067 95.1922 436.9C94.8089 436.717 94.5005 436.45 94.2672 436.1C94.0339 435.75 93.9172 435.325 93.9172 434.825V425.025H92.0922V424H93.9172V419.55H95.1672V424H98.1922V425.025H95.1672V434.525C95.2005 435.008 95.3755 435.375 95.6922 435.625C96.0089 435.858 96.3755 435.975 96.7922 435.975C97.3089 435.975 97.7589 435.892 98.1422 435.725C98.5255 435.542 98.7505 435.425 98.8172 435.375L99.1922 436.375ZM105.025 437.25C103.992 437.25 103.033 437.075 102.15 436.725C101.267 436.375 100.492 435.842 99.825 435.125L100.4 434.25C101.117 434.933 101.842 435.433 102.575 435.75C103.308 436.05 104.108 436.2 104.975 436.2C106.092 436.2 106.992 435.967 107.675 435.5C108.375 435.033 108.725 434.383 108.725 433.55C108.725 432.983 108.558 432.55 108.225 432.25C107.908 431.933 107.442 431.683 106.825 431.5C106.225 431.3 105.492 431.092 104.625 430.875C103.742 430.642 102.992 430.4 102.375 430.15C101.775 429.9 101.325 429.575 101.025 429.175C100.725 428.775 100.575 428.233 100.575 427.55C100.575 426.7 100.783 426 101.2 425.45C101.633 424.883 102.208 424.467 102.925 424.2C103.658 423.917 104.467 423.775 105.35 423.775C106.367 423.775 107.25 423.942 108 424.275C108.767 424.608 109.35 425.05 109.75 425.6L109.075 426.4C108.658 425.867 108.117 425.475 107.45 425.225C106.783 424.958 106.05 424.825 105.25 424.825C104.65 424.825 104.083 424.908 103.55 425.075C103.017 425.242 102.583 425.517 102.25 425.9C101.933 426.267 101.775 426.767 101.775 427.4C101.775 427.9 101.892 428.292 102.125 428.575C102.375 428.858 102.742 429.092 103.225 429.275C103.708 429.442 104.308 429.625 105.025 429.825C106.042 430.075 106.917 430.333 107.65 430.6C108.383 430.867 108.95 431.217 109.35 431.65C109.75 432.067 109.95 432.658 109.95 433.425C109.95 434.608 109.5 435.542 108.6 436.225C107.7 436.908 106.508 437.25 105.025 437.25Z" fill="black"/>
</svg>
