<svg width="197" height="300" viewBox="0 0 197 300" fill="none" xmlns="http://www.w3.org/2000/svg">
<path d="M182.046 76.1262C182.867 76.1999 187.392 77.1098 186.58 75.9639C184.608 73.1606 178.441 71.5131 178.441 71.5131L173.779 75.659C173.779 75.659 173.631 85.3131 174.91 83.277C176.188 81.236 175.997 79.4213 175.997 79.4213C176.066 80.7295 181.441 89.1393 181.795 86.4491C182.149 83.759 178.574 79.559 178.574 79.559C178.574 79.559 187.264 89.0458 186.821 86.2131C186.206 82.2885 180.89 78.8508 180.89 78.8508C180.89 78.8508 189.079 84.0245 187.22 80.6163C185.577 77.5967 182.046 76.1311 182.046 76.1311" fill="#FACBA0"/>
<path d="M182.046 76.1262C182.867 76.1999 187.392 77.1098 186.58 75.9639C184.608 73.1606 178.441 71.5131 178.441 71.5131L173.779 75.659C173.779 75.659 173.631 85.3131 174.91 83.277C176.188 81.236 175.997 79.4213 175.997 79.4213C176.066 80.7295 181.441 89.1393 181.795 86.4491C182.149 83.759 178.574 79.559 178.574 79.559C178.574 79.559 187.264 89.0458 186.821 86.2131C186.206 82.2885 180.89 78.8508 180.89 78.8508C180.89 78.8508 189.079 84.0245 187.22 80.6163C185.577 77.5967 182.046 76.1311 182.046 76.1311" stroke="#FACBA0" stroke-miterlimit="10"/>
<path d="M26.5476 93.9492C26.4492 93.9295 25.2738 99.8853 21.2804 104.725C18.0738 108.61 20.7738 97.4656 23.0902 92.7738C23.6656 91.6082 22.1853 98.2574 22.7607 97.7115C22.7607 97.7115 20.7886 99.182 15.4279 100.121C10.0673 101.061 23.0902 92.7738 23.0902 92.7738C23.0902 92.7738 17.2279 97.5541 11.4001 97.8246C5.57218 98.0951 15.605 91.8344 20.0066 91.8098C20.0066 91.8098 15.064 93.0541 10.5492 92.341C6.03448 91.6328 13.8394 87.7869 22.9673 88.5492" fill="#FACBA0"/>
<path d="M26.5476 93.9492C26.4492 93.9295 25.2738 99.8853 21.2804 104.725C18.0738 108.61 20.7738 97.4656 23.0902 92.7738M23.0902 92.7738C23.6656 91.6082 22.1853 98.2574 22.7607 97.7115C22.7607 97.7115 20.7886 99.182 15.4279 100.121C10.0673 101.061 23.0902 92.7738 23.0902 92.7738ZM23.0902 92.7738C23.0902 92.7738 17.2279 97.5541 11.4001 97.8246C5.57218 98.0951 15.605 91.8344 20.0066 91.8098C20.0066 91.8098 15.064 93.0541 10.5492 92.341C6.03448 91.6328 13.8394 87.7869 22.9673 88.5492" stroke="#FACBA0" stroke-miterlimit="10"/>
<path d="M132.226 219.87L138.079 222.516C138.275 222.605 138.374 222.841 138.3 223.052L136.166 228.969C136.106 229.136 135.954 229.244 135.782 229.244H134.69C134.547 229.244 134.415 229.323 134.341 229.451L126.231 243.531C126.202 243.585 126.157 243.63 126.108 243.664C125.784 243.885 124.441 244.697 122.08 244.825C121.78 244.839 121.564 244.529 121.677 244.244L126.177 232.559C126.177 232.559 126.192 232.515 126.197 232.49L127.79 224.651" fill="#4A4B4C"/>
<path d="M132.226 219.87L138.079 222.516C138.275 222.605 138.374 222.841 138.3 223.052L136.166 228.969C136.106 229.136 135.954 229.244 135.782 229.244H134.69C134.547 229.244 134.415 229.323 134.341 229.451L126.231 243.531C126.202 243.585 126.157 243.63 126.108 243.664C125.784 243.885 124.441 244.697 122.08 244.825C121.78 244.839 121.564 244.529 121.677 244.244L126.177 232.559C126.177 232.559 126.192 232.515 126.197 232.49L127.79 224.651" stroke="#4A4B4C" stroke-miterlimit="10"/>
<path d="M142.559 273.831L145.525 279.733C145.564 279.807 145.559 279.9 145.515 279.974L142.957 284.262C142.884 284.39 142.721 284.4 142.628 284.287L142.151 283.712C142.062 283.603 141.905 283.613 141.826 283.731L141.443 284.307C141.408 284.361 141.408 284.38 141.403 284.425L140.577 295.038C140.572 295.121 140.523 295.195 140.454 295.23L134.459 298.077C134.459 298.077 134.415 298.092 134.39 298.097L131.056 298.308C130.889 298.318 130.775 298.116 130.859 297.959L135.241 289.603C135.241 289.603 135.261 289.559 135.266 289.539L137.533 278.139" fill="#4A4B4C"/>
<path d="M142.559 273.831L145.525 279.733C145.564 279.807 145.559 279.9 145.515 279.974L142.957 284.262C142.884 284.39 142.721 284.4 142.628 284.287L142.151 283.712C142.062 283.603 141.905 283.613 141.826 283.731L141.443 284.307C141.408 284.361 141.408 284.38 141.403 284.425L140.577 295.038C140.572 295.121 140.523 295.195 140.454 295.23L134.459 298.077C134.459 298.077 134.415 298.092 134.39 298.097L131.056 298.308C130.889 298.318 130.775 298.116 130.859 297.959L135.241 289.603C135.241 289.603 135.261 289.559 135.266 289.539L137.533 278.139" stroke="#4A4B4C" stroke-miterlimit="10"/>
<path d="M132.389 220.003C132.389 220.003 132.757 222.364 127.569 225.511Z" fill="#1C4583"/>
<path d="M132.389 220.003C132.389 220.003 132.757 222.364 127.569 225.511" stroke="#1C4583" stroke-width="0.25" stroke-miterlimit="10"/>
<path d="M127.574 225.512C127.574 225.512 99.3984 192.472 81.6049 162.979C81.6049 162.979 78.2705 156.684 81.2361 151.574C81.2361 151.574 83.459 148.033 91.6181 148.82C91.6181 148.82 110.523 149.213 137.218 151.574L135.364 138.202L147.969 136.628C147.969 136.628 157.082 150.433 155.754 157.471C155.012 161.405 150.192 161.405 147.6 161.012C145.008 160.618 114.285 159.438 92.759 157.077C92.759 157.077 88.2836 156.684 90.5115 160.618C92.7344 164.553 110.533 186.969 132.403 220.008" fill="#1C4583"/>
<path d="M127.574 225.512C127.574 225.512 99.3984 192.472 81.6049 162.979C81.6049 162.979 78.2705 156.684 81.2361 151.574C81.2361 151.574 83.459 148.033 91.6181 148.82C91.6181 148.82 110.523 149.213 137.218 151.574L135.364 138.202L147.969 136.628C147.969 136.628 157.082 150.433 155.754 157.471C155.012 161.405 150.192 161.405 147.6 161.012C145.008 160.618 114.285 159.438 92.759 157.077C92.759 157.077 88.2836 156.684 90.5115 160.618C92.7344 164.553 110.533 186.969 132.403 220.008" stroke="#1C4583" stroke-width="0.25" stroke-miterlimit="10"/>
<path d="M103.102 208.992C103.102 208.992 103.102 205.844 106.436 200.341C106.436 200.341 118.825 178.849 125.975 159.703L137.203 151.569L135.349 138.197L120.89 137.016C120.89 137.016 121.259 144.88 122.002 151.569C122.002 151.569 109.52 172.161 102.354 188.931C102.354 188.931 100.5 191.292 94.5688 203.484C94.5688 203.484 91.6032 208.205 94.5688 213.511C94.5688 213.511 114.216 245.174 137.203 278.995C137.203 278.995 139.8 277.421 142.765 273.88" fill="#1C4583"/>
<path d="M103.102 208.992C103.102 208.992 103.102 205.844 106.436 200.341C106.436 200.341 118.825 178.849 125.975 159.703L137.203 151.569L135.349 138.197L120.89 137.016C120.89 137.016 121.259 144.88 122.002 151.569C122.002 151.569 109.52 172.161 102.354 188.931C102.354 188.931 100.5 191.292 94.5688 203.484C94.5688 203.484 91.6032 208.205 94.5688 213.511C94.5688 213.511 114.216 245.174 137.203 278.995C137.203 278.995 139.8 277.421 142.765 273.88" stroke="#1C4583" stroke-width="0.25" stroke-miterlimit="10"/>
<path d="M122.075 150.649C124.338 150.595 126.6 150.512 128.862 150.492C129.949 150.482 131.036 150.516 132.123 150.497C133.21 150.477 134.272 150.325 135.266 150.846C135.477 150.959 135.664 150.639 135.453 150.526C134.592 150.069 133.687 150.069 132.738 150.103C131.602 150.148 130.466 150.113 129.33 150.118C126.915 150.118 124.495 150.216 122.075 150.275C121.839 150.28 121.839 150.649 122.075 150.644V150.649Z" fill="#1B1464"/>
<path d="M135.138 138.33C135.133 138.91 135.187 139.49 135.379 140.041C135.571 140.592 135.866 141.074 136.175 141.556C136.303 141.752 136.623 141.571 136.495 141.369C136.2 140.921 135.915 140.454 135.733 139.943C135.551 139.431 135.497 138.88 135.502 138.33C135.502 138.093 135.133 138.093 135.133 138.33H135.138Z" fill="#1B1464"/>
<path d="M139.839 140.189C139.834 140.828 140.316 141.403 140.725 141.846C141.197 142.367 141.743 142.859 142.333 143.243C143.926 144.29 146.026 144.32 147.866 144.28C148.102 144.275 148.102 143.907 147.866 143.912C146.144 143.946 144.221 143.931 142.692 143.031C142.151 142.711 141.669 142.284 141.231 141.841C140.818 141.423 140.203 140.823 140.208 140.184C140.208 139.948 139.839 139.948 139.839 140.184V140.189Z" fill="#1B1464"/>
<path d="M130.431 141.069C130.451 142.289 129.551 143.169 128.533 143.695C127.515 144.221 126.379 144.492 125.267 144.408C125.031 144.389 125.031 144.757 125.267 144.777C126.477 144.871 127.766 144.531 128.828 143.956C129.915 143.366 130.825 142.372 130.8 141.069C130.8 140.833 130.426 140.833 130.431 141.069Z" fill="#1B1464"/>
<path d="M105.212 61.0377L107.921 63.4721C107.921 63.4721 137.577 41.4491 145.362 39.4819C145.362 39.4819 149.439 37.1213 151.293 39.8754C151.293 39.8754 169.087 58.3623 178.357 71.3409C178.357 71.3409 178.726 73.7016 173.538 76.0623C173.538 76.0623 156.856 57.9688 147.959 46.1705C147.959 46.1705 137.208 55.2147 117.561 67.4065C117.561 67.4065 135.728 87.0737 143.139 105.556C143.139 105.556 143.739 106.834 144.354 108.605C144.575 109.239 144.797 109.943 144.993 110.67C144.993 110.67 149.444 130.731 148.328 137.021C148.328 137.021 135.723 139.382 120.895 138.595C120.895 138.595 118.672 128.37 118.672 117.752C118.672 117.752 101.616 92.9754 94.9476 81.177C94.9476 81.177 64.5492 80.7836 57.1328 79.2098C57.1328 79.2098 33.7771 91.795 26.7345 94.5491C26.7345 94.5491 23.941 93.2655 22.382 89.8229C22.2148 89.4541 22.0574 88.6721 21.9148 88.2541C21.9148 88.2541 38.2279 78.4229 54.1673 72.1278C54.1673 72.1278 71.8525 71.1688 89.5181 73.618C89.5181 73.618 93.1525 73.2934 97.9132 71.3409C97.9132 71.3409 97.023 71.1983 95.7984 65.3705C94.5738 59.5426 105.212 61.0426 105.212 61.0426V61.0377Z" fill="#593657"/>
<path d="M144.993 110.666L144.625 109.092L116.179 114.187C116.179 114.187 116.193 114.207 116.198 114.216C116.233 114.261 116.257 114.305 116.287 114.349C116.346 114.452 116.415 114.541 116.454 114.659C116.479 114.703 116.503 114.748 116.538 114.787C116.557 114.807 116.557 114.826 116.552 114.846C116.612 114.934 116.68 115.018 116.725 115.116C116.73 115.126 116.73 115.131 116.734 115.136C116.779 115.2 116.828 115.264 116.872 115.328C116.872 115.328 116.872 115.333 116.877 115.338C117.807 116.626 118.677 117.743 118.677 117.743L145.741 113.415C145.372 110.267 144.998 110.661 144.998 110.661L144.993 110.666Z" fill="#F2DCE4"/>
<path d="M139.269 97.3967C139.269 97.3967 140.754 99.9443 141.389 101.567C141.389 101.567 128.243 106.392 113.075 109.51C113.075 109.51 109.795 104.493 109.411 104.036C109.028 103.579 138.113 95.3312 138.113 95.3312" fill="#F2DCE4"/>
<path d="M132.762 86.7787C132.762 86.7787 129.521 81.0885 126.088 77.6262L100.51 90.6049L105.698 98.4688" fill="#F2DCE4"/>
<path d="M117.561 67.4016C117.561 67.4016 119.769 69.4967 120.89 71.2032L96.9049 84.5164C96.9049 84.5164 95.6901 82.741 94.9475 81.1672L117.561 67.4016Z" fill="#F2DCE4"/>
<path d="M89.5181 73.6131L91.2345 81.1081C91.2345 81.1081 86.1738 81.0836 83.7 80.9311L82.3574 72.7967C82.3574 72.7967 84.8263 72.7426 89.5132 73.618L89.5181 73.6131Z" fill="#F2DCE4"/>
<path d="M74.9115 72.2558L76.2001 80.6804C76.2001 80.6804 72.7722 80.705 69.0296 80.3459L68.0017 71.9951C68.0017 71.9951 71.5574 71.9951 74.9115 72.2558Z" fill="#F2DCE4"/>
<path d="M60.5214 71.9509L61.9574 79.8443C61.9574 79.8443 58.2443 79.5935 57.1328 79.205L55.5935 72.064C55.5935 72.064 57.9787 71.7787 60.5214 71.9509Z" fill="#F2DCE4"/>
<path d="M48.7278 74.395L52.9966 81.418C52.9966 81.418 49.6524 83.1786 47.8327 84.1426L43.136 76.9524C43.136 76.9524 44.7737 75.8803 48.7278 74.395Z" fill="#F2DCE4"/>
<path d="M37.7606 79.5837L42.3983 86.9656C42.3983 86.9656 38.4639 89.1492 36.6737 89.8771L32.1589 82.4902C32.1589 82.4902 33.9589 81.5312 37.7606 79.5787V79.5837Z" fill="#F2DCE4"/>
<path d="M26.7836 85.436L31.4853 92.4196C31.4853 92.4196 28.9574 93.7524 26.7345 94.5393C26.7345 94.5393 22.6574 92.5721 21.9148 88.2442C21.9148 88.2442 24.6099 86.5573 26.7836 85.436Z" fill="#F2DCE4"/>
<path d="M146.42 117.748C146.42 117.748 146.902 120.133 147.433 123.659C147.433 123.659 119.302 127.052 119.174 127.121C119.046 127.19 118.8 124.623 118.677 122.075L146.425 117.748H146.42Z" fill="#F2DCE4"/>
<path d="M119.67 131.316L148.131 128.803C148.131 128.803 148.284 129.811 148.495 133.416L120.3 135.408C120.3 135.408 119.926 133.485 119.67 131.321V131.316Z" fill="#F2DCE4"/>
<path d="M113.262 59.5771L118.318 66.9344L125.09 62.6115L119.774 54.9541C119.774 54.9541 113.784 58.8344 113.267 59.5771H113.262Z" fill="#F2DCE4"/>
<path d="M127.023 49.9721L132.182 57.8606C132.182 57.8606 136.121 55.3278 139.446 52.7114L134.646 45.0245C134.646 45.0245 129.811 47.877 127.023 49.9672V49.9721Z" fill="#F2DCE4"/>
<path d="M143.616 40.0918L147.959 46.1656L153.344 42.0295C153.344 42.0295 150.89 38.5377 149.425 38.6164C149.425 38.6164 148.171 37.9525 143.616 40.0918Z" fill="#F2DCE4"/>
<path d="M157.195 46.1655L151.544 50.754L155.311 55.3426L161.365 50.754C161.365 50.754 159.015 48.1327 157.195 46.1655Z" fill="#F2DCE4"/>
<path d="M165.821 55.7902L160.082 60.9443L163.923 65.3459L169.908 60.5656C169.908 60.5656 167.371 57.5459 165.821 55.7853V55.7902Z" fill="#F2DCE4"/>
<path d="M173.774 65.3508L168.147 70.1066C168.147 70.1066 169.888 72.059 171.713 74.0607L176.98 69.4525C176.98 69.4525 175.859 67.623 173.774 65.3557V65.3508Z" fill="#F2DCE4"/>
<path d="M63.064 29.341C73.7115 49.2148 104.587 83.223 105.92 56.2033C107.252 29.1886 99.2459 15.8804 99.2459 15.8804L63.064 29.341Z" fill="#FACBA0"/>
<path d="M75.2016 41.2279C75.2016 41.2279 73.6868 31.0771 81.2163 38.105" stroke="#464547" stroke-miterlimit="10"/>
<path d="M81.5116 44.7443L80.5968 55.1213L78.2607 56.1541L78.9247 45.5066" stroke="#5C3B0C" stroke-width="0.5" stroke-miterlimit="10"/>
<path d="M88.5737 51.8312C88.8688 52.1558 90.8803 54.4131 90.3836 57.4968C90.0885 59.3361 89.0508 60.5459 88.5737 61.0377" stroke="#464547" stroke-miterlimit="10"/>
<path d="M90.5657 33.1918C90.8755 30.3787 92.9558 29.3508 94.6378 29.341C96.6149 29.3311 97.5394 31.0672 97.8345 31.7115C98.4935 33.1377 99.5608 36.6836 97.5444 38.2279C96.1181 39.3197 94.4952 39.9443 92.6017 38.2279" stroke="#464547" stroke-miterlimit="10"/>
<path d="M95.4493 31.9967L94.7263 36.2459" stroke="#5C3B0C" stroke-width="0.5" stroke-miterlimit="10"/>
<path d="M92.9165 33.4131L97.2591 34.8295" stroke="#5C3B0C" stroke-width="0.5" stroke-miterlimit="10"/>
<path d="M98.936 7.2246C98.4245 6.81148 97.736 6.55083 96.9196 6.4082C96.9344 5.93607 96.8655 5.45902 96.7081 5.00656C96.5557 4.56394 96.3245 4.16558 96.0344 3.82132C95.3754 3.02952 94.5344 2.70492 94.1655 2.55738C90.8409 1.24427 86.4344 1.7164 86.4344 1.7164C81.3688 2.2623 77.218 3.70329 74.936 4.58853C71.9803 5.73935 67.7852 7.65247 63.1622 10.8148C62.2917 11.4148 59.7196 13.318 58.6377 16.4459C58.1163 17.9459 58.1163 19.2197 58.2049 20.0607C58.2885 20.3016 58.3967 20.523 58.5245 20.7344C57.9393 21.4328 57.5016 22.2049 57.3049 23.0607C56.8672 24.9492 57.6393 26.9853 58.2934 28.6967C59.2573 31.2344 60.2409 31.7115 60.6344 31.8639C61.8344 32.3262 63.1229 31.8885 63.5852 31.7361C63.5852 31.7361 98.6409 20.2623 101.213 16.5787C101.715 15.8607 102.005 15.1082 102.005 15.1082C102.305 14.3312 102.398 13.623 102.418 13.0525C102.418 13.0525 102.202 9.86066 98.936 7.22952V7.2246Z" fill="#593657"/>
<path d="M99.0296 7.06715C98.4197 6.60486 97.7116 6.37371 96.9689 6.23109L97.1066 6.40814C97.1214 2.51306 92.8034 1.67207 89.7197 1.48519C86.6361 1.2983 83.587 1.82453 80.6165 2.57207C77.646 3.31961 74.6017 4.42617 71.7493 5.73437C69.9542 6.55568 68.1984 7.47535 66.4968 8.47863C65.0116 9.34912 63.5017 10.2491 62.164 11.336C60.8263 12.4229 59.6509 13.7901 58.8935 15.3639C58.1361 16.9376 57.4722 19.2245 58.3722 20.8278L58.4017 20.6065C57.0738 22.2344 56.7591 24.0737 57.246 26.0999C57.5017 27.1622 57.8853 28.2147 58.3132 29.218C58.623 29.9458 58.9919 30.6688 59.5181 31.2639C60.6788 32.5672 62.4198 32.3163 63.9296 31.8196C66.8509 30.8557 69.7624 29.8672 72.664 28.859C77.5575 27.1622 82.4312 25.4163 87.2657 23.5475C91.2788 21.9983 95.405 20.459 99.1624 18.3344C100.456 17.6016 101.38 16.9229 102.025 15.536C102.433 14.6557 102.723 13.6032 102.551 12.6295C102.335 11.4098 101.784 10.2344 101.075 9.22617C100.51 8.42453 99.8312 7.72125 99.0738 7.09666C98.8919 6.94912 98.6312 7.20486 98.8132 7.35732C100.662 8.87699 102.644 11.4835 102.128 14.0458C101.931 15.0196 101.494 16.1409 100.746 16.8245C100.357 17.1786 99.9001 17.4639 99.4525 17.7344C96.1132 19.7458 92.3607 21.1475 88.746 22.5737C84.1378 24.3885 79.4755 26.0803 74.8034 27.7229C71.4788 28.8885 68.1443 30.0294 64.8001 31.1409C64.0427 31.3917 63.2509 31.7114 62.4591 31.8295C60.9443 32.0606 59.9657 31.4704 59.2181 30.2163C58.687 29.3262 58.3378 28.3327 58.0034 27.359C57.6345 26.2868 57.3296 25.1557 57.3738 24.0147C57.4181 22.8245 57.9197 21.777 58.6624 20.8672C58.7165 20.8032 58.7361 20.7196 58.6919 20.6458C57.8361 19.1262 58.5738 16.8295 59.2968 15.3885C59.9853 14.0213 60.9886 12.8311 62.1443 11.8426C63.3001 10.854 64.6279 10.0524 65.9214 9.26552C67.5296 8.28683 69.182 7.38191 70.8788 6.56552C73.4656 5.31634 76.146 4.24912 78.9001 3.43765C81.6542 2.62617 84.7329 1.91797 87.7034 1.83929C90.8952 1.75076 96.7525 2.05568 96.7378 6.42289C96.7378 6.49666 96.7968 6.58519 96.8755 6.59994C97.5935 6.73273 98.2624 6.95404 98.8476 7.39666C99.0345 7.53929 99.2214 7.21961 99.0345 7.07699L99.0296 7.06715Z" fill="#593657"/>
</svg>
