<svg width="300" height="300" viewBox="0 0 300 300" fill="none" xmlns="http://www.w3.org/2000/svg">
<path d="M144.936 28.212C144.936 28.212 215.34 25.716 289.44 112.404C289.44 112.404 291.624 114.864 289.44 120.456C289.44 120.456 288.36 121.272 286.284 122.808C266.796 137.16 159.408 214.536 27.5039 275.94C27.5039 275.94 11.0639 288.648 18.9599 270.228C26.8559 251.808 121.524 54.9 121.524 54.9C121.524 54.9 110.46 29.448 144.924 28.2L144.936 28.212Z" fill="#FFC700" stroke="#C47200" stroke-width="3" stroke-miterlimit="10"/>
<path d="M272.868 128.328C270.948 129.048 269.052 129.768 267.36 130.932C265.848 131.976 264.228 133.14 263.508 134.892C263.352 135.276 263.472 135.936 263.688 136.284C263.952 136.692 264.3 136.956 264.768 137.112C265.776 137.448 266.832 137.16 267.672 136.536C268.236 136.116 268.836 135.744 269.448 135.384C270.096 135 270.744 134.616 271.332 134.148C272.1 133.56 272.712 132.936 273.276 132.156C274.068 131.076 274.632 129.516 273.504 128.436C272.628 127.584 271.32 127.74 270.264 128.112C269.316 128.448 268.344 128.88 267.504 129.456C266.724 129.984 266.304 131.064 266.856 131.916C267.36 132.696 268.488 133.128 269.316 132.564C269.844 132.204 270.42 131.928 271.008 131.652C271.116 131.604 270.552 131.832 270.876 131.712C270.948 131.688 271.032 131.652 271.104 131.628C271.26 131.568 271.416 131.52 271.584 131.472C271.644 131.46 271.956 131.424 271.992 131.376C271.956 131.424 271.44 131.412 271.716 131.412C271.764 131.412 271.848 131.412 271.896 131.412C272.076 131.376 271.368 131.316 271.596 131.376C271.344 131.316 271.176 131.196 270.96 130.992C270.888 130.932 270.624 130.5 270.588 130.344C270.624 130.464 270.54 129.888 270.54 129.948C270.54 130.032 270.516 130.188 270.564 129.828C270.612 129.444 270.576 129.684 270.552 129.78C270.48 130.02 270.78 129.324 270.624 129.612C270.516 129.804 270.408 129.984 270.288 130.164C270.252 130.224 269.988 130.56 270.156 130.344C270.324 130.128 270.012 130.5 269.976 130.548C269.772 130.764 269.556 130.968 269.34 131.16C269.1 131.376 269.364 131.136 269.4 131.112C269.352 131.136 269.292 131.196 269.244 131.232C269.124 131.316 269.004 131.4 268.872 131.484C268.608 131.664 268.332 131.832 268.056 132C267.468 132.348 266.868 132.684 266.304 133.068C266.052 133.248 265.812 133.44 265.56 133.608C265.512 133.644 265.464 133.668 265.416 133.692C265.116 133.884 265.68 133.608 265.5 133.656C265.32 133.704 265.728 133.632 265.716 133.632C265.368 133.656 266.088 133.74 265.716 133.608L266.976 135.828C266.736 136.428 266.916 135.996 267.012 135.852C267.048 135.804 267.228 135.564 267.036 135.816C266.844 136.068 267.036 135.84 267.072 135.78C267.312 135.516 267.564 135.276 267.828 135.036C267.972 134.916 268.116 134.796 268.26 134.676C268.668 134.388 268.344 134.616 268.26 134.676C268.32 134.628 268.38 134.58 268.44 134.544C268.728 134.328 269.028 134.112 269.34 133.908C270.012 133.452 270.696 133.056 271.428 132.72C271.536 132.672 271.644 132.624 271.752 132.576C272.064 132.432 271.572 132.648 271.788 132.564C272.004 132.48 272.232 132.384 272.448 132.3C272.904 132.12 273.36 131.952 273.816 131.784C274.692 131.46 275.388 130.548 275.076 129.564C274.8 128.7 273.804 127.956 272.856 128.304L272.868 128.328Z" fill="#FFE18E"/>
<path d="M267.816 129.396C266.472 129.936 265.368 130.716 264.276 131.652C263.82 132.048 263.376 132.444 262.932 132.852C262.716 133.044 262.488 133.248 262.26 133.428C262.128 133.536 261.996 133.656 261.852 133.752C262.044 133.596 261.828 133.764 261.744 133.824C261.168 134.232 260.616 134.64 260.124 135.144C259.896 135.372 259.68 135.624 259.452 135.852C259.344 135.96 259.236 136.068 259.128 136.176C259.092 136.212 258.792 136.464 259.008 136.308C258.96 136.344 258.588 136.5 258.792 136.44C259.008 136.38 258.588 136.476 258.552 136.488C258.288 136.548 258.024 136.572 257.772 136.62C256.98 136.752 256.332 137.076 255.708 137.592C254.976 138.192 255.036 139.524 255.708 140.136C256.476 140.844 257.472 140.784 258.252 140.136C257.94 140.388 258.42 140.112 258.192 140.196C257.964 140.28 258.372 140.16 258.408 140.148C258.66 140.088 258.924 140.064 259.188 140.028C259.812 139.932 260.448 139.716 260.952 139.332C261.492 138.924 261.948 138.456 262.416 137.964C262.62 137.748 262.836 137.532 263.052 137.328C263.076 137.304 263.376 137.064 263.196 137.196C263.316 137.1 263.436 137.028 263.568 136.944C264.588 136.224 265.5 135.384 266.424 134.556C266.652 134.352 266.88 134.16 267.108 133.968C267.204 133.896 267.288 133.812 267.384 133.74C267.144 133.932 267.576 133.596 267.588 133.596C267.804 133.44 268.02 133.296 268.236 133.164C268.356 133.092 268.476 133.02 268.608 132.96C268.668 132.924 269.112 132.732 268.788 132.864C269.652 132.516 270.372 131.652 270.048 130.644C269.772 129.804 268.764 129.012 267.828 129.384L267.816 129.396Z" fill="#FFE18E"/>
<path d="M254.376 143.4C256.86 143.34 258.816 142.116 260.88 140.88C262.812 139.716 264.948 138.972 266.604 137.388C267.492 136.524 267.18 134.58 265.812 134.376C262.74 133.92 260.748 135.72 258.576 137.604C256.512 139.392 253.632 139.896 252.108 142.344C251.448 143.4 252.288 145.236 253.668 145.056C256.14 144.732 261.372 141.252 257.964 138.624C255.06 136.38 251.76 141.348 249.576 142.656C247.392 143.964 245.22 144.984 243.012 146.028C241.056 146.964 239.112 147.996 237.768 149.76C236.844 150.972 235.872 152.904 237.276 154.176C239.028 155.76 241.632 154.008 243.216 153.048C244.356 152.364 245.568 151.848 246.72 151.212C247.98 150.516 249.012 149.58 250.128 148.692C251.148 147.888 252.252 147.156 253.416 146.604C254.52 146.088 255.588 145.644 256.176 144.492C256.764 143.34 256.068 141.696 254.616 141.78C250.8 142.02 248.184 144.444 245.148 146.448C242.376 148.284 238.656 148.044 236.568 150.9C235.2 152.772 238.32 154.572 239.676 152.712C240.384 151.74 242.1 151.608 243.168 151.308C244.536 150.936 245.784 150.336 246.972 149.556C249.324 147.996 251.664 145.56 254.628 145.38L253.068 142.668C252.768 143.244 251.484 143.532 250.908 143.844C249.984 144.348 249.12 144.948 248.292 145.584C247.464 146.22 246.696 146.952 245.832 147.54C244.848 148.2 243.744 148.656 242.688 149.196C241.872 149.604 241.116 150.12 240.324 150.576C240.024 150.744 239.268 150.936 239.052 151.164C238.62 151.2 238.776 151.428 239.532 151.848C239.928 152.016 240.144 152.268 240.168 152.604C240.276 152.58 241.176 151.296 241.296 151.188C242.004 150.564 242.844 150.108 243.684 149.676C247.152 147.912 251.172 146.484 253.992 143.724C254.46 143.256 254.928 142.788 255.444 142.368C255.708 142.152 256.356 141.72 256.392 141.66C255.588 141.288 255.264 140.832 255.432 140.268C255.456 140.22 255.432 140.244 255.348 140.34C255.204 140.388 254.916 140.7 254.772 140.796C254.472 141 254.148 141.132 253.836 141.312C253.776 141.348 253.152 141.492 253.656 141.432L255.216 144.144C256.236 142.512 258.804 141.984 260.292 140.82C261.432 139.92 263.208 137.58 264.852 137.832L264.06 134.82C262.764 136.068 260.976 136.644 259.44 137.532C257.904 138.42 256.296 139.728 254.376 139.776C252.06 139.836 252.06 143.436 254.376 143.376V143.4Z" fill="#FFE18E"/>
<path d="M238.92 151.344C238.956 152.412 236.652 153.756 235.836 154.308C234.06 155.508 231.972 156.168 230.16 157.332C226.308 159.804 222.312 162 218.76 164.916C217.104 166.272 219.216 168.612 220.944 167.748C223.44 166.5 225.612 164.604 228.228 163.62C230.436 162.792 229.548 159.828 227.268 160.152C224.796 160.5 222.636 161.964 220.632 163.344C218.412 164.88 216.168 166.392 213.72 167.556C211.272 168.72 209.064 170.064 206.748 171.384C204.612 172.608 202.548 173.94 201.108 175.968C200.124 177.336 201.744 178.92 203.136 178.608C205.632 178.068 207.624 176.232 209.844 175.068C212.196 173.844 214.236 172.632 216.252 170.892C217.2 170.064 218.34 169.824 219.36 169.14C220.008 168.72 220.524 168.156 220.992 167.556C222.144 166.092 222.9 163.62 220.596 162.768C218.796 162.108 217.032 163.512 215.568 164.376C213.408 165.66 211.416 167.16 209.34 168.576C205.932 170.892 201.072 172.128 199.008 175.992C197.916 178.032 201.024 179.856 202.116 177.804C203.568 175.068 207.324 174.024 209.832 172.536C213 170.652 215.784 168.192 219.06 166.464C219.108 166.44 219.564 166.272 219.636 166.188C219.24 164.736 218.868 164.268 218.532 164.808C218.46 164.904 218.4 165.012 218.34 165.108C217.896 165.468 217.668 165.948 217.152 166.236C216.36 166.692 215.508 166.92 214.752 167.448C213.996 167.976 213.384 168.672 212.664 169.26C211.152 170.496 209.28 171.252 207.576 172.164C205.872 173.076 204.168 174.672 202.164 175.104L204.192 177.744C205.44 175.992 207.624 174.984 209.448 173.94C211.608 172.704 213.744 171.504 215.976 170.4C218.208 169.296 220.104 168.012 222.072 166.656C224.04 165.3 225.876 163.908 228.204 163.572L227.244 160.104C224.304 161.22 221.88 163.2 219.096 164.592L221.28 167.424C223.344 165.732 225.612 164.304 227.88 162.912C229.944 161.652 231.96 160.152 234.132 159.096C237.048 157.68 242.628 155.304 242.484 151.308C242.4 148.992 238.8 148.992 238.884 151.308L238.92 151.344Z" fill="#FFE18E"/>
<path d="M221.004 165.684C223.2 164.844 224.856 163.32 226.752 161.964C228.648 160.608 230.796 159.816 232.74 158.604C233.928 157.86 235.236 157.296 236.46 156.6C237.684 155.904 239.412 154.968 239.724 153.468C239.928 152.484 239.436 151.572 238.464 151.248C236.436 150.576 234.72 152.196 233.172 153.228C232.368 153.768 232.02 154.812 232.524 155.688C232.992 156.492 234.168 156.876 234.984 156.336C235.524 155.976 236.028 155.568 236.568 155.208C236.856 155.028 237.144 154.86 237.444 154.704C237.312 154.776 237.576 154.68 237.588 154.68C237.48 154.716 237.156 154.596 237.504 154.716L236.244 152.496C236.172 152.82 236.424 152.052 236.28 152.412C236.352 152.22 236.496 152.208 236.28 152.376C236.184 152.448 236.1 152.544 236.004 152.628C236.28 152.4 235.836 152.736 235.824 152.748C235.236 153.144 234.624 153.492 234 153.828C232.86 154.452 231.684 155.004 230.58 155.7C228.792 156.828 226.788 157.536 225.048 158.748C223.428 159.888 221.928 161.46 220.044 162.18C219.132 162.528 218.508 163.392 218.784 164.4C219.024 165.264 220.08 166.008 221.004 165.66V165.684Z" fill="#FFE18E"/>
<path d="M202.92 175.944C201.18 176.004 199.536 176.592 198.12 177.612C197.436 178.104 196.8 178.656 196.212 179.268C195.708 179.796 195.264 180.384 194.724 180.876C194.316 181.236 193.788 181.584 193.224 181.908C192.576 182.28 191.916 182.604 191.244 182.94C189.828 183.648 188.472 184.368 187.248 185.388C186.504 186.012 186.6 187.296 187.248 187.932C187.992 188.676 189.048 188.556 189.792 187.932C190.104 187.668 190.764 187.248 191.28 186.96C191.868 186.636 192.468 186.336 193.068 186.048C194.376 185.4 195.648 184.728 196.8 183.816C197.856 182.988 198.624 181.872 199.632 180.984C200.568 180.168 201.72 179.58 202.932 179.532C205.248 179.46 205.248 175.86 202.932 175.932L202.92 175.944Z" fill="#FFE18E"/>
<path d="M202.428 176.532C200.664 176.364 199.476 177.636 198.048 178.416C196.728 179.136 195.228 179.412 193.8 179.868C190.908 180.792 187.896 182.04 185.7 184.2C184.188 185.688 186.096 187.908 187.884 187.032C190.68 185.664 193.224 183.876 195.888 182.268C198.084 180.948 200.976 180.072 202.044 177.54C202.584 176.256 201.024 174.96 199.824 175.32C198.024 175.884 196.584 177.216 195 178.188C193.272 179.244 191.556 180.312 189.948 181.536C189.18 182.124 188.772 183.084 189.3 183.996C189.744 184.764 190.98 185.232 191.76 184.644C193.296 183.48 194.928 182.46 196.572 181.44C197.316 180.984 198.048 180.528 198.744 180.012C199.368 179.556 200.028 179.016 200.772 178.788L198.552 176.568C198.696 176.22 198.552 176.496 198.396 176.652C198.24 176.796 198.204 176.82 197.952 176.988C197.544 177.252 197.112 177.468 196.68 177.696C195.54 178.272 194.436 178.908 193.356 179.58C190.944 181.068 188.604 182.652 186.06 183.912L188.244 186.744C190.008 184.992 192.588 184.008 194.964 183.276C196.38 182.832 197.808 182.484 199.164 181.872C199.836 181.572 200.436 181.188 201.036 180.768C201.528 180.42 201.96 180.096 202.416 180.144C203.388 180.24 204.216 179.256 204.216 178.344C204.216 177.288 203.388 176.64 202.416 176.544L202.428 176.532Z" fill="#FFE18E"/>
<path d="M169.176 200.64C170.868 200.136 172.08 198.9 173.484 197.904C175.224 196.668 176.964 195.408 178.752 194.232C180.54 193.056 182.304 192.036 184.128 191.004C185.688 190.128 187.488 189.516 188.916 188.436C190.344 187.356 189.828 185.328 188.004 185.076C186 184.812 184.26 185.964 182.604 186.912C180.756 187.98 178.848 189 176.892 189.864L179.076 192.696C180.528 191.472 182.172 190.5 183.78 189.516C185.232 188.628 186.744 188.076 187.728 186.612C189.024 184.692 185.904 182.88 184.62 184.8C184.308 185.256 183.66 185.496 183.18 185.736C182.46 186.108 181.776 186.528 181.092 186.948C179.508 187.932 177.948 188.952 176.532 190.152C175.86 190.728 175.872 191.868 176.388 192.516C176.988 193.272 177.864 193.356 178.716 192.984C180.492 192.192 182.208 191.244 183.912 190.32C185.184 189.624 186.48 188.484 188.004 188.688L187.092 185.328C185.76 186.348 184.08 186.9 182.628 187.716C180.804 188.748 178.992 189.78 177.24 190.92C175.488 192.06 173.928 193.236 172.272 194.376C171.552 194.868 170.856 195.384 170.172 195.936C169.584 196.404 168.948 196.944 168.216 197.16C165.996 197.82 166.944 201.3 169.176 200.628V200.64Z" fill="#FFE18E"/>
<path d="M175.8 190.02C175.116 190.74 174.444 191.484 173.676 192.108C172.908 192.732 171.924 193.236 171.084 193.848C169.248 195.168 167.652 196.824 165.744 198.06C163.644 199.416 161.412 200.556 159.264 201.816C158.376 202.332 157.524 202.944 156.612 203.436C156.384 203.556 156.168 203.652 155.928 203.736C155.364 203.928 155.592 203.736 155.916 203.964L156.564 204.612C156.564 204.612 156.432 205.956 156.444 205.956C156.492 205.98 156.828 205.752 156.888 205.728C157.2 205.584 157.524 205.464 157.836 205.32C158.556 205.008 159.132 204.54 159.744 204.048C161.436 202.656 163.428 201.732 165.336 200.676C169.428 198.42 173.508 196.128 177.624 193.908C179.664 192.804 177.852 189.696 175.812 190.8C171.828 192.948 167.868 195.168 163.908 197.352C161.988 198.42 159.888 199.344 158.16 200.712C157.596 201.156 157.08 201.696 156.444 202.032C155.856 202.332 155.208 202.5 154.656 202.848C153.192 203.748 152.388 205.956 154.128 207.072C155.352 207.864 156.9 207.288 158.088 206.724C159.756 205.932 161.292 204.804 162.9 203.892C164.736 202.86 166.644 201.876 168.348 200.628C170.052 199.38 171.684 197.736 173.532 196.524C175.38 195.312 176.868 194.124 178.38 192.552C179.988 190.884 177.444 188.328 175.836 190.008L175.8 190.02Z" fill="#FFE18E"/>
<path d="M154.74 204.732C152.436 206.052 150.108 207.348 147.9 208.836C145.692 210.324 143.808 212.124 141.516 213.372C139.224 214.62 136.764 215.304 134.496 216.492C132.732 217.416 130.74 219.408 128.664 219.432L130.464 221.232C130.464 221.676 130.164 221.7 130.584 221.352C130.908 221.088 131.208 220.86 131.556 220.632C132.456 220.056 133.416 219.564 134.376 219.084C136.356 218.088 138.228 217.032 140.124 215.88C143.112 214.068 146.124 212.316 149.22 210.672C151.716 209.352 154.632 208.44 156.528 206.244C157.584 205.02 156.84 203.304 155.256 203.172C154.008 203.064 152.832 203.892 151.884 204.612C150.66 205.536 149.628 206.328 148.392 207.324C146.904 208.524 145.476 209.808 143.94 210.96C142.404 212.112 140.724 212.616 139.116 213.528C137.1 214.68 138.912 217.788 140.928 216.636C142.392 215.808 143.988 215.34 145.368 214.344C146.748 213.348 148.116 212.196 149.46 211.08C150.672 210.072 151.92 209.124 153.156 208.152C153.672 207.744 154.692 206.712 155.256 206.76L153.984 203.688C153.024 204.804 151.752 205.452 150.432 206.076C148.956 206.784 147.492 207.504 146.052 208.296C142.692 210.132 139.392 212.1 136.128 214.104C134.4 215.16 132.528 215.928 130.776 216.912C129.156 217.824 126.888 219.108 126.876 221.232C126.876 222.204 127.704 223.044 128.676 223.032C131.052 223.008 132.972 221.604 134.916 220.416C137.316 218.94 139.98 218.076 142.524 216.9C145.068 215.724 146.952 213.888 149.148 212.352C151.524 210.696 154.068 209.28 156.576 207.84C158.592 206.688 156.78 203.58 154.764 204.732H154.74Z" fill="#FFE18E"/>
<path d="M127.836 220.236C125.544 221.16 123.552 222.504 121.488 223.848C120.492 224.496 119.448 225.048 118.44 225.66C117.324 226.344 116.316 227.136 115.092 227.616C112.692 228.552 110.4 229.536 108.144 230.772C105.756 232.08 103.416 233.472 100.944 234.624L103.404 237.084C104.304 235.548 106.368 234.78 107.928 234.12C109.98 233.232 111.972 232.332 113.928 231.252C119.148 228.384 124.248 225.312 129.468 222.468C131.496 221.352 129.684 218.244 127.656 219.36C122.136 222.372 116.76 225.648 111.228 228.636C109.296 229.68 107.292 230.472 105.3 231.384C103.308 232.296 101.4 233.4 100.296 235.284C99.3239 236.94 101.208 238.476 102.756 237.744C105.084 236.664 107.292 235.368 109.536 234.12C111.78 232.872 114.084 231.888 116.484 230.928C118.68 230.052 120.756 228.588 122.748 227.328C124.74 226.068 126.612 224.592 128.796 223.716C129.708 223.356 130.32 222.516 130.056 221.496C129.828 220.632 128.748 219.876 127.836 220.236Z" fill="#FFE18E"/>
<path d="M101.616 235.224C99.2399 235.644 96.9839 236.544 94.8479 237.648C93.8399 238.164 92.8919 238.86 91.8479 239.304C90.8039 239.748 89.6039 239.988 88.4759 240.264C83.7959 241.428 79.8839 244.428 76.6439 247.908C75.5159 249.12 76.6079 251.604 78.3959 250.92C81.8399 249.6 84.7199 247.38 87.9239 245.616C91.1279 243.852 94.7159 242.712 97.9199 240.864C99.6959 239.844 98.5079 237.06 96.5279 237.576C95.4479 237.864 94.5359 238.464 93.5759 239.004C92.4119 239.664 91.2119 240.252 90.0359 240.888C87.8879 242.04 85.8599 243.648 83.5679 244.488L84.9599 247.776C88.6919 245.4 93.0479 244.236 96.7919 241.86C98.0039 241.092 99.2759 240.42 100.464 239.616C101.652 238.812 103.164 237.768 103.452 236.244C103.632 235.272 103.188 234.336 102.192 234.024C100.716 233.568 99.0719 234.288 97.7519 234.912C96.4319 235.536 95.1599 236.232 94.1759 237.228C92.5439 238.872 95.0879 241.416 96.7199 239.772C97.2839 239.208 98.2079 238.704 99.0599 238.272C99.5039 238.044 99.9479 237.84 100.428 237.684C100.656 237.612 100.884 237.54 101.124 237.492C101.232 237.468 101.076 237.444 101.244 237.492L99.9839 235.272C99.8759 235.848 98.2799 236.748 97.5239 237.204C96.3239 237.912 95.1479 238.68 93.9359 239.364C90.4439 241.332 86.5439 242.496 83.1479 244.656C81.5159 245.7 82.5359 248.676 84.5399 247.944C86.8919 247.08 88.8959 245.616 91.0799 244.416C92.1959 243.804 93.3359 243.216 94.4639 242.616C95.4479 242.088 96.4199 241.32 97.4999 241.032L96.1079 237.744C93.0239 239.52 89.6159 240.624 86.4719 242.292C83.3279 243.96 80.6879 246.18 77.4359 247.428L79.1879 250.44C80.6879 248.832 82.3319 247.32 84.1559 246.084C85.9799 244.848 87.9839 244.068 90.2039 243.528C94.5839 242.46 98.0639 239.46 102.576 238.68C104.856 238.284 103.884 234.816 101.616 235.212V235.224Z" fill="#FFE18E"/>
<path d="M76.4999 247.236C71.4479 249.06 67.5479 252.828 62.7719 255.144C60.6839 256.152 62.5079 259.26 64.5839 258.252C66.8639 257.148 69.2639 256.272 71.5439 255.168C72.5999 254.652 73.6439 254.088 74.6159 253.416C75.5879 252.744 76.5119 251.856 77.6399 251.328C79.4639 250.464 78.1799 247.356 76.2479 248.04C70.2479 250.176 64.4999 252.96 58.6559 255.504C55.8239 256.728 53.0039 257.988 50.3159 259.5C47.8439 260.88 45.1919 262.128 43.1399 264.12C41.7359 265.476 43.2359 267.384 44.8919 267.132C48.1679 266.616 50.8679 264.216 53.7719 262.764C57.0119 261.144 60.4079 259.884 63.7559 258.504L62.3639 255.216C60.2279 256.68 57.8519 257.712 55.5479 258.864C53.2439 260.016 50.7599 261.36 48.1919 262.248C46.0079 262.992 46.9439 266.472 49.1519 265.716C51.8519 264.792 54.3599 263.484 56.9039 262.2C59.4479 260.916 61.8959 259.884 64.1879 258.324C65.7479 257.256 64.8119 254.208 62.7959 255.036C59.5079 256.392 56.1599 257.652 52.9439 259.176C51.3719 259.92 49.8599 260.748 48.3839 261.66C46.9079 262.572 45.6359 263.388 43.9319 263.664L45.6839 266.676C47.5559 264.864 50.1119 263.736 52.3799 262.488C54.9959 261.036 57.7319 259.824 60.4799 258.636C66.0359 256.224 71.4959 253.572 77.2079 251.532L75.8159 248.244C74.6879 248.772 73.8119 249.636 72.7919 250.332C71.7719 251.028 70.7759 251.568 69.7199 252.084C67.4399 253.188 65.0399 254.064 62.7599 255.168L64.5719 258.276C69.0479 256.104 72.7319 252.432 77.4479 250.728C79.6079 249.948 78.6719 246.468 76.4879 247.26L76.4999 247.236Z" fill="#FFE18E"/>
<path d="M15.7201 277.032C15.6121 278.508 16.3081 280.044 17.8201 280.464C19.0081 280.788 20.2801 280.392 21.3121 279.804C22.4881 279.132 23.4841 278.196 24.6601 277.524C24.8041 277.44 24.9481 277.368 25.0921 277.296C25.5001 277.08 24.8521 277.368 25.2121 277.236C25.5481 277.116 25.8721 277.008 26.2081 276.888C27.0481 276.588 27.7561 276.24 28.4401 275.652C29.7961 274.476 28.3681 272.1 26.6881 272.64C25.8481 272.916 25.0921 273.324 24.3601 273.804C24.0601 273.996 23.7601 274.2 23.4481 274.392C23.2801 274.5 23.1001 274.596 22.9201 274.692C22.8361 274.74 22.7401 274.788 22.6561 274.824C22.8361 274.752 22.8601 274.74 22.7401 274.788C22.5601 274.836 22.3801 274.896 22.2121 274.944C21.9961 274.98 21.9961 274.98 22.2121 274.956C22.1041 274.968 21.9961 274.98 21.8881 274.98C21.5041 275.004 21.1201 275.004 20.7361 275.004C19.8241 275.004 18.9001 275.028 18.0241 275.28L18.9841 278.748C21.5401 277.86 24.0961 276.732 26.1601 274.956C26.8801 274.344 26.8441 273.036 26.1601 272.412C25.3921 271.716 24.3841 271.752 23.6161 272.412C23.5081 272.508 23.4001 272.592 23.2921 272.676C23.6281 272.4 23.2441 272.7 23.1961 272.736C22.9681 272.892 22.7401 273.048 22.5121 273.192C22.0081 273.504 21.4801 273.792 20.9401 274.068C20.6761 274.2 20.4241 274.32 20.1601 274.44C20.0401 274.5 19.9201 274.548 19.8001 274.596C19.4041 274.776 20.0161 274.512 19.6561 274.656C19.1161 274.872 18.5761 275.076 18.0241 275.268C17.1361 275.58 16.4521 276.516 16.7641 277.488C17.0761 278.46 18.0121 279.024 18.9841 278.748C19.1881 278.688 19.3921 278.64 19.5961 278.616C19.1641 278.676 19.8361 278.616 19.9201 278.616C20.3041 278.604 20.6881 278.616 21.0721 278.616C21.9481 278.616 22.8721 278.568 23.7121 278.268C24.5521 277.968 25.2241 277.56 25.9321 277.092C26.2321 276.888 26.5321 276.696 26.8441 276.504C27.0241 276.396 27.2041 276.312 27.3841 276.216C27.5761 276.132 27.5641 276.132 27.3721 276.216C27.4681 276.18 27.5641 276.144 27.6601 276.12L25.9081 273.108C25.5721 273.396 26.1841 272.988 25.8001 273.18C25.6921 273.24 25.5841 273.288 25.4761 273.348C25.2961 273.444 25.7401 273.252 25.4161 273.372C25.2721 273.42 25.1281 273.468 24.9841 273.516C24.4081 273.708 23.8321 273.912 23.2921 274.188C22.2361 274.704 21.3241 275.46 20.3641 276.144C19.9801 276.42 19.5841 276.66 19.1641 276.888C18.8761 277.032 19.4521 276.804 19.2481 276.852C19.1641 276.876 19.0801 276.912 18.9961 276.936C18.9001 276.96 18.8041 276.984 18.7081 277.008C18.4081 277.08 19.0561 277.008 18.8641 276.984C18.8161 276.984 18.6841 276.96 18.6481 276.984C18.9241 276.852 19.0681 277.104 18.8041 276.984C18.5881 276.888 19.0081 277.068 19.0201 277.08C18.7561 276.936 19.3441 277.38 19.1401 277.164C19.2001 277.224 19.4041 277.548 19.2601 277.284C19.1521 277.104 19.4281 277.692 19.3321 277.404C19.2361 277.116 19.3201 277.8 19.3321 277.428C19.3321 277.296 19.3321 277.152 19.3441 277.02C19.4161 276.084 18.4681 275.184 17.5441 275.22C16.5121 275.268 15.8161 276.012 15.7441 277.02L15.7201 277.032Z" fill="#FFE18E"/>
<path d="M25.152 275.376C28.872 275.508 32.328 273.744 35.556 272.124C39.204 270.288 42.984 268.728 46.704 267.048C47.952 266.484 47.808 264.54 46.704 263.94C45.144 263.088 43.428 263.724 41.928 264.396C40.428 265.068 38.916 265.836 37.488 266.64C35.556 267.732 33.612 268.68 31.596 269.616C30.6 270.084 29.604 270.588 28.68 271.188C28.296 271.44 27.948 271.728 27.564 271.98C27.096 272.304 27.192 272.304 26.82 272.184L28.14 273.924C28.14 274.068 28.092 274.2 28.02 274.32C28.128 274.152 28.128 274.152 28.02 274.308C28.272 274.188 28.224 274.104 28.392 273.984C28.896 273.636 29.46 273.372 30.024 273.12C30.912 272.724 31.848 272.424 32.76 272.1C34.932 271.332 33.996 267.852 31.8 268.632C29.376 269.496 24.576 270.66 24.54 273.924C24.54 274.74 25.104 275.424 25.86 275.664C28.092 276.372 29.484 274.872 31.26 273.84C33.036 272.808 35.124 272.064 37.008 271.056C38.676 270.156 40.332 269.244 42.012 268.368C42.624 268.056 43.236 267.708 43.872 267.444C44.172 267.324 44.484 267.204 44.808 267.144C44.88 267.132 45.084 267.024 44.952 267.108C45.156 266.976 45.144 267.192 44.88 267.048V263.94C41.364 265.524 37.776 267 34.332 268.728C31.488 270.156 28.44 271.908 25.152 271.788C22.836 271.704 22.836 275.304 25.152 275.388V275.376Z" fill="#FFE18E"/>
<path d="M289.5 122.46C290.196 117.84 291.132 113.04 287.496 109.284C286.236 107.988 284.844 107.376 283.164 106.812C282.732 106.668 282.276 106.524 281.832 106.416C280.176 106.008 282.744 106.932 283.164 107.388L285.012 110.568L284.976 110.388L284.256 115.932L284.364 115.752L281.784 118.332C280.56 118.74 280.452 118.8 281.448 118.5C285.192 117.432 287.508 113.412 286.476 109.644C285.36 105.576 281.472 103.968 277.62 104.616C276.816 104.748 274.02 104.412 272.52 104.496C269.748 104.652 267.204 105.348 264.9 106.932C260.928 109.668 259.428 114.528 259.536 119.184C259.644 123.84 261.156 128.64 264.948 131.508C268.452 134.16 272.916 134.232 276.936 132.768C279.72 131.748 283.176 130.836 285.708 129.348C291.792 125.784 290.76 118.38 285.612 114.624C279.816 110.412 268.38 110.112 264.384 116.928C262.2 120.66 264.048 126.648 268.692 127.5C272.184 128.148 275.424 127.56 277.812 124.74C280.308 121.764 280.728 117.48 277.812 114.552C275.244 111.984 270.144 111.564 267.624 114.552L269.328 113.736H273.156L272.52 113.616L276.828 124.188C276.216 125.172 275.388 125.844 274.356 126.18C275.136 126.012 275.1 126 274.224 126.144C275.004 126.108 275.784 126.12 276.564 126.192C277.104 126.24 277.02 126.228 276.3 126.168C276.708 126.24 277.104 126.336 277.5 126.444C278.316 126.72 278.22 126.66 277.212 126.252C278.34 126.984 277.908 126.264 275.904 124.116V120.288L275.796 120.636L277.644 117.456C277.968 117.084 279.9 116.448 278.544 116.808C278.148 116.916 277.752 117.036 277.368 117.168C276.24 117.552 275.16 118.044 274.056 118.488C273.54 118.692 273.024 118.908 272.496 119.076C272.28 119.148 270.888 119.808 271.632 119.388C272.184 119.34 272.112 119.328 271.428 119.352L272.256 119.412C271.02 118.728 274.5 120.288 274.284 120.828C274.284 120.804 273.852 118.908 273.972 119.736C274.068 120.42 273.96 118.56 273.972 118.368C273.996 117.684 274.068 117.6 274.092 117.6C274.248 117.084 274.212 117.12 274.008 117.708L272.94 118.812C272.892 119.004 270.948 118.728 273.432 118.848C274.164 118.884 274.908 118.884 275.652 118.92C277.644 118.992 279.516 118.812 281.496 118.476L277.668 104.592C274.692 105.444 272.016 107.208 271.152 110.352C270.288 113.496 271.836 117.06 274.656 118.836C275.904 119.616 277.356 120.048 278.76 120.468C279.036 120.552 279.324 120.624 279.6 120.708C281.748 121.464 280.524 120.096 275.928 116.616C275.868 117.504 275.868 117.648 275.928 117.072C275.844 117.576 275.76 118.08 275.688 118.572C275.112 122.412 276.648 126.312 280.716 127.428C284.112 128.364 288.996 126.264 289.572 122.4L289.5 122.46Z" fill="#FFE18E"/>
<path d="M237.636 107.028C241.404 111.36 246.6 113.892 251.208 117.168C253.656 118.908 255.624 121.032 257.604 123.276C260.016 126.024 262.38 128.82 264.732 131.616C266.22 133.392 268.764 130.836 267.276 129.072C263.064 124.044 259.008 118.476 253.692 114.54C249.168 111.192 243.924 108.804 240.18 104.484C238.656 102.732 236.124 105.288 237.636 107.028Z" fill="#C47200"/>
<path d="M122.064 56.796C129.792 56.928 137.064 60.108 144.312 62.436C152.508 65.064 160.884 67.116 169.02 69.948C177.156 72.78 184.896 76.86 192.66 80.736C199.884 84.336 207.492 87.048 214.692 90.672C218.724 92.7 222.432 95.244 226.128 97.812C229.824 100.38 233.628 103.2 236.988 106.38C238.668 107.976 241.224 105.432 239.532 103.836C236.472 100.932 233.124 98.364 229.692 95.928C226.26 93.492 223.02 91.152 219.468 89.136C212.292 85.068 204.42 82.476 197.016 78.876C189.096 75.024 181.38 70.764 173.136 67.62C164.892 64.476 156.348 62.364 147.948 59.796C139.548 57.228 131.076 53.34 122.064 53.184C119.748 53.148 119.748 56.748 122.064 56.784V56.796Z" fill="#C47200"/>
<path d="M286.272 122.796C286.272 122.796 291.516 107.304 274.428 107.304C257.34 107.304 261.936 128.268 267.852 130.164C267.852 130.164 131.724 226.068 24.5399 272.436C24.5399 272.436 14.0159 280.692 18.9479 270.216" stroke="#C47200" stroke-width="3" stroke-miterlimit="10"/>
<path d="M120.432 38.016L119.82 39.384H130.176L129.732 38.484L130.332 43.104L130.68 42.084C126.828 41.016 122.964 39.96 119.112 38.892C118.428 41.424 117.912 44.124 118.032 46.764C118.104 48.576 118.908 50.364 118.8 52.152C118.644 54.684 120.768 57.36 123.204 57.936C127.5 58.968 131.856 60.156 136.236 60.78C140.28 61.356 144.372 61.068 148.284 62.412C150.9 63.312 153.624 61.776 155.064 59.652C160.056 52.26 169.308 36.024 160.788 27.996C157.056 24.48 151.584 25.32 146.94 25.812C139.812 26.568 133.404 28.068 126.624 30.216L131.244 41.184C133.632 39.408 135.792 38.424 138.852 38.856C141.24 39.192 140.316 38.964 139.716 41.412C138.876 44.904 137.604 49.08 138.888 52.62C142.776 63.36 152.88 54.708 156.072 48.804C159.264 42.9 161.376 31.764 151.524 30.756C147.324 30.324 144.084 32.844 141.768 36.096C140.7 37.596 139.86 39.216 138.96 40.824C138.528 41.58 137.832 42.432 137.556 43.26C137.1 44.604 135.672 44.208 137.868 44.004L143.868 50.004C144.3 45.636 148.008 42.816 146.256 38.004C144.504 33.192 138.84 31.56 134.148 32.688C123.816 35.172 121.704 47.304 128.388 54.672C131.46 58.056 137.268 56.232 138.42 52.02C139.14 49.392 139.944 46.812 140.856 44.244C143.184 37.716 133.284 33.9 129.888 39.624C128.64 41.736 127.548 42.492 125.352 43.548C120.96 45.648 121.716 53.796 126.78 54.516C131.676 55.212 136.536 55.932 141.36 57.012C148.884 58.68 152.1 47.112 144.552 45.444C139.728 44.376 134.856 43.644 129.972 42.948L131.4 53.916C135.336 52.032 138.024 49.428 140.244 45.696L129.276 41.076C128.352 43.644 127.56 46.224 126.84 48.852L136.872 46.2C136.284 45.564 136.5 45.204 136.416 44.472C137.664 44.388 137.472 43.788 135.852 42.672C134.988 40.572 134.424 40.464 134.148 42.336C132.564 43.992 132.084 47.832 131.868 50.016C131.568 53.04 134.868 56.304 137.868 56.016C145.02 55.344 147.336 49.86 150.696 44.4C151.044 43.776 151.428 43.164 151.836 42.564C153.468 41.052 151.884 40.008 147.084 39.456C146.844 39.636 146.148 41.916 145.992 42.252C145.464 43.356 144.396 44.424 143.988 45.552C143.004 48.3 148.956 51.348 150.432 48.36C153 43.152 153.432 35.052 148.98 30.936C142.44 24.888 131.94 25.824 125.184 30.828C120.132 34.584 122.796 44.016 129.804 41.796C133.704 40.56 137.196 39.252 141.264 38.604C143.496 38.244 145.728 37.932 147.972 37.716C148.548 37.656 152.112 37.74 152.784 37.356L153.564 37.332C151.92 36.048 151.308 36.444 151.752 38.532C150.912 39.984 150.804 42.288 150.168 43.884C148.788 47.328 146.748 50.556 144.684 53.616L151.464 50.856C147.672 49.56 143.808 49.536 139.848 49.176C135.324 48.756 130.8 47.448 126.396 46.392L130.8 52.176C131.028 48.504 129.66 45.912 130.68 42.096C132.696 34.584 121.56 31.632 119.112 38.904C118.272 41.4 118.692 43.176 119.808 45.444C121.812 49.512 128.076 49.188 130.164 45.444C131.544 42.984 132.132 40.8 132.42 38.028C133.2 30.348 121.188 30.408 120.42 38.028L120.432 38.016Z" fill="#C47200"/>
<path d="M147.144 33.588C146.136 35.472 144.768 37.536 143.7 38.736C143.316 39.156 142.668 39.348 143.508 39C144.252 38.688 144.06 38.82 143.412 38.964C142.884 39.072 142.404 39.168 143.22 39.036C142.296 39.192 141.36 39.276 140.436 39.408C137.22 39.852 135.468 43.956 136.248 46.788C137.196 50.244 140.4 51.42 143.628 50.976C143.04 51.06 143.1 51.048 143.772 50.964C144.48 50.88 145.176 50.784 145.884 50.676C146.364 50.592 146.832 50.496 147.288 50.352C148.98 49.8 150.528 48.9 151.8 47.652C154.056 45.42 156.024 42.456 157.524 39.66C159.024 36.864 158.244 33.132 155.376 31.452C152.652 29.856 148.704 30.732 147.168 33.6L147.144 33.588Z" fill="#C47200"/>
<path d="M119.58 42.396C118.764 43.8 117.936 45.324 117.612 46.932C117 49.872 117.612 52.824 119.808 54.996C122.004 57.168 126.096 57.384 128.292 54.996C130.488 52.608 130.668 48.876 128.292 46.512C128.652 46.872 128.904 47.304 129.048 47.784C129.252 48.348 129.288 48.432 129.168 48.012L129.384 49.608C129.348 49.332 129.348 49.092 129.36 48.804L129.144 50.4C129.192 50.112 129.252 49.848 129.324 49.56C129.576 48.516 128.652 50.844 129.156 49.896C129.42 49.416 129.672 48.924 129.936 48.456C131.508 45.744 130.656 41.76 127.788 40.248C124.92 38.736 121.26 39.504 119.58 42.396Z" fill="#C47200"/>
<path d="M142.104 60.936L143.208 61.26L139.02 57.072L139.224 57.648L141.984 50.868L141.024 51.384C137.124 53.484 137.112 59.652 141.024 61.74C147.144 65.016 154.008 64.776 160.464 66.96C167.556 69.348 174.948 71.112 181.248 75.312L185.868 64.344C180.3 62.52 174.984 59.484 169.548 57.276C164.352 55.152 158.772 54.492 153.24 53.844C147.372 53.16 144.996 62.556 150.216 65.028C156.348 67.932 163.212 69.576 169.692 71.592C177.084 73.896 180.24 62.316 172.884 60.024C167.472 58.344 161.4 57.096 156.276 54.672L153.252 65.856C164.088 67.128 172.56 72.612 182.7 75.936C189.432 78.144 192.756 68.592 187.32 64.968C181.2 60.888 174.168 58.86 167.244 56.616C164.064 55.584 161.016 54.456 157.704 53.88C154.14 53.256 150.348 53.148 147.096 51.408V61.764L148.056 61.248C150.24 60.072 151.68 56.88 150.816 54.468C149.784 51.588 148.26 50.232 145.308 49.368C137.88 47.196 134.712 58.776 142.116 60.936H142.104Z" fill="#C47200"/>
<path d="M152.088 59.7601C158.808 59.7961 165.948 59.7121 172.14 62.7241C175.62 64.4161 181.752 67.128 183.72 70.536L188.904 61.512C184.68 61.668 180.864 56.5921 177.552 54.3841C172.728 51.1681 167.244 51.3361 161.832 49.8361C154.38 47.7721 151.2 59.34 158.64 61.404C161.868 62.304 165.54 62.1481 168.648 63.2761C171.216 64.2001 173.16 66.0961 175.272 67.7641C179.34 70.9801 183.516 73.7161 188.892 73.5241C193.404 73.3681 196.416 68.5441 194.076 64.5001C190.824 58.8841 183.804 55.2601 178.188 52.3801C170.088 48.2401 161.004 47.8201 152.088 47.7721C144.36 47.7361 144.36 59.7361 152.088 59.7721V59.7601Z" fill="#C47200"/>
<path d="M156.648 53.508C163.284 53.58 169.992 54.24 176.232 56.652C180.924 58.464 186.984 61.116 189.264 65.832L192.852 57.024C190.32 57.9 184.944 51.864 182.676 50.448C177.816 47.4 172.164 45.636 166.476 45.216C158.772 44.64 158.808 56.652 166.476 57.216C172.644 57.672 177.096 61.26 181.812 64.764C185.94 67.836 190.824 70.392 196.044 68.592C199.908 67.26 201.396 63.408 199.632 59.784C192.672 45.408 170.736 41.676 156.648 41.52C148.92 41.436 148.92 53.436 156.648 53.52V53.508Z" fill="#C47200"/>
<path d="M158.568 38.688C167.352 39.144 176.568 43.164 184.44 46.728C192.792 50.508 200.46 55.092 209.364 57.576C214.752 59.076 220.092 51.42 215.196 47.544C211.668 44.76 207.324 42.828 203.376 40.644C199.176 38.316 194.7 36.048 189.876 35.4C182.448 34.404 174.924 41.064 173.568 48.312C172.788 52.524 175.284 55.368 179.352 55.908C182.364 56.304 185.148 55.488 188.052 54.78L180.672 50.592L180.876 51.576L181.476 46.956L180.864 47.892C179.556 49.908 179.82 53.58 181.8 55.164C185.424 58.044 188.724 57.564 192.756 55.788C193.428 55.488 194.532 55.2 195.072 54.708C195.504 54.492 195.948 54.288 196.392 54.108L193.08 52.08C192.288 52.5 192.504 56.676 192.588 57.588C192.924 61.14 195.084 63.144 198.588 63.588C201.852 64.008 204.492 62.664 207.3 61.116L201.24 50.76C199.212 52.116 197.16 53.316 195.528 55.14C191.904 59.196 195.348 67.5 201.36 65.172C204.756 63.864 208.164 62.676 211.164 60.576C215.868 57.276 214.416 49.452 208.14 49.392C206.4 49.38 204.66 49.728 202.944 49.956C202.308 50.04 201.576 50.064 200.952 50.244C198.972 50.82 198.3 49.38 201.288 51.036V61.392C203.772 60.084 205.392 58.776 206.904 56.424C210 51.612 204.9 46.8 200.124 47.616C197.388 48.084 194.772 48.816 191.976 48.78L195 59.964C195.864 59.328 196.704 58.692 197.544 58.032C200.88 55.464 201.924 50.028 197.544 47.676C193.536 45.516 191.388 41.232 186.84 40.02C185.088 39.552 183.192 39.516 181.392 39.372C180.576 39.312 179.736 39.204 178.92 39.204C176.448 39.204 178.02 37.992 178.32 39.672C177.612 35.7 172.632 34.392 169.512 36.084C167.82 37.008 165.684 37.536 163.8 37.872C163.512 37.92 161.16 38.052 160.908 38.172C159.72 38.04 159.564 38.088 160.428 38.292C162.48 40.008 162.696 41.46 161.088 42.672L156.468 42.072L157.608 42.624L154.848 39.036L154.788 39.108C153.96 43.776 158.88 49.104 163.596 45.888C164.352 45.348 165.132 44.844 165.936 44.388L157.128 37.608C154.872 42.972 153.516 47.412 154.44 53.232C154.848 55.824 157.8 57.588 160.224 57.636C163.452 57.696 165.528 56.676 168.036 54.708C172.188 51.444 168.66 44.292 163.788 44.46L162.588 44.508L168.372 52.104C169.8 46.68 176.844 41.328 173.472 35.28C172.26 33.108 169.128 31.644 166.692 32.52L166.008 32.76C159.804 34.992 160.56 44.412 167.604 44.544C168.9 44.568 170.232 44.52 171.528 44.664C172.656 44.796 174.18 45.708 173.844 44.664C176.208 51.984 187.8 48.852 185.412 41.472C182.832 33.48 174.912 32.664 167.604 32.532L169.2 44.316L169.884 44.076L163.104 41.316L163.284 41.628L162.684 37.008C161.556 41.172 157.956 44.556 156.804 48.9C155.844 52.548 158.64 56.64 162.588 56.496L163.788 56.448L159.54 46.2L160.212 45.612L165.996 50.016C165.504 46.932 167.52 43.524 168.684 40.764C170.784 35.748 163.992 31.524 159.876 33.984C159.072 34.44 158.28 34.932 157.536 35.484L166.344 42.264C167.4 36.312 164.844 29.244 157.284 31.152C152.028 32.484 148.752 38.94 150.588 44.052C154.056 53.712 168.864 50.052 175.548 46.416L166.74 42.828C167.772 48.588 173.136 50.544 178.308 51.096C180.24 51.3 182.688 51.096 184.176 51.984C184.98 52.464 186.06 54.324 186.984 55.068C188.388 56.196 189.888 57.144 191.472 57.996V47.64C190.632 48.3 189.78 48.936 188.928 49.572C184.392 52.968 185.544 60.672 191.952 60.756C195.828 60.804 199.5 59.808 203.292 59.16L196.512 50.352C197.028 49.956 196.596 50.184 195.204 51.012C191.232 53.1 191.364 59.256 195.204 61.368C199.236 63.6 203.832 61.32 208.116 61.368L205.092 50.184C202.908 51.72 200.64 52.62 198.156 53.58L203.988 63.612C204.96 62.52 206.064 61.92 207.276 61.104C213.66 56.844 208.044 46.98 201.216 50.748C200.448 51.408 199.56 51.684 198.564 51.588L204.564 57.588C204.048 52.248 206.592 46.788 200.664 43.344C198.384 42.012 195.684 41.82 193.188 42.54C191.352 43.068 188.172 45.48 186.516 45.3L190.764 47.052L190.284 46.668L191.22 53.94C192.66 51.72 192.744 49.908 192.228 47.4C191.556 44.16 187.836 42.48 184.848 43.212C182.82 43.704 181.452 44.184 179.34 43.908L185.124 51.504C186.108 46.248 189.852 47.34 193.548 49.044C196.116 50.22 198.48 51.756 200.928 53.124C202.644 54.084 205.164 54.816 206.688 56.016L212.52 45.984C203.112 43.368 194.304 38.208 185.568 33.864C181.644 31.908 177.636 31.176 173.484 29.94C168.48 28.44 163.788 26.94 158.532 26.664C150.816 26.256 150.84 38.256 158.532 38.664L158.568 38.688Z" fill="#C47200"/>
<path d="M212.124 48.108C207.576 51.396 202.632 54.036 198.06 57.276C194.22 60.012 191.424 63.816 187.74 66.588L195.948 74.796C198.348 70.38 204.348 66.684 209.376 66.504L205.128 56.256C201.948 59.94 197.94 62.484 195.072 66.492C192.552 70.02 195.888 75.984 200.256 75.516C207.504 74.748 213.372 71.004 219.408 67.188L213.348 56.832C208.164 60.528 203.028 64.296 198.876 69.168C195.888 72.672 197.472 80.004 203.124 79.416C209.424 78.756 213.924 75.252 219.48 72.6L211.272 64.392C210.06 66.984 207.432 68.604 206.1 71.256C204.264 74.916 205.896 78.684 209.688 80.064C212.808 81.204 215.544 80.424 218.676 80.988L214.272 75.204C214.404 76.632 212.016 79.164 211.848 80.988C211.74 82.092 211.848 83.1 212.184 84.168C212.892 86.328 212.232 85.416 212.688 84.132L215.448 80.544C218.424 79.044 218.16 80.604 215.94 79.164C214.992 78.552 213.804 77.964 212.796 77.448C210.312 76.188 207.744 75.216 205.104 74.328C201.816 73.224 198.588 72.108 195.372 70.812C194.172 70.332 189.516 68.772 189.504 68.76L185.916 77.568C190.38 76.068 195.216 78.24 199.56 79.404C203.904 80.568 209.244 81.1679 212.784 84.4079L213.996 74.988L214.584 74.832C207.036 73.428 203.796 84.996 211.392 86.4C214.668 87.012 217.044 86.8679 220.056 85.3559C223.428 83.6639 224.004 78.432 221.268 75.936C215.952 71.088 209.52 69.648 202.752 67.848C195.984 66.048 189.456 63.756 182.724 66.012C179.328 67.152 176.796 71.46 179.136 74.82C182.22 79.236 187.788 80.616 192.564 82.548C198.816 85.08 204.948 87.24 211.044 90.108C215.7 92.292 222.036 93.396 224.256 87.336C224.46 86.796 225.012 80.028 223.416 80.136C223.212 82.92 223.584 83.436 224.52 81.684C224.94 81.156 225.264 80.58 225.48 79.944C226.176 78.36 226.416 76.944 226.26 75.216C226.044 72.768 224.568 69.924 221.856 69.432C218.952 68.904 215.604 69.504 212.868 68.508L216.456 77.316C217.764 74.712 220.356 73.176 221.628 70.452C224.22 64.92 218.988 59.592 213.42 62.244C210.312 63.72 206.604 67.056 203.124 67.428L207.372 77.676C210.888 73.572 215.028 70.344 219.408 67.224C225.588 62.82 219.996 52.68 213.348 56.868C209.484 59.304 204.948 63.06 200.256 63.552L205.44 72.576C207.612 69.54 211.176 67.596 213.624 64.776C216.828 61.08 214.908 54.336 209.376 54.528C200.196 54.864 190.02 60.576 185.58 68.76C182.964 73.584 188.676 80.82 193.788 76.968C197.532 74.148 200.34 70.44 204.108 67.656C208.608 64.332 213.624 61.764 218.172 58.488C224.376 54.012 218.388 43.596 212.112 48.132L212.124 48.108Z" fill="#C47200"/>
<path d="M224.472 61.656C223.692 65.604 222.732 69.492 221.844 73.416C221.592 74.52 221.34 78.336 220.368 78.852L229.176 82.44C229.416 84.216 228.984 80.148 228.936 79.452C228.804 77.544 228.708 75.636 228.708 73.728C228.708 71.724 228.756 69.708 228.984 67.716C229.44 63.624 230.424 67.272 226.224 66.48C231.408 67.452 237.264 60.528 232.056 56.448C230.4 55.152 228.84 53.784 226.812 53.1C225.492 52.656 221.352 51.252 223.236 53.7L223.836 58.32L224.028 57.132L215.22 60.72C213.372 59.64 214.68 58.404 214.668 60.6C214.668 61.644 214.896 62.724 214.956 63.78C215.064 65.556 215.508 67.968 214.404 69.432H224.76C221.172 62.724 220.344 56.652 213.396 52.284C206.832 48.168 200.808 58.548 207.336 62.64C211.5 65.256 212.196 71.352 214.392 75.48C216.72 79.848 222.216 78.828 224.748 75.48C229.38 69.372 228.072 54.312 221.268 50.352C218.22 48.576 213.096 50.04 212.46 53.94C211.896 57.384 212.22 59.892 215.052 62.268C217.596 64.416 221.352 63.192 223.56 64.92L229.392 54.888C213.708 51.936 216.336 76.392 217.596 85.62C218.148 89.688 223.392 90.78 226.404 89.208C233.928 85.272 234.6 72.12 236.028 64.836C237.456 57.552 225.948 54.06 224.46 61.644L224.472 61.656Z" fill="#C47200"/>
<path d="M230.736 71.1C234.48 71.148 238.26 76.5 240.54 79.008C244.476 83.328 249.768 86.52 254.136 90.456C258.9 94.752 267.768 89.004 263.556 83.184C261.144 79.848 258.42 77.304 255.12 74.868C251.82 72.432 248.712 69.06 244.752 67.872C236.7 65.448 231.024 71.904 224.64 75.384L233.664 80.568C233.688 79.884 234.084 76.764 234.432 76.668L227.052 69.288C226.428 70.752 225.72 72.168 224.916 73.536C222.12 78.648 227.856 84.996 233.124 81.744C235.464 80.304 237.096 77.736 239.508 76.596L231.3 74.448C232.152 76.404 232.2 78.468 233.34 80.352C234.252 81.864 235.56 83.1 236.688 84.444L235.752 77.172L236.496 76.488L240.744 86.736C238.44 87.132 238.116 87.468 239.748 87.768C240.576 88.176 241.392 88.62 242.184 89.1C243.276 89.748 244.308 90.504 245.388 91.152C246.228 91.656 246.972 92.064 247.848 92.484C248.592 92.796 249.336 93.132 250.068 93.468C251.724 94.716 252.024 93.936 250.98 91.128C254.64 91.608 258.288 92.088 261.948 92.556C258.024 81.288 245.004 74.052 233.388 74.244C229.104 74.316 227.052 78 227.604 81.84C228.276 86.52 234.396 88.092 238.152 89.148C239.916 89.652 241.668 90.072 242.196 90.276C243.108 90.648 243.996 91.104 244.872 91.56C246.684 92.532 247.236 94.092 247.32 91.968L251.724 86.184C248.82 87.024 244.572 82.032 242.304 80.544C238.38 77.952 234.444 77.004 229.812 77.832C226.284 78.468 223.992 83.7 226.224 86.64C228.84 90.096 233.316 91.044 237.276 92.364C242.856 94.212 246.516 94.104 249.396 99.276L256.176 90.468C254.172 89.64 252.9 83.316 252.096 81.528C250.44 77.868 248.064 74.46 244.212 72.9C238.992 70.788 236.016 74.772 231.588 76.896C226.728 79.224 221.58 80.856 216.696 83.184C213.156 84.876 212.928 90.06 215.484 92.604C218.976 96.096 223.932 96.912 227.88 99.768C230.724 101.832 233.388 104.1 235.692 106.764C237.336 108.66 238.668 111.024 240.612 112.62C248.424 119.016 257.148 109.512 259.584 102.336C261.18 97.632 256.368 94.212 252.204 94.956C249 95.52 247.14 97.776 244.368 99.228L253.176 102.816C253.776 106.176 255.456 100.86 255.636 99.3C255.912 96.84 255.012 94.464 253.152 92.82C251.292 91.176 248.94 90.672 246.612 91.308C245.352 91.656 244.176 92.472 243.192 93.3C241.776 94.5 240.432 94.356 243.192 94.212L248.976 98.616C248.712 97.848 250.452 94.92 250.656 93.984C251.892 88.548 244.776 83.328 240.624 88.152C239.1 89.244 239.4 89.808 241.524 89.844L245.112 92.604C243.732 90.612 246.012 97.068 245.136 93.132C244.812 91.656 244.716 90.648 243.864 89.388C242.004 86.676 239.184 86.1 236.088 86.46C235.908 86.484 231.924 86.592 232.116 86.46L231.42 94.164C232.02 94.308 232.62 94.488 233.208 94.692C234.192 95.364 235.716 95.7 236.82 96.252C243.684 99.768 249.756 89.412 242.88 85.896C236.844 82.812 222.504 78.528 222.012 89.868C221.832 93.852 224.916 96.612 228.384 97.848C230.208 98.496 232.284 98.904 234.228 98.976C235.392 99.012 239.868 98.664 237.084 98.184L233.496 95.424L233.952 96.144L233.352 91.524C232.728 95.34 233.808 99.36 237.624 101.112C242.124 103.164 246.336 99.852 249.108 96.636L239.076 90.804C238.164 94.8 235.932 97.548 237.396 101.82C238.224 104.22 240.456 106.368 243.18 106.224C244.92 106.128 246.384 105.828 247.896 104.904C248.604 104.376 249.3 103.824 249.972 103.272C251.412 102.18 251.052 102.12 248.892 103.08L244.644 101.328C244.68 97.2 244.116 96.192 242.928 98.34C242.4 99.084 241.992 99.9 241.704 100.776C241.068 102.624 241.236 104.16 241.572 106.032C242.28 110.052 247.248 111.252 250.38 109.62C252 108.768 253.524 106.884 255.348 106.56L247.968 99.18C247.632 100.176 246.648 100.884 246.312 101.808L245.304 102.816C247.644 103.392 248.28 103.164 247.224 102.132C247.044 99.78 241.452 95.448 239.736 93.996C237.396 92.016 234.888 89.952 232.284 88.332C229.68 86.712 225.96 86.196 223.92 84.168L222.708 93.588C230.268 89.976 238.608 87.972 245.088 82.392L239.256 83.94C241.872 84.816 243.108 91.608 244.212 93.84C246.18 97.872 248.82 100.38 252.948 102.084C258.072 104.196 262.044 97.416 259.728 93.276C256.776 87.996 252.096 84.792 246.504 82.824C244.296 82.056 242.052 81.384 239.844 80.652C238.824 80.316 237.564 79.62 236.484 79.5C234.792 79.308 234.024 77.304 236.568 80.64L232.98 89.448C235.764 88.944 240.384 94.26 242.592 95.652C246.396 98.052 250.512 99.072 254.892 97.8C257.508 97.044 259.2 94.692 259.296 92.016C259.524 85.896 253.572 82.44 248.736 80.184C246.996 79.368 245.28 78.732 243.456 78.18C242.364 77.856 241.248 77.628 240.168 77.28C236.244 76.044 238.752 75.84 239.16 78.684L233.376 86.28C239.28 86.184 248.256 89.688 250.368 95.784C252.012 100.5 258.636 101.916 261.336 97.212C266.244 88.656 258.6 84.864 252.276 81.348C245.952 77.832 239.268 72.504 232.248 78.276C227.7 82.02 231.996 87.924 236.496 88.524C240.684 89.076 243.984 86.664 246.12 83.256C247.632 80.844 246.876 78 245.184 75.984C243.312 73.752 242.832 71.064 241.668 68.412C240.3 65.28 236.1 65.004 233.46 66.264C230.82 67.524 229.464 69.948 227.076 71.412L235.284 79.62C236.568 77.28 237.672 74.988 238.632 72.504C240.288 68.184 235.344 63.888 231.252 65.124C224.52 67.164 221.844 74.076 221.676 80.604C221.544 85.296 226.824 87.888 230.7 85.788C233.604 84.204 238.584 78.912 241.74 79.74C243.312 80.16 245.556 82.764 246.912 83.748C249.204 85.404 251.52 86.964 253.2 89.292L262.62 82.02C257.172 77.112 251.532 72.78 246.42 67.608C242.316 63.456 236.808 59.232 230.748 59.16C223.02 59.064 223.02 71.064 230.748 71.16L230.736 71.1Z" fill="#C47200"/>
<path d="M256.476 91.8239C255.408 91.1519 256.344 92.0999 256.68 92.8199C257.136 93.8039 257.676 94.6199 258.36 95.4719C259.74 97.1879 261.396 98.6519 262.8 100.356C265.92 104.136 269.82 107.22 274.224 109.368C279.576 111.984 285.348 106.656 282.432 101.16C278.532 93.792 272.748 84.396 263.976 82.476C256.452 80.832 253.236 92.4 260.784 94.044C266.1 95.208 269.736 102.804 272.064 107.208L280.272 99C275.832 96.828 273.24 93.816 269.94 90.276C268.788 89.052 267.768 88.2119 267.048 86.7359C265.92 84.42 264.768 82.86 262.524 81.444C255.972 77.316 249.936 87.696 256.464 91.8L256.476 91.8239Z" fill="#C47200"/>
<path d="M270.144 97.908L269.904 97.7761C263.328 97.8601 261.516 108.084 268.308 109.56C268.992 109.668 269.664 109.848 270.312 110.112L271.908 98.3281C267.132 98.1361 263.1 99.4081 259.608 102.744C255.744 106.428 254.604 110.664 253.272 115.62L262.08 112.032C262.8 112.428 260.628 110.076 260.532 109.944C259.98 109.26 259.452 108.6 258.804 108.012C256.308 105.732 253.392 104.7 250.044 104.496L255.828 112.092C256.752 109.848 259.944 107.856 261.6 106.116C264.012 103.584 265.56 100.752 267.096 97.6441C263.436 97.1641 259.788 96.6841 256.128 96.2161C256.236 96.5641 256.332 95.712 256.32 95.724C255.9 96.144 255.528 96.996 255.156 97.5C254.232 98.76 253.116 99.8761 252.252 101.184C250.404 103.944 249.6 106.824 250.356 110.124C251.016 113.04 254.808 115.476 257.736 114.312C260.352 113.28 262.068 111.816 263.796 109.632C264.576 108.636 265.272 107.58 266.052 106.584C266.316 106.2 266.604 105.84 266.928 105.504C268.272 104.364 267.576 104.4 264.852 105.648C272.136 108.264 275.268 96.6721 268.044 94.0801C264.636 92.8561 261.216 94.296 258.756 96.72C257.592 97.86 256.656 99.24 255.696 100.536C255.036 101.424 252.852 103.416 254.544 102.744L261.924 106.932C262.236 108.288 260.904 108.792 262.104 107.976C262.236 107.892 262.992 106.788 263.184 106.548C264.18 105.228 265.344 104.004 266.208 102.588C267.996 99.684 268.704 96.336 267.696 93.036C266.292 88.416 259.116 86.76 256.728 91.608C254.928 95.268 253.104 97.608 250.224 100.452C247.632 103.02 245.628 105.552 244.248 108.924C242.664 112.776 246.576 116.316 250.032 116.52C251.928 116.628 254.148 121.392 256.008 122.412C259.38 124.248 263.796 122.652 264.816 118.824C265.98 114.468 266.58 110.148 271.884 110.352C278.904 110.628 279.684 100.644 273.48 98.568C272.832 98.316 272.16 98.1241 271.476 98.0161L269.88 109.8C272.244 109.764 274.044 109.236 276.18 108.3C283.236 105.216 277.14 94.8721 270.12 97.9441L270.144 97.908Z" fill="#C47200"/>
<path d="M279.168 106.44C279.324 106.476 279.468 106.524 279.612 106.584C279.36 106.5 279.636 106.584 279.732 106.644C280.056 106.8 280.356 106.98 280.656 107.172C281.292 107.58 281.832 107.988 282.408 108.468C283.548 109.428 284.64 110.472 285.636 111.588C287.568 113.772 287.904 117.264 286.452 119.748L289.74 120.18C289.404 118.632 289.704 117.108 289.86 115.56C290.04 113.808 289.728 112.068 288.768 110.568C286.584 107.148 282.756 104.808 278.676 104.76C276.36 104.736 276.36 108.336 278.676 108.36C280.248 108.372 281.676 108.84 282.984 109.716C284.172 110.508 285.384 111.684 286.008 112.992C286.224 113.448 286.308 113.928 286.32 114.36C286.332 115.02 286.26 115.668 286.176 116.316C285.972 117.948 285.924 119.508 286.272 121.14C286.608 122.688 288.816 122.856 289.56 121.572C291.732 117.828 291.252 112.872 288.564 109.512C287.508 108.192 286.236 107.016 284.952 105.936C283.536 104.736 281.952 103.464 280.116 102.984C277.872 102.384 276.924 105.864 279.156 106.452L279.168 106.44Z" fill="#C47200"/>
<path d="M284.868 121.596C284.832 121.764 284.784 121.932 284.736 122.088C284.7 122.196 284.52 122.544 284.736 122.124C284.604 122.388 284.472 122.64 284.304 122.892C284.244 122.976 283.98 123.276 284.28 122.94C284.16 123.072 284.064 123.204 283.944 123.324C283.764 123.516 283.572 123.696 283.368 123.876C283.236 123.996 283.092 124.104 282.948 124.224C283.296 123.948 282.924 124.224 282.864 124.272C282.588 124.464 282.312 124.644 282.036 124.824C281.472 125.172 280.884 125.484 280.284 125.784C278.016 126.924 275.496 127.764 273.468 129.324C272.7 129.912 272.292 130.872 272.82 131.784C273.264 132.54 274.5 133.02 275.28 132.432C277.428 130.788 280.116 129.936 282.504 128.688C285.036 127.368 287.652 125.496 288.336 122.556C288.552 121.608 288.036 120.612 287.076 120.336C286.164 120.084 285.084 120.648 284.856 121.596H284.868Z" fill="#C47200"/>
<path d="M259.38 118.836C259.38 119.628 259.284 120.432 259.308 121.224C259.344 122.244 259.536 123.36 260.148 124.2L262.98 122.016C262.164 121.2 261.192 120.576 260.484 119.664L260.76 120.024C260.568 119.772 260.4 119.496 260.268 119.208L260.448 119.64C260.376 119.46 260.316 119.268 260.292 119.076L260.352 119.556C260.352 119.472 260.328 119.376 260.328 119.292C260.328 118.824 260.136 118.356 259.8 118.02C259.488 117.708 258.972 117.468 258.528 117.492C257.568 117.54 256.704 118.284 256.728 119.292C256.764 120.672 257.508 121.848 258.456 122.808C259.068 123.432 259.8 123.936 260.424 124.56C261.048 125.184 262.08 125.244 262.788 124.704C263.088 124.476 263.352 124.14 263.436 123.768C263.532 123.324 263.532 122.76 263.256 122.376C263.136 122.208 263.028 122.028 262.944 121.836L263.124 122.268C263.004 121.968 262.932 121.656 262.884 121.344L262.944 121.824C262.824 120.828 262.968 119.832 262.968 118.836C262.968 118.38 262.764 117.888 262.44 117.564C262.116 117.24 261.612 117.012 261.168 117.036C260.184 117.084 259.368 117.828 259.368 118.836H259.38Z" fill="#C47200"/>
<path d="M264.252 124.452C263.964 124.248 263.676 124.044 263.4 123.828C263.34 123.78 263.268 123.744 263.22 123.696C263.292 123.756 263.568 123.972 263.34 123.792C263.22 123.696 263.1 123.588 262.992 123.48C262.896 123.384 262.8 123.288 262.716 123.18C262.524 122.964 262.932 123.492 262.824 123.312C262.788 123.252 262.752 123.192 262.716 123.144C262.68 123.096 262.644 123.024 262.608 122.964C262.464 122.712 262.608 123.048 262.656 123.108C262.572 122.976 262.536 122.76 262.488 122.604C262.464 122.532 262.464 122.412 262.428 122.352C262.488 122.46 262.464 122.772 262.452 122.448C262.452 122.364 262.452 122.268 262.452 122.184C262.452 122.136 262.5 121.776 262.452 122.1C262.404 122.424 262.452 122.1 262.476 122.016C262.5 121.908 262.512 121.8 262.536 121.704C262.572 121.536 262.596 121.356 262.62 121.188C262.704 120.576 262.752 120.048 262.62 119.436C262.488 118.824 262.152 118.272 261.732 117.804C261.108 117.096 259.812 117.12 259.188 117.804C258.492 118.56 258.516 119.592 259.188 120.348C259.452 120.648 259.008 120.024 259.176 120.348C259.116 120.228 259.056 119.976 259.128 120.252C259.224 120.624 259.128 120.108 259.128 120.108C259.14 120.108 259.128 120.396 259.128 120.408C259.128 120.48 259.08 120.792 259.128 120.48C259.176 120.168 259.128 120.504 259.116 120.552C259.08 120.732 259.044 120.9 259.02 121.08C258.84 122.088 258.804 123.072 259.176 124.044C259.476 124.836 259.908 125.544 260.544 126.132C261.132 126.672 261.804 127.116 262.452 127.584C262.812 127.848 263.436 127.872 263.844 127.764C264.252 127.656 264.72 127.332 264.924 126.936C265.416 126 265.092 125.064 264.276 124.476L264.252 124.452Z" fill="#C47200"/>
<path d="M140.892 80.9161C126.192 80.3761 110.688 96.792 119.496 111.216C129.288 127.26 151.656 118.644 155.124 102.432C156.696 95.0761 153.372 86.6881 145.668 84.5161C139.128 82.6681 131.832 85.572 127.632 90.708C122.676 96.756 122.892 106.464 128.976 111.78C135.684 117.636 144.228 112.092 146.628 104.868C149.028 97.644 145.02 88.908 136.188 91.008C130.356 92.4 123.684 98.772 126.372 105.288C127.32 107.58 129.348 109.944 132.156 109.692C140.892 108.888 147.612 101.952 148.188 93.1801L139.164 98.3641C140.232 99.1201 139.056 98.4001 139.164 97.4641C139.344 96.0721 139.608 96.432 139.032 96.72C138.024 97.236 136.464 98.2921 134.736 98.8321C132.312 99.5881 131.496 99.2641 129.192 99.5641C129.348 99.5401 129.48 99.372 129.732 99.888C129.864 100.164 130.548 101.952 130.728 102.084C131.016 102.288 130.5 102.672 130.8 102.048C134.052 95.1001 123.708 88.992 120.444 95.988C118.104 100.98 117.996 106.884 123.36 109.992C127.632 112.464 133.428 111.78 137.94 110.4C142.452 109.02 147.42 106.56 149.832 102.3C153.012 96.6841 149.916 91.3561 145.212 87.9961C141.228 85.1521 136.452 89.0641 136.188 93.1801C136.068 94.9921 134.016 97.5241 132.156 97.6921L137.94 102.096C137.208 100.32 137.964 103.548 137.664 103.368C137.4 103.224 138.18 103.548 138.048 103.056C138.084 103.212 138.396 102.768 138.42 102.816L139.056 102.624C138.672 102.72 138.312 102.66 137.952 102.444C137.484 101.76 135.528 99.9481 135.528 99.9481C135.48 99.9841 134.784 102.132 134.76 102.084C134.736 102.036 136.548 103.284 136.896 102.888C136.728 103.08 135.996 100.572 136.032 100.212C136.344 96.5881 143.58 93.444 143.532 98.904C143.484 105.408 132.684 112.428 129.312 104.244C126.648 97.7761 135.72 92.724 140.868 92.904C148.596 93.192 148.584 81.192 140.868 80.904L140.892 80.9161Z" fill="#B11700"/>
<path d="M168.144 148.296C158.952 148.308 148.104 148.116 140.136 153.432C130.776 159.684 131.688 172.488 138.36 180.504C155.688 201.324 189.336 175.284 181.812 152.316C177.432 138.936 160.188 139.176 149.22 143.04C136.452 147.54 136.428 163.14 143.208 172.896C161.616 199.404 192.156 155.724 170.148 146.724C156.324 141.072 143.376 156.492 148.2 169.62C150.468 175.776 156.516 179.568 162.828 176.568C168.348 173.952 171.3 167.94 171.588 162.072C171.792 157.8 166.224 154.224 162.564 156.888C161.712 157.584 160.8 158.172 159.816 158.664L168.624 165.444C169.212 163.764 169.836 162.096 170.496 160.44C173.1 153.84 163.068 150.408 159.528 155.82C158.844 156.876 157.848 159.096 156.84 159.864L165.648 166.644C166.092 165.108 166.86 163.764 167.964 162.612L157.932 156.78C157.356 159.228 156.504 160.788 154.644 162.492L164.064 163.704C162.984 161.832 162.852 159.54 162.06 157.536C160.944 154.704 157.992 152.148 154.68 153.348C152.664 154.08 150.768 154.896 148.92 155.976L157.728 159.564L157.752 159.192C159.612 151.668 148.536 148.656 146.184 156C145.86 156.828 145.644 157.692 145.536 158.58C144.156 166.14 154.584 169.152 157.104 161.772C157.812 159.696 157.956 158.616 157.788 156.432C157.464 152.184 154.236 150.072 150.192 150.648C140.856 151.98 142.584 163.296 148.884 167.34C152.28 169.512 156.42 170.076 160.2 168.684C162.072 168 163.656 166.884 165.096 165.528C165.816 164.856 166.56 164.112 167.16 163.332C167.868 162.42 168.6 162.54 167.928 162.384L163.524 156.6V156.384C165.948 156.072 168.372 155.76 170.796 155.448C165.768 152.772 162 147.948 155.904 147.672C150.42 147.42 145.728 151.008 143.316 155.724C139.116 163.944 140.064 177.696 149.532 181.884L152.556 170.7C149.148 171.012 148.464 167.064 147.732 164.316C145.74 156.864 134.16 160.02 136.164 167.508C138.276 175.404 143.268 183.54 152.556 182.712C157.776 182.244 161.604 174.192 155.58 171.528C152.22 170.04 152.256 164.364 153.828 161.448C154.944 159.384 155.46 159.732 157.332 160.68C159.972 162.024 162.072 164.412 164.724 165.828C166.944 167.016 170.22 166.932 171.996 164.892C174.252 162.288 175.176 160.068 175.512 156.624C175.752 154.152 173.484 151.356 171.108 150.84C167.016 149.952 163.608 150.576 160.344 153.288C159.12 154.308 158.16 155.544 157.02 156.636C156.744 156.9 155.94 157.344 155.772 157.512C155.64 157.488 155.532 157.428 155.436 157.332C153.876 156.156 153.18 157.788 153.36 162.24C150.828 160.308 148.296 158.388 145.764 156.456L145.5 158.604C149.352 159.672 153.216 160.728 157.068 161.796C157.176 160.908 157.392 160.044 157.716 159.216C153.864 158.148 150 157.092 146.148 156.024C145.548 158.448 145.728 160.344 146.124 162.768C146.748 166.668 151.896 168.132 154.932 166.356C155.832 165.744 156.792 165.264 157.836 164.928L150.456 160.74C151.668 163.8 152.004 166.872 153.672 169.776C155.676 173.244 160.284 173.568 163.092 170.988C166.38 167.976 168.456 164.316 169.464 159.984C170.724 154.584 163.524 149.268 159.432 154.152C156.996 157.068 155.244 159.852 154.032 163.476C152.484 168.096 158.652 173.484 162.84 170.256C165.96 167.856 167.688 165.18 169.824 161.904L158.856 157.284C158.196 158.94 157.584 160.608 156.984 162.288C155.196 167.388 161.484 171.528 165.792 169.068C166.776 168.576 167.688 167.988 168.54 167.292L159.516 162.108C159.468 163.152 158.04 164.76 158.1 165.396C156.996 166.092 157.548 166.416 159.744 166.368C159.252 165.528 159 164.616 158.976 163.656C158.928 161.028 161.352 157.14 164.388 157.56C168.996 158.196 162.3 167.1 159.984 168.432C153.864 171.936 147.3 159.276 151.416 155.22C153.444 153.228 158.82 153.12 161.448 152.94C165.012 152.7 169.524 152.712 170.556 156.936C173.664 169.56 150.948 185.364 145.608 169.488C142.044 158.88 162.012 160.356 168.06 160.344C175.776 160.332 175.8 148.332 168.06 148.344L168.144 148.296Z" fill="#B11700"/>
<path d="M110.376 150.396C106.044 150.156 101.22 150.792 97.8959 153.864C95.0159 156.516 94.0199 160.332 94.7399 164.124C95.9399 170.364 102.012 176.1 108.54 176.112C112.224 176.112 115.632 174.444 117.972 171.612C120.516 168.528 122.604 164.196 122.388 160.116C122.148 155.652 118.632 152.4 114.18 152.364C111.3 152.34 108.312 153.552 105.948 155.124C103.176 156.972 100.452 159.492 99.5999 162.84C98.3279 167.88 101.916 171.984 106.632 173.124C109.14 173.736 112.14 172.74 113.412 170.364C115.188 167.028 115.956 163.8 115.08 160.056C114.336 156.9 110.736 155.028 107.7 155.868C104.472 156.756 102.768 160.08 103.512 163.248C103.752 162.444 103.476 163.104 103.512 163.248C103.32 163.932 103.596 163.272 103.056 164.292L109.836 161.532C109.632 161.484 109.428 161.436 109.224 161.376C108.18 161.052 110.424 161.964 109.776 161.64C108.516 160.992 110.46 162.312 110.064 161.904C110.904 162.756 111.312 163.584 111.36 165.096C111.324 163.944 110.928 166.824 111.3 165.672C111.12 166.224 110.604 167.184 111.144 166.212C111.756 165.12 110.1 167.124 110.976 166.44C111.252 166.224 111.528 165.9 111.78 165.66C112.74 164.688 110.748 166.296 111.708 165.708C112.356 165.3 112.992 164.916 113.664 164.544C114.888 163.848 112.392 164.868 113.532 164.592C113.868 164.508 114.228 164.4 114.564 164.292C115.836 163.872 113.16 164.376 114.132 164.352C115.224 164.328 112.416 163.896 113.532 164.256C111.456 163.572 110.676 162.3 110.46 160.308C110.604 161.664 110.244 160.068 110.592 159.984C110.568 159.984 110.22 161.352 110.196 161.448C110.1 161.796 109.68 162.66 110.268 161.376C110.136 161.664 110.004 161.964 109.86 162.252C109.548 162.864 109.176 163.416 108.828 164.004C109.404 163.008 109.044 163.524 108.636 164.112C108.024 165 109.116 163.572 109.128 163.776C109.128 163.824 108.624 164.064 108.636 164.1C108.636 164.04 108.204 164.4 108.132 164.364C108 164.28 109.752 163.848 108.672 164.088C108.336 164.16 107.856 164.136 108.828 164.112C110.304 164.088 108.756 164.1 108.72 164.076C108.744 164.1 107.376 163.788 108.876 164.136C110.076 164.424 109.116 164.172 108.912 164.112C107.568 163.68 108.996 163.956 109.104 164.292C109.056 164.148 108.324 163.884 108.156 163.8C108 163.716 107.856 163.572 107.7 163.5C106.812 163.104 108.624 164.484 108.048 163.764C107.808 163.464 107.436 163.176 107.16 162.9C106.26 162 107.196 162.912 107.244 163.044C107.124 162.72 106.812 162.3 106.608 162.012C106.884 163.32 105.864 160.896 106.608 162.012C106.572 161.856 106.524 161.664 106.476 161.52C106.128 160.476 107.004 161.736 106.536 162.144C106.548 162.132 106.512 161.64 106.512 161.664C106.512 161.136 106.752 160.284 106.38 162.324C106.404 162.168 106.44 162.012 106.488 161.868C106.764 160.98 105.768 163.308 106.248 162.444C106.872 161.292 105.24 163.5 106.224 162.504C106.644 162.084 104.88 163.212 106.284 162.576C106.968 162.264 104.736 162.996 105.888 162.744C106.176 162.684 106.464 162.564 106.752 162.492C107.064 162.42 107.388 162.372 107.712 162.3C106.992 162.444 106.776 162.372 107.628 162.36C108.564 162.336 109.488 162.324 110.436 162.384C113.676 162.564 116.436 159.504 116.436 156.384C116.436 152.988 113.688 150.564 110.436 150.384L110.376 150.396Z" fill="#B11700"/>
<path d="M101.616 194.82C82.908 190.536 53.256 195.684 56.832 221.124C58.284 231.48 66.744 239.46 77.532 237.828C86.568 236.472 94.44 229.488 99.36 222.108C103.956 215.208 106.344 205.464 100.068 198.732C92.7119 190.848 78.9599 191.052 69.9599 195.636C59.88 200.772 54.4439 212.004 57.9119 222.984C61.3799 233.964 72.7079 236.316 82.7879 232.32C92.4839 228.48 105.096 218.796 105.552 207.384C106.164 192.288 86.688 190.62 75.792 190.944L77.3879 202.728C81.7319 202.008 87.264 202.68 91.38 204.444C94.872 205.932 94.6679 207.996 93.9239 211.56C92.3879 218.964 86.952 224.784 79.68 226.8C73.788 228.432 68.28 228.396 67.872 221.496C67.62 217.164 68.0999 208.356 71.9519 205.656C76.0799 202.764 84.8039 203.712 89.6039 204.18C94.4039 204.648 100.428 206.88 94.7399 212.028C90.0599 216.264 81.204 214.368 75.924 213.024C73.656 212.448 76.3919 212.736 77.0039 212.592C76.8239 210.792 76.488 210.636 75.96 212.148L75.36 213.012C73.32 214.74 71.232 217.956 68.196 217.668L73.98 222.072C73.548 220.092 76.224 217.608 77.76 216.912L68.9519 210.132C68.4719 213.3 68.172 216.348 68.256 219.552C68.352 223.104 70.956 225.144 74.256 225.552C77.844 225.996 81.096 224.616 83.748 222.264C85.512 220.692 87.348 216.936 89.676 216.432L82.296 209.052C81.588 211.536 79.704 213.144 77.976 214.944C73.344 219.744 79.32 228.06 85.248 224.364C90.744 220.944 97.1159 216 97.3679 208.92C97.6679 200.436 88.848 198.084 83.076 202.896C78.66 206.568 82.7039 212.688 87.3239 213.144C95.1359 213.912 95.8559 206.076 93.384 200.712C92.604 199.008 90.084 197.52 88.2 197.736C81.564 198.516 77.3639 202.224 77.0879 209.112C81.0119 208.584 84.9479 208.044 88.8719 207.516C83.9759 194.808 68.0519 207.6 74.6519 217.38C77.0519 220.92 82.7759 221.592 85.0079 217.38C87.4079 212.856 87.828 208.068 83.676 204.468C80.424 201.66 74.7599 202.44 73.6439 207.12C73.1039 209.364 73.236 211.668 73.308 213.96C73.392 216.36 72.66 220.392 73.392 222.6C73.452 222.792 73.1639 223.356 73.2599 223.452C72.9599 223.14 79.5959 222 79.6559 221.904C79.4039 222.324 78.78 218.676 78.78 218.508C78.9 214.752 80.676 210.468 83.544 208.02C89.424 203.004 80.904 194.544 75.06 199.536C69.852 203.988 67.008 211.8 66.78 218.52C66.576 224.496 69.612 232.164 76.368 233.052C82.512 233.856 84.912 228.12 85.344 223.056C85.56 220.536 85.4399 217.992 85.3559 215.46C85.3079 214.2 85.2599 212.952 85.2239 211.692C85.2119 211.212 85.608 208.608 85.2 210.312C81.852 211.2 78.516 212.076 75.168 212.964L74.6279 211.332H84.984C85.56 214.008 83.808 214.728 79.716 213.504L76.9559 209.916L77.268 210.72C79.644 216.876 88.7639 216.204 89.0519 209.124L88.164 209.748L82.98 206.772L83.1359 205.308L85.896 201.72L87.276 201.144L91.5239 211.392L92.664 210.444L88.416 212.196L88.08 212.064L85.3199 208.476C85.6799 210.264 80.316 213.288 79.152 214.008L86.4239 223.428C89.6759 220.056 92.532 216.828 93.828 212.244C95.124 207.66 90.816 203.916 86.448 204.864C83.556 205.488 81.3119 207.168 79.3079 209.268C77.7839 210.864 76.5359 213.84 74.2199 213.552L80.2199 219.552C80.1599 217.44 80.172 215.424 80.496 213.324C81.3 207.984 76.68 204.252 71.688 206.544C64.992 209.628 60.852 218.16 62.4 225.264C63 228.024 65.64 229.416 68.184 229.668C76.8719 230.508 88.6079 220.092 88.4519 211.272C88.1999 197.484 69.912 198.924 64.596 208.416C57.492 221.136 75.24 226.356 84.3 226.44C95.7 226.536 107.628 221.472 108.756 208.692C109.764 197.268 99.156 192.972 89.58 192.18C80.004 191.388 67.272 191.34 61.14 199.632C55.848 206.796 54.156 220.308 57.06 228.708C61.008 240.12 74.316 241.26 84.36 237.9C97.044 233.652 106.656 221.172 106.356 207.54C106.02 192.036 85.98 189.204 74.172 191.148C67.464 192.252 69.096 203.124 75.768 202.932C79.944 202.812 84.252 202.752 88.332 203.784C93.36 205.056 94.584 206.808 91.416 211.2C87.684 216.36 80.004 222.624 73.224 222.456C65.16 222.252 69.516 210.396 73.464 207.492C77.208 204.744 89.6159 201.72 91.8359 207.96C93.4919 212.628 86.6399 219.372 83.6039 221.916C79.6439 225.228 72.888 228.804 69.624 222.744C66.06 216.144 70.392 209.28 76.74 206.964C83.52 204.492 91.476 204.828 98.4 206.412C105.912 208.128 109.128 196.572 101.592 194.844L101.616 194.82Z" fill="#B11700"/>
<path d="M224.1 104.028C216 104.04 206.688 103.248 200.352 109.356C194.916 114.588 191.304 124.872 193.644 132.288C198.876 148.86 223.02 137.916 229.344 128.076C232.848 122.616 233.736 115.548 229.8 110.076C225.216 103.728 215.724 101.988 208.404 103.212C196.428 105.216 191.472 117.42 195.528 128.184C200.064 140.244 213.156 145.368 224.184 138.024C238.656 128.388 235.536 103.02 215.88 103.356C201.336 103.608 188.28 122.688 195.9 135.972C203.004 148.356 219.372 146.364 224.22 133.584C226.14 128.508 226.488 121.716 222.504 117.48C217.5 112.152 209.184 114.312 204.348 118.752C199.02 123.648 196.536 136.86 207.12 137.076C211.92 137.172 215.868 132.78 218.232 129.084C220.236 125.952 220.524 119.256 223.848 117.576L215.04 113.988C215.592 115.44 215.904 116.328 215.952 117.84C219.876 117.312 223.812 116.772 227.736 116.244C222.564 99.6241 198.972 108.792 200.448 124.08C200.676 126.444 202.128 129.48 204.852 129.864C210.792 130.716 215.712 129.696 221.268 127.536C228.396 124.776 225.288 113.16 218.076 115.968C214.956 117.18 211.476 118.788 208.032 118.296L212.436 124.08C212.22 121.896 212.832 121.08 214.452 119.748C215.712 118.716 216.06 119.112 216.156 119.436C218.1 125.7 228.192 124.836 227.94 117.84C227.856 115.332 227.484 113.16 226.596 110.808C225.168 107.052 221.484 105.348 217.788 107.22C213.564 109.356 211.536 112.956 210.096 117.3C209.436 119.28 209.04 121.272 207.864 123.024L206.568 124.62C204.324 126.456 205.956 127.776 211.488 128.604C211.848 128.448 212.004 127.824 212.352 127.632C212.916 127.32 214.776 126.168 214.716 126.276C215.004 125.724 215.508 126.732 214.308 126.072C214.212 126.024 213.444 125.376 213.516 125.376C213.396 125.376 213.636 125.652 213.612 126.276C213.552 127.524 213.636 127.896 213.024 129.396C212.472 130.752 211.512 132.276 210.372 132.696C210.3 132.72 210.144 132.696 209.532 132.492C208.248 132.06 206.916 131.124 206.256 129.912C203.4 124.644 210.072 116.1 215.328 115.38C218.676 114.924 221.352 117.144 221.628 120.444C221.952 124.236 219.228 127.512 215.904 128.964C211.896 130.704 208.884 128.736 207.096 124.932C205.56 121.656 205.356 117.324 208.2 115.704C211.488 113.832 220.992 114.264 220.296 119.256C219.852 122.388 216.276 125.208 213.744 126.576C212.316 127.344 206.388 129.936 204.924 128.412C203.028 126.444 207.648 118.572 209.436 117.384C213.228 114.876 219.84 116.028 224.088 116.016C231.804 116.004 231.828 104.004 224.088 104.016L224.1 104.028Z" fill="#B11700"/>
</svg>
