<svg width="319" height="267" viewBox="0 0 319 267" fill="none" xmlns="http://www.w3.org/2000/svg">
<path d="M31.1666 10.75L15.1249 26.7917L7.83325 19.5" stroke="#F27EBE" stroke-width="2" stroke-linecap="round" stroke-linejoin="round"/>
<path d="M56.38 7.8L61.78 20.72L67.18 7.8H68.26L62.28 22H61.3L55.3 7.8H56.38ZM72.8461 22.2C72.1128 22.2 71.4328 22.06 70.8061 21.78C70.1794 21.4867 69.6328 21.0933 69.1661 20.6C68.7128 20.0933 68.3528 19.5133 68.0861 18.86C67.8328 18.1933 67.7061 17.4933 67.7061 16.76C67.7061 15.7733 67.9261 14.88 68.3661 14.08C68.8061 13.28 69.4128 12.64 70.1861 12.16C70.9594 11.6667 71.8261 11.42 72.7861 11.42C73.7728 11.42 74.6461 11.6667 75.4061 12.16C76.1661 12.6533 76.7661 13.3067 77.2061 14.12C77.6594 14.92 77.8861 15.8 77.8861 16.76C77.8861 16.84 77.8861 16.92 77.8861 17C77.8861 17.08 77.8794 17.1467 77.8661 17.2H68.7461C68.7994 17.9867 69.0194 18.7 69.4061 19.34C69.7928 19.98 70.2861 20.4867 70.8861 20.86C71.4994 21.22 72.1661 21.4 72.8861 21.4C73.6061 21.4 74.2861 21.2133 74.9261 20.84C75.5661 20.4667 76.0128 19.9867 76.2661 19.4L77.1461 19.64C76.9461 20.1333 76.6261 20.5733 76.1861 20.96C75.7594 21.3467 75.2528 21.6533 74.6661 21.88C74.0928 22.0933 73.4861 22.2 72.8461 22.2ZM68.7061 16.42H76.9261C76.8728 15.6067 76.6594 14.8867 76.2861 14.26C75.9128 13.6333 75.4194 13.14 74.8061 12.78C74.2061 12.42 73.5394 12.24 72.8061 12.24C72.0728 12.24 71.4061 12.42 70.8061 12.78C70.2061 13.14 69.7194 13.6333 69.3461 14.26C68.9728 14.8867 68.7594 15.6067 68.7061 16.42ZM87.2263 22L83.1663 16.44L80.7062 18.7V22H79.7062V7.4H80.7062V17.58L87.0463 11.62H88.1863L83.8463 15.84L88.3262 22H87.2263ZM94.4155 21.5C94.3488 21.5267 94.2155 21.5933 94.0155 21.7C93.8155 21.8067 93.5621 21.9067 93.2555 22C92.9488 22.08 92.6088 22.12 92.2355 22.12C91.8755 22.12 91.5355 22.0533 91.2155 21.92C90.9088 21.7733 90.6621 21.56 90.4755 21.28C90.2888 21 90.1955 20.66 90.1955 20.26V12.42H88.7355V11.6H90.1955V8.04H91.1955V11.6H93.6155V12.42H91.1955V20.02C91.2221 20.4067 91.3621 20.7 91.6155 20.9C91.8688 21.0867 92.1621 21.18 92.4955 21.18C92.9088 21.18 93.2688 21.1133 93.5755 20.98C93.8821 20.8333 94.0621 20.74 94.1155 20.7L94.4155 21.5ZM99.9664 22.2C99.2331 22.2 98.5531 22.06 97.9264 21.78C97.3131 21.5 96.7797 21.1133 96.3264 20.62C95.8731 20.1133 95.5197 19.5333 95.2664 18.88C95.0131 18.2267 94.8864 17.54 94.8864 16.82C94.8864 16.0867 95.0131 15.4 95.2664 14.76C95.5197 14.1067 95.8731 13.5333 96.3264 13.04C96.7931 12.5333 97.3331 12.14 97.9464 11.86C98.5731 11.5667 99.2464 11.42 99.9664 11.42C100.686 11.42 101.353 11.5667 101.966 11.86C102.58 12.14 103.12 12.5333 103.586 13.04C104.053 13.5333 104.413 14.1067 104.666 14.76C104.92 15.4 105.046 16.0867 105.046 16.82C105.046 17.54 104.92 18.2267 104.666 18.88C104.413 19.5333 104.053 20.1133 103.586 20.62C103.133 21.1133 102.593 21.5 101.966 21.78C101.353 22.06 100.686 22.2 99.9664 22.2ZM95.8864 16.86C95.8864 17.6733 96.0664 18.42 96.4264 19.1C96.7997 19.7667 97.2931 20.3 97.9064 20.7C98.5197 21.1 99.1997 21.3 99.9464 21.3C100.693 21.3 101.373 21.1 101.986 20.7C102.613 20.2867 103.106 19.74 103.466 19.06C103.84 18.3667 104.026 17.6133 104.026 16.8C104.026 15.9867 103.84 15.24 103.466 14.56C103.106 13.88 102.613 13.34 101.986 12.94C101.373 12.5267 100.7 12.32 99.9664 12.32C99.2197 12.32 98.5397 12.5267 97.9264 12.94C97.3131 13.3533 96.8197 13.9 96.4464 14.58C96.0731 15.26 95.8864 16.02 95.8864 16.86ZM111.982 12.5C111.049 12.5267 110.229 12.8067 109.522 13.34C108.829 13.86 108.342 14.58 108.062 15.5V22H107.062V11.6H108.022V14.16C108.382 13.4267 108.862 12.8333 109.462 12.38C110.062 11.9133 110.696 11.6467 111.362 11.58C111.496 11.5667 111.616 11.56 111.722 11.56C111.829 11.56 111.916 11.56 111.982 11.56V12.5ZM121.047 22.2C120.221 22.2 119.454 22.06 118.747 21.78C118.041 21.5 117.421 21.0733 116.887 20.5L117.347 19.8C117.921 20.3467 118.501 20.7467 119.087 21C119.674 21.24 120.314 21.36 121.007 21.36C121.901 21.36 122.621 21.1733 123.167 20.8C123.727 20.4267 124.007 19.9067 124.007 19.24C124.007 18.7867 123.874 18.44 123.607 18.2C123.354 17.9467 122.981 17.7467 122.487 17.6C122.007 17.44 121.421 17.2733 120.727 17.1C120.021 16.9133 119.421 16.72 118.927 16.52C118.447 16.32 118.087 16.06 117.847 15.74C117.607 15.42 117.487 14.9867 117.487 14.44C117.487 13.76 117.654 13.2 117.987 12.76C118.334 12.3067 118.794 11.9733 119.367 11.76C119.954 11.5333 120.601 11.42 121.307 11.42C122.121 11.42 122.827 11.5533 123.427 11.82C124.041 12.0867 124.507 12.44 124.827 12.88L124.287 13.52C123.954 13.0933 123.521 12.78 122.987 12.58C122.454 12.3667 121.867 12.26 121.227 12.26C120.747 12.26 120.294 12.3267 119.867 12.46C119.441 12.5933 119.094 12.8133 118.827 13.12C118.574 13.4133 118.447 13.8133 118.447 14.32C118.447 14.72 118.541 15.0333 118.727 15.26C118.927 15.4867 119.221 15.6733 119.607 15.82C119.994 15.9533 120.474 16.1 121.047 16.26C121.861 16.46 122.561 16.6667 123.147 16.88C123.734 17.0933 124.187 17.3733 124.507 17.72C124.827 18.0533 124.987 18.5267 124.987 19.14C124.987 20.0867 124.627 20.8333 123.907 21.38C123.187 21.9267 122.234 22.2 121.047 22.2ZM131.597 21.5C131.531 21.5267 131.397 21.5933 131.197 21.7C130.997 21.8067 130.744 21.9067 130.437 22C130.131 22.08 129.791 22.12 129.417 22.12C129.057 22.12 128.717 22.0533 128.397 21.92C128.091 21.7733 127.844 21.56 127.657 21.28C127.471 21 127.377 20.66 127.377 20.26V12.42H125.917V11.6H127.377V8.04H128.377V11.6H130.797V12.42H128.377V20.02C128.404 20.4067 128.544 20.7 128.797 20.9C129.051 21.0867 129.344 21.18 129.677 21.18C130.091 21.18 130.451 21.1133 130.757 20.98C131.064 20.8333 131.244 20.74 131.297 20.7L131.597 21.5ZM137.904 12.5C136.97 12.5267 136.15 12.8067 135.444 13.34C134.75 13.86 134.264 14.58 133.984 15.5V22H132.984V11.6H133.944V14.16C134.304 13.4267 134.784 12.8333 135.384 12.38C135.984 11.9133 136.617 11.6467 137.284 11.58C137.417 11.5667 137.537 11.56 137.644 11.56C137.75 11.56 137.837 11.56 137.904 11.56V12.5ZM143.43 22.2C142.697 22.2 142.017 22.06 141.39 21.78C140.763 21.4867 140.217 21.0933 139.75 20.6C139.297 20.0933 138.937 19.5133 138.67 18.86C138.417 18.1933 138.29 17.4933 138.29 16.76C138.29 15.7733 138.51 14.88 138.95 14.08C139.39 13.28 139.997 12.64 140.77 12.16C141.543 11.6667 142.41 11.42 143.37 11.42C144.357 11.42 145.23 11.6667 145.99 12.16C146.75 12.6533 147.35 13.3067 147.79 14.12C148.243 14.92 148.47 15.8 148.47 16.76C148.47 16.84 148.47 16.92 148.47 17C148.47 17.08 148.463 17.1467 148.45 17.2H139.33C139.383 17.9867 139.603 18.7 139.99 19.34C140.377 19.98 140.87 20.4867 141.47 20.86C142.083 21.22 142.75 21.4 143.47 21.4C144.19 21.4 144.87 21.2133 145.51 20.84C146.15 20.4667 146.597 19.9867 146.85 19.4L147.73 19.64C147.53 20.1333 147.21 20.5733 146.77 20.96C146.343 21.3467 145.837 21.6533 145.25 21.88C144.677 22.0933 144.07 22.2 143.43 22.2ZM139.29 16.42H147.51C147.457 15.6067 147.243 14.8867 146.87 14.26C146.497 13.6333 146.003 13.14 145.39 12.78C144.79 12.42 144.123 12.24 143.39 12.24C142.657 12.24 141.99 12.42 141.39 12.78C140.79 13.14 140.303 13.6333 139.93 14.26C139.557 14.8867 139.343 15.6067 139.29 16.42ZM154.49 22.16C153.783 22.16 153.123 22.0133 152.51 21.72C151.91 21.4267 151.39 21.0267 150.95 20.52C150.523 20 150.183 19.4267 149.93 18.8C149.69 18.16 149.57 17.5 149.57 16.82C149.57 16.1133 149.683 15.4333 149.91 14.78C150.15 14.1267 150.483 13.5533 150.91 13.06C151.35 12.5533 151.863 12.1533 152.45 11.86C153.037 11.5667 153.69 11.42 154.41 11.42C155.317 11.42 156.103 11.66 156.77 12.14C157.45 12.6067 158.023 13.18 158.49 13.86V11.6H159.41V22.2C159.41 23.1333 159.183 23.92 158.73 24.56C158.277 25.2 157.677 25.6733 156.93 25.98C156.183 26.3 155.377 26.46 154.51 26.46C153.297 26.46 152.33 26.24 151.61 25.8C150.903 25.36 150.33 24.78 149.89 24.06L150.57 23.6C150.983 24.2933 151.543 24.8067 152.25 25.14C152.957 25.4733 153.71 25.64 154.51 25.64C155.217 25.64 155.863 25.5067 156.45 25.24C157.05 24.9867 157.523 24.6 157.87 24.08C158.23 23.5733 158.41 22.9467 158.41 22.2V19.92C157.997 20.6 157.43 21.1467 156.71 21.56C156.003 21.96 155.263 22.16 154.49 22.16ZM154.73 21.3C155.17 21.3 155.597 21.22 156.01 21.06C156.423 20.9 156.803 20.6867 157.15 20.42C157.497 20.14 157.783 19.8333 158.01 19.5C158.237 19.1667 158.37 18.8333 158.41 18.5V15.08C158.21 14.5467 157.903 14.0733 157.49 13.66C157.09 13.2333 156.637 12.9067 156.13 12.68C155.623 12.44 155.103 12.32 154.57 12.32C153.943 12.32 153.383 12.4533 152.89 12.72C152.397 12.9867 151.977 13.34 151.63 13.78C151.297 14.2067 151.037 14.6933 150.85 15.24C150.677 15.7733 150.59 16.3067 150.59 16.84C150.59 17.44 150.697 18.0067 150.91 18.54C151.123 19.0733 151.417 19.5533 151.79 19.98C152.177 20.3933 152.617 20.72 153.11 20.96C153.617 21.1867 154.157 21.3 154.73 21.3ZM166.913 22V11.6H167.913V22H166.913ZM166.913 9.24V7.4H167.913V9.24H166.913ZM179.565 7.8H180.445L186.445 22H185.365L183.385 17.32H176.605L174.625 22H173.525L179.565 7.8ZM183.105 16.48L180.005 9.04L176.845 16.48H183.105ZM186.908 16.82C186.908 15.8467 187.115 14.9533 187.528 14.14C187.942 13.3267 188.508 12.6733 189.228 12.18C189.948 11.6733 190.768 11.42 191.688 11.42C192.595 11.42 193.395 11.66 194.088 12.14C194.795 12.62 195.348 13.1933 195.748 13.86V7.4H196.748V20.68C196.748 20.84 196.782 20.96 196.848 21.04C196.928 21.12 197.035 21.1667 197.168 21.18V22C196.955 22.0267 196.795 22.0333 196.688 22.02C196.448 21.98 196.248 21.8667 196.088 21.68C195.928 21.4933 195.848 21.2933 195.848 21.08V19.92C195.422 20.6133 194.848 21.1667 194.128 21.58C193.408 21.9933 192.668 22.2 191.908 22.2C191.188 22.2 190.522 22.0533 189.908 21.76C189.295 21.4533 188.762 21.0467 188.308 20.54C187.868 20.0333 187.522 19.46 187.268 18.82C187.028 18.18 186.908 17.5133 186.908 16.82ZM195.748 18.5V15.08C195.562 14.5733 195.262 14.1133 194.848 13.7C194.435 13.2733 193.968 12.94 193.448 12.7C192.928 12.4467 192.415 12.32 191.908 12.32C191.308 12.32 190.762 12.4467 190.268 12.7C189.788 12.9533 189.368 13.2933 189.008 13.72C188.662 14.1467 188.395 14.6333 188.208 15.18C188.022 15.7133 187.928 16.2667 187.928 16.84C187.928 17.4267 188.035 17.9933 188.248 18.54C188.462 19.0733 188.755 19.5533 189.128 19.98C189.515 20.3933 189.955 20.72 190.448 20.96C190.955 21.1867 191.502 21.3 192.088 21.3C192.448 21.3 192.828 21.2267 193.228 21.08C193.642 20.9333 194.028 20.7333 194.388 20.48C194.762 20.2133 195.068 19.9133 195.308 19.58C195.562 19.2333 195.708 18.8733 195.748 18.5ZM203.913 22.2C203.18 22.2 202.5 22.06 201.873 21.78C201.26 21.5 200.726 21.1133 200.273 20.62C199.82 20.1133 199.466 19.5333 199.213 18.88C198.96 18.2267 198.833 17.54 198.833 16.82C198.833 16.0867 198.96 15.4 199.213 14.76C199.466 14.1067 199.82 13.5333 200.273 13.04C200.74 12.5333 201.28 12.14 201.893 11.86C202.52 11.5667 203.193 11.42 203.913 11.42C204.633 11.42 205.3 11.5667 205.913 11.86C206.526 12.14 207.066 12.5333 207.533 13.04C208 13.5333 208.36 14.1067 208.613 14.76C208.866 15.4 208.993 16.0867 208.993 16.82C208.993 17.54 208.866 18.2267 208.613 18.88C208.36 19.5333 208 20.1133 207.533 20.62C207.08 21.1133 206.54 21.5 205.913 21.78C205.3 22.06 204.633 22.2 203.913 22.2ZM199.833 16.86C199.833 17.6733 200.013 18.42 200.373 19.1C200.746 19.7667 201.24 20.3 201.853 20.7C202.466 21.1 203.146 21.3 203.893 21.3C204.64 21.3 205.32 21.1 205.933 20.7C206.56 20.2867 207.053 19.74 207.413 19.06C207.786 18.3667 207.973 17.6133 207.973 16.8C207.973 15.9867 207.786 15.24 207.413 14.56C207.053 13.88 206.56 13.34 205.933 12.94C205.32 12.5267 204.646 12.32 203.913 12.32C203.166 12.32 202.486 12.5267 201.873 12.94C201.26 13.3533 200.766 13.9 200.393 14.58C200.02 15.26 199.833 16.02 199.833 16.86ZM215.869 22.2C215.056 22.2 214.296 21.9867 213.589 21.56C212.882 21.12 212.329 20.5733 211.929 19.92V22H211.009V7.4H212.009V13.86C212.502 13.14 213.082 12.5533 213.749 12.1C214.429 11.6467 215.209 11.42 216.089 11.42C216.836 11.42 217.496 11.5733 218.069 11.88C218.656 12.1867 219.156 12.6 219.569 13.12C219.982 13.64 220.296 14.22 220.509 14.86C220.736 15.5 220.849 16.16 220.849 16.84C220.849 17.5467 220.722 18.2267 220.469 18.88C220.216 19.52 219.862 20.0933 219.409 20.6C218.956 21.0933 218.429 21.4867 217.829 21.78C217.229 22.06 216.576 22.2 215.869 22.2ZM215.669 21.3C216.282 21.3 216.842 21.18 217.349 20.94C217.856 20.6867 218.289 20.3467 218.649 19.92C219.022 19.4933 219.309 19.0133 219.509 18.48C219.722 17.9467 219.829 17.4 219.829 16.84C219.829 16.0533 219.662 15.32 219.329 14.64C218.996 13.9467 218.529 13.3867 217.929 12.96C217.329 12.5333 216.636 12.32 215.849 12.32C215.262 12.32 214.722 12.4533 214.229 12.72C213.736 12.9733 213.302 13.3067 212.929 13.72C212.569 14.1333 212.262 14.5867 212.009 15.08V18.52C212.062 18.9067 212.209 19.2733 212.449 19.62C212.689 19.9533 212.989 20.2467 213.349 20.5C213.722 20.74 214.109 20.9333 214.509 21.08C214.922 21.2267 215.309 21.3 215.669 21.3ZM227.295 22.2C226.562 22.2 225.882 22.06 225.255 21.78C224.628 21.4867 224.082 21.0933 223.615 20.6C223.162 20.0933 222.802 19.5133 222.535 18.86C222.282 18.1933 222.155 17.4933 222.155 16.76C222.155 15.7733 222.375 14.88 222.815 14.08C223.255 13.28 223.862 12.64 224.635 12.16C225.408 11.6667 226.275 11.42 227.235 11.42C228.222 11.42 229.095 11.6667 229.855 12.16C230.615 12.6533 231.215 13.3067 231.655 14.12C232.108 14.92 232.335 15.8 232.335 16.76C232.335 16.84 232.335 16.92 232.335 17C232.335 17.08 232.328 17.1467 232.315 17.2H223.195C223.248 17.9867 223.468 18.7 223.855 19.34C224.242 19.98 224.735 20.4867 225.335 20.86C225.948 21.22 226.615 21.4 227.335 21.4C228.055 21.4 228.735 21.2133 229.375 20.84C230.015 20.4667 230.462 19.9867 230.715 19.4L231.595 19.64C231.395 20.1333 231.075 20.5733 230.635 20.96C230.208 21.3467 229.702 21.6533 229.115 21.88C228.542 22.0933 227.935 22.2 227.295 22.2ZM223.155 16.42H231.375C231.322 15.6067 231.108 14.8867 230.735 14.26C230.362 13.6333 229.868 13.14 229.255 12.78C228.655 12.42 227.988 12.24 227.255 12.24C226.522 12.24 225.855 12.42 225.255 12.78C224.655 13.14 224.168 13.6333 223.795 14.26C223.422 14.8867 223.208 15.6067 223.155 16.42ZM239.212 22V7.8H240.232V22H239.212ZM243.358 7.4H244.378V19.94C244.378 20.42 244.478 20.7533 244.678 20.94C244.878 21.1133 245.138 21.2 245.458 21.2C245.671 21.2 245.891 21.18 246.118 21.14C246.345 21.1 246.545 21.0467 246.718 20.98L246.918 21.8C246.691 21.88 246.411 21.9533 246.078 22.02C245.745 22.0867 245.458 22.12 245.218 22.12C244.658 22.12 244.205 21.9533 243.858 21.62C243.525 21.2733 243.358 20.8133 243.358 20.24V7.4ZM248.154 7.4H249.174V19.94C249.174 20.42 249.274 20.7533 249.474 20.94C249.674 21.1133 249.934 21.2 250.254 21.2C250.467 21.2 250.687 21.18 250.914 21.14C251.141 21.1 251.341 21.0467 251.514 20.98L251.714 21.8C251.487 21.88 251.207 21.9533 250.874 22.02C250.541 22.0867 250.254 22.12 250.014 22.12C249.454 22.12 249.001 21.9533 248.654 21.62C248.321 21.2733 248.154 20.8133 248.154 20.24V7.4ZM252.77 17.6V11.6H253.77V17.46C253.77 18.7533 253.983 19.72 254.41 20.36C254.85 20.9867 255.51 21.3 256.39 21.3C256.976 21.3 257.536 21.1733 258.07 20.92C258.616 20.6533 259.096 20.2867 259.51 19.82C259.923 19.34 260.23 18.7867 260.43 18.16V11.6H261.43V20.68C261.43 20.84 261.463 20.96 261.53 21.04C261.61 21.12 261.716 21.1667 261.85 21.18V22C261.716 22.0133 261.61 22.02 261.53 22.02C261.463 22.02 261.403 22.0133 261.35 22C261.123 21.9733 260.936 21.88 260.79 21.72C260.643 21.5467 260.563 21.34 260.55 21.1L260.53 19.54C260.076 20.3667 259.45 21.02 258.65 21.5C257.863 21.9667 257.01 22.2 256.09 22.2C254.996 22.2 254.17 21.8133 253.61 21.04C253.05 20.2667 252.77 19.12 252.77 17.6ZM267.508 22.2C266.681 22.2 265.915 22.06 265.208 21.78C264.501 21.5 263.881 21.0733 263.348 20.5L263.808 19.8C264.381 20.3467 264.961 20.7467 265.548 21C266.135 21.24 266.775 21.36 267.468 21.36C268.361 21.36 269.081 21.1733 269.628 20.8C270.188 20.4267 270.468 19.9067 270.468 19.24C270.468 18.7867 270.335 18.44 270.068 18.2C269.815 17.9467 269.441 17.7467 268.948 17.6C268.468 17.44 267.881 17.2733 267.188 17.1C266.481 16.9133 265.881 16.72 265.388 16.52C264.908 16.32 264.548 16.06 264.308 15.74C264.068 15.42 263.948 14.9867 263.948 14.44C263.948 13.76 264.115 13.2 264.448 12.76C264.795 12.3067 265.255 11.9733 265.828 11.76C266.415 11.5333 267.061 11.42 267.768 11.42C268.581 11.42 269.288 11.5533 269.888 11.82C270.501 12.0867 270.968 12.44 271.288 12.88L270.748 13.52C270.415 13.0933 269.981 12.78 269.448 12.58C268.915 12.3667 268.328 12.26 267.688 12.26C267.208 12.26 266.755 12.3267 266.328 12.46C265.901 12.5933 265.555 12.8133 265.288 13.12C265.035 13.4133 264.908 13.8133 264.908 14.32C264.908 14.72 265.001 15.0333 265.188 15.26C265.388 15.4867 265.681 15.6733 266.068 15.82C266.455 15.9533 266.935 16.1 267.508 16.26C268.321 16.46 269.021 16.6667 269.608 16.88C270.195 17.0933 270.648 17.3733 270.968 17.72C271.288 18.0533 271.448 18.5267 271.448 19.14C271.448 20.0867 271.088 20.8333 270.368 21.38C269.648 21.9267 268.695 22.2 267.508 22.2ZM278.058 21.5C277.992 21.5267 277.858 21.5933 277.658 21.7C277.458 21.8067 277.205 21.9067 276.898 22C276.592 22.08 276.252 22.12 275.878 22.12C275.518 22.12 275.178 22.0533 274.858 21.92C274.552 21.7733 274.305 21.56 274.118 21.28C273.932 21 273.838 20.66 273.838 20.26V12.42H272.378V11.6H273.838V8.04H274.838V11.6H277.258V12.42H274.838V20.02C274.865 20.4067 275.005 20.7 275.258 20.9C275.512 21.0867 275.805 21.18 276.138 21.18C276.552 21.18 276.912 21.1133 277.218 20.98C277.525 20.8333 277.705 20.74 277.758 20.7L278.058 21.5ZM284.365 12.5C283.431 12.5267 282.611 12.8067 281.905 13.34C281.211 13.86 280.725 14.58 280.445 15.5V22H279.445V11.6H280.405V14.16C280.765 13.4267 281.245 12.8333 281.845 12.38C282.445 11.9133 283.078 11.6467 283.745 11.58C283.878 11.5667 283.998 11.56 284.105 11.56C284.211 11.56 284.298 11.56 284.365 11.56V12.5ZM284.943 19C284.943 18.3733 285.129 17.8333 285.503 17.38C285.876 16.9133 286.389 16.5533 287.043 16.3C287.696 16.0333 288.449 15.9 289.303 15.9C289.836 15.9 290.389 15.9467 290.963 16.04C291.536 16.1333 292.049 16.26 292.503 16.42V15.44C292.503 14.48 292.223 13.7133 291.663 13.14C291.116 12.5667 290.356 12.28 289.383 12.28C288.863 12.28 288.323 12.3867 287.763 12.6C287.203 12.8133 286.629 13.12 286.043 13.52L285.623 12.8C286.303 12.3467 286.956 12.0067 287.583 11.78C288.223 11.54 288.856 11.42 289.483 11.42C290.723 11.42 291.703 11.7867 292.423 12.52C293.143 13.2533 293.503 14.2533 293.503 15.52V20.68C293.503 20.84 293.536 20.96 293.603 21.04C293.683 21.12 293.796 21.1667 293.943 21.18V22C293.823 22.0133 293.723 22.02 293.643 22.02C293.563 22.02 293.496 22.02 293.443 22.02C293.189 21.98 292.989 21.8733 292.843 21.7C292.709 21.5267 292.636 21.3333 292.623 21.12V20.3C292.143 20.9 291.523 21.3667 290.763 21.7C290.016 22.0333 289.229 22.2 288.403 22.2C287.749 22.2 287.156 22.06 286.623 21.78C286.103 21.5 285.689 21.12 285.383 20.64C285.089 20.1467 284.943 19.6 284.943 19ZM292.103 19.86C292.236 19.6867 292.336 19.52 292.403 19.36C292.469 19.2 292.503 19.0533 292.503 18.92V17.2C292.023 17.0133 291.523 16.8733 291.003 16.78C290.483 16.6867 289.949 16.64 289.403 16.64C288.363 16.64 287.516 16.8467 286.863 17.26C286.223 17.6733 285.903 18.2333 285.903 18.94C285.903 19.38 286.016 19.7867 286.243 20.16C286.469 20.5333 286.783 20.8333 287.183 21.06C287.596 21.2867 288.069 21.4 288.603 21.4C289.349 21.4 290.036 21.26 290.663 20.98C291.303 20.6867 291.783 20.3133 292.103 19.86ZM300.727 21.5C300.66 21.5267 300.527 21.5933 300.327 21.7C300.127 21.8067 299.874 21.9067 299.567 22C299.26 22.08 298.92 22.12 298.547 22.12C298.187 22.12 297.847 22.0533 297.527 21.92C297.22 21.7733 296.974 21.56 296.787 21.28C296.6 21 296.507 20.66 296.507 20.26V12.42H295.047V11.6H296.507V8.04H297.507V11.6H299.927V12.42H297.507V20.02C297.534 20.4067 297.674 20.7 297.927 20.9C298.18 21.0867 298.474 21.18 298.807 21.18C299.22 21.18 299.58 21.1133 299.887 20.98C300.194 20.8333 300.374 20.74 300.427 20.7L300.727 21.5ZM306.278 22.2C305.544 22.2 304.864 22.06 304.238 21.78C303.624 21.5 303.091 21.1133 302.638 20.62C302.184 20.1133 301.831 19.5333 301.578 18.88C301.324 18.2267 301.198 17.54 301.198 16.82C301.198 16.0867 301.324 15.4 301.578 14.76C301.831 14.1067 302.184 13.5333 302.638 13.04C303.104 12.5333 303.644 12.14 304.258 11.86C304.884 11.5667 305.558 11.42 306.278 11.42C306.998 11.42 307.664 11.5667 308.278 11.86C308.891 12.14 309.431 12.5333 309.898 13.04C310.364 13.5333 310.724 14.1067 310.978 14.76C311.231 15.4 311.358 16.0867 311.358 16.82C311.358 17.54 311.231 18.2267 310.978 18.88C310.724 19.5333 310.364 20.1133 309.898 20.62C309.444 21.1133 308.904 21.5 308.278 21.78C307.664 22.06 306.998 22.2 306.278 22.2ZM302.198 16.86C302.198 17.6733 302.378 18.42 302.738 19.1C303.111 19.7667 303.604 20.3 304.218 20.7C304.831 21.1 305.511 21.3 306.258 21.3C307.004 21.3 307.684 21.1 308.298 20.7C308.924 20.2867 309.418 19.74 309.778 19.06C310.151 18.3667 310.338 17.6133 310.338 16.8C310.338 15.9867 310.151 15.24 309.778 14.56C309.418 13.88 308.924 13.34 308.298 12.94C307.684 12.5267 307.011 12.32 306.278 12.32C305.531 12.32 304.851 12.5267 304.238 12.94C303.624 13.3533 303.131 13.9 302.758 14.58C302.384 15.26 302.198 16.02 302.198 16.86ZM318.294 12.5C317.36 12.5267 316.54 12.8067 315.834 13.34C315.14 13.86 314.654 14.58 314.374 15.5V22H313.374V11.6H314.334V14.16C314.694 13.4267 315.174 12.8333 315.774 12.38C316.374 11.9133 317.007 11.6467 317.674 11.58C317.807 11.5667 317.927 11.56 318.034 11.56C318.14 11.56 318.227 11.56 318.294 11.56V12.5Z" fill="black"/>
<path d="M31.1666 102.75L15.1249 118.792L7.83325 111.5" stroke="#F27EBE" stroke-width="2" stroke-linecap="round" stroke-linejoin="round"/>
<path d="M55.88 108.8C55.88 107.947 56.0267 107.107 56.32 106.28C56.6267 105.44 57.0667 104.68 57.64 104C58.2133 103.307 58.9133 102.753 59.74 102.34C60.58 101.927 61.5333 101.72 62.6 101.72C63.8667 101.72 64.9467 102.013 65.84 102.6C66.7333 103.173 67.4 103.913 67.84 104.82L67 105.3C66.6667 104.647 66.2533 104.127 65.76 103.74C65.28 103.353 64.76 103.08 64.2 102.92C63.64 102.747 63.08 102.66 62.52 102.66C61.6267 102.66 60.8267 102.84 60.12 103.2C59.4267 103.56 58.84 104.04 58.36 104.64C57.88 105.24 57.5133 105.907 57.26 106.64C57.02 107.373 56.9 108.113 56.9 108.86C56.9 109.7 57.0467 110.5 57.34 111.26C57.6333 112.007 58.0333 112.673 58.54 113.26C59.06 113.847 59.66 114.313 60.34 114.66C61.0333 115.007 61.78 115.18 62.58 115.18C63.1533 115.18 63.7333 115.087 64.32 114.9C64.92 114.7 65.48 114.4 66 114C66.52 113.587 66.94 113.053 67.26 112.4L68.14 112.82C67.8333 113.527 67.3733 114.127 66.76 114.62C66.1467 115.113 65.4667 115.487 64.72 115.74C63.9733 115.993 63.2333 116.12 62.5 116.12C61.54 116.12 60.6533 115.913 59.84 115.5C59.0267 115.073 58.32 114.513 57.72 113.82C57.1333 113.113 56.68 112.327 56.36 111.46C56.04 110.58 55.88 109.693 55.88 108.8ZM78.5486 104.16C78.3219 103.907 78.0686 103.687 77.7886 103.5C77.5086 103.3 77.2086 103.14 76.8886 103.02C76.5686 102.887 76.2219 102.787 75.8486 102.72C75.4753 102.653 75.0753 102.62 74.6486 102.62C73.2619 102.62 72.2486 102.887 71.6086 103.42C70.9819 103.94 70.6686 104.647 70.6686 105.54C70.6686 106.14 70.8086 106.62 71.0886 106.98C71.3819 107.327 71.8353 107.607 72.4486 107.82C73.0619 108.033 73.8553 108.24 74.8286 108.44C75.8553 108.653 76.7419 108.907 77.4886 109.2C78.2353 109.48 78.8086 109.867 79.2086 110.36C79.6219 110.853 79.8286 111.52 79.8286 112.36C79.8286 112.987 79.7086 113.54 79.4686 114.02C79.2286 114.487 78.8819 114.873 78.4286 115.18C77.9753 115.487 77.4353 115.72 76.8086 115.88C76.1953 116.04 75.5086 116.12 74.7486 116.12C74.0153 116.12 73.3153 116.04 72.6486 115.88C71.9819 115.72 71.3553 115.487 70.7686 115.18C70.1819 114.873 69.6353 114.48 69.1286 114L69.6686 113.18C69.9619 113.5 70.2886 113.787 70.6486 114.04C71.0219 114.28 71.4219 114.487 71.8486 114.66C72.2886 114.833 72.7553 114.973 73.2486 115.08C73.7419 115.173 74.2553 115.22 74.7886 115.22C76.0286 115.22 76.9953 114.993 77.6886 114.54C78.3953 114.073 78.7486 113.387 78.7486 112.48C78.7486 111.853 78.5886 111.347 78.2686 110.96C77.9486 110.573 77.4553 110.26 76.7886 110.02C76.1219 109.767 75.2886 109.533 74.2886 109.32C73.2886 109.107 72.4353 108.867 71.7286 108.6C71.0353 108.333 70.5086 107.973 70.1486 107.52C69.8019 107.067 69.6286 106.453 69.6286 105.68C69.6286 104.827 69.8353 104.107 70.2486 103.52C70.6753 102.92 71.2686 102.467 72.0286 102.16C72.7886 101.853 73.6619 101.7 74.6486 101.7C75.2619 101.7 75.8286 101.76 76.3486 101.88C76.8819 102 77.3686 102.187 77.8086 102.44C78.2619 102.68 78.6819 102.987 79.0686 103.36L78.5486 104.16ZM90.278 104.16C90.0513 103.907 89.798 103.687 89.518 103.5C89.238 103.3 88.938 103.14 88.618 103.02C88.298 102.887 87.9513 102.787 87.578 102.72C87.2046 102.653 86.8046 102.62 86.378 102.62C84.9913 102.62 83.978 102.887 83.338 103.42C82.7113 103.94 82.398 104.647 82.398 105.54C82.398 106.14 82.538 106.62 82.818 106.98C83.1113 107.327 83.5646 107.607 84.178 107.82C84.7913 108.033 85.5846 108.24 86.558 108.44C87.5846 108.653 88.4713 108.907 89.218 109.2C89.9646 109.48 90.538 109.867 90.938 110.36C91.3513 110.853 91.558 111.52 91.558 112.36C91.558 112.987 91.438 113.54 91.198 114.02C90.958 114.487 90.6113 114.873 90.158 115.18C89.7046 115.487 89.1646 115.72 88.538 115.88C87.9246 116.04 87.238 116.12 86.478 116.12C85.7446 116.12 85.0446 116.04 84.378 115.88C83.7113 115.72 83.0846 115.487 82.498 115.18C81.9113 114.873 81.3646 114.48 80.858 114L81.398 113.18C81.6913 113.5 82.018 113.787 82.378 114.04C82.7513 114.28 83.1513 114.487 83.578 114.66C84.018 114.833 84.4846 114.973 84.978 115.08C85.4713 115.173 85.9846 115.22 86.518 115.22C87.758 115.22 88.7246 114.993 89.418 114.54C90.1246 114.073 90.478 113.387 90.478 112.48C90.478 111.853 90.318 111.347 89.998 110.96C89.678 110.573 89.1846 110.26 88.518 110.02C87.8513 109.767 87.018 109.533 86.018 109.32C85.018 109.107 84.1646 108.867 83.458 108.6C82.7646 108.333 82.238 107.973 81.878 107.52C81.5313 107.067 81.358 106.453 81.358 105.68C81.358 104.827 81.5646 104.107 81.978 103.52C82.4046 102.92 82.998 102.467 83.758 102.16C84.518 101.853 85.3913 101.7 86.378 101.7C86.9913 101.7 87.558 101.76 88.078 101.88C88.6113 102 89.098 102.187 89.538 102.44C89.9913 102.68 90.4113 102.987 90.798 103.36L90.278 104.16ZM103.284 116.2C102.391 116.2 101.591 115.967 100.884 115.5C100.191 115.02 99.6307 114.44 99.2041 113.76V120.26H98.2041V105.6H99.1241V107.68C99.5507 107.013 100.117 106.473 100.824 106.06C101.531 105.633 102.277 105.42 103.064 105.42C103.797 105.42 104.464 105.573 105.064 105.88C105.664 106.173 106.184 106.58 106.624 107.1C107.077 107.607 107.424 108.18 107.664 108.82C107.917 109.46 108.044 110.127 108.044 110.82C108.044 111.78 107.844 112.673 107.444 113.5C107.044 114.313 106.484 114.967 105.764 115.46C105.057 115.953 104.231 116.2 103.284 116.2ZM103.044 115.3C103.657 115.3 104.204 115.173 104.684 114.92C105.177 114.667 105.597 114.327 105.944 113.9C106.291 113.473 106.557 112.993 106.744 112.46C106.931 111.927 107.024 111.38 107.024 110.82C107.024 110.22 106.917 109.653 106.704 109.12C106.491 108.573 106.191 108.093 105.804 107.68C105.431 107.267 104.991 106.94 104.484 106.7C103.991 106.447 103.451 106.32 102.864 106.32C102.504 106.32 102.117 106.393 101.704 106.54C101.304 106.687 100.917 106.893 100.544 107.16C100.184 107.427 99.8841 107.733 99.6441 108.08C99.4041 108.413 99.2574 108.76 99.2041 109.12V112.54C99.4441 113.047 99.7507 113.513 100.124 113.94C100.511 114.353 100.957 114.687 101.464 114.94C101.971 115.18 102.497 115.3 103.044 115.3ZM114.43 116.2C113.697 116.2 113.017 116.06 112.39 115.78C111.777 115.5 111.243 115.113 110.79 114.62C110.337 114.113 109.983 113.533 109.73 112.88C109.477 112.227 109.35 111.54 109.35 110.82C109.35 110.087 109.477 109.4 109.73 108.76C109.983 108.107 110.337 107.533 110.79 107.04C111.257 106.533 111.797 106.14 112.41 105.86C113.037 105.567 113.71 105.42 114.43 105.42C115.15 105.42 115.817 105.567 116.43 105.86C117.043 106.14 117.583 106.533 118.05 107.04C118.517 107.533 118.877 108.107 119.13 108.76C119.383 109.4 119.51 110.087 119.51 110.82C119.51 111.54 119.383 112.227 119.13 112.88C118.877 113.533 118.517 114.113 118.05 114.62C117.597 115.113 117.057 115.5 116.43 115.78C115.817 116.06 115.15 116.2 114.43 116.2ZM110.35 110.86C110.35 111.673 110.53 112.42 110.89 113.1C111.263 113.767 111.757 114.3 112.37 114.7C112.983 115.1 113.663 115.3 114.41 115.3C115.157 115.3 115.837 115.1 116.45 114.7C117.077 114.287 117.57 113.74 117.93 113.06C118.303 112.367 118.49 111.613 118.49 110.8C118.49 109.987 118.303 109.24 117.93 108.56C117.57 107.88 117.077 107.34 116.45 106.94C115.837 106.527 115.163 106.32 114.43 106.32C113.683 106.32 113.003 106.527 112.39 106.94C111.777 107.353 111.283 107.9 110.91 108.58C110.537 109.26 110.35 110.02 110.35 110.86ZM124.806 116.2C123.979 116.2 123.213 116.06 122.506 115.78C121.799 115.5 121.179 115.073 120.646 114.5L121.106 113.8C121.679 114.347 122.259 114.747 122.846 115C123.433 115.24 124.073 115.36 124.766 115.36C125.659 115.36 126.379 115.173 126.926 114.8C127.486 114.427 127.766 113.907 127.766 113.24C127.766 112.787 127.633 112.44 127.366 112.2C127.113 111.947 126.739 111.747 126.246 111.6C125.766 111.44 125.179 111.273 124.486 111.1C123.779 110.913 123.179 110.72 122.686 110.52C122.206 110.32 121.846 110.06 121.606 109.74C121.366 109.42 121.246 108.987 121.246 108.44C121.246 107.76 121.413 107.2 121.746 106.76C122.093 106.307 122.553 105.973 123.126 105.76C123.713 105.533 124.359 105.42 125.066 105.42C125.879 105.42 126.586 105.553 127.186 105.82C127.799 106.087 128.266 106.44 128.586 106.88L128.046 107.52C127.713 107.093 127.279 106.78 126.746 106.58C126.213 106.367 125.626 106.26 124.986 106.26C124.506 106.26 124.053 106.327 123.626 106.46C123.199 106.593 122.853 106.813 122.586 107.12C122.333 107.413 122.206 107.813 122.206 108.32C122.206 108.72 122.299 109.033 122.486 109.26C122.686 109.487 122.979 109.673 123.366 109.82C123.753 109.953 124.233 110.1 124.806 110.26C125.619 110.46 126.319 110.667 126.906 110.88C127.493 111.093 127.946 111.373 128.266 111.72C128.586 112.053 128.746 112.527 128.746 113.14C128.746 114.087 128.386 114.833 127.666 115.38C126.946 115.927 125.993 116.2 124.806 116.2ZM130.716 116V105.6H131.716V116H130.716ZM130.716 103.24V101.4H131.716V103.24H130.716ZM139.117 115.5C139.05 115.527 138.917 115.593 138.717 115.7C138.517 115.807 138.264 115.907 137.957 116C137.65 116.08 137.31 116.12 136.937 116.12C136.577 116.12 136.237 116.053 135.917 115.92C135.61 115.773 135.364 115.56 135.177 115.28C134.99 115 134.897 114.66 134.897 114.26V106.42H133.437V105.6H134.897V102.04H135.897V105.6H138.317V106.42H135.897V114.02C135.924 114.407 136.064 114.7 136.317 114.9C136.57 115.087 136.864 115.18 137.197 115.18C137.61 115.18 137.97 115.113 138.277 114.98C138.584 114.833 138.764 114.74 138.817 114.7L139.117 115.5ZM140.503 116V105.6H141.503V116H140.503ZM140.503 103.24V101.4H141.503V103.24H140.503ZM148.624 116.2C147.891 116.2 147.211 116.06 146.584 115.78C145.971 115.5 145.437 115.113 144.984 114.62C144.531 114.113 144.177 113.533 143.924 112.88C143.671 112.227 143.544 111.54 143.544 110.82C143.544 110.087 143.671 109.4 143.924 108.76C144.177 108.107 144.531 107.533 144.984 107.04C145.451 106.533 145.991 106.14 146.604 105.86C147.231 105.567 147.904 105.42 148.624 105.42C149.344 105.42 150.011 105.567 150.624 105.86C151.237 106.14 151.777 106.533 152.244 107.04C152.711 107.533 153.071 108.107 153.324 108.76C153.577 109.4 153.704 110.087 153.704 110.82C153.704 111.54 153.577 112.227 153.324 112.88C153.071 113.533 152.711 114.113 152.244 114.62C151.791 115.113 151.251 115.5 150.624 115.78C150.011 116.06 149.344 116.2 148.624 116.2ZM144.544 110.86C144.544 111.673 144.724 112.42 145.084 113.1C145.457 113.767 145.951 114.3 146.564 114.7C147.177 115.1 147.857 115.3 148.604 115.3C149.351 115.3 150.031 115.1 150.644 114.7C151.271 114.287 151.764 113.74 152.124 113.06C152.497 112.367 152.684 111.613 152.684 110.8C152.684 109.987 152.497 109.24 152.124 108.56C151.764 107.88 151.271 107.34 150.644 106.94C150.031 106.527 149.357 106.32 148.624 106.32C147.877 106.32 147.197 106.527 146.584 106.94C145.971 107.353 145.477 107.9 145.104 108.58C144.731 109.26 144.544 110.02 144.544 110.86ZM164.22 116H163.22V110.2C163.22 108.867 163.027 107.893 162.64 107.28C162.267 106.653 161.667 106.34 160.84 106.34C160.253 106.34 159.673 106.48 159.1 106.76C158.54 107.04 158.047 107.427 157.62 107.92C157.207 108.4 156.907 108.947 156.72 109.56V116H155.72V105.6H156.66V108.08C156.94 107.547 157.313 107.087 157.78 106.7C158.247 106.3 158.767 105.987 159.34 105.76C159.913 105.533 160.507 105.42 161.12 105.42C161.693 105.42 162.173 105.527 162.56 105.74C162.96 105.94 163.28 106.233 163.52 106.62C163.773 107.007 163.953 107.487 164.06 108.06C164.167 108.633 164.22 109.287 164.22 110.02V116ZM171.283 116.2C170.55 116.2 169.87 116.06 169.243 115.78C168.617 115.487 168.07 115.093 167.603 114.6C167.15 114.093 166.79 113.513 166.523 112.86C166.27 112.193 166.143 111.493 166.143 110.76C166.143 109.773 166.363 108.88 166.803 108.08C167.243 107.28 167.85 106.64 168.623 106.16C169.397 105.667 170.263 105.42 171.223 105.42C172.21 105.42 173.083 105.667 173.843 106.16C174.603 106.653 175.203 107.307 175.643 108.12C176.097 108.92 176.323 109.8 176.323 110.76C176.323 110.84 176.323 110.92 176.323 111C176.323 111.08 176.317 111.147 176.303 111.2H167.183C167.237 111.987 167.457 112.7 167.843 113.34C168.23 113.98 168.723 114.487 169.323 114.86C169.937 115.22 170.603 115.4 171.323 115.4C172.043 115.4 172.723 115.213 173.363 114.84C174.003 114.467 174.45 113.987 174.703 113.4L175.583 113.64C175.383 114.133 175.063 114.573 174.623 114.96C174.197 115.347 173.69 115.653 173.103 115.88C172.53 116.093 171.923 116.2 171.283 116.2ZM167.143 110.42H175.363C175.31 109.607 175.097 108.887 174.723 108.26C174.35 107.633 173.857 107.14 173.243 106.78C172.643 106.42 171.977 106.24 171.243 106.24C170.51 106.24 169.843 106.42 169.243 106.78C168.643 107.14 168.157 107.633 167.783 108.26C167.41 108.887 167.197 109.607 167.143 110.42ZM183.063 106.5C182.13 106.527 181.31 106.807 180.603 107.34C179.91 107.86 179.423 108.58 179.143 109.5V116H178.143V105.6H179.103V108.16C179.463 107.427 179.943 106.833 180.543 106.38C181.143 105.913 181.777 105.647 182.443 105.58C182.577 105.567 182.697 105.56 182.803 105.56C182.91 105.56 182.997 105.56 183.063 105.56V106.5ZM184.58 116V105.6H185.58V116H184.58ZM184.58 103.24V101.4H185.58V103.24H184.58ZM196.84 116H195.84V110.2C195.84 108.867 195.647 107.893 195.26 107.28C194.887 106.653 194.287 106.34 193.46 106.34C192.874 106.34 192.294 106.48 191.72 106.76C191.16 107.04 190.667 107.427 190.24 107.92C189.827 108.4 189.527 108.947 189.34 109.56V116H188.34V105.6H189.28V108.08C189.56 107.547 189.934 107.087 190.4 106.7C190.867 106.3 191.387 105.987 191.96 105.76C192.534 105.533 193.127 105.42 193.74 105.42C194.314 105.42 194.794 105.527 195.18 105.74C195.58 105.94 195.9 106.233 196.14 106.62C196.394 107.007 196.574 107.487 196.68 108.06C196.787 108.633 196.84 109.287 196.84 110.02V116ZM203.684 116.16C202.977 116.16 202.317 116.013 201.704 115.72C201.104 115.427 200.584 115.027 200.144 114.52C199.717 114 199.377 113.427 199.124 112.8C198.884 112.16 198.764 111.5 198.764 110.82C198.764 110.113 198.877 109.433 199.104 108.78C199.344 108.127 199.677 107.553 200.104 107.06C200.544 106.553 201.057 106.153 201.644 105.86C202.231 105.567 202.884 105.42 203.604 105.42C204.511 105.42 205.297 105.66 205.964 106.14C206.644 106.607 207.217 107.18 207.684 107.86V105.6H208.604V116.2C208.604 117.133 208.377 117.92 207.924 118.56C207.471 119.2 206.871 119.673 206.124 119.98C205.377 120.3 204.571 120.46 203.704 120.46C202.491 120.46 201.524 120.24 200.804 119.8C200.097 119.36 199.524 118.78 199.084 118.06L199.764 117.6C200.177 118.293 200.737 118.807 201.444 119.14C202.151 119.473 202.904 119.64 203.704 119.64C204.411 119.64 205.057 119.507 205.644 119.24C206.244 118.987 206.717 118.6 207.064 118.08C207.424 117.573 207.604 116.947 207.604 116.2V113.92C207.191 114.6 206.624 115.147 205.904 115.56C205.197 115.96 204.457 116.16 203.684 116.16ZM203.924 115.3C204.364 115.3 204.791 115.22 205.204 115.06C205.617 114.9 205.997 114.687 206.344 114.42C206.691 114.14 206.977 113.833 207.204 113.5C207.431 113.167 207.564 112.833 207.604 112.5V109.08C207.404 108.547 207.097 108.073 206.684 107.66C206.284 107.233 205.831 106.907 205.324 106.68C204.817 106.44 204.297 106.32 203.764 106.32C203.137 106.32 202.577 106.453 202.084 106.72C201.591 106.987 201.171 107.34 200.824 107.78C200.491 108.207 200.231 108.693 200.044 109.24C199.871 109.773 199.784 110.307 199.784 110.84C199.784 111.44 199.891 112.007 200.104 112.54C200.317 113.073 200.611 113.553 200.984 113.98C201.371 114.393 201.811 114.72 202.304 114.96C202.811 115.187 203.351 115.3 203.924 115.3Z" fill="black"/>
<path d="M31.1666 56.75L15.1249 72.7917L7.83325 65.5" stroke="#F27EBE" stroke-width="2" stroke-linecap="round" stroke-linejoin="round"/>
<path d="M65.12 58.16C64.8933 57.9067 64.64 57.6867 64.36 57.5C64.08 57.3 63.78 57.14 63.46 57.02C63.14 56.8867 62.7933 56.7867 62.42 56.72C62.0467 56.6533 61.6467 56.62 61.22 56.62C59.8333 56.62 58.82 56.8867 58.18 57.42C57.5533 57.94 57.24 58.6467 57.24 59.54C57.24 60.14 57.38 60.62 57.66 60.98C57.9533 61.3267 58.4067 61.6067 59.02 61.82C59.6333 62.0333 60.4267 62.24 61.4 62.44C62.4267 62.6533 63.3133 62.9067 64.06 63.2C64.8067 63.48 65.38 63.8667 65.78 64.36C66.1933 64.8533 66.4 65.52 66.4 66.36C66.4 66.9867 66.28 67.54 66.04 68.02C65.8 68.4867 65.4533 68.8733 65 69.18C64.5467 69.4867 64.0067 69.72 63.38 69.88C62.7667 70.04 62.08 70.12 61.32 70.12C60.5867 70.12 59.8867 70.04 59.22 69.88C58.5533 69.72 57.9267 69.4867 57.34 69.18C56.7533 68.8733 56.2067 68.48 55.7 68L56.24 67.18C56.5333 67.5 56.86 67.7867 57.22 68.04C57.5933 68.28 57.9933 68.4867 58.42 68.66C58.86 68.8333 59.3267 68.9733 59.82 69.08C60.3133 69.1733 60.8267 69.22 61.36 69.22C62.6 69.22 63.5667 68.9933 64.26 68.54C64.9667 68.0733 65.32 67.3867 65.32 66.48C65.32 65.8533 65.16 65.3467 64.84 64.96C64.52 64.5733 64.0267 64.26 63.36 64.02C62.6933 63.7667 61.86 63.5333 60.86 63.32C59.86 63.1067 59.0067 62.8667 58.3 62.6C57.6067 62.3333 57.08 61.9733 56.72 61.52C56.3733 61.0667 56.2 60.4533 56.2 59.68C56.2 58.8267 56.4067 58.1067 56.82 57.52C57.2467 56.92 57.84 56.4667 58.6 56.16C59.36 55.8533 60.2333 55.7 61.22 55.7C61.8333 55.7 62.4 55.76 62.92 55.88C63.4533 56 63.94 56.1867 64.38 56.44C64.8333 56.68 65.2533 56.9867 65.64 57.36L65.12 58.16ZM75.8094 70L71.7494 64.44L69.2894 66.7V70H68.2894V55.4H69.2894V65.58L75.6294 59.62H76.7694L72.4294 63.84L76.9094 70H75.8094ZM78.3586 70V59.6H79.3586V70H78.3586ZM78.3586 57.24V55.4H79.3586V57.24H78.3586ZM86.7592 69.5C86.6926 69.5267 86.5592 69.5933 86.3592 69.7C86.1592 69.8067 85.9059 69.9067 85.5992 70C85.2926 70.08 84.9526 70.12 84.5792 70.12C84.2192 70.12 83.8792 70.0533 83.5592 69.92C83.2526 69.7733 83.0059 69.56 82.8192 69.28C82.6326 69 82.5392 68.66 82.5392 68.26V60.42H81.0792V59.6H82.5392V56.04H83.5392V59.6H85.9592V60.42H83.5392V68.02C83.5659 68.4067 83.7059 68.7 83.9592 68.9C84.2126 69.0867 84.5059 69.18 84.8392 69.18C85.2526 69.18 85.6126 69.1133 85.9192 68.98C86.2259 68.8333 86.4059 68.74 86.4592 68.7L86.7592 69.5ZM91.4255 70.2C90.5988 70.2 89.8321 70.06 89.1255 69.78C88.4188 69.5 87.7988 69.0733 87.2655 68.5L87.7255 67.8C88.2988 68.3467 88.8788 68.7467 89.4655 69C90.0521 69.24 90.6921 69.36 91.3855 69.36C92.2788 69.36 92.9988 69.1733 93.5455 68.8C94.1055 68.4267 94.3855 67.9067 94.3855 67.24C94.3855 66.7867 94.2521 66.44 93.9855 66.2C93.7321 65.9467 93.3588 65.7467 92.8655 65.6C92.3855 65.44 91.7988 65.2733 91.1055 65.1C90.3988 64.9133 89.7988 64.72 89.3055 64.52C88.8255 64.32 88.4655 64.06 88.2255 63.74C87.9855 63.42 87.8655 62.9867 87.8655 62.44C87.8655 61.76 88.0321 61.2 88.3655 60.76C88.7121 60.3067 89.1721 59.9733 89.7455 59.76C90.3321 59.5333 90.9788 59.42 91.6855 59.42C92.4988 59.42 93.2055 59.5533 93.8055 59.82C94.4188 60.0867 94.8855 60.44 95.2055 60.88L94.6655 61.52C94.3321 61.0933 93.8988 60.78 93.3655 60.58C92.8321 60.3667 92.2455 60.26 91.6055 60.26C91.1255 60.26 90.6721 60.3267 90.2455 60.46C89.8188 60.5933 89.4721 60.8133 89.2055 61.12C88.9521 61.4133 88.8255 61.8133 88.8255 62.32C88.8255 62.72 88.9188 63.0333 89.1055 63.26C89.3055 63.4867 89.5988 63.6733 89.9855 63.82C90.3721 63.9533 90.8521 64.1 91.4255 64.26C92.2388 64.46 92.9388 64.6667 93.5255 64.88C94.1121 65.0933 94.5655 65.3733 94.8855 65.72C95.2055 66.0533 95.3655 66.5267 95.3655 67.14C95.3655 68.0867 95.0055 68.8333 94.2855 69.38C93.5655 69.9267 92.6121 70.2 91.4255 70.2ZM101.756 70.2C101.022 70.2 100.342 70.06 99.7158 69.78C99.0891 69.4867 98.5424 69.0933 98.0758 68.6C97.6224 68.0933 97.2624 67.5133 96.9958 66.86C96.7424 66.1933 96.6158 65.4933 96.6158 64.76C96.6158 63.7733 96.8358 62.88 97.2758 62.08C97.7158 61.28 98.3224 60.64 99.0958 60.16C99.8691 59.6667 100.736 59.42 101.696 59.42C102.682 59.42 103.556 59.6667 104.316 60.16C105.076 60.6533 105.676 61.3067 106.116 62.12C106.569 62.92 106.796 63.8 106.796 64.76C106.796 64.84 106.796 64.92 106.796 65C106.796 65.08 106.789 65.1467 106.776 65.2H97.6558C97.7091 65.9867 97.9291 66.7 98.3158 67.34C98.7024 67.98 99.1958 68.4867 99.7958 68.86C100.409 69.22 101.076 69.4 101.796 69.4C102.516 69.4 103.196 69.2133 103.836 68.84C104.476 68.4667 104.922 67.9867 105.176 67.4L106.056 67.64C105.856 68.1333 105.536 68.5733 105.096 68.96C104.669 69.3467 104.162 69.6533 103.576 69.88C103.002 70.0933 102.396 70.2 101.756 70.2ZM97.6158 64.42H105.836C105.782 63.6067 105.569 62.8867 105.196 62.26C104.822 61.6333 104.329 61.14 103.716 60.78C103.116 60.42 102.449 60.24 101.716 60.24C100.982 60.24 100.316 60.42 99.7158 60.78C99.1158 61.14 98.6291 61.6333 98.2558 62.26C97.8824 62.8867 97.6691 63.6067 97.6158 64.42ZM113.536 60.5C112.603 60.5267 111.783 60.8067 111.076 61.34C110.383 61.86 109.896 62.58 109.616 63.5V70H108.616V59.6H109.576V62.16C109.936 61.4267 110.416 60.8333 111.016 60.38C111.616 59.9133 112.249 59.6467 112.916 59.58C113.049 59.5667 113.169 59.56 113.276 59.56C113.383 59.56 113.469 59.56 113.536 59.56V60.5ZM115.052 70V59.6H116.052V70H115.052ZM115.052 57.24V55.4H116.052V57.24H115.052ZM127.313 70H126.313V64.2C126.313 62.8667 126.12 61.8933 125.733 61.28C125.36 60.6533 124.76 60.34 123.933 60.34C123.346 60.34 122.766 60.48 122.193 60.76C121.633 61.04 121.14 61.4267 120.713 61.92C120.3 62.4 120 62.9467 119.813 63.56V70H118.813V59.6H119.753V62.08C120.033 61.5467 120.406 61.0867 120.873 60.7C121.34 60.3 121.86 59.9867 122.433 59.76C123.006 59.5333 123.6 59.42 124.213 59.42C124.786 59.42 125.266 59.5267 125.653 59.74C126.053 59.94 126.373 60.2333 126.613 60.62C126.866 61.0067 127.046 61.4867 127.153 62.06C127.26 62.6333 127.313 63.2867 127.313 64.02V70ZM134.156 70.16C133.45 70.16 132.79 70.0133 132.176 69.72C131.576 69.4267 131.056 69.0267 130.616 68.52C130.19 68 129.85 67.4267 129.596 66.8C129.356 66.16 129.236 65.5 129.236 64.82C129.236 64.1133 129.35 63.4333 129.576 62.78C129.816 62.1267 130.15 61.5533 130.576 61.06C131.016 60.5533 131.53 60.1533 132.116 59.86C132.703 59.5667 133.356 59.42 134.076 59.42C134.983 59.42 135.77 59.66 136.436 60.14C137.116 60.6067 137.69 61.18 138.156 61.86V59.6H139.076V70.2C139.076 71.1333 138.85 71.92 138.396 72.56C137.943 73.2 137.343 73.6733 136.596 73.98C135.85 74.3 135.043 74.46 134.176 74.46C132.963 74.46 131.996 74.24 131.276 73.8C130.57 73.36 129.996 72.78 129.556 72.06L130.236 71.6C130.65 72.2933 131.21 72.8067 131.916 73.14C132.623 73.4733 133.376 73.64 134.176 73.64C134.883 73.64 135.53 73.5067 136.116 73.24C136.716 72.9867 137.19 72.6 137.536 72.08C137.896 71.5733 138.076 70.9467 138.076 70.2V67.92C137.663 68.6 137.096 69.1467 136.376 69.56C135.67 69.96 134.93 70.16 134.156 70.16ZM134.396 69.3C134.836 69.3 135.263 69.22 135.676 69.06C136.09 68.9 136.47 68.6867 136.816 68.42C137.163 68.14 137.45 67.8333 137.676 67.5C137.903 67.1667 138.036 66.8333 138.076 66.5V63.08C137.876 62.5467 137.57 62.0733 137.156 61.66C136.756 61.2333 136.303 60.9067 135.796 60.68C135.29 60.44 134.77 60.32 134.236 60.32C133.61 60.32 133.05 60.4533 132.556 60.72C132.063 60.9867 131.643 61.34 131.296 61.78C130.963 62.2067 130.703 62.6933 130.516 63.24C130.343 63.7733 130.256 64.3067 130.256 64.84C130.256 65.44 130.363 66.0067 130.576 66.54C130.79 67.0733 131.083 67.5533 131.456 67.98C131.843 68.3933 132.283 68.72 132.776 68.96C133.283 69.1867 133.823 69.3 134.396 69.3Z" fill="black"/>
<path d="M29.1666 194.75L13.1249 210.792L5.83325 203.5" stroke="#F27EBE" stroke-width="2" stroke-linecap="round" stroke-linejoin="round"/>
<path d="M61.32 193.8H62.2L68.2 208H67.12L65.14 203.32H58.36L56.38 208H55.28L61.32 193.8ZM64.86 202.48L61.76 195.04L58.6 202.48H64.86ZM74.5961 198.5C73.6628 198.527 72.8428 198.807 72.1361 199.34C71.4428 199.86 70.9561 200.58 70.6761 201.5V208H69.6761V197.6H70.6361V200.16C70.9961 199.427 71.4761 198.833 72.0761 198.38C72.6761 197.913 73.3094 197.647 73.9761 197.58C74.1094 197.567 74.2294 197.56 74.3361 197.56C74.4428 197.56 74.5294 197.56 74.5961 197.56V198.5ZM80.7525 207.5C80.6858 207.527 80.5525 207.593 80.3525 207.7C80.1525 207.807 79.8992 207.907 79.5925 208C79.2858 208.08 78.9458 208.12 78.5725 208.12C78.2125 208.12 77.8725 208.053 77.5525 207.92C77.2458 207.773 76.9992 207.56 76.8125 207.28C76.6258 207 76.5325 206.66 76.5325 206.26V198.42H75.0725V197.6H76.5325V194.04H77.5325V197.6H79.9525V198.42H77.5325V206.02C77.5592 206.407 77.6992 206.7 77.9525 206.9C78.2058 207.087 78.4992 207.18 78.8325 207.18C79.2458 207.18 79.6058 207.113 79.9125 206.98C80.2192 206.833 80.3992 206.74 80.4525 206.7L80.7525 207.5ZM86.9988 208.2C86.1854 208.2 85.4254 207.987 84.7188 207.56C84.0121 207.12 83.4588 206.573 83.0588 205.92V208H82.1388V193.4H83.1388V199.86C83.6321 199.14 84.2121 198.553 84.8788 198.1C85.5588 197.647 86.3388 197.42 87.2188 197.42C87.9654 197.42 88.6254 197.573 89.1988 197.88C89.7854 198.187 90.2854 198.6 90.6988 199.12C91.1121 199.64 91.4254 200.22 91.6388 200.86C91.8654 201.5 91.9788 202.16 91.9788 202.84C91.9788 203.547 91.8521 204.227 91.5988 204.88C91.3454 205.52 90.9921 206.093 90.5388 206.6C90.0854 207.093 89.5588 207.487 88.9588 207.78C88.3588 208.06 87.7054 208.2 86.9988 208.2ZM86.7988 207.3C87.4121 207.3 87.9721 207.18 88.4788 206.94C88.9854 206.687 89.4188 206.347 89.7788 205.92C90.1521 205.493 90.4388 205.013 90.6388 204.48C90.8521 203.947 90.9588 203.4 90.9588 202.84C90.9588 202.053 90.7921 201.32 90.4588 200.64C90.1254 199.947 89.6588 199.387 89.0588 198.96C88.4588 198.533 87.7654 198.32 86.9788 198.32C86.3921 198.32 85.8521 198.453 85.3588 198.72C84.8654 198.973 84.4321 199.307 84.0588 199.72C83.6988 200.133 83.3921 200.587 83.1388 201.08V204.52C83.1921 204.907 83.3388 205.273 83.5788 205.62C83.8188 205.953 84.1188 206.247 84.4788 206.5C84.8521 206.74 85.2388 206.933 85.6388 207.08C86.0521 207.227 86.4388 207.3 86.7988 207.3ZM98.3648 208.2C97.6315 208.2 96.9515 208.06 96.3248 207.78C95.7115 207.5 95.1782 207.113 94.7248 206.62C94.2715 206.113 93.9182 205.533 93.6648 204.88C93.4115 204.227 93.2848 203.54 93.2848 202.82C93.2848 202.087 93.4115 201.4 93.6648 200.76C93.9182 200.107 94.2715 199.533 94.7248 199.04C95.1915 198.533 95.7315 198.14 96.3448 197.86C96.9715 197.567 97.6448 197.42 98.3648 197.42C99.0848 197.42 99.7515 197.567 100.365 197.86C100.978 198.14 101.518 198.533 101.985 199.04C102.452 199.533 102.812 200.107 103.065 200.76C103.318 201.4 103.445 202.087 103.445 202.82C103.445 203.54 103.318 204.227 103.065 204.88C102.812 205.533 102.452 206.113 101.985 206.62C101.532 207.113 100.992 207.5 100.365 207.78C99.7515 208.06 99.0848 208.2 98.3648 208.2ZM94.2848 202.86C94.2848 203.673 94.4648 204.42 94.8248 205.1C95.1982 205.767 95.6915 206.3 96.3048 206.7C96.9182 207.1 97.5982 207.3 98.3448 207.3C99.0915 207.3 99.7715 207.1 100.385 206.7C101.012 206.287 101.505 205.74 101.865 205.06C102.238 204.367 102.425 203.613 102.425 202.8C102.425 201.987 102.238 201.24 101.865 200.56C101.505 199.88 101.012 199.34 100.385 198.94C99.7715 198.527 99.0982 198.32 98.3648 198.32C97.6182 198.32 96.9382 198.527 96.3248 198.94C95.7115 199.353 95.2182 199.9 94.8448 200.58C94.4715 201.26 94.2848 202.02 94.2848 202.86ZM104.601 205C104.601 204.373 104.787 203.833 105.161 203.38C105.534 202.913 106.047 202.553 106.701 202.3C107.354 202.033 108.107 201.9 108.961 201.9C109.494 201.9 110.047 201.947 110.621 202.04C111.194 202.133 111.707 202.26 112.161 202.42V201.44C112.161 200.48 111.881 199.713 111.321 199.14C110.774 198.567 110.014 198.28 109.041 198.28C108.521 198.28 107.981 198.387 107.421 198.6C106.861 198.813 106.287 199.12 105.701 199.52L105.281 198.8C105.961 198.347 106.614 198.007 107.241 197.78C107.881 197.54 108.514 197.42 109.141 197.42C110.381 197.42 111.361 197.787 112.081 198.52C112.801 199.253 113.161 200.253 113.161 201.52V206.68C113.161 206.84 113.194 206.96 113.261 207.04C113.341 207.12 113.454 207.167 113.601 207.18V208C113.481 208.013 113.381 208.02 113.301 208.02C113.221 208.02 113.154 208.02 113.101 208.02C112.847 207.98 112.647 207.873 112.501 207.7C112.367 207.527 112.294 207.333 112.281 207.12V206.3C111.801 206.9 111.181 207.367 110.421 207.7C109.674 208.033 108.887 208.2 108.061 208.2C107.407 208.2 106.814 208.06 106.281 207.78C105.761 207.5 105.347 207.12 105.041 206.64C104.747 206.147 104.601 205.6 104.601 205ZM111.761 205.86C111.894 205.687 111.994 205.52 112.061 205.36C112.127 205.2 112.161 205.053 112.161 204.92V203.2C111.681 203.013 111.181 202.873 110.661 202.78C110.141 202.687 109.607 202.64 109.061 202.64C108.021 202.64 107.174 202.847 106.521 203.26C105.881 203.673 105.561 204.233 105.561 204.94C105.561 205.38 105.674 205.787 105.901 206.16C106.127 206.533 106.441 206.833 106.841 207.06C107.254 207.287 107.727 207.4 108.261 207.4C109.007 207.4 109.694 207.26 110.321 206.98C110.961 206.687 111.441 206.313 111.761 205.86ZM120.743 198.5C119.81 198.527 118.99 198.807 118.283 199.34C117.59 199.86 117.103 200.58 116.823 201.5V208H115.823V197.6H116.783V200.16C117.143 199.427 117.623 198.833 118.223 198.38C118.823 197.913 119.456 197.647 120.123 197.58C120.256 197.567 120.376 197.56 120.483 197.56C120.59 197.56 120.676 197.56 120.743 197.56V198.5ZM121.168 202.82C121.168 201.847 121.375 200.953 121.788 200.14C122.202 199.327 122.768 198.673 123.488 198.18C124.208 197.673 125.028 197.42 125.948 197.42C126.855 197.42 127.655 197.66 128.348 198.14C129.055 198.62 129.608 199.193 130.008 199.86V193.4H131.008V206.68C131.008 206.84 131.042 206.96 131.108 207.04C131.188 207.12 131.295 207.167 131.428 207.18V208C131.215 208.027 131.055 208.033 130.948 208.02C130.708 207.98 130.508 207.867 130.348 207.68C130.188 207.493 130.108 207.293 130.108 207.08V205.92C129.682 206.613 129.108 207.167 128.388 207.58C127.668 207.993 126.928 208.2 126.168 208.2C125.448 208.2 124.782 208.053 124.168 207.76C123.555 207.453 123.022 207.047 122.568 206.54C122.128 206.033 121.782 205.46 121.528 204.82C121.288 204.18 121.168 203.513 121.168 202.82ZM130.008 204.5V201.08C129.822 200.573 129.522 200.113 129.108 199.7C128.695 199.273 128.228 198.94 127.708 198.7C127.188 198.447 126.675 198.32 126.168 198.32C125.568 198.32 125.022 198.447 124.528 198.7C124.048 198.953 123.628 199.293 123.268 199.72C122.922 200.147 122.655 200.633 122.468 201.18C122.282 201.713 122.188 202.267 122.188 202.84C122.188 203.427 122.295 203.993 122.508 204.54C122.722 205.073 123.015 205.553 123.388 205.98C123.775 206.393 124.215 206.72 124.708 206.96C125.215 207.187 125.762 207.3 126.348 207.3C126.708 207.3 127.088 207.227 127.488 207.08C127.902 206.933 128.288 206.733 128.648 206.48C129.022 206.213 129.328 205.913 129.568 205.58C129.822 205.233 129.968 204.873 130.008 204.5ZM137.093 208.2C136.266 208.2 135.5 208.06 134.793 207.78C134.086 207.5 133.466 207.073 132.933 206.5L133.393 205.8C133.966 206.347 134.546 206.747 135.133 207C135.72 207.24 136.36 207.36 137.053 207.36C137.946 207.36 138.666 207.173 139.213 206.8C139.773 206.427 140.053 205.907 140.053 205.24C140.053 204.787 139.92 204.44 139.653 204.2C139.4 203.947 139.026 203.747 138.533 203.6C138.053 203.44 137.466 203.273 136.773 203.1C136.066 202.913 135.466 202.72 134.973 202.52C134.493 202.32 134.133 202.06 133.893 201.74C133.653 201.42 133.533 200.987 133.533 200.44C133.533 199.76 133.7 199.2 134.033 198.76C134.38 198.307 134.84 197.973 135.413 197.76C136 197.533 136.646 197.42 137.353 197.42C138.166 197.42 138.873 197.553 139.473 197.82C140.086 198.087 140.553 198.44 140.873 198.88L140.333 199.52C140 199.093 139.566 198.78 139.033 198.58C138.5 198.367 137.913 198.26 137.273 198.26C136.793 198.26 136.34 198.327 135.913 198.46C135.486 198.593 135.14 198.813 134.873 199.12C134.62 199.413 134.493 199.813 134.493 200.32C134.493 200.72 134.586 201.033 134.773 201.26C134.973 201.487 135.266 201.673 135.653 201.82C136.04 201.953 136.52 202.1 137.093 202.26C137.906 202.46 138.606 202.667 139.193 202.88C139.78 203.093 140.233 203.373 140.553 203.72C140.873 204.053 141.033 204.527 141.033 205.14C141.033 206.087 140.673 206.833 139.953 207.38C139.233 207.927 138.28 208.2 137.093 208.2Z" fill="black"/>
<path d="M30.1666 148.75L14.1249 164.792L6.83325 157.5" stroke="#F27EBE" stroke-width="2" stroke-linecap="round" stroke-linejoin="round"/>
<path d="M65.12 150.16C64.8933 149.907 64.64 149.687 64.36 149.5C64.08 149.3 63.78 149.14 63.46 149.02C63.14 148.887 62.7933 148.787 62.42 148.72C62.0467 148.653 61.6467 148.62 61.22 148.62C59.8333 148.62 58.82 148.887 58.18 149.42C57.5533 149.94 57.24 150.647 57.24 151.54C57.24 152.14 57.38 152.62 57.66 152.98C57.9533 153.327 58.4067 153.607 59.02 153.82C59.6333 154.033 60.4267 154.24 61.4 154.44C62.4267 154.653 63.3133 154.907 64.06 155.2C64.8067 155.48 65.38 155.867 65.78 156.36C66.1933 156.853 66.4 157.52 66.4 158.36C66.4 158.987 66.28 159.54 66.04 160.02C65.8 160.487 65.4533 160.873 65 161.18C64.5467 161.487 64.0067 161.72 63.38 161.88C62.7667 162.04 62.08 162.12 61.32 162.12C60.5867 162.12 59.8867 162.04 59.22 161.88C58.5533 161.72 57.9267 161.487 57.34 161.18C56.7533 160.873 56.2067 160.48 55.7 160L56.24 159.18C56.5333 159.5 56.86 159.787 57.22 160.04C57.5933 160.28 57.9933 160.487 58.42 160.66C58.86 160.833 59.3267 160.973 59.82 161.08C60.3133 161.173 60.8267 161.22 61.36 161.22C62.6 161.22 63.5667 160.993 64.26 160.54C64.9667 160.073 65.32 159.387 65.32 158.48C65.32 157.853 65.16 157.347 64.84 156.96C64.52 156.573 64.0267 156.26 63.36 156.02C62.6933 155.767 61.86 155.533 60.86 155.32C59.86 155.107 59.0067 154.867 58.3 154.6C57.6067 154.333 57.08 153.973 56.72 153.52C56.3733 153.067 56.2 152.453 56.2 151.68C56.2 150.827 56.4067 150.107 56.82 149.52C57.2467 148.92 57.84 148.467 58.6 148.16C59.36 147.853 60.2333 147.7 61.22 147.7C61.8333 147.7 62.4 147.76 62.92 147.88C63.4533 148 63.94 148.187 64.38 148.44C64.8333 148.68 65.2533 148.987 65.64 149.36L65.12 150.16ZM73.3694 162.2C72.476 162.2 71.676 161.967 70.9694 161.5C70.276 161.02 69.716 160.44 69.2894 159.76V166.26H68.2894V151.6H69.2094V153.68C69.636 153.013 70.2027 152.473 70.9094 152.06C71.616 151.633 72.3627 151.42 73.1494 151.42C73.8827 151.42 74.5494 151.573 75.1494 151.88C75.7494 152.173 76.2694 152.58 76.7094 153.1C77.1627 153.607 77.5094 154.18 77.7494 154.82C78.0027 155.46 78.1294 156.127 78.1294 156.82C78.1294 157.78 77.9294 158.673 77.5294 159.5C77.1294 160.313 76.5694 160.967 75.8494 161.46C75.1427 161.953 74.316 162.2 73.3694 162.2ZM73.1294 161.3C73.7427 161.3 74.2894 161.173 74.7694 160.92C75.2627 160.667 75.6827 160.327 76.0294 159.9C76.376 159.473 76.6427 158.993 76.8294 158.46C77.016 157.927 77.1094 157.38 77.1094 156.82C77.1094 156.22 77.0027 155.653 76.7894 155.12C76.576 154.573 76.276 154.093 75.8894 153.68C75.516 153.267 75.076 152.94 74.5694 152.7C74.076 152.447 73.536 152.32 72.9494 152.32C72.5894 152.32 72.2027 152.393 71.7894 152.54C71.3894 152.687 71.0027 152.893 70.6294 153.16C70.2694 153.427 69.9694 153.733 69.7294 154.08C69.4894 154.413 69.3427 154.76 69.2894 155.12V158.54C69.5294 159.047 69.836 159.513 70.2094 159.94C70.596 160.353 71.0427 160.687 71.5494 160.94C72.056 161.18 72.5827 161.3 73.1294 161.3ZM80.1555 162V151.6H81.1555V162H80.1555ZM80.1555 149.24V147.4H81.1555V149.24H80.1555ZM83.9961 147.4H85.0161V159.94C85.0161 160.42 85.1161 160.753 85.3161 160.94C85.5161 161.113 85.7761 161.2 86.0961 161.2C86.3094 161.2 86.5294 161.18 86.7561 161.14C86.9828 161.1 87.1828 161.047 87.3561 160.98L87.5561 161.8C87.3294 161.88 87.0494 161.953 86.7161 162.02C86.3828 162.087 86.0961 162.12 85.8561 162.12C85.2961 162.12 84.8428 161.953 84.4961 161.62C84.1628 161.273 83.9961 160.813 83.9961 160.24V147.4ZM87.9919 156.82C87.9919 155.847 88.1985 154.953 88.6119 154.14C89.0252 153.327 89.5919 152.673 90.3119 152.18C91.0319 151.673 91.8519 151.42 92.7719 151.42C93.6785 151.42 94.4785 151.66 95.1719 152.14C95.8785 152.62 96.4319 153.193 96.8319 153.86V147.4H97.8319V160.68C97.8319 160.84 97.8652 160.96 97.9319 161.04C98.0119 161.12 98.1185 161.167 98.2519 161.18V162C98.0385 162.027 97.8785 162.033 97.7719 162.02C97.5319 161.98 97.3319 161.867 97.1719 161.68C97.0119 161.493 96.9319 161.293 96.9319 161.08V159.92C96.5052 160.613 95.9319 161.167 95.2119 161.58C94.4919 161.993 93.7519 162.2 92.9919 162.2C92.2719 162.2 91.6052 162.053 90.9919 161.76C90.3785 161.453 89.8452 161.047 89.3919 160.54C88.9519 160.033 88.6052 159.46 88.3519 158.82C88.1119 158.18 87.9919 157.513 87.9919 156.82ZM96.8319 158.5V155.08C96.6452 154.573 96.3452 154.113 95.9319 153.7C95.5185 153.273 95.0519 152.94 94.5319 152.7C94.0119 152.447 93.4985 152.32 92.9919 152.32C92.3919 152.32 91.8452 152.447 91.3519 152.7C90.8719 152.953 90.4519 153.293 90.0919 153.72C89.7452 154.147 89.4785 154.633 89.2919 155.18C89.1052 155.713 89.0119 156.267 89.0119 156.84C89.0119 157.427 89.1185 157.993 89.3319 158.54C89.5452 159.073 89.8385 159.553 90.2119 159.98C90.5985 160.393 91.0385 160.72 91.5319 160.96C92.0385 161.187 92.5852 161.3 93.1719 161.3C93.5319 161.3 93.9119 161.227 94.3119 161.08C94.7252 160.933 95.1119 160.733 95.4719 160.48C95.8452 160.213 96.1519 159.913 96.3919 159.58C96.6452 159.233 96.7919 158.873 96.8319 158.5ZM105.057 162.2C104.323 162.2 103.643 162.06 103.017 161.78C102.39 161.487 101.843 161.093 101.377 160.6C100.923 160.093 100.563 159.513 100.297 158.86C100.043 158.193 99.9166 157.493 99.9166 156.76C99.9166 155.773 100.137 154.88 100.577 154.08C101.017 153.28 101.623 152.64 102.397 152.16C103.17 151.667 104.037 151.42 104.997 151.42C105.983 151.42 106.857 151.667 107.617 152.16C108.377 152.653 108.977 153.307 109.417 154.12C109.87 154.92 110.097 155.8 110.097 156.76C110.097 156.84 110.097 156.92 110.097 157C110.097 157.08 110.09 157.147 110.077 157.2H100.957C101.01 157.987 101.23 158.7 101.617 159.34C102.003 159.98 102.497 160.487 103.097 160.86C103.71 161.22 104.377 161.4 105.097 161.4C105.817 161.4 106.497 161.213 107.137 160.84C107.777 160.467 108.223 159.987 108.477 159.4L109.357 159.64C109.157 160.133 108.837 160.573 108.397 160.96C107.97 161.347 107.463 161.653 106.877 161.88C106.303 162.093 105.697 162.2 105.057 162.2ZM100.917 156.42H109.137C109.083 155.607 108.87 154.887 108.497 154.26C108.123 153.633 107.63 153.14 107.017 152.78C106.417 152.42 105.75 152.24 105.017 152.24C104.283 152.24 103.617 152.42 103.017 152.78C102.417 153.14 101.93 153.633 101.557 154.26C101.183 154.887 100.97 155.607 100.917 156.42ZM115.197 162.2C114.37 162.2 113.603 162.06 112.897 161.78C112.19 161.5 111.57 161.073 111.037 160.5L111.497 159.8C112.07 160.347 112.65 160.747 113.237 161C113.823 161.24 114.463 161.36 115.157 161.36C116.05 161.36 116.77 161.173 117.317 160.8C117.877 160.427 118.157 159.907 118.157 159.24C118.157 158.787 118.023 158.44 117.757 158.2C117.503 157.947 117.13 157.747 116.637 157.6C116.157 157.44 115.57 157.273 114.877 157.1C114.17 156.913 113.57 156.72 113.077 156.52C112.597 156.32 112.237 156.06 111.997 155.74C111.757 155.42 111.637 154.987 111.637 154.44C111.637 153.76 111.803 153.2 112.137 152.76C112.483 152.307 112.943 151.973 113.517 151.76C114.103 151.533 114.75 151.42 115.457 151.42C116.27 151.42 116.977 151.553 117.577 151.82C118.19 152.087 118.657 152.44 118.977 152.88L118.437 153.52C118.103 153.093 117.67 152.78 117.137 152.58C116.603 152.367 116.017 152.26 115.377 152.26C114.897 152.26 114.443 152.327 114.017 152.46C113.59 152.593 113.243 152.813 112.977 153.12C112.723 153.413 112.597 153.813 112.597 154.32C112.597 154.72 112.69 155.033 112.877 155.26C113.077 155.487 113.37 155.673 113.757 155.82C114.143 155.953 114.623 156.1 115.197 156.26C116.01 156.46 116.71 156.667 117.297 156.88C117.883 157.093 118.337 157.373 118.657 157.72C118.977 158.053 119.137 158.527 119.137 159.14C119.137 160.087 118.777 160.833 118.057 161.38C117.337 161.927 116.383 162.2 115.197 162.2ZM121.107 162V151.6H122.107V162H121.107ZM121.107 149.24V147.4H122.107V149.24H121.107ZM129.068 162.16C128.361 162.16 127.701 162.013 127.088 161.72C126.488 161.427 125.968 161.027 125.528 160.52C125.101 160 124.761 159.427 124.508 158.8C124.268 158.16 124.148 157.5 124.148 156.82C124.148 156.113 124.261 155.433 124.488 154.78C124.728 154.127 125.061 153.553 125.488 153.06C125.928 152.553 126.441 152.153 127.028 151.86C127.614 151.567 128.268 151.42 128.988 151.42C129.894 151.42 130.681 151.66 131.348 152.14C132.028 152.607 132.601 153.18 133.068 153.86V151.6H133.988V162.2C133.988 163.133 133.761 163.92 133.308 164.56C132.854 165.2 132.254 165.673 131.508 165.98C130.761 166.3 129.954 166.46 129.088 166.46C127.874 166.46 126.908 166.24 126.188 165.8C125.481 165.36 124.908 164.78 124.468 164.06L125.148 163.6C125.561 164.293 126.121 164.807 126.828 165.14C127.534 165.473 128.288 165.64 129.088 165.64C129.794 165.64 130.441 165.507 131.028 165.24C131.628 164.987 132.101 164.6 132.448 164.08C132.808 163.573 132.988 162.947 132.988 162.2V159.92C132.574 160.6 132.008 161.147 131.288 161.56C130.581 161.96 129.841 162.16 129.068 162.16ZM129.308 161.3C129.748 161.3 130.174 161.22 130.588 161.06C131.001 160.9 131.381 160.687 131.728 160.42C132.074 160.14 132.361 159.833 132.588 159.5C132.814 159.167 132.948 158.833 132.988 158.5V155.08C132.788 154.547 132.481 154.073 132.068 153.66C131.668 153.233 131.214 152.907 130.708 152.68C130.201 152.44 129.681 152.32 129.148 152.32C128.521 152.32 127.961 152.453 127.468 152.72C126.974 152.987 126.554 153.34 126.208 153.78C125.874 154.207 125.614 154.693 125.428 155.24C125.254 155.773 125.168 156.307 125.168 156.84C125.168 157.44 125.274 158.007 125.488 158.54C125.701 159.073 125.994 159.553 126.368 159.98C126.754 160.393 127.194 160.72 127.688 160.96C128.194 161.187 128.734 161.3 129.308 161.3ZM145.234 162H144.234V156.2C144.234 154.867 144.04 153.893 143.654 153.28C143.28 152.653 142.68 152.34 141.854 152.34C141.267 152.34 140.687 152.48 140.114 152.76C139.554 153.04 139.06 153.427 138.634 153.92C138.22 154.4 137.92 154.947 137.734 155.56V162H136.734V151.6H137.674V154.08C137.954 153.547 138.327 153.087 138.794 152.7C139.26 152.3 139.78 151.987 140.354 151.76C140.927 151.533 141.52 151.42 142.134 151.42C142.707 151.42 143.187 151.527 143.574 151.74C143.974 151.94 144.294 152.233 144.534 152.62C144.787 153.007 144.967 153.487 145.074 154.06C145.18 154.633 145.234 155.287 145.234 156.02V162ZM157.054 162.2C156.321 162.2 155.641 162.06 155.014 161.78C154.387 161.487 153.841 161.093 153.374 160.6C152.921 160.093 152.561 159.513 152.294 158.86C152.041 158.193 151.914 157.493 151.914 156.76C151.914 155.773 152.134 154.88 152.574 154.08C153.014 153.28 153.621 152.64 154.394 152.16C155.167 151.667 156.034 151.42 156.994 151.42C157.981 151.42 158.854 151.667 159.614 152.16C160.374 152.653 160.974 153.307 161.414 154.12C161.867 154.92 162.094 155.8 162.094 156.76C162.094 156.84 162.094 156.92 162.094 157C162.094 157.08 162.087 157.147 162.074 157.2H152.954C153.007 157.987 153.227 158.7 153.614 159.34C154.001 159.98 154.494 160.487 155.094 160.86C155.707 161.22 156.374 161.4 157.094 161.4C157.814 161.4 158.494 161.213 159.134 160.84C159.774 160.467 160.221 159.987 160.474 159.4L161.354 159.64C161.154 160.133 160.834 160.573 160.394 160.96C159.967 161.347 159.461 161.653 158.874 161.88C158.301 162.093 157.694 162.2 157.054 162.2ZM152.914 156.42H161.134C161.081 155.607 160.867 154.887 160.494 154.26C160.121 153.633 159.627 153.14 159.014 152.78C158.414 152.42 157.747 152.24 157.014 152.24C156.281 152.24 155.614 152.42 155.014 152.78C154.414 153.14 153.927 153.633 153.554 154.26C153.181 154.887 152.967 155.607 152.914 156.42ZM164.276 162V152.42H162.816V151.6H164.276V151.26C164.276 150.42 164.396 149.693 164.636 149.08C164.876 148.467 165.216 148 165.656 147.68C166.096 147.36 166.616 147.2 167.216 147.2C167.616 147.2 168.003 147.26 168.376 147.38C168.75 147.5 169.056 147.66 169.296 147.86L168.936 148.58C168.763 148.42 168.536 148.3 168.256 148.22C167.976 148.127 167.69 148.08 167.396 148.08C166.716 148.08 166.19 148.353 165.816 148.9C165.456 149.433 165.276 150.213 165.276 151.24V151.6H168.236V152.42H165.276V162H164.276ZM174.444 161.5C174.377 161.527 174.244 161.593 174.044 161.7C173.844 161.807 173.59 161.907 173.284 162C172.977 162.08 172.637 162.12 172.264 162.12C171.904 162.12 171.564 162.053 171.244 161.92C170.937 161.773 170.69 161.56 170.504 161.28C170.317 161 170.224 160.66 170.224 160.26V152.42H168.764V151.6H170.224V148.04H171.224V151.6H173.644V152.42H171.224V160.02C171.25 160.407 171.39 160.7 171.644 160.9C171.897 161.087 172.19 161.18 172.524 161.18C172.937 161.18 173.297 161.113 173.604 160.98C173.91 160.833 174.09 160.74 174.144 160.7L174.444 161.5ZM180.055 162.2C179.321 162.2 178.641 162.06 178.015 161.78C177.388 161.487 176.841 161.093 176.375 160.6C175.921 160.093 175.561 159.513 175.295 158.86C175.041 158.193 174.915 157.493 174.915 156.76C174.915 155.773 175.135 154.88 175.575 154.08C176.015 153.28 176.621 152.64 177.395 152.16C178.168 151.667 179.035 151.42 179.995 151.42C180.981 151.42 181.855 151.667 182.615 152.16C183.375 152.653 183.975 153.307 184.415 154.12C184.868 154.92 185.095 155.8 185.095 156.76C185.095 156.84 185.095 156.92 185.095 157C185.095 157.08 185.088 157.147 185.075 157.2H175.955C176.008 157.987 176.228 158.7 176.615 159.34C177.001 159.98 177.495 160.487 178.095 160.86C178.708 161.22 179.375 161.4 180.095 161.4C180.815 161.4 181.495 161.213 182.135 160.84C182.775 160.467 183.221 159.987 183.475 159.4L184.355 159.64C184.155 160.133 183.835 160.573 183.395 160.96C182.968 161.347 182.461 161.653 181.875 161.88C181.301 162.093 180.695 162.2 180.055 162.2ZM175.915 156.42H184.135C184.081 155.607 183.868 154.887 183.495 154.26C183.121 153.633 182.628 153.14 182.015 152.78C181.415 152.42 180.748 152.24 180.015 152.24C179.281 152.24 178.615 152.42 178.015 152.78C177.415 153.14 176.928 153.633 176.555 154.26C176.181 154.887 175.968 155.607 175.915 156.42ZM191.835 152.5C190.901 152.527 190.081 152.807 189.375 153.34C188.681 153.86 188.195 154.58 187.915 155.5V162H186.915V151.6H187.875V154.16C188.235 153.427 188.715 152.833 189.315 152.38C189.915 151.913 190.548 151.647 191.215 151.58C191.348 151.567 191.468 151.56 191.575 151.56C191.681 151.56 191.768 151.56 191.835 151.56V152.5ZM202.04 162.2C201.306 162.2 200.626 162.06 200 161.78C199.373 161.487 198.826 161.093 198.36 160.6C197.906 160.093 197.546 159.513 197.28 158.86C197.026 158.193 196.9 157.493 196.9 156.76C196.9 155.773 197.12 154.88 197.56 154.08C198 153.28 198.606 152.64 199.38 152.16C200.153 151.667 201.02 151.42 201.98 151.42C202.966 151.42 203.84 151.667 204.6 152.16C205.36 152.653 205.96 153.307 206.4 154.12C206.853 154.92 207.08 155.8 207.08 156.76C207.08 156.84 207.08 156.92 207.08 157C207.08 157.08 207.073 157.147 207.06 157.2H197.94C197.993 157.987 198.213 158.7 198.6 159.34C198.986 159.98 199.48 160.487 200.08 160.86C200.693 161.22 201.36 161.4 202.08 161.4C202.8 161.4 203.48 161.213 204.12 160.84C204.76 160.467 205.206 159.987 205.46 159.4L206.34 159.64C206.14 160.133 205.82 160.573 205.38 160.96C204.953 161.347 204.446 161.653 203.86 161.88C203.286 162.093 202.68 162.2 202.04 162.2ZM197.9 156.42H206.12C206.066 155.607 205.853 154.887 205.48 154.26C205.106 153.633 204.613 153.14 204 152.78C203.4 152.42 202.733 152.24 202 152.24C201.266 152.24 200.6 152.42 200 152.78C199.4 153.14 198.913 153.633 198.54 154.26C198.166 154.887 197.953 155.607 197.9 156.42ZM217.4 162H216.4V156.2C216.4 154.867 216.206 153.893 215.82 153.28C215.446 152.653 214.846 152.34 214.02 152.34C213.433 152.34 212.853 152.48 212.28 152.76C211.72 153.04 211.226 153.427 210.8 153.92C210.386 154.4 210.086 154.947 209.9 155.56V162H208.9V151.6H209.84V154.08C210.12 153.547 210.493 153.087 210.96 152.7C211.426 152.3 211.946 151.987 212.52 151.76C213.093 151.533 213.686 151.42 214.3 151.42C214.873 151.42 215.353 151.527 215.74 151.74C216.14 151.94 216.46 152.233 216.7 152.62C216.953 153.007 217.133 153.487 217.24 154.06C217.346 154.633 217.4 155.287 217.4 156.02V162ZM228.08 162.2C227.253 162.2 226.487 162.06 225.78 161.78C225.073 161.5 224.453 161.073 223.92 160.5L224.38 159.8C224.953 160.347 225.533 160.747 226.12 161C226.707 161.24 227.347 161.36 228.04 161.36C228.933 161.36 229.653 161.173 230.2 160.8C230.76 160.427 231.04 159.907 231.04 159.24C231.04 158.787 230.907 158.44 230.64 158.2C230.387 157.947 230.013 157.747 229.52 157.6C229.04 157.44 228.453 157.273 227.76 157.1C227.053 156.913 226.453 156.72 225.96 156.52C225.48 156.32 225.12 156.06 224.88 155.74C224.64 155.42 224.52 154.987 224.52 154.44C224.52 153.76 224.687 153.2 225.02 152.76C225.367 152.307 225.827 151.973 226.4 151.76C226.987 151.533 227.633 151.42 228.34 151.42C229.153 151.42 229.86 151.553 230.46 151.82C231.073 152.087 231.54 152.44 231.86 152.88L231.32 153.52C230.987 153.093 230.553 152.78 230.02 152.58C229.487 152.367 228.9 152.26 228.26 152.26C227.78 152.26 227.327 152.327 226.9 152.46C226.473 152.593 226.127 152.813 225.86 153.12C225.607 153.413 225.48 153.813 225.48 154.32C225.48 154.72 225.573 155.033 225.76 155.26C225.96 155.487 226.253 155.673 226.64 155.82C227.027 155.953 227.507 156.1 228.08 156.26C228.893 156.46 229.593 156.667 230.18 156.88C230.767 157.093 231.22 157.373 231.54 157.72C231.86 158.053 232.02 158.527 232.02 159.14C232.02 160.087 231.66 160.833 230.94 161.38C230.22 161.927 229.267 162.2 228.08 162.2ZM238.63 161.5C238.563 161.527 238.43 161.593 238.23 161.7C238.03 161.807 237.777 161.907 237.47 162C237.163 162.08 236.823 162.12 236.45 162.12C236.09 162.12 235.75 162.053 235.43 161.92C235.123 161.773 234.877 161.56 234.69 161.28C234.503 161 234.41 160.66 234.41 160.26V152.42H232.95V151.6H234.41V148.04H235.41V151.6H237.83V152.42H235.41V160.02C235.437 160.407 235.577 160.7 235.83 160.9C236.083 161.087 236.377 161.18 236.71 161.18C237.123 161.18 237.483 161.113 237.79 160.98C238.097 160.833 238.277 160.74 238.33 160.7L238.63 161.5ZM240.016 162V151.6H241.016V162H240.016ZM240.016 149.24V147.4H241.016V149.24H240.016ZM243.857 147.4H244.877V159.94C244.877 160.42 244.977 160.753 245.177 160.94C245.377 161.113 245.637 161.2 245.957 161.2C246.17 161.2 246.39 161.18 246.617 161.14C246.844 161.1 247.044 161.047 247.217 160.98L247.417 161.8C247.19 161.88 246.91 161.953 246.577 162.02C246.244 162.087 245.957 162.12 245.717 162.12C245.157 162.12 244.704 161.953 244.357 161.62C244.024 161.273 243.857 160.813 243.857 160.24V147.4Z" fill="black"/>
<path d="M30.1666 240.75L14.1249 256.792L6.83325 249.5" stroke="#F27EBE" stroke-width="2" stroke-linecap="round" stroke-linejoin="round"/>
<path d="M62.58 254.1C61.4467 254.1 60.5 253.9 59.74 253.5C58.98 253.1 58.3733 252.56 57.92 251.88C57.4667 251.187 57.14 250.413 56.94 249.56C56.74 248.707 56.64 247.833 56.64 246.94V239.8H57.66V246.94C57.66 247.713 57.74 248.473 57.9 249.22C58.06 249.967 58.32 250.64 58.68 251.24C59.0533 251.827 59.5533 252.293 60.18 252.64C60.82 252.987 61.6133 253.16 62.56 253.16C63.52 253.16 64.3133 252.98 64.94 252.62C65.58 252.26 66.08 251.787 66.44 251.2C66.8133 250.6 67.0733 249.933 67.22 249.2C67.38 248.453 67.46 247.7 67.46 246.94V239.8H68.48V246.94C68.48 247.887 68.3733 248.793 68.16 249.66C67.96 250.513 67.6267 251.273 67.16 251.94C66.6933 252.607 66.0867 253.133 65.34 253.52C64.5933 253.907 63.6733 254.1 62.58 254.1ZM71.5972 254V239.8H72.6172V254H71.5972ZM75.4433 249.02V248.1H81.2033V249.02H75.4433ZM88.1408 254.2C87.4074 254.2 86.7274 254.06 86.1008 253.78C85.4741 253.487 84.9274 253.093 84.4608 252.6C84.0074 252.093 83.6474 251.513 83.3808 250.86C83.1274 250.193 83.0008 249.493 83.0008 248.76C83.0008 247.773 83.2208 246.88 83.6608 246.08C84.1008 245.28 84.7074 244.64 85.4808 244.16C86.2541 243.667 87.1208 243.42 88.0808 243.42C89.0674 243.42 89.9408 243.667 90.7008 244.16C91.4608 244.653 92.0608 245.307 92.5008 246.12C92.9541 246.92 93.1808 247.8 93.1808 248.76C93.1808 248.84 93.1808 248.92 93.1808 249C93.1808 249.08 93.1741 249.147 93.1608 249.2H84.0408C84.0941 249.987 84.3141 250.7 84.7008 251.34C85.0874 251.98 85.5808 252.487 86.1808 252.86C86.7941 253.22 87.4608 253.4 88.1808 253.4C88.9008 253.4 89.5808 253.213 90.2208 252.84C90.8608 252.467 91.3074 251.987 91.5608 251.4L92.4408 251.64C92.2408 252.133 91.9208 252.573 91.4808 252.96C91.0541 253.347 90.5474 253.653 89.9608 253.88C89.3874 254.093 88.7808 254.2 88.1408 254.2ZM84.0008 248.42H92.2208C92.1674 247.607 91.9541 246.887 91.5808 246.26C91.2074 245.633 90.7141 245.14 90.1008 244.78C89.5008 244.42 88.8341 244.24 88.1008 244.24C87.3674 244.24 86.7008 244.42 86.1008 244.78C85.5008 245.14 85.0141 245.633 84.6408 246.26C84.2674 246.887 84.0541 247.607 84.0008 248.42ZM95.0809 239.4H96.1009V251.94C96.1009 252.42 96.2009 252.753 96.4009 252.94C96.6009 253.113 96.8609 253.2 97.1809 253.2C97.3943 253.2 97.6143 253.18 97.8409 253.14C98.0676 253.1 98.2676 253.047 98.4409 252.98L98.6409 253.8C98.4143 253.88 98.1343 253.953 97.8009 254.02C97.4676 254.087 97.1809 254.12 96.9409 254.12C96.3809 254.12 95.9276 253.953 95.5809 253.62C95.2476 253.273 95.0809 252.813 95.0809 252.24V239.4ZM104.217 254.2C103.483 254.2 102.803 254.06 102.177 253.78C101.55 253.487 101.003 253.093 100.537 252.6C100.083 252.093 99.7234 251.513 99.4567 250.86C99.2034 250.193 99.0767 249.493 99.0767 248.76C99.0767 247.773 99.2967 246.88 99.7367 246.08C100.177 245.28 100.783 244.64 101.557 244.16C102.33 243.667 103.197 243.42 104.157 243.42C105.143 243.42 106.017 243.667 106.777 244.16C107.537 244.653 108.137 245.307 108.577 246.12C109.03 246.92 109.257 247.8 109.257 248.76C109.257 248.84 109.257 248.92 109.257 249C109.257 249.08 109.25 249.147 109.237 249.2H100.117C100.17 249.987 100.39 250.7 100.777 251.34C101.163 251.98 101.657 252.487 102.257 252.86C102.87 253.22 103.537 253.4 104.257 253.4C104.977 253.4 105.657 253.213 106.297 252.84C106.937 252.467 107.383 251.987 107.637 251.4L108.517 251.64C108.317 252.133 107.997 252.573 107.557 252.96C107.13 253.347 106.623 253.653 106.037 253.88C105.463 254.093 104.857 254.2 104.217 254.2ZM100.077 248.42H108.297C108.243 247.607 108.03 246.887 107.657 246.26C107.283 245.633 106.79 245.14 106.177 244.78C105.577 244.42 104.91 244.24 104.177 244.24C103.443 244.24 102.777 244.42 102.177 244.78C101.577 245.14 101.09 245.633 100.717 246.26C100.343 246.887 100.13 247.607 100.077 248.42ZM126.357 254H125.357V248.2C125.357 246.88 125.15 245.907 124.737 245.28C124.337 244.653 123.717 244.34 122.877 244.34C122.024 244.34 121.264 244.647 120.597 245.26C119.944 245.86 119.484 246.633 119.217 247.58V254H118.217V248.2C118.217 246.867 118.017 245.893 117.617 245.28C117.217 244.653 116.597 244.34 115.757 244.34C114.904 244.34 114.144 244.64 113.477 245.24C112.824 245.827 112.357 246.6 112.077 247.56V254H111.077V243.6H112.017V246.08C112.457 245.227 113.024 244.573 113.717 244.12C114.41 243.653 115.17 243.42 115.997 243.42C116.864 243.42 117.57 243.68 118.117 244.2C118.677 244.707 119.01 245.387 119.117 246.24C119.61 245.307 120.197 244.607 120.877 244.14C121.557 243.66 122.33 243.42 123.197 243.42C123.77 243.42 124.25 243.527 124.637 243.74C125.037 243.94 125.364 244.24 125.617 244.64C125.884 245.027 126.07 245.507 126.177 246.08C126.297 246.653 126.357 247.3 126.357 248.02V254ZM133.418 254.2C132.684 254.2 132.004 254.06 131.378 253.78C130.751 253.487 130.204 253.093 129.738 252.6C129.284 252.093 128.924 251.513 128.658 250.86C128.404 250.193 128.278 249.493 128.278 248.76C128.278 247.773 128.498 246.88 128.938 246.08C129.378 245.28 129.984 244.64 130.758 244.16C131.531 243.667 132.398 243.42 133.358 243.42C134.344 243.42 135.218 243.667 135.978 244.16C136.738 244.653 137.338 245.307 137.778 246.12C138.231 246.92 138.458 247.8 138.458 248.76C138.458 248.84 138.458 248.92 138.458 249C138.458 249.08 138.451 249.147 138.438 249.2H129.318C129.371 249.987 129.591 250.7 129.978 251.34C130.364 251.98 130.858 252.487 131.458 252.86C132.071 253.22 132.738 253.4 133.458 253.4C134.178 253.4 134.858 253.213 135.498 252.84C136.138 252.467 136.584 251.987 136.838 251.4L137.718 251.64C137.518 252.133 137.198 252.573 136.758 252.96C136.331 253.347 135.824 253.653 135.238 253.88C134.664 254.093 134.058 254.2 133.418 254.2ZM129.278 248.42H137.498C137.444 247.607 137.231 246.887 136.858 246.26C136.484 245.633 135.991 245.14 135.378 244.78C134.778 244.42 134.111 244.24 133.378 244.24C132.644 244.24 131.978 244.42 131.378 244.78C130.778 245.14 130.291 245.633 129.918 246.26C129.544 246.887 129.331 247.607 129.278 248.42ZM148.778 254H147.778V248.2C147.778 246.867 147.584 245.893 147.198 245.28C146.824 244.653 146.224 244.34 145.398 244.34C144.811 244.34 144.231 244.48 143.658 244.76C143.098 245.04 142.604 245.427 142.178 245.92C141.764 246.4 141.464 246.947 141.278 247.56V254H140.278V243.6H141.218V246.08C141.498 245.547 141.871 245.087 142.338 244.7C142.804 244.3 143.324 243.987 143.898 243.76C144.471 243.533 145.064 243.42 145.678 243.42C146.251 243.42 146.731 243.527 147.118 243.74C147.518 243.94 147.838 244.233 148.078 244.62C148.331 245.007 148.511 245.487 148.618 246.06C148.724 246.633 148.778 247.287 148.778 248.02V254ZM155.964 253.5C155.897 253.527 155.764 253.593 155.564 253.7C155.364 253.807 155.11 253.907 154.804 254C154.497 254.08 154.157 254.12 153.784 254.12C153.424 254.12 153.084 254.053 152.764 253.92C152.457 253.773 152.21 253.56 152.024 253.28C151.837 253 151.744 252.66 151.744 252.26V244.42H150.284V243.6H151.744V240.04H152.744V243.6H155.164V244.42H152.744V252.02C152.77 252.407 152.91 252.7 153.164 252.9C153.417 253.087 153.71 253.18 154.044 253.18C154.457 253.18 154.817 253.113 155.124 252.98C155.43 252.833 155.61 252.74 155.664 252.7L155.964 253.5ZM161.575 254.2C160.841 254.2 160.161 254.06 159.535 253.78C158.908 253.487 158.361 253.093 157.895 252.6C157.441 252.093 157.081 251.513 156.815 250.86C156.561 250.193 156.435 249.493 156.435 248.76C156.435 247.773 156.655 246.88 157.095 246.08C157.535 245.28 158.141 244.64 158.915 244.16C159.688 243.667 160.555 243.42 161.515 243.42C162.501 243.42 163.375 243.667 164.135 244.16C164.895 244.653 165.495 245.307 165.935 246.12C166.388 246.92 166.615 247.8 166.615 248.76C166.615 248.84 166.615 248.92 166.615 249C166.615 249.08 166.608 249.147 166.595 249.2H157.475C157.528 249.987 157.748 250.7 158.135 251.34C158.521 251.98 159.015 252.487 159.615 252.86C160.228 253.22 160.895 253.4 161.615 253.4C162.335 253.4 163.015 253.213 163.655 252.84C164.295 252.467 164.741 251.987 164.995 251.4L165.875 251.64C165.675 252.133 165.355 252.573 164.915 252.96C164.488 253.347 163.981 253.653 163.395 253.88C162.821 254.093 162.215 254.2 161.575 254.2ZM157.435 248.42H165.655C165.601 247.607 165.388 246.887 165.015 246.26C164.641 245.633 164.148 245.14 163.535 244.78C162.935 244.42 162.268 244.24 161.535 244.24C160.801 244.24 160.135 244.42 159.535 244.78C158.935 245.14 158.448 245.633 158.075 246.26C157.701 246.887 157.488 247.607 157.435 248.42ZM173.355 244.5C172.421 244.527 171.601 244.807 170.895 245.34C170.201 245.86 169.715 246.58 169.435 247.5V254H168.435V243.6H169.395V246.16C169.755 245.427 170.235 244.833 170.835 244.38C171.435 243.913 172.068 243.647 172.735 243.58C172.868 243.567 172.988 243.56 173.095 243.56C173.201 243.56 173.288 243.56 173.355 243.56V244.5Z" fill="black"/>
</svg>
