<svg width="200" height="200" viewBox="0 0 200 200" fill="none" xmlns="http://www.w3.org/2000/svg">
<rect width="200" height="200" fill="#F8F495"/>
<path d="M142.5 75H148.75C155.38 75 161.739 77.6339 166.428 82.3223C171.116 87.0107 173.75 93.3696 173.75 100C173.75 106.63 171.116 112.989 166.428 117.678C161.739 122.366 155.38 125 148.75 125H142.5" stroke="#B74636" stroke-width="3" stroke-linecap="round" stroke-linejoin="round"/>
<path d="M42.5 75H142.5V131.25C142.5 137.88 139.866 144.239 135.178 148.928C130.489 153.616 124.13 156.25 117.5 156.25H67.5C60.8696 156.25 54.5107 153.616 49.8223 148.928C45.1339 144.239 42.5 137.88 42.5 131.25V75Z" stroke="#B74636" stroke-width="3" stroke-linecap="round" stroke-linejoin="round"/>
<path d="M67.5 31.25V50" stroke="#B74636" stroke-width="3" stroke-linecap="round" stroke-linejoin="round"/>
<path d="M92.5 31.25V50" stroke="#B74636" stroke-width="3" stroke-linecap="round" stroke-linejoin="round"/>
<path d="M117.5 31.25V50" stroke="#B74636" stroke-width="3" stroke-linecap="round" stroke-linejoin="round"/>
</svg>
