<svg width="200" height="200" viewBox="0 0 200 200" fill="none" xmlns="http://www.w3.org/2000/svg">
<rect width="200" height="200" fill="#F8F495"/>
<path d="M126.799 87.6286L112.5 133.383H84.755L70.4569 87.6286C66.3797 74.5816 68.9692 60.3646 77.3844 49.5931L95.3482 26.5996C97.0143 24.4668 100.241 24.4668 101.907 26.5996L119.871 49.5931C128.286 60.3646 130.875 74.5816 126.799 87.6286Z" stroke="#B74636" stroke-width="3" stroke-linecap="round" stroke-linejoin="round"/>
<path d="M84.7546 154.191C84.7546 168.064 98.6272 175 98.6272 175C98.6272 175 112.5 168.064 112.5 154.191" stroke="#B74636" stroke-width="3" stroke-linecap="round" stroke-linejoin="round"/>
<path d="M74.3504 102.169C50.0734 119.51 63.946 147.255 63.946 147.255L84.7549 133.382" stroke="#B74636" stroke-width="3" stroke-linecap="round" stroke-linejoin="round"/>
<path d="M125.896 102.169C150.173 119.51 136.3 147.255 136.3 147.255L115.491 133.382" stroke="#B74636" stroke-width="3" stroke-linecap="round" stroke-linejoin="round"/>
<path d="M98.6272 91.7644C90.9654 91.7644 84.7546 85.5536 84.7546 77.8918C84.7546 70.2302 90.9654 64.0192 98.6272 64.0192C106.289 64.0192 112.5 70.2302 112.5 77.8918C112.5 85.5536 106.289 91.7644 98.6272 91.7644Z" stroke="#B74636" stroke-width="3" stroke-linecap="round" stroke-linejoin="round"/>
</svg>
